<?xml version="1.0" encoding="UTF-8"?>
<!DOCTYPE svg PUBLIC "-//W3C//DTD SVG 1.1//EN" "http://www.w3.org/Graphics/SVG/1.1/DTD/svg11.dtd">
<svg xmlns="http://www.w3.org/2000/svg" version="1.1" width="115px" height="220px" style="shape-rendering:geometricPrecision; text-rendering:geometricPrecision; image-rendering:optimizeQuality; fill-rule:evenodd; clip-rule:evenodd" xmlns:xlink="http://www.w3.org/1999/xlink">
<g><path style="opacity:1" fill="#000000" d="M -0.5,-0.5 C 37.8333,-0.5 76.1667,-0.5 114.5,-0.5C 114.5,72.8333 114.5,146.167 114.5,219.5C 76.1667,219.5 37.8333,219.5 -0.5,219.5C -0.5,146.167 -0.5,72.8333 -0.5,-0.5 Z"/></g>
<g><path style="opacity:1" fill="#fefefe" d="M 1.5,1.5 C 38.5,1.5 75.5,1.5 112.5,1.5C 112.5,73.5 112.5,145.5 112.5,217.5C 75.5,217.5 38.5,217.5 1.5,217.5C 1.5,145.5 1.5,73.5 1.5,1.5 Z"/></g>
<g><path style="opacity:1" fill="#090909" d="M 29.5,19.5 C 35.1052,18.9081 40.4386,19.7415 45.5,22C 49.858,26.4941 50.6914,31.6608 48,37.5C 43.9589,44.4167 39.7922,51.25 35.5,58C 41.1569,58.4994 46.8236,58.6661 52.5,58.5C 52.5,60.8333 52.5,63.1667 52.5,65.5C 42.5,65.5 32.5,65.5 22.5,65.5C 22.4914,63.6916 22.9914,62.0249 24,60.5C 29.8295,52.844 35.1628,44.844 40,36.5C 42.8333,27.3333 39.6667,24.1667 30.5,27C 29.3333,28.1667 28.1667,29.3333 27,30.5C 23.9519,29.4811 22.6186,27.4811 23,24.5C 24.8049,22.1743 26.9716,20.5077 29.5,19.5 Z"/></g>
<g><path style="opacity:1" fill="#030303" d="M 77.5,19.5 C 78.5,19.5 79.5,19.5 80.5,19.5C 80.5,34.8333 80.5,50.1667 80.5,65.5C 77.8333,65.5 75.1667,65.5 72.5,65.5C 72.832,54.8126 72.4987,44.1459 71.5,33.5C 69.1667,34.8333 66.8333,36.1667 64.5,37.5C 63.3526,35.2351 63.1859,32.9018 64,30.5C 68.9791,27.3476 73.4791,23.6809 77.5,19.5 Z"/></g>
<g><path style="opacity:1" fill="#000000" d="M 6.5,84.5 C 39.5,84.5 72.5,84.5 105.5,84.5C 105.5,85.5 105.5,86.5 105.5,87.5C 72.5,87.5 39.5,87.5 6.5,87.5C 6.5,86.5 6.5,85.5 6.5,84.5 Z"/></g>
<g><path style="opacity:1" fill="#fff5f7" d="M 89.5,142.5 C 88.0384,143.458 86.7051,144.624 85.5,146C 83.8659,146.494 82.1992,146.66 80.5,146.5C 80.3234,148.981 81.3234,150.814 83.5,152C 83.1667,152.333 82.8333,152.667 82.5,153C 78.141,153.534 73.8076,153.368 69.5,152.5C 69.2322,154.099 69.5655,155.432 70.5,156.5C 71.6602,158.203 70.9935,158.869 68.5,158.5C 63.814,159.016 61.4807,157.016 61.5,152.5C 63.7354,152.795 65.7354,152.461 67.5,151.5C 68.0967,151.265 68.4301,150.765 68.5,150C 67.5705,148.923 66.9038,147.756 66.5,146.5C 70.6815,145.1 75.0148,144.266 79.5,144C 80.3366,142.989 80.67,141.822 80.5,140.5C 77.1351,140.745 73.9684,140.078 71,138.5C 69.1739,139.01 69.0072,139.844 70.5,141C 63.3791,143.524 56.0458,144.691 48.5,144.5C 47.5,144.5 46.5,144.5 45.5,144.5C 34.937,135.326 36.6037,129.66 50.5,127.5C 51.4419,127.608 52.2753,127.941 53,128.5C 55.3334,134.191 59.6667,136.524 66,135.5C 71.491,136.506 75.3243,134.506 77.5,129.5C 81.4154,129.187 84.9154,130.52 88,133.5C 89.2886,136.351 89.7886,139.351 89.5,142.5 Z"/></g>
<g><path style="opacity:1" fill="#cc665e" d="M 90.5,146.5 C 90.7678,144.901 90.4345,143.568 89.5,142.5C 89.7886,139.351 89.2886,136.351 88,133.5C 84.9154,130.52 81.4154,129.187 77.5,129.5C 75.3243,134.506 71.491,136.506 66,135.5C 59.6667,136.524 55.3334,134.191 53,128.5C 52.2753,127.941 51.4419,127.608 50.5,127.5C 36.6037,129.66 34.937,135.326 45.5,144.5C 44.6618,144.842 44.3284,145.508 44.5,146.5C 35.7956,143.758 32.9623,138.091 36,129.5C 38.3575,126.909 41.1908,125.242 44.5,124.5C 44.3398,122.801 44.5065,121.134 45,119.5C 50.2693,114.755 56.436,113.255 63.5,115C 72.3343,119.835 81.1676,124.668 90,129.5C 94.3668,135.204 94.5335,140.871 90.5,146.5 Z"/></g>
<g><path style="opacity:1" fill="#ffe4ec" d="M 62.5,121.5 C 67.7471,120.961 71.7471,122.794 74.5,127C 72.4627,131.521 69.1294,133.021 64.5,131.5C 66.1713,129.49 66.838,127.157 66.5,124.5C 64.712,124.785 63.0453,124.452 61.5,123.5C 61.8627,122.817 62.1961,122.15 62.5,121.5 Z"/></g>
<g><path style="opacity:1" fill="#fdb6b7" d="M 58.5,126.5 C 63.3033,126.09 64.3033,127.59 61.5,131C 59.8659,131.494 58.1992,131.66 56.5,131.5C 56.3915,129.486 57.0582,127.82 58.5,126.5 Z"/></g>
<g><path style="opacity:1" fill="#ffd3d8" d="M 49.5,121.5 C 51.0481,121.821 51.7148,122.821 51.5,124.5C 47.6266,124.666 46.9599,123.666 49.5,121.5 Z"/></g>
<g><path style="opacity:1" fill="#ffc8c7" d="M 53.5,118.5 C 56.3965,118.125 59.0632,118.625 61.5,120C 58.7943,120.601 56.7943,122.101 55.5,124.5C 54.5233,122.589 53.8567,120.589 53.5,118.5 Z"/></g>
<g><path style="opacity:1" fill="#d06760" d="M 66.5,146.5 C 63.6146,146.194 60.9479,146.527 58.5,147.5C 54.7789,147.479 51.4455,146.479 48.5,144.5C 56.0458,144.691 63.3791,143.524 70.5,141C 69.0072,139.844 69.1739,139.01 71,138.5C 73.9684,140.078 77.1351,140.745 80.5,140.5C 80.67,141.822 80.3366,142.989 79.5,144C 75.0148,144.266 70.6815,145.1 66.5,146.5 Z"/></g>
<g><path style="opacity:1" fill="#fab3b0" d="M 66.5,146.5 C 66.9038,147.756 67.5705,148.923 68.5,150C 68.4301,150.765 68.0967,151.265 67.5,151.5C 67.38,150.414 66.7133,149.747 65.5,149.5C 63.5269,150.331 61.5269,150.498 59.5,150C 58.7476,149.329 58.4142,148.496 58.5,147.5C 60.9479,146.527 63.6146,146.194 66.5,146.5 Z"/></g>
<g><path style="opacity:1" fill="#df6556" d="M 45.5,144.5 C 46.5,144.5 47.5,144.5 48.5,144.5C 51.4455,146.479 54.7789,147.479 58.5,147.5C 58.4142,148.496 58.7476,149.329 59.5,150C 61.5269,150.498 63.5269,150.331 65.5,149.5C 66.7133,149.747 67.38,150.414 67.5,151.5C 65.7354,152.461 63.7354,152.795 61.5,152.5C 61.4807,157.016 63.814,159.016 68.5,158.5C 69.5676,159.434 70.901,159.768 72.5,159.5C 73.7736,160.189 73.7736,161.023 72.5,162C 68.5867,162.887 64.9201,162.387 61.5,160.5C 59.5828,160.754 58.2495,161.754 57.5,163.5C 54.8231,165.432 51.8231,165.932 48.5,165C 49.056,164.617 49.3893,164.117 49.5,163.5C 51.5901,161.61 53.9235,159.943 56.5,158.5C 57.4519,156.955 57.7852,155.288 57.5,153.5C 51.602,153.985 47.2687,151.651 44.5,146.5C 44.3284,145.508 44.6618,144.842 45.5,144.5 Z"/></g>
<g><path style="opacity:1" fill="#feb0a9" d="M 70.5,156.5 C 74.7016,156.183 78.7016,156.517 82.5,157.5C 78.6707,156.931 75.3373,157.598 72.5,159.5C 70.901,159.768 69.5676,159.434 68.5,158.5C 70.9935,158.869 71.6602,158.203 70.5,156.5 Z"/></g>
<g><path style="opacity:1" fill="#fff5f6" d="M 82.5,157.5 C 79.029,173.933 70.8624,176.933 58,166.5C 57.5172,165.552 57.3505,164.552 57.5,163.5C 58.2495,161.754 59.5828,160.754 61.5,160.5C 64.9201,162.387 68.5867,162.887 72.5,162C 73.7736,161.023 73.7736,160.189 72.5,159.5C 75.3373,157.598 78.6707,156.931 82.5,157.5 Z"/></g>
<g><path style="opacity:1" fill="#d3655a" d="M 89.5,142.5 C 90.4345,143.568 90.7678,144.901 90.5,146.5C 89.8783,147.627 89.045,148.627 88,149.5C 86.4886,170.185 75.6553,183.185 55.5,188.5C 52.1091,186.875 48.4425,185.875 44.5,185.5C 47.1873,185.664 49.854,185.497 52.5,185C 45.4404,181.761 42.4404,176.261 43.5,168.5C 38.5517,166.754 33.5517,166.421 28.5,167.5C 25.8908,168.443 23.8908,170.11 22.5,172.5C 21.9182,175.313 20.9182,177.98 19.5,180.5C 16.7087,174.34 18.3754,169.34 24.5,165.5C 32.859,164.775 41.1923,164.109 49.5,163.5C 49.3893,164.117 49.056,164.617 48.5,165C 51.8231,165.932 54.8231,165.432 57.5,163.5C 57.3505,164.552 57.5172,165.552 58,166.5C 70.8624,176.933 79.029,173.933 82.5,157.5C 78.7016,156.517 74.7016,156.183 70.5,156.5C 69.5655,155.432 69.2322,154.099 69.5,152.5C 73.8076,153.368 78.141,153.534 82.5,153C 82.8333,152.667 83.1667,152.333 83.5,152C 81.3234,150.814 80.3234,148.981 80.5,146.5C 82.1992,146.66 83.8659,146.494 85.5,146C 86.7051,144.624 88.0384,143.458 89.5,142.5 Z"/></g>
<g><path style="opacity:1" fill="#fff3f5" d="M 49.5,166.5 C 51.1992,166.34 52.8659,166.506 54.5,167C 57.6874,173.53 63.0208,176.53 70.5,176C 65.1292,181.602 58.7959,182.935 51.5,180C 47.201,175.986 46.5343,171.486 49.5,166.5 Z"/></g>
<g><path style="opacity:1" fill="#fff6f9" d="M 43.5,168.5 C 42.4404,176.261 45.4404,181.761 52.5,185C 49.854,185.497 47.1873,185.664 44.5,185.5C 42.78,184.136 40.78,183.136 38.5,182.5C 34.114,178.521 33.4473,174.021 36.5,169C 38.8098,168.503 41.1432,168.337 43.5,168.5 Z"/></g>
<g><path style="opacity:1" fill="#fff1f4" d="M 28.5,167.5 C 29.9778,167.238 31.3112,167.571 32.5,168.5C 30.2746,171.974 29.9413,175.641 31.5,179.5C 31.0338,181.201 31.0338,182.701 31.5,184C 30.9056,184.464 30.2389,184.631 29.5,184.5C 26.5722,183.409 24.4055,181.409 23,178.5C 22.5045,176.527 22.3379,174.527 22.5,172.5C 23.8908,170.11 25.8908,168.443 28.5,167.5 Z"/></g>
<g><path style="opacity:1" fill="#ce6d63" d="M 28.5,167.5 C 33.5517,166.421 38.5517,166.754 43.5,168.5C 41.1432,168.337 38.8098,168.503 36.5,169C 33.4473,174.021 34.114,178.521 38.5,182.5C 40.78,183.136 42.78,184.136 44.5,185.5C 48.4425,185.875 52.1091,186.875 55.5,188.5C 47.6442,190.437 39.6442,190.937 31.5,190C 26.0809,188.477 22.0809,185.31 19.5,180.5C 20.9182,177.98 21.9182,175.313 22.5,172.5C 22.3379,174.527 22.5045,176.527 23,178.5C 24.4055,181.409 26.5722,183.409 29.5,184.5C 32.1418,185.806 34.9751,186.806 38,187.5C 38.1667,187.167 38.3333,186.833 38.5,186.5C 35.8122,184.479 33.4789,182.146 31.5,179.5C 29.9413,175.641 30.2746,171.974 32.5,168.5C 31.3112,167.571 29.9778,167.238 28.5,167.5 Z"/></g>
<g><path style="opacity:1" fill="#ffccd2" d="M 31.5,179.5 C 33.4789,182.146 35.8122,184.479 38.5,186.5C 38.3333,186.833 38.1667,187.167 38,187.5C 34.9751,186.806 32.1418,185.806 29.5,184.5C 30.2389,184.631 30.9056,184.464 31.5,184C 31.0338,182.701 31.0338,181.201 31.5,179.5 Z"/></g>
</svg>
