<?xml version="1.0" encoding="UTF-8"?>
<!DOCTYPE svg PUBLIC "-//W3C//DTD SVG 1.1//EN" "http://www.w3.org/Graphics/SVG/1.1/DTD/svg11.dtd">
<svg xmlns="http://www.w3.org/2000/svg" version="1.1" width="115px" height="220px" style="shape-rendering:geometricPrecision; text-rendering:geometricPrecision; image-rendering:optimizeQuality; fill-rule:evenodd; clip-rule:evenodd" xmlns:xlink="http://www.w3.org/1999/xlink">
<g><path style="opacity:1" fill="#000000" d="M -0.5,-0.5 C 37.8333,-0.5 76.1667,-0.5 114.5,-0.5C 114.5,72.8333 114.5,146.167 114.5,219.5C 76.1667,219.5 37.8333,219.5 -0.5,219.5C -0.5,146.167 -0.5,72.8333 -0.5,-0.5 Z"/></g>
<g><path style="opacity:1" fill="#fefdfd" d="M 1.5,1.5 C 38.5,1.5 75.5,1.5 112.5,1.5C 112.5,73.5 112.5,145.5 112.5,217.5C 75.5,217.5 38.5,217.5 1.5,217.5C 1.5,145.5 1.5,73.5 1.5,1.5 Z"/></g>
<g><path style="opacity:1" fill="#090909" d="M 30.5,19.5 C 36.1052,18.9081 41.4386,19.7415 46.5,22C 50.858,26.4941 51.6914,31.6608 49,37.5C 44.9589,44.4167 40.7922,51.25 36.5,58C 42.1569,58.4994 47.8236,58.6661 53.5,58.5C 53.5,60.8333 53.5,63.1667 53.5,65.5C 43.5,65.5 33.5,65.5 23.5,65.5C 23.4914,63.6916 23.9914,62.0249 25,60.5C 30.8295,52.844 36.1628,44.844 41,36.5C 43.8333,27.3333 40.6667,24.1667 31.5,27C 30.3333,28.1667 29.1667,29.3333 28,30.5C 24.9519,29.4811 23.6186,27.4811 24,24.5C 25.8049,22.1743 27.9716,20.5077 30.5,19.5 Z"/></g>
<g><path style="opacity:1" fill="#050505" d="M 80.5,28.5 C 81.0431,28.44 81.3764,28.1067 81.5,27.5C 74.5316,26.503 67.5316,26.1697 60.5,26.5C 60.5,24.1667 60.5,21.8333 60.5,19.5C 70.8333,19.5 81.1667,19.5 91.5,19.5C 91.6602,21.1992 91.4935,22.8659 91,24.5C 83.9028,37.3594 77.9028,50.6927 73,64.5C 70.2809,65.4438 67.4475,65.7771 64.5,65.5C 68.4536,52.5905 73.7869,40.2572 80.5,28.5 Z"/></g>
<g><path style="opacity:1" fill="#636363" d="M 60.5,26.5 C 67.5316,26.1697 74.5316,26.503 81.5,27.5C 81.3764,28.1067 81.0431,28.44 80.5,28.5C 73.8333,27.8333 67.1667,27.1667 60.5,26.5 Z"/></g>
<g><path style="opacity:1" fill="#000000" d="M 6.5,84.5 C 39.5,84.5 72.5,84.5 105.5,84.5C 105.5,85.5 105.5,86.5 105.5,87.5C 72.5,87.5 39.5,87.5 6.5,87.5C 6.5,86.5 6.5,85.5 6.5,84.5 Z"/></g>
<g><path style="opacity:1" fill="#fff8fa" d="M 42.5,119.5 C 44.0714,127.736 48.4047,134.069 55.5,138.5C 52.73,138.475 49.73,138.808 46.5,139.5C 41.1042,131.296 39.4376,132.296 41.5,142.5C 34.402,141.542 31.902,137.542 34,130.5C 36.6592,128.94 37.8259,126.607 37.5,123.5C 38.2679,122.737 38.7679,121.737 39,120.5C 39.3333,120.833 39.6667,121.167 40,121.5C 40.7083,120.619 41.5416,119.953 42.5,119.5 Z"/></g>
<g><path style="opacity:1" fill="#bf4037" d="M 36.5,115.5 C 38.0481,115.821 38.7148,116.821 38.5,118.5C 38.1667,119.167 37.8333,119.833 37.5,120.5C 36.8347,122.698 36.1681,125.031 35.5,127.5C 34.5258,125.257 34.1924,122.924 34.5,120.5C 34.3915,118.486 35.0582,116.82 36.5,115.5 Z"/></g>
<g><path style="opacity:1" fill="#c96259" d="M 64.5,146.5 C 61.9272,146.852 59.5938,146.352 57.5,145C 60.3647,144.817 63.0314,144.317 65.5,143.5C 67.8504,141.787 68.8504,139.453 68.5,136.5C 61.7454,137.558 57.5787,134.892 56,128.5C 53.5325,127.896 51.5325,126.562 50,124.5C 49.0807,121.222 47.9141,118.055 46.5,115C 43.1369,114.52 40.4703,115.687 38.5,118.5C 38.7148,116.821 38.0481,115.821 36.5,115.5C 40.9657,109.304 45.799,108.971 51,114.5C 60.4507,110.743 65.9507,113.743 67.5,123.5C 70.1685,124.341 71.5018,126.175 71.5,129C 70.88,133.82 70.38,138.653 70,143.5C 68.7365,145.607 66.9032,146.607 64.5,146.5 Z"/></g>
<g><path style="opacity:1" fill="#ffe7ee" d="M 64.5,124.5 C 68.4606,125.884 69.4606,128.551 67.5,132.5C 63.8099,134.229 61.1432,133.229 59.5,129.5C 61.5212,128.145 63.1879,126.479 64.5,124.5 Z"/></g>
<g><path style="opacity:1" fill="#ffdae8" d="M 52.5,116.5 C 55.5184,116.335 58.5184,116.502 61.5,117C 64.2652,119.966 63.9318,122.633 60.5,125C 53.5011,126.169 50.8344,123.336 52.5,116.5 Z"/></g>
<g><path style="opacity:1" fill="#c14f4d" d="M 56.5,118.5 C 57.5,118.5 58.5,118.5 59.5,118.5C 59.5,119.833 59.5,121.167 59.5,122.5C 58.1667,122.5 56.8333,122.5 55.5,122.5C 55.4326,121.041 55.7659,119.708 56.5,118.5 Z"/></g>
<g><path style="opacity:1" fill="#bf5b53" d="M 55.5,138.5 C 48.4047,134.069 44.0714,127.736 42.5,119.5C 42.4148,118.005 43.0815,117.005 44.5,116.5C 46.3483,128.664 53.015,136.33 64.5,139.5C 61.3166,140.803 58.3166,140.469 55.5,138.5 Z"/></g>
<g><path style="opacity:1" fill="#ffdbe8" d="M 65.5,143.5 C 58.5376,144.311 52.2043,142.978 46.5,139.5C 49.73,138.808 52.73,138.475 55.5,138.5C 58.3166,140.469 61.3166,140.803 64.5,139.5C 53.015,136.33 46.3483,128.664 44.5,116.5C 43.0815,117.005 42.4148,118.005 42.5,119.5C 41.5416,119.953 40.7083,120.619 40,121.5C 39.6667,121.167 39.3333,120.833 39,120.5C 38.7679,121.737 38.2679,122.737 37.5,123.5C 37.5,122.5 37.5,121.5 37.5,120.5C 37.8333,119.833 38.1667,119.167 38.5,118.5C 40.4703,115.687 43.1369,114.52 46.5,115C 47.9141,118.055 49.0807,121.222 50,124.5C 51.5325,126.562 53.5325,127.896 56,128.5C 57.5787,134.892 61.7454,137.558 68.5,136.5C 68.8504,139.453 67.8504,141.787 65.5,143.5 Z"/></g>
<g><path style="opacity:1" fill="#d96355" d="M 34.5,120.5 C 34.1924,122.924 34.5258,125.257 35.5,127.5C 36.1681,125.031 36.8347,122.698 37.5,120.5C 37.5,121.5 37.5,122.5 37.5,123.5C 37.8259,126.607 36.6592,128.94 34,130.5C 31.902,137.542 34.402,141.542 41.5,142.5C 39.4376,132.296 41.1042,131.296 46.5,139.5C 52.2043,142.978 58.5376,144.311 65.5,143.5C 63.0314,144.317 60.3647,144.817 57.5,145C 59.5938,146.352 61.9272,146.852 64.5,146.5C 58.0719,147.931 52.0719,146.598 46.5,142.5C 41.118,145.882 36.7846,150.215 33.5,155.5C 32.6043,154.494 31.9377,154.494 31.5,155.5C 25.9493,155.564 21.2826,153.564 17.5,149.5C 16.8243,150.602 16.1577,151.602 15.5,152.5C 13.3232,156.799 12.3232,161.465 12.5,166.5C 11.5,166.5 10.5,166.5 9.5,166.5C 10.2153,149.403 17.882,136.403 32.5,127.5C 33.1681,125.031 33.8347,122.698 34.5,120.5 Z"/></g>
<g><path style="opacity:1" fill="#ffe3f0" d="M 28.5,134.5 C 30.4924,136.363 31.9924,138.696 33,141.5C 34.1545,142.743 35.4878,143.743 37,144.5C 36.2309,148.419 33.7309,150.419 29.5,150.5C 25.1114,150.717 21.778,149.05 19.5,145.5C 20.1152,143.884 21.1152,142.551 22.5,141.5C 24.3159,142.815 25.9825,144.315 27.5,146C 29.3453,147.128 31.3453,147.628 33.5,147.5C 33.5,146.167 33.5,144.833 33.5,143.5C 29.9762,142.905 27.3095,141.072 25.5,138C 26.5442,136.826 27.5442,135.659 28.5,134.5 Z"/></g>
<g><path style="opacity:1" fill="#d47164" d="M 106.5,153.5 C 107.084,156.983 106.251,159.983 104,162.5C 103.536,161.906 103.369,161.239 103.5,160.5C 105.202,156.836 104.202,154.003 100.5,152C 92.9233,149.212 85.2566,148.878 77.5,151C 77.0426,151.414 76.7093,151.914 76.5,152.5C 77.548,153.548 78.548,154.548 79.5,155.5C 78.8902,156.391 78.5569,157.391 78.5,158.5C 77.0384,157.542 75.7051,156.376 74.5,155C 72.8333,154.333 71.1667,154.333 69.5,155C 63.582,159.07 59.9153,164.57 58.5,171.5C 54.1667,171.5 49.8333,171.5 45.5,171.5C 61.2296,170.522 61.2296,169.522 45.5,168.5C 48.5645,167.182 51.7312,167.182 55,168.5C 65.5945,147.616 81.7611,141.45 103.5,150C 104.71,151.039 105.71,152.206 106.5,153.5 Z"/></g>
<g><path style="opacity:1" fill="#bc4d43" d="M 99.5,156.5 C 99.0423,159.394 99.709,161.894 101.5,164C 99.9343,164.765 98.6009,164.598 97.5,163.5C 97.41,161.304 97.0767,159.137 96.5,157C 97.0329,153.935 98.0329,153.768 99.5,156.5 Z"/></g>
<g><path style="opacity:1" fill="#ffe6ec" d="M 103.5,160.5 C 102.542,160.953 101.708,161.619 101,162.5C 100.809,160.292 100.309,158.292 99.5,156.5C 98.0329,153.768 97.0329,153.935 96.5,157C 97.0767,159.137 97.41,161.304 97.5,163.5C 96.2921,164.234 94.9587,164.567 93.5,164.5C 93.7947,162.265 93.4614,160.265 92.5,158.5C 91.0406,154.703 88.3739,152.369 84.5,151.5C 84.918,154.439 86.418,156.772 89,158.5C 89.4966,160.81 89.6633,163.143 89.5,165.5C 86.234,165.567 84.734,163.901 85,160.5C 83.2962,158.627 81.4628,156.96 79.5,155.5C 78.548,154.548 77.548,153.548 76.5,152.5C 76.7093,151.914 77.0426,151.414 77.5,151C 85.2566,148.878 92.9233,149.212 100.5,152C 104.202,154.003 105.202,156.836 103.5,160.5 Z"/></g>
<g><path style="opacity:1" fill="#ffe4ee" d="M 78.5,158.5 C 81.3017,159.976 82.9683,162.309 83.5,165.5C 81.9547,166.452 80.288,166.785 78.5,166.5C 77.221,162.401 74.3877,159.734 70,158.5C 69.5,158.833 69,159.167 68.5,159.5C 71.1244,161.622 73.6244,163.955 76,166.5C 76.4828,167.448 76.6495,168.448 76.5,169.5C 72.8333,167.5 69.1667,165.5 65.5,163.5C 65.3433,164.873 65.51,166.207 66,167.5C 67.9734,168.64 69.8067,169.973 71.5,171.5C 70.8291,172.946 69.6624,173.612 68,173.5C 65.9135,172.582 63.7468,171.915 61.5,171.5C 61.33,172.822 61.6634,173.989 62.5,175C 71.0196,176.258 75.1863,181.092 75,189.5C 72.8471,191.444 70.3471,191.944 67.5,191C 64.9934,185.984 60.9934,183.151 55.5,182.5C 54.5331,181.016 53.1998,180.016 51.5,179.5C 52.5676,178.566 53.901,178.232 55.5,178.5C 61.3398,180.586 66.3398,183.919 70.5,188.5C 71.5827,187.635 71.7494,186.635 71,185.5C 66.1364,179.818 59.9697,176.485 52.5,175.5C 48.7016,174.517 44.7016,174.183 40.5,174.5C 40.5,175.5 40.5,176.5 40.5,177.5C 42.5273,177.338 44.5273,177.505 46.5,178C 45.944,178.383 45.6107,178.883 45.5,179.5C 43.2647,180.229 41.4314,181.562 40,183.5C 37.7095,182.876 36.5428,181.376 36.5,179C 37.2193,173.782 40.2193,171.282 45.5,171.5C 49.8333,171.5 54.1667,171.5 58.5,171.5C 59.9153,164.57 63.582,159.07 69.5,155C 71.1667,154.333 72.8333,154.333 74.5,155C 75.7051,156.376 77.0384,157.542 78.5,158.5 Z"/></g>
<g><path style="opacity:1" fill="#ffe2eb" d="M 31.5,155.5 C 30.0823,158.061 29.0823,160.728 28.5,163.5C 28.2792,160.903 27.7792,160.903 27,163.5C 25.8173,162.269 24.6507,162.269 23.5,163.5C 24.7053,164.995 24.7053,166.328 23.5,167.5C 20.6627,165.598 17.3293,164.931 13.5,165.5C 13.2148,163.712 13.5481,162.045 14.5,160.5C 18.4295,161.433 22.4295,161.766 26.5,161.5C 26.5,160.167 26.5,158.833 26.5,157.5C 23.5314,158.329 20.5314,158.495 17.5,158C 15.8446,156.556 15.178,154.722 15.5,152.5C 16.1577,151.602 16.8243,150.602 17.5,149.5C 21.2826,153.564 25.9493,155.564 31.5,155.5 Z"/></g>
<g><path style="opacity:1" fill="#ea8b75" d="M 106.5,153.5 C 108.34,162.034 104.673,166.701 95.5,167.5C 95.9175,166.778 96.5842,166.278 97.5,166C 95.8659,165.506 94.1992,165.34 92.5,165.5C 92.5,163.167 92.5,160.833 92.5,158.5C 93.4614,160.265 93.7947,162.265 93.5,164.5C 94.9587,164.567 96.2921,164.234 97.5,163.5C 98.6009,164.598 99.9343,164.765 101.5,164C 99.709,161.894 99.0423,159.394 99.5,156.5C 100.309,158.292 100.809,160.292 101,162.5C 101.708,161.619 102.542,160.953 103.5,160.5C 103.369,161.239 103.536,161.906 104,162.5C 106.251,159.983 107.084,156.983 106.5,153.5 Z"/></g>
<g><path style="opacity:1" fill="#d0685b" d="M 15.5,152.5 C 15.178,154.722 15.8446,156.556 17.5,158C 20.5314,158.495 23.5314,158.329 26.5,157.5C 26.5,158.833 26.5,160.167 26.5,161.5C 22.4295,161.766 18.4295,161.433 14.5,160.5C 13.5481,162.045 13.2148,163.712 13.5,165.5C 17.3293,164.931 20.6627,165.598 23.5,167.5C 20.7131,168.477 17.7131,168.81 14.5,168.5C 14.854,174.356 17.854,176.523 23.5,175C 26.8123,171.901 28.479,168.067 28.5,163.5C 29.0823,160.728 30.0823,158.061 31.5,155.5C 31.9377,154.494 32.6043,154.494 33.5,155.5C 33.4993,162.67 31.6659,169.337 28,175.5C 23.9198,180.098 19.4198,180.598 14.5,177C 11.8604,173.89 10.1938,170.39 9.5,166.5C 10.5,166.5 11.5,166.5 12.5,166.5C 12.3232,161.465 13.3232,156.799 15.5,152.5 Z"/></g>
<g><path style="opacity:1" fill="#fff5f8" d="M 28.5,163.5 C 28.479,168.067 26.8123,171.901 23.5,175C 17.854,176.523 14.854,174.356 14.5,168.5C 17.7131,168.81 20.7131,168.477 23.5,167.5C 24.7053,166.328 24.7053,164.995 23.5,163.5C 24.6507,162.269 25.8173,162.269 27,163.5C 27.7792,160.903 28.2792,160.903 28.5,163.5 Z"/></g>
<g><path style="opacity:1" fill="#d06156" d="M 92.5,158.5 C 92.5,160.833 92.5,163.167 92.5,165.5C 94.1992,165.34 95.8659,165.506 97.5,166C 96.5842,166.278 95.9175,166.778 95.5,167.5C 86.7063,167.07 79.0397,169.736 72.5,175.5C 74.1491,177.65 75.9824,179.65 78,181.5C 80.2144,189.073 77.7144,194.073 70.5,196.5C 68.9446,196.278 67.6113,195.611 66.5,194.5C 62.541,198.225 57.8743,199.392 52.5,198C 50.4241,195.416 47.7574,193.749 44.5,193C 42.0771,191.429 40.7438,189.263 40.5,186.5C 31.0763,183.281 30.0763,178.115 37.5,171C 39.9088,169.293 42.5755,168.46 45.5,168.5C 61.2296,169.522 61.2296,170.522 45.5,171.5C 40.2193,171.282 37.2193,173.782 36.5,179C 36.5428,181.376 37.7095,182.876 40,183.5C 41.4314,181.562 43.2647,180.229 45.5,179.5C 47.5,179.5 49.5,179.5 51.5,179.5C 53.1998,180.016 54.5331,181.016 55.5,182.5C 60.9934,183.151 64.9934,185.984 67.5,191C 70.3471,191.944 72.8471,191.444 75,189.5C 75.1863,181.092 71.0196,176.258 62.5,175C 61.6634,173.989 61.33,172.822 61.5,171.5C 63.7468,171.915 65.9135,172.582 68,173.5C 69.6624,173.612 70.8291,172.946 71.5,171.5C 69.8067,169.973 67.9734,168.64 66,167.5C 65.51,166.207 65.3433,164.873 65.5,163.5C 69.1667,165.5 72.8333,167.5 76.5,169.5C 76.6495,168.448 76.4828,167.448 76,166.5C 73.6244,163.955 71.1244,161.622 68.5,159.5C 69,159.167 69.5,158.833 70,158.5C 74.3877,159.734 77.221,162.401 78.5,166.5C 80.288,166.785 81.9547,166.452 83.5,165.5C 82.9683,162.309 81.3017,159.976 78.5,158.5C 78.5569,157.391 78.8902,156.391 79.5,155.5C 81.4628,156.96 83.2962,158.627 85,160.5C 84.734,163.901 86.234,165.567 89.5,165.5C 89.6633,163.143 89.4966,160.81 89,158.5C 86.418,156.772 84.918,154.439 84.5,151.5C 88.3739,152.369 91.0406,154.703 92.5,158.5 Z"/></g>
<g><path style="opacity:1" fill="#fca1a3" d="M 52.5,175.5 C 48.8183,175.335 45.1516,175.501 41.5,176C 46.4576,176.029 51.1243,176.862 55.5,178.5C 53.901,178.232 52.5676,178.566 51.5,179.5C 49.5,179.5 47.5,179.5 45.5,179.5C 45.6107,178.883 45.944,178.383 46.5,178C 44.5273,177.505 42.5273,177.338 40.5,177.5C 40.5,176.5 40.5,175.5 40.5,174.5C 44.7016,174.183 48.7016,174.517 52.5,175.5 Z"/></g>
<g><path style="opacity:1" fill="#bd504b" d="M 52.5,175.5 C 59.9697,176.485 66.1364,179.818 71,185.5C 71.7494,186.635 71.5827,187.635 70.5,188.5C 66.3398,183.919 61.3398,180.586 55.5,178.5C 51.1243,176.862 46.4576,176.029 41.5,176C 45.1516,175.501 48.8183,175.335 52.5,175.5 Z"/></g>
<g><path style="opacity:1" fill="#ffd7e0" d="M 47.5,181.5 C 49.9484,181.01 51.615,181.843 52.5,184C 50.6811,186.489 48.8478,188.989 47,191.5C 42.8247,190.084 41.6581,187.418 43.5,183.5C 44.825,186.329 46.825,186.996 49.5,185.5C 46.942,184.782 46.2753,183.449 47.5,181.5 Z"/></g>
<g><path style="opacity:1" fill="#ffdeeb" d="M 55.5,185.5 C 61.2919,185.779 63.2919,188.612 61.5,194C 57.7795,196.058 54.2795,195.891 51,193.5C 50.5325,189.785 52.0325,187.119 55.5,185.5 Z"/></g>
<g><path style="opacity:1" fill="#cd5c55" d="M 58.5,188.5 C 61.0985,190.584 60.5985,192.251 57,193.5C 54.2265,193.102 53.3931,191.769 54.5,189.5C 56.488,191.147 57.8213,190.814 58.5,188.5 Z"/></g>
</svg>
