<?xml version="1.0" encoding="UTF-8"?>
<!DOCTYPE svg PUBLIC "-//W3C//DTD SVG 1.1//EN" "http://www.w3.org/Graphics/SVG/1.1/DTD/svg11.dtd">
<svg xmlns="http://www.w3.org/2000/svg" version="1.1" width="115px" height="220px" style="shape-rendering:geometricPrecision; text-rendering:geometricPrecision; image-rendering:optimizeQuality; fill-rule:evenodd; clip-rule:evenodd" xmlns:xlink="http://www.w3.org/1999/xlink">
<g><path style="opacity:1" fill="#000000" d="M -0.5,-0.5 C 37.8333,-0.5 76.1667,-0.5 114.5,-0.5C 114.5,72.8333 114.5,146.167 114.5,219.5C 76.1667,219.5 37.8333,219.5 -0.5,219.5C -0.5,146.167 -0.5,72.8333 -0.5,-0.5 Z"/></g>
<g><path style="opacity:1" fill="#fefdfd" d="M 1.5,1.5 C 38.5,1.5 75.5,1.5 112.5,1.5C 112.5,73.5 112.5,145.5 112.5,217.5C 75.5,217.5 38.5,217.5 1.5,217.5C 1.5,145.5 1.5,73.5 1.5,1.5 Z"/></g>
<g><path style="opacity:1" fill="#0b0b0b" d="M 30.5,19.5 C 35.5988,19.1746 40.5988,19.6746 45.5,21C 52.0988,27.5931 52.0988,34.2597 45.5,41C 51.1706,45.5297 53.004,51.363 51,58.5C 47.5336,63.8878 42.5336,66.2212 36,65.5C 31.9177,65.9092 28.2511,64.9092 25,62.5C 24.9382,59.8385 25.9382,57.5052 28,55.5C 33.1527,60.6537 38.1527,60.6537 43,55.5C 44.262,47.932 41.0954,44.2654 33.5,44.5C 33.5,42.1667 33.5,39.8333 33.5,37.5C 40.5027,38.3273 43.0027,35.3273 41,28.5C 39.8176,26.6431 38.151,25.6431 36,25.5C 33.3215,26.2799 30.8215,27.1133 28.5,28C 24.23,24.0342 24.8967,21.2008 30.5,19.5 Z"/></g>
<g><path style="opacity:1" fill="#060606" d="M 70.5,19.5 C 81.0543,17.5166 87.8877,21.5166 91,31.5C 91.6667,38.5 91.6667,45.5 91,52.5C 87.6737,63.9565 80.1737,68.1231 68.5,65C 61.8713,58.871 58.8713,51.2044 59.5,42C 58.7965,32.2419 62.4632,24.7419 70.5,19.5 Z"/></g>
<g><path style="opacity:1" fill="#f6f6f6" d="M 73.5,25.5 C 78.3851,24.8558 81.5518,26.8558 83,31.5C 84.1256,40.3417 83.4589,49.0083 81,57.5C 76.982,60.4386 73.3153,60.1053 70,56.5C 67.1315,48.2694 66.7981,39.9361 69,31.5C 69.8041,28.8541 71.3041,26.8541 73.5,25.5 Z"/></g>
<g><path style="opacity:1" fill="#000000" d="M 6.5,84.5 C 39.5,84.5 72.5,84.5 105.5,84.5C 105.5,85.5 105.5,86.5 105.5,87.5C 72.5,87.5 39.5,87.5 6.5,87.5C 6.5,86.5 6.5,85.5 6.5,84.5 Z"/></g>
<g><path style="opacity:1" fill="#ffe8f2" d="M 79.5,124.5 C 79.5,124.167 79.5,123.833 79.5,123.5C 81.6411,120.528 84.3078,118.028 87.5,116C 92.0134,113.031 96.5134,112.864 101,115.5C 101.781,116.944 101.614,118.277 100.5,119.5C 98.8685,118.703 97.3685,117.703 96,116.5C 95.5,116.833 95,117.167 94.5,117.5C 95.5283,119.361 97.0283,120.695 99,121.5C 99.49,122.793 99.6567,124.127 99.5,125.5C 96.9245,124.893 94.5912,123.726 92.5,122C 90.0982,121.186 87.7649,121.353 85.5,122.5C 89.8354,122.599 93.1687,124.432 95.5,128C 94.0879,131.175 92.4212,131.175 90.5,128C 87.1064,127.248 83.773,127.415 80.5,128.5C 78.2997,127.675 77.9663,126.342 79.5,124.5 Z"/></g>
<g><path style="opacity:1" fill="#d57e78" d="M 104.5,150.5 C 103.662,150.842 103.328,151.508 103.5,152.5C 97.8655,147.986 91.6988,147.319 85,150.5C 83.9701,150.164 83.4701,149.497 83.5,148.5C 84.8775,147.766 86.3775,147.099 88,146.5C 88.7401,145.251 88.5735,144.251 87.5,143.5C 85.3021,142.835 82.9688,142.168 80.5,141.5C 83.5,140.833 86.5,140.167 89.5,139.5C 88.2034,137.6 86.37,136.6 84,136.5C 82.175,136.943 80.3417,137.277 78.5,137.5C 78.33,136.178 78.6634,135.011 79.5,134C 83.444,133.01 87.1106,133.51 90.5,135.5C 93.1508,133.585 92.8175,132.085 89.5,131C 85.0804,130.232 80.7471,130.398 76.5,131.5C 76.5516,128.654 77.5516,126.32 79.5,124.5C 77.9663,126.342 78.2997,127.675 80.5,128.5C 83.773,127.415 87.1064,127.248 90.5,128C 92.4212,131.175 94.0879,131.175 95.5,128C 93.1687,124.432 89.8354,122.599 85.5,122.5C 87.7649,121.353 90.0982,121.186 92.5,122C 94.5912,123.726 96.9245,124.893 99.5,125.5C 99.6567,124.127 99.49,122.793 99,121.5C 97.0283,120.695 95.5283,119.361 94.5,117.5C 95,117.167 95.5,116.833 96,116.5C 97.3685,117.703 98.8685,118.703 100.5,119.5C 101.614,118.277 101.781,116.944 101,115.5C 96.5134,112.864 92.0134,113.031 87.5,116C 84.3078,118.028 81.6411,120.528 79.5,123.5C 79.6716,122.508 79.3382,121.842 78.5,121.5C 83.4245,113.704 90.4245,110.204 99.5,111C 104.038,112.713 105.538,115.88 104,120.5C 100.418,126.423 96.4182,132.089 92,137.5C 91.5026,140.146 91.3359,142.813 91.5,145.5C 97.041,144.376 101.374,146.042 104.5,150.5 Z"/></g>
<g><path style="opacity:1" fill="#d3786e" d="M 24.5,108.5 C 33.5242,107.465 41.6909,109.465 49,114.5C 50.1966,120.396 48.3633,125.063 43.5,128.5C 42.5713,129.689 42.238,131.022 42.5,132.5C 44.0603,132.519 45.5603,132.852 47,133.5C 49.1124,132.392 50.9458,130.892 52.5,129C 63.6376,125.149 68.4709,128.982 67,140.5C 63.1204,148.352 56.787,152.352 48,152.5C 37.6467,152.99 29.6467,148.99 24,140.5C 23.5026,137.854 23.3359,135.187 23.5,132.5C 16.117,132.617 11.4504,129.117 9.5,122C 10.1359,116.703 13.1359,114.369 18.5,115C 20.0269,112.31 22.0269,110.143 24.5,108.5 Z"/></g>
<g><path style="opacity:1" fill="#de8682" d="M 32.5,126.5 C 27.4455,127.994 22.4455,127.827 17.5,126C 16.2888,125.107 16.2888,124.274 17.5,123.5C 21.5444,125.374 25.5444,125.707 29.5,124.5C 33.8223,123.615 37.8223,121.948 41.5,119.5C 42.7112,120.274 42.7112,121.107 41.5,122C 38.586,123.766 35.586,125.266 32.5,126.5 Z"/></g>
<g><path style="opacity:1" fill="#fff1f8" d="M 32.5,130.5 C 32.0825,129.778 31.4158,129.278 30.5,129C 31.3805,128.292 32.0472,127.458 32.5,126.5C 35.586,125.266 38.586,123.766 41.5,122C 42.7112,121.107 42.7112,120.274 41.5,119.5C 37.8223,121.948 33.8223,123.615 29.5,124.5C 26.7524,124.598 26.0857,123.598 27.5,121.5C 28.2719,120.306 29.2719,119.306 30.5,118.5C 33.3854,118.806 36.0521,118.473 38.5,117.5C 40.211,113.425 42.711,112.759 46,115.5C 47.1059,121.619 44.7725,125.952 39,128.5C 38.4926,129.996 38.9926,131.163 40.5,132C 37.1729,135.545 33.1729,136.378 28.5,134.5C 29.7287,133.719 31.062,133.219 32.5,133C 33.7736,132.023 33.7736,131.189 32.5,130.5 Z"/></g>
<g><path style="opacity:1" fill="#ffd9e2" d="M 27.5,121.5 C 26.0857,123.598 26.7524,124.598 29.5,124.5C 25.5444,125.707 21.5444,125.374 17.5,123.5C 16.2888,124.274 16.2888,125.107 17.5,126C 22.4455,127.827 27.4455,127.994 32.5,126.5C 32.0472,127.458 31.3805,128.292 30.5,129C 31.4158,129.278 32.0825,129.778 32.5,130.5C 27.7863,130.827 23.1196,130.493 18.5,129.5C 13.4326,127.535 11.766,124.035 13.5,119C 17.7972,120.963 22.4638,121.796 27.5,121.5 Z"/></g>
<g><path style="opacity:1" fill="#ffcfd6" d="M 28.5,110.5 C 29.5862,110.62 30.2528,111.287 30.5,112.5C 30.0912,118.422 27.0912,120.588 21.5,119C 20.2888,118.107 20.2888,117.274 21.5,116.5C 26.7455,118.033 29.0788,116.033 28.5,110.5 Z"/></g>
<g><path style="opacity:1" fill="#f6a69e" d="M 38.5,117.5 C 36.0521,118.473 33.3854,118.806 30.5,118.5C 31.7736,116.007 32.4403,113.341 32.5,110.5C 33.8333,110.5 35.1667,110.5 36.5,110.5C 36.6399,112.124 35.9733,113.29 34.5,114C 36.1346,114.54 37.4679,114.04 38.5,112.5C 39.2824,114.329 38.6157,115.829 36.5,117C 37.0944,117.464 37.7611,117.631 38.5,117.5 Z"/></g>
<g><path style="opacity:1" fill="#ffd1da" d="M 24.5,111.5 C 27.0118,112.216 27.0118,113.216 24.5,114.5C 23.4376,113.575 23.4376,112.575 24.5,111.5 Z"/></g>
<g><path style="opacity:1" fill="#fcbebd" d="M 55.5,130.5 C 57.6282,129.371 59.9615,129.204 62.5,130C 64.182,134.047 63.5154,134.88 60.5,132.5C 59.4376,133.425 59.4376,134.425 60.5,135.5C 60.1667,136.167 59.8333,136.833 59.5,137.5C 57.9397,139.156 56.9397,141.156 56.5,143.5C 56.6199,141.266 56.2865,139.099 55.5,137C 57.3412,135.126 59.0079,133.126 60.5,131C 58.8659,130.506 57.1992,130.34 55.5,130.5 Z"/></g>
<g><path style="opacity:1" fill="#ffdde8" d="M 87.5,143.5 C 84.8333,143.5 82.1667,143.5 79.5,143.5C 79.6567,142.127 79.49,140.793 79,139.5C 77.872,141.345 77.372,143.345 77.5,145.5C 75.6725,140.897 75.3392,136.231 76.5,131.5C 80.7471,130.398 85.0804,130.232 89.5,131C 92.8175,132.085 93.1508,133.585 90.5,135.5C 87.1106,133.51 83.444,133.01 79.5,134C 78.6634,135.011 78.33,136.178 78.5,137.5C 80.3417,137.277 82.175,136.943 84,136.5C 86.37,136.6 88.2034,137.6 89.5,139.5C 86.5,140.167 83.5,140.833 80.5,141.5C 82.9688,142.168 85.3021,142.835 87.5,143.5 Z"/></g>
<g><path style="opacity:1" fill="#ffedf3" d="M 55.5,130.5 C 57.1992,130.34 58.8659,130.506 60.5,131C 59.0079,133.126 57.3412,135.126 55.5,137C 56.2865,139.099 56.6199,141.266 56.5,143.5C 54.7776,149.191 51.1109,150.857 45.5,148.5C 47.0082,146.493 48.8416,144.826 51,143.5C 51.7805,142.056 51.6139,140.723 50.5,139.5C 47.4218,143.208 43.7552,146.208 39.5,148.5C 37.9996,148.547 36.9996,147.881 36.5,146.5C 38.1901,143.976 40.3568,141.976 43,140.5C 43.7494,139.365 43.5827,138.365 42.5,137.5C 39.2764,140.247 35.6098,142.247 31.5,143.5C 28.6857,143.019 27.3524,141.352 27.5,138.5C 30.5184,138.665 33.5184,138.498 36.5,138C 38.3058,137.19 39.8058,136.024 41,134.5C 45.4969,135.723 49.9969,135.723 54.5,134.5C 54.2322,132.901 54.5655,131.568 55.5,130.5 Z"/></g>
<g><path style="opacity:1" fill="#ffe6f6" d="M 60.5,135.5 C 63.487,137.108 64.1536,139.442 62.5,142.5C 61.675,143.386 60.675,143.719 59.5,143.5C 59.5,141.5 59.5,139.5 59.5,137.5C 59.8333,136.833 60.1667,136.167 60.5,135.5 Z"/></g>
<g><path style="opacity:1" fill="#ffd9e3" d="M 83.5,148.5 C 83.4701,149.497 83.9701,150.164 85,150.5C 91.6988,147.319 97.8655,147.986 103.5,152.5C 103.683,154.936 103.016,157.103 101.5,159C 98.2802,159.157 95.1135,158.657 92,157.5C 90.0289,157.468 88.5289,158.302 87.5,160C 83.5944,159.848 80.2611,161.015 77.5,163.5C 77.5,162.833 77.5,162.167 77.5,161.5C 78.9679,159.502 80.8013,157.835 83,156.5C 88.4073,155.089 93.9073,154.089 99.5,153.5C 93.8265,152.31 88.1599,152.31 82.5,153.5C 82.2155,151.585 82.5489,149.919 83.5,148.5 Z"/></g>
<g><path style="opacity:1" fill="#ffd5dc" d="M 12.5,164.5 C 12.5,163.833 12.5,163.167 12.5,162.5C 14.6877,159.819 17.3544,157.652 20.5,156C 23.5541,155.179 26.5541,155.345 29.5,156.5C 30.3256,157.451 30.4922,158.451 30,159.5C 26.9433,158.549 23.7766,158.216 20.5,158.5C 20.4172,161.39 21.9172,162.057 25,160.5C 27.1454,160.396 28.9788,161.063 30.5,162.5C 24.0173,162.368 18.3507,164.368 13.5,168.5C 12.5713,167.311 12.238,165.978 12.5,164.5 Z"/></g>
<g><path style="opacity:1" fill="#fff3fb" d="M 87.5,143.5 C 88.5735,144.251 88.7401,145.251 88,146.5C 86.3775,147.099 84.8775,147.766 83.5,148.5C 82.5489,149.919 82.2155,151.585 82.5,153.5C 78.7922,156.127 75.2922,159.127 72,162.5C 71.4092,163.483 71.7425,164.15 73,164.5C 74.1233,162.9 75.6233,161.9 77.5,161.5C 77.5,162.167 77.5,162.833 77.5,163.5C 76.6314,165.717 76.298,168.05 76.5,170.5C 71.7178,171.386 69.3845,169.386 69.5,164.5C 70.1819,158.983 73.0152,154.983 78,152.5C 78.5564,150.115 78.3897,147.782 77.5,145.5C 77.372,143.345 77.872,141.345 79,139.5C 79.49,140.793 79.6567,142.127 79.5,143.5C 82.1667,143.5 84.8333,143.5 87.5,143.5 Z"/></g>
<g><path style="opacity:1" fill="#fbb3b3" d="M 80.5,164.5 C 81.1667,165.167 81.8333,165.833 82.5,166.5C 81.6236,166.369 80.9569,166.702 80.5,167.5C 82.396,168.466 84.396,168.799 86.5,168.5C 86.2852,170.179 86.9519,171.179 88.5,171.5C 85.96,173.413 83.2933,173.746 80.5,172.5C 81.552,172.649 82.552,172.483 83.5,172C 82.2341,171.691 81.0674,171.191 80,170.5C 79.2109,168.288 79.3775,166.288 80.5,164.5 Z"/></g>
<g><path style="opacity:1" fill="#ffedf7" d="M 13.5,176.5 C 13.5,174.833 13.5,173.167 13.5,171.5C 16.6472,168.277 20.4806,166.277 25,165.5C 29.2472,165.229 30.4138,166.895 28.5,170.5C 22.396,170.468 17.896,173.135 15,178.5C 14.7216,177.584 14.2216,176.918 13.5,176.5 Z"/></g>
<g><path style="opacity:1" fill="#d4706a" d="M 78.5,121.5 C 79.3382,121.842 79.6716,122.508 79.5,123.5C 79.5,123.833 79.5,124.167 79.5,124.5C 77.5516,126.32 76.5516,128.654 76.5,131.5C 75.3392,136.231 75.6725,140.897 77.5,145.5C 78.3897,147.782 78.5564,150.115 78,152.5C 73.0152,154.983 70.1819,158.983 69.5,164.5C 69.3845,169.386 71.7178,171.386 76.5,170.5C 76.298,168.05 76.6314,165.717 77.5,163.5C 80.2611,161.015 83.5944,159.848 87.5,160C 88.5289,158.302 90.0289,157.468 92,157.5C 95.1135,158.657 98.2802,159.157 101.5,159C 103.016,157.103 103.683,154.936 103.5,152.5C 103.328,151.508 103.662,150.842 104.5,150.5C 105.634,152.966 105.801,155.633 105,158.5C 103.559,159.87 101.892,160.87 100,161.5C 99.7714,168.892 95.9381,172.225 88.5,171.5C 86.9519,171.179 86.2852,170.179 86.5,168.5C 84.396,168.799 82.396,168.466 80.5,167.5C 80.9569,166.702 81.6236,166.369 82.5,166.5C 85.8606,165.797 86.1939,164.463 83.5,162.5C 82.2613,162.942 81.2613,163.609 80.5,164.5C 79.3775,166.288 79.2109,168.288 80,170.5C 81.0674,171.191 82.2341,171.691 83.5,172C 82.552,172.483 81.552,172.649 80.5,172.5C 79.0152,171.065 77.6819,171.232 76.5,173C 70.5057,174.183 67.1723,171.683 66.5,165.5C 67.2971,159.075 70.2971,153.908 75.5,150C 73.542,143.634 73.042,137.134 74,130.5C 75.0033,127.16 76.5033,124.16 78.5,121.5 Z"/></g>
<g><path style="opacity:1" fill="#fcbcc3" d="M 88.5,161.5 C 89.7075,164.616 91.3742,164.949 93.5,162.5C 94.1698,164.291 94.8365,165.958 95.5,167.5C 95.3893,168.117 95.056,168.617 94.5,169C 87.7564,170.314 85.7564,167.814 88.5,161.5 Z"/></g>
<g><path style="opacity:1" fill="#ffe8f5" d="M 82.5,166.5 C 81.8333,165.833 81.1667,165.167 80.5,164.5C 81.2613,163.609 82.2613,162.942 83.5,162.5C 86.1939,164.463 85.8606,165.797 82.5,166.5 Z"/></g>
<g><path style="opacity:1" fill="#ffeef7" d="M 95.5,167.5 C 94.8365,165.958 94.1698,164.291 93.5,162.5C 91.3742,164.949 89.7075,164.616 88.5,161.5C 95.7727,158.9 98.1061,160.9 95.5,167.5 Z"/></g>
<g><path style="opacity:1" fill="#d26f6e" d="M 77.5,161.5 C 75.6233,161.9 74.1233,162.9 73,164.5C 71.7425,164.15 71.4092,163.483 72,162.5C 75.2922,159.127 78.7922,156.127 82.5,153.5C 88.1599,152.31 93.8265,152.31 99.5,153.5C 93.9073,154.089 88.4073,155.089 83,156.5C 80.8013,157.835 78.9679,159.502 77.5,161.5 Z"/></g>
<g><path style="opacity:1" fill="#d3766e" d="M 14.5,185.5 C 15.1471,184.726 15.4805,183.726 15.5,182.5C 14.7957,180.465 14.129,178.465 13.5,176.5C 14.2216,176.918 14.7216,177.584 15,178.5C 17.896,173.135 22.396,170.468 28.5,170.5C 30.4138,166.895 29.2472,165.229 25,165.5C 20.4806,166.277 16.6472,168.277 13.5,171.5C 12.7402,170.107 12.0735,168.607 11.5,167C 11.528,165.93 11.8614,165.097 12.5,164.5C 12.238,165.978 12.5713,167.311 13.5,168.5C 18.3507,164.368 24.0173,162.368 30.5,162.5C 28.9788,161.063 27.1454,160.396 25,160.5C 21.9172,162.057 20.4172,161.39 20.5,158.5C 23.7766,158.216 26.9433,158.549 30,159.5C 30.4922,158.451 30.3256,157.451 29.5,156.5C 26.5541,155.345 23.5541,155.179 20.5,156C 17.3544,157.652 14.6877,159.819 12.5,162.5C 12.1667,162.5 11.8333,162.5 11.5,162.5C 14.7123,154.18 20.7123,151.346 29.5,154C 32.4417,154.94 33.7751,156.94 33.5,160C 31.881,165.016 31.2143,170.182 31.5,175.5C 32.9305,175.421 34.2638,175.754 35.5,176.5C 37.1993,172.296 39.866,168.796 43.5,166C 46.634,165.21 49.634,165.543 52.5,167C 56.9747,169.814 61.1414,172.981 65,176.5C 67.2581,183.102 66.7581,189.436 63.5,195.5C 59.1575,195.924 54.8241,196.257 50.5,196.5C 47.9023,195.733 45.4023,194.733 43,193.5C 34.94,196.531 27.1067,196.031 19.5,192C 17.2345,190.242 15.5678,188.075 14.5,185.5 Z"/></g>
<g><path style="opacity:1" fill="#fff5f9" d="M 45.5,168.5 C 48.3128,168.548 50.9795,169.215 53.5,170.5C 54.3857,171.325 54.719,172.325 54.5,173.5C 53.5,173.5 52.5,173.5 51.5,173.5C 51.1842,176.978 51.6842,180.312 53,183.5C 56.2279,184.887 59.0612,186.887 61.5,189.5C 62.4519,191.045 62.7852,192.712 62.5,194.5C 55.564,193.745 50.7307,190.078 48,183.5C 47.8184,180.774 47.3184,178.107 46.5,175.5C 44.4983,182.343 46.165,188.176 51.5,193C 51.1667,193.5 50.8333,194 50.5,194.5C 46.4469,192.447 43.4469,189.447 41.5,185.5C 40.9708,188.257 39.9708,190.757 38.5,193C 33.0006,193.639 27.6673,192.972 22.5,191C 17.7023,188.266 16.2023,184.433 18,179.5C 20.4624,175.074 24.2957,173.074 29.5,173.5C 29.762,174.978 29.4287,176.311 28.5,177.5C 24.9204,179.936 23.7538,183.27 25,187.5C 25.414,187.957 25.914,188.291 26.5,188.5C 26.8377,184.163 28.5043,180.496 31.5,177.5C 32.7199,177.887 33.3865,178.72 33.5,180C 32.9818,181.626 32.6484,183.293 32.5,185C 32.3094,186.973 32.976,188.473 34.5,189.5C 35.3214,186.553 35.8214,183.553 36,180.5C 38.609,178.892 39.9423,176.559 40,173.5C 41.7297,171.598 43.563,169.931 45.5,168.5 Z"/></g>
<g><path style="opacity:1" fill="#d46353" d="M 11.5,162.5 C 11.8333,162.5 12.1667,162.5 12.5,162.5C 12.5,163.167 12.5,163.833 12.5,164.5C 11.8614,165.097 11.528,165.93 11.5,167C 12.0735,168.607 12.7402,170.107 13.5,171.5C 13.5,173.167 13.5,174.833 13.5,176.5C 14.129,178.465 14.7957,180.465 15.5,182.5C 15.4805,183.726 15.1471,184.726 14.5,185.5C 9.22572,178.436 8.22572,170.769 11.5,162.5 Z"/></g>
<g><path style="opacity:1" fill="#ffd8e3" d="M 54.5,174.5 C 61.5224,173.848 64.1891,176.848 62.5,183.5C 55.6486,184.313 52.9819,181.313 54.5,174.5 Z"/></g>
<g><path style="opacity:1" fill="#df837d" d="M 56.5,177.5 C 58.1667,177.5 59.8333,177.5 61.5,177.5C 61.5,178.5 61.5,179.5 61.5,180.5C 59.8333,180.5 58.1667,180.5 56.5,180.5C 56.5,179.5 56.5,178.5 56.5,177.5 Z"/></g>
</svg>
