<?xml version="1.0" encoding="UTF-8"?>
<!DOCTYPE svg PUBLIC "-//W3C//DTD SVG 1.1//EN" "http://www.w3.org/Graphics/SVG/1.1/DTD/svg11.dtd">
<svg xmlns="http://www.w3.org/2000/svg" version="1.1" width="115px" height="220px" style="shape-rendering:geometricPrecision; text-rendering:geometricPrecision; image-rendering:optimizeQuality; fill-rule:evenodd; clip-rule:evenodd" xmlns:xlink="http://www.w3.org/1999/xlink">
<g><path style="opacity:1" fill="#000000" d="M -0.5,-0.5 C 37.8333,-0.5 76.1667,-0.5 114.5,-0.5C 114.5,72.8333 114.5,146.167 114.5,219.5C 76.1667,219.5 37.8333,219.5 -0.5,219.5C -0.5,146.167 -0.5,72.8333 -0.5,-0.5 Z"/></g>
<g><path style="opacity:1" fill="#fefdfd" d="M 1.5,1.5 C 38.5,1.5 75.5,1.5 112.5,1.5C 112.5,73.5 112.5,145.5 112.5,217.5C 75.5,217.5 38.5,217.5 1.5,217.5C 1.5,145.5 1.5,73.5 1.5,1.5 Z"/></g>
<g><path style="opacity:1" fill="#0b0b0b" d="M 28.5,19.5 C 33.5988,19.1746 38.5988,19.6746 43.5,21C 50.0988,27.5931 50.0988,34.2597 43.5,41C 49.1706,45.5297 51.004,51.363 49,58.5C 45.5336,63.8878 40.5336,66.2212 34,65.5C 29.9177,65.9092 26.2511,64.9092 23,62.5C 22.9382,59.8385 23.9382,57.5052 26,55.5C 31.1527,60.6537 36.1527,60.6537 41,55.5C 42.262,47.932 39.0954,44.2654 31.5,44.5C 31.5,42.1667 31.5,39.8333 31.5,37.5C 38.5027,38.3273 41.0027,35.3273 39,28.5C 37.8176,26.6431 36.151,25.6431 34,25.5C 31.3215,26.2799 28.8215,27.1133 26.5,28C 22.23,24.0342 22.8967,21.2008 28.5,19.5 Z"/></g>
<g><path style="opacity:1" fill="#030303" d="M 77.5,19.5 C 78.5,19.5 79.5,19.5 80.5,19.5C 80.5,34.8333 80.5,50.1667 80.5,65.5C 77.8333,65.5 75.1667,65.5 72.5,65.5C 72.832,54.8126 72.4987,44.1459 71.5,33.5C 69.1667,34.8333 66.8333,36.1667 64.5,37.5C 63.3526,35.2351 63.1859,32.9018 64,30.5C 68.9791,27.3476 73.4791,23.6809 77.5,19.5 Z"/></g>
<g><path style="opacity:1" fill="#000000" d="M 6.5,84.5 C 39.5,84.5 72.5,84.5 105.5,84.5C 105.5,85.5 105.5,86.5 105.5,87.5C 72.5,87.5 39.5,87.5 6.5,87.5C 6.5,86.5 6.5,85.5 6.5,84.5 Z"/></g>
<g><path style="opacity:1" fill="#d4776d" d="M 24.5,108.5 C 33.5242,107.465 41.6909,109.465 49,114.5C 50.1966,120.396 48.3633,125.063 43.5,128.5C 42.5713,129.689 42.238,131.022 42.5,132.5C 44.0603,132.519 45.5603,132.852 47,133.5C 49.1124,132.392 50.9458,130.892 52.5,129C 63.6376,125.149 68.4709,128.982 67,140.5C 63.1204,148.352 56.787,152.352 48,152.5C 37.6467,152.99 29.6467,148.99 24,140.5C 23.5026,137.854 23.3359,135.187 23.5,132.5C 16.117,132.617 11.4504,129.117 9.5,122C 10.1359,116.703 13.1359,114.369 18.5,115C 20.0269,112.31 22.0269,110.143 24.5,108.5 Z"/></g>
<g><path style="opacity:1" fill="#f6a69e" d="M 38.5,117.5 C 36.0521,118.473 33.3854,118.806 30.5,118.5C 31.7736,116.007 32.4403,113.341 32.5,110.5C 33.8333,110.5 35.1667,110.5 36.5,110.5C 36.6399,112.124 35.9733,113.29 34.5,114C 36.1346,114.54 37.4679,114.04 38.5,112.5C 39.2824,114.329 38.6157,115.829 36.5,117C 37.0944,117.464 37.7611,117.631 38.5,117.5 Z"/></g>
<g><path style="opacity:1" fill="#ffcfd6" d="M 28.5,110.5 C 29.5862,110.62 30.2528,111.287 30.5,112.5C 30.0912,118.422 27.0912,120.588 21.5,119C 20.2888,118.107 20.2888,117.274 21.5,116.5C 26.7455,118.033 29.0788,116.033 28.5,110.5 Z"/></g>
<g><path style="opacity:1" fill="#ffe8f2" d="M 79.5,124.5 C 79.5,124.167 79.5,123.833 79.5,123.5C 81.6411,120.528 84.3078,118.028 87.5,116C 92.0134,113.031 96.5134,112.864 101,115.5C 101.781,116.944 101.614,118.277 100.5,119.5C 98.8685,118.703 97.3685,117.703 96,116.5C 95.5,116.833 95,117.167 94.5,117.5C 95.5283,119.361 97.0283,120.695 99,121.5C 99.49,122.793 99.6567,124.127 99.5,125.5C 96.9245,124.893 94.5912,123.726 92.5,122C 90.0982,121.186 87.7649,121.353 85.5,122.5C 89.8354,122.599 93.1687,124.432 95.5,128C 94.0879,131.175 92.4212,131.175 90.5,128C 87.1064,127.248 83.773,127.415 80.5,128.5C 78.2997,127.675 77.9663,126.342 79.5,124.5 Z"/></g>
<g><path style="opacity:1" fill="#ffd5d9" d="M 27.5,121.5 C 26.0857,123.598 26.7524,124.598 29.5,124.5C 25.5444,125.707 21.5444,125.374 17.5,123.5C 16.4376,124.425 16.4376,125.425 17.5,126.5C 17.1667,127.167 16.8333,127.833 16.5,128.5C 12.803,126.179 11.803,123.013 13.5,119C 17.7972,120.963 22.4638,121.796 27.5,121.5 Z"/></g>
<g><path style="opacity:1" fill="#e18885" d="M 17.5,126.5 C 16.4376,125.425 16.4376,124.425 17.5,123.5C 21.5444,125.374 25.5444,125.707 29.5,124.5C 33.8223,123.615 37.8223,121.948 41.5,119.5C 42.7112,120.274 42.7112,121.107 41.5,122C 34.1633,127 26.1633,128.5 17.5,126.5 Z"/></g>
<g><path style="opacity:1" fill="#ffeff8" d="M 16.5,128.5 C 16.8333,127.833 17.1667,127.167 17.5,126.5C 26.1633,128.5 34.1633,127 41.5,122C 42.7112,121.107 42.7112,120.274 41.5,119.5C 37.8223,121.948 33.8223,123.615 29.5,124.5C 26.7524,124.598 26.0857,123.598 27.5,121.5C 28.2719,120.306 29.2719,119.306 30.5,118.5C 33.3854,118.806 36.0521,118.473 38.5,117.5C 42.0006,111.894 44.6673,112.228 46.5,118.5C 45.7463,123.094 43.2463,126.427 39,128.5C 38.4926,129.996 38.9926,131.163 40.5,132C 37.1729,135.545 33.1729,136.378 28.5,134.5C 30.5096,133.935 32.1763,132.935 33.5,131.5C 27.7572,130.798 22.0906,129.798 16.5,128.5 Z"/></g>
<g><path style="opacity:1" fill="#d37c76" d="M 104.5,150.5 C 103.662,150.842 103.328,151.508 103.5,152.5C 97.3575,147.885 90.6909,147.219 83.5,150.5C 83.5,149.5 83.5,148.5 83.5,147.5C 87.1378,148.263 88.6378,146.93 88,143.5C 85.5272,142.88 83.0272,142.214 80.5,141.5C 83.5,140.833 86.5,140.167 89.5,139.5C 88.2034,137.6 86.37,136.6 84,136.5C 82.175,136.943 80.3417,137.277 78.5,137.5C 78.33,136.178 78.6634,135.011 79.5,134C 83.444,133.01 87.1106,133.51 90.5,135.5C 93.1508,133.585 92.8175,132.085 89.5,131C 85.0804,130.232 80.7471,130.398 76.5,131.5C 76.5516,128.654 77.5516,126.32 79.5,124.5C 77.9663,126.342 78.2997,127.675 80.5,128.5C 83.773,127.415 87.1064,127.248 90.5,128C 92.4212,131.175 94.0879,131.175 95.5,128C 93.1687,124.432 89.8354,122.599 85.5,122.5C 87.7649,121.353 90.0982,121.186 92.5,122C 94.5912,123.726 96.9245,124.893 99.5,125.5C 99.6567,124.127 99.49,122.793 99,121.5C 97.0283,120.695 95.5283,119.361 94.5,117.5C 95,117.167 95.5,116.833 96,116.5C 97.3685,117.703 98.8685,118.703 100.5,119.5C 101.614,118.277 101.781,116.944 101,115.5C 96.5134,112.864 92.0134,113.031 87.5,116C 84.3078,118.028 81.6411,120.528 79.5,123.5C 79.6716,122.508 79.3382,121.842 78.5,121.5C 83.4245,113.704 90.4245,110.204 99.5,111C 104.038,112.713 105.538,115.88 104,120.5C 100.418,126.423 96.4182,132.089 92,137.5C 91.5026,140.146 91.3359,142.813 91.5,145.5C 97.041,144.376 101.374,146.042 104.5,150.5 Z"/></g>
<g><path style="opacity:1" fill="#ffebf1" d="M 55.5,129.5 C 58.1194,129.232 60.6194,129.565 63,130.5C 64.0459,134.547 63.2126,135.214 60.5,132.5C 60.1667,132.833 59.8333,133.167 59.5,133.5C 60.4803,134.981 61.647,136.315 63,137.5C 64.1111,140.955 62.9444,142.955 59.5,143.5C 60.172,140.092 59.172,137.425 56.5,135.5C 56.3418,138.717 56.1751,142.05 56,145.5C 53.3923,149.38 49.8923,150.38 45.5,148.5C 47.0082,146.493 48.8416,144.826 51,143.5C 51.7805,142.056 51.6139,140.723 50.5,139.5C 47.4218,143.208 43.7552,146.208 39.5,148.5C 37.9996,148.547 36.9996,147.881 36.5,146.5C 38.1901,143.976 40.3568,141.976 43,140.5C 43.7494,139.365 43.5827,138.365 42.5,137.5C 39.2764,140.247 35.6098,142.247 31.5,143.5C 28.6857,143.019 27.3524,141.352 27.5,138.5C 30.5184,138.665 33.5184,138.498 36.5,138C 38.3058,137.19 39.8058,136.024 41,134.5C 45.4969,135.723 49.9969,135.723 54.5,134.5C 54.366,132.708 54.6993,131.042 55.5,129.5 Z"/></g>
<g><path style="opacity:1" fill="#ffe6f0" d="M 103.5,152.5 C 103.683,154.936 103.016,157.103 101.5,159C 98.2802,159.157 95.1135,158.657 92,157.5C 90.0289,157.468 88.5289,158.302 87.5,160C 80.0265,159.642 76.3599,163.142 76.5,170.5C 71.7178,171.386 69.3845,169.386 69.5,164.5C 70.1819,158.983 73.0152,154.983 78,152.5C 77.1827,146.919 76.3494,141.253 75.5,135.5C 75.5108,133.955 75.8442,132.622 76.5,131.5C 80.7471,130.398 85.0804,130.232 89.5,131C 92.8175,132.085 93.1508,133.585 90.5,135.5C 87.1106,133.51 83.444,133.01 79.5,134C 78.6634,135.011 78.33,136.178 78.5,137.5C 80.3417,137.277 82.175,136.943 84,136.5C 86.37,136.6 88.2034,137.6 89.5,139.5C 86.5,140.167 83.5,140.833 80.5,141.5C 83.0272,142.214 85.5272,142.88 88,143.5C 88.6378,146.93 87.1378,148.263 83.5,147.5C 83.5,148.5 83.5,149.5 83.5,150.5C 90.6909,147.219 97.3575,147.885 103.5,152.5 Z"/></g>
<g><path style="opacity:1" fill="#fbb3b3" d="M 80.5,164.5 C 81.1667,165.167 81.8333,165.833 82.5,166.5C 81.6236,166.369 80.9569,166.702 80.5,167.5C 82.396,168.466 84.396,168.799 86.5,168.5C 86.2852,170.179 86.9519,171.179 88.5,171.5C 85.96,173.413 83.2933,173.746 80.5,172.5C 81.552,172.649 82.552,172.483 83.5,172C 82.2341,171.691 81.0674,171.191 80,170.5C 79.2109,168.288 79.3775,166.288 80.5,164.5 Z"/></g>
<g><path style="opacity:1" fill="#d5706a" d="M 78.5,121.5 C 79.3382,121.842 79.6716,122.508 79.5,123.5C 79.5,123.833 79.5,124.167 79.5,124.5C 77.5516,126.32 76.5516,128.654 76.5,131.5C 75.8442,132.622 75.5108,133.955 75.5,135.5C 76.3494,141.253 77.1827,146.919 78,152.5C 73.0152,154.983 70.1819,158.983 69.5,164.5C 69.3845,169.386 71.7178,171.386 76.5,170.5C 76.3599,163.142 80.0265,159.642 87.5,160C 88.5289,158.302 90.0289,157.468 92,157.5C 95.1135,158.657 98.2802,159.157 101.5,159C 103.016,157.103 103.683,154.936 103.5,152.5C 103.328,151.508 103.662,150.842 104.5,150.5C 105.634,152.966 105.801,155.633 105,158.5C 103.559,159.87 101.892,160.87 100,161.5C 99.7714,168.892 95.9381,172.225 88.5,171.5C 86.9519,171.179 86.2852,170.179 86.5,168.5C 84.396,168.799 82.396,168.466 80.5,167.5C 80.9569,166.702 81.6236,166.369 82.5,166.5C 85.8606,165.797 86.1939,164.463 83.5,162.5C 82.2613,162.942 81.2613,163.609 80.5,164.5C 79.3775,166.288 79.2109,168.288 80,170.5C 81.0674,171.191 82.2341,171.691 83.5,172C 82.552,172.483 81.552,172.649 80.5,172.5C 79.0152,171.065 77.6819,171.232 76.5,173C 70.5057,174.183 67.1723,171.683 66.5,165.5C 67.2971,159.075 70.2971,153.908 75.5,150C 73.542,143.634 73.042,137.134 74,130.5C 75.0033,127.16 76.5033,124.16 78.5,121.5 Z"/></g>
<g><path style="opacity:1" fill="#fcbcc3" d="M 88.5,161.5 C 89.7075,164.616 91.3742,164.949 93.5,162.5C 94.1698,164.291 94.8365,165.958 95.5,167.5C 95.3893,168.117 95.056,168.617 94.5,169C 87.7564,170.314 85.7564,167.814 88.5,161.5 Z"/></g>
<g><path style="opacity:1" fill="#ffe8f5" d="M 82.5,166.5 C 81.8333,165.833 81.1667,165.167 80.5,164.5C 81.2613,163.609 82.2613,162.942 83.5,162.5C 86.1939,164.463 85.8606,165.797 82.5,166.5 Z"/></g>
<g><path style="opacity:1" fill="#ffeef7" d="M 95.5,167.5 C 94.8365,165.958 94.1698,164.291 93.5,162.5C 91.3742,164.949 89.7075,164.616 88.5,161.5C 95.7727,158.9 98.1061,160.9 95.5,167.5 Z"/></g>
<g><path style="opacity:1" fill="#d26f6e" d="M 85.5,152.5 C 90.2137,152.173 94.8804,152.507 99.5,153.5C 88.8296,152.995 79.9963,156.661 73,164.5C 72.5,164.167 72,163.833 71.5,163.5C 75.5069,158.849 80.1735,155.183 85.5,152.5 Z"/></g>
<g><path style="opacity:1" fill="#d3756c" d="M 18.5,153.5 C 23.8081,152.743 28.6414,153.743 33,156.5C 32.1127,162.722 31.6127,169.056 31.5,175.5C 32.9305,175.421 34.2638,175.754 35.5,176.5C 37.6148,170.882 41.4482,167.215 47,165.5C 48.9674,165.542 50.8008,166.042 52.5,167C 56.9747,169.814 61.1414,172.981 65,176.5C 67.2581,183.102 66.7581,189.436 63.5,195.5C 59.1575,195.924 54.8241,196.257 50.5,196.5C 47.9023,195.733 45.4023,194.733 43,193.5C 23.4291,199.124 12.2624,191.791 9.5,171.5C 9.35174,163.796 12.3517,157.796 18.5,153.5 Z"/></g>
<g><path style="opacity:1" fill="#ffd8e3" d="M 54.5,174.5 C 61.5224,173.848 64.1891,176.848 62.5,183.5C 55.6486,184.313 52.9819,181.313 54.5,174.5 Z"/></g>
<g><path style="opacity:1" fill="#df837d" d="M 56.5,177.5 C 58.1667,177.5 59.8333,177.5 61.5,177.5C 61.5,178.5 61.5,179.5 61.5,180.5C 59.8333,180.5 58.1667,180.5 56.5,180.5C 56.5,179.5 56.5,178.5 56.5,177.5 Z"/></g>
<g><path style="opacity:1" fill="#fff6f9" d="M 45.5,168.5 C 48.3128,168.548 50.9795,169.215 53.5,170.5C 54.3857,171.325 54.719,172.325 54.5,173.5C 53.5,173.5 52.5,173.5 51.5,173.5C 51.1842,176.978 51.6842,180.312 53,183.5C 56.2279,184.887 59.0612,186.887 61.5,189.5C 62.4519,191.045 62.7852,192.712 62.5,194.5C 55.564,193.745 50.7307,190.078 48,183.5C 47.8184,180.774 47.3184,178.107 46.5,175.5C 44.4983,182.343 46.165,188.176 51.5,193C 51.1667,193.5 50.8333,194 50.5,194.5C 46.4469,192.447 43.4469,189.447 41.5,185.5C 40.9708,188.257 39.9708,190.757 38.5,193C 33.0006,193.639 27.6673,192.972 22.5,191C 17.7023,188.266 16.2023,184.433 18,179.5C 20.4624,175.074 24.2957,173.074 29.5,173.5C 29.762,174.978 29.4287,176.311 28.5,177.5C 24.9204,179.936 23.7538,183.27 25,187.5C 25.414,187.957 25.914,188.291 26.5,188.5C 26.8377,184.163 28.5043,180.496 31.5,177.5C 32.7199,177.887 33.3865,178.72 33.5,180C 32.9818,181.626 32.6484,183.293 32.5,185C 32.3094,186.973 32.976,188.473 34.5,189.5C 35.3214,186.553 35.8214,183.553 36,180.5C 38.609,178.892 39.9423,176.559 40,173.5C 41.7297,171.598 43.563,169.931 45.5,168.5 Z"/></g>
<g><path style="opacity:1" fill="#ffedf7" d="M 21.5,165.5 C 23.8568,165.337 26.1902,165.503 28.5,166C 28.9662,167.299 28.9662,168.799 28.5,170.5C 22.396,170.468 17.896,173.135 15,178.5C 13.627,176.305 13.2937,173.971 14,171.5C 16.1111,168.881 18.6111,166.881 21.5,165.5 Z"/></g>
<g><path style="opacity:1" fill="#ffd5dc" d="M 20.5,155.5 C 23.5719,155.183 26.5719,155.516 29.5,156.5C 29.8333,157.167 30.1667,157.833 30.5,158.5C 27.4473,158.637 24.114,158.637 20.5,158.5C 20.4172,161.39 21.9172,162.057 25,160.5C 27.1454,160.396 28.9788,161.063 30.5,162.5C 24.0173,162.368 18.3507,164.368 13.5,168.5C 12.359,166.579 12.1923,164.579 13,162.5C 15.069,159.594 17.569,157.261 20.5,155.5 Z"/></g>
</svg>
