<?xml version="1.0" encoding="UTF-8"?>
<!DOCTYPE svg PUBLIC "-//W3C//DTD SVG 1.1//EN" "http://www.w3.org/Graphics/SVG/1.1/DTD/svg11.dtd">
<svg xmlns="http://www.w3.org/2000/svg" version="1.1" width="115px" height="220px" style="shape-rendering:geometricPrecision; text-rendering:geometricPrecision; image-rendering:optimizeQuality; fill-rule:evenodd; clip-rule:evenodd" xmlns:xlink="http://www.w3.org/1999/xlink">
<g><path style="opacity:1" fill="#000000" d="M -0.5,-0.5 C 37.8333,-0.5 76.1667,-0.5 114.5,-0.5C 114.5,72.8333 114.5,146.167 114.5,219.5C 76.1667,219.5 37.8333,219.5 -0.5,219.5C -0.5,146.167 -0.5,72.8333 -0.5,-0.5 Z"/></g>
<g><path style="opacity:1" fill="#fefdfd" d="M 1.5,1.5 C 38.5,1.5 75.5,1.5 112.5,1.5C 112.5,73.5 112.5,145.5 112.5,217.5C 75.5,217.5 38.5,217.5 1.5,217.5C 1.5,145.5 1.5,73.5 1.5,1.5 Z"/></g>
<g><path style="opacity:1" fill="#0b0b0b" d="M 29.5,19.5 C 34.5988,19.1746 39.5988,19.6746 44.5,21C 51.0988,27.5931 51.0988,34.2597 44.5,41C 50.1706,45.5297 52.004,51.363 50,58.5C 46.5336,63.8878 41.5336,66.2212 35,65.5C 30.9177,65.9092 27.2511,64.9092 24,62.5C 23.9382,59.8385 24.9382,57.5052 27,55.5C 32.1527,60.6537 37.1527,60.6537 42,55.5C 43.262,47.932 40.0954,44.2654 32.5,44.5C 32.5,42.1667 32.5,39.8333 32.5,37.5C 39.5027,38.3273 42.0027,35.3273 40,28.5C 38.8176,26.6431 37.151,25.6431 35,25.5C 32.3215,26.2799 29.8215,27.1133 27.5,28C 23.23,24.0342 23.8967,21.2008 29.5,19.5 Z"/></g>
<g><path style="opacity:1" fill="#0b0b0b" d="M 66.5,19.5 C 72.4337,18.8887 78.1004,19.722 83.5,22C 84.7014,22.9025 85.5348,24.0692 86,25.5C 87.7114,31.6938 86.2114,36.8604 81.5,41C 88.4442,45.4952 90.2776,51.6618 87,59.5C 78.7276,67.889 69.8943,68.5557 60.5,61.5C 61.8333,59.5 63.1667,57.5 64.5,55.5C 69.1606,60.2445 73.9939,60.5778 79,56.5C 81.2733,48.682 78.44,44.682 70.5,44.5C 70.5,42.1667 70.5,39.8333 70.5,37.5C 77.1623,38.0027 79.6623,35.0027 78,28.5C 73.8716,24.5537 69.7049,24.5537 65.5,28.5C 64.2887,27.1255 63.2887,25.6255 62.5,24C 63.6045,22.2847 64.9378,20.7847 66.5,19.5 Z"/></g>
<g><path style="opacity:1" fill="#000000" d="M 6.5,84.5 C 39.5,84.5 72.5,84.5 105.5,84.5C 105.5,85.5 105.5,86.5 105.5,87.5C 72.5,87.5 39.5,87.5 6.5,87.5C 6.5,86.5 6.5,85.5 6.5,84.5 Z"/></g>
<g><path style="opacity:1" fill="#fff3fb" d="M 80.5,130.5 C 78.8726,128.536 76.8726,127.203 74.5,126.5C 74.2965,128.39 74.9632,129.89 76.5,131C 75.4071,132.365 74.0738,132.699 72.5,132C 70.2177,129.603 68.8844,126.769 68.5,123.5C 69.1499,123.196 69.8165,122.863 70.5,122.5C 72.7498,107.462 76.9165,106.796 83,120.5C 85.5904,121.45 87.5904,123.116 89,125.5C 89.6667,126.5 89.6667,127.5 89,128.5C 83.1958,124.863 79.0291,119.863 76.5,113.5C 75.3861,114.723 75.2195,116.056 76,117.5C 78.9257,125.263 84.4257,129.93 92.5,131.5C 92.5,130.5 92.5,129.5 92.5,128.5C 93.8333,128.5 95.1667,128.5 96.5,128.5C 96.7035,130.39 96.0368,131.89 94.5,133C 89.4133,134.088 84.7467,133.254 80.5,130.5 Z"/></g>
<g><path style="opacity:1" fill="#e48986" d="M 36.5,114.5 C 35.209,114.263 34.209,114.596 33.5,115.5C 31.076,115.192 28.7427,115.526 26.5,116.5C 27.3482,118.409 27.6816,120.409 27.5,122.5C 29.5996,122.523 31.4329,121.856 33,120.5C 33.5,120.833 34,121.167 34.5,121.5C 33.0476,122.94 32.0476,124.606 31.5,126.5C 30.4138,126.62 29.7472,127.287 29.5,128.5C 30.2798,129.949 30.9465,131.449 31.5,133C 31.472,134.07 31.1386,134.903 30.5,135.5C 24.7548,137.636 18.7548,138.469 12.5,138C 9.00906,135.539 8.00906,132.373 9.5,128.5C 6.59284,124.358 6.92618,120.524 10.5,117C 15.5358,115.573 20.5358,114.24 25.5,113C 28.5,112.333 31.5,112.333 34.5,113C 35.4158,113.278 36.0825,113.778 36.5,114.5 Z"/></g>
<g><path style="opacity:1" fill="#ffeef6" d="M 19.5,116.5 C 24.5966,117.128 25.5966,119.461 22.5,123.5C 21.5713,122.311 21.238,120.978 21.5,119.5C 17.3601,120.044 16.6935,119.044 19.5,116.5 Z"/></g>
<g><path style="opacity:1" fill="#ffd7ea" d="M 11.5,119.5 C 12.5,119.5 13.5,119.5 14.5,119.5C 13.7542,123.31 12.7542,123.31 11.5,119.5 Z"/></g>
<g><path style="opacity:1" fill="#fff8fb" d="M 24.5,124.5 C 26.3464,124.222 27.6798,124.889 28.5,126.5C 25.8448,130.899 22.1782,133.899 17.5,135.5C 12.0853,134.214 11.0853,131.214 14.5,126.5C 18.4114,128.185 21.7447,127.518 24.5,124.5 Z"/></g>
<g><path style="opacity:1" fill="#fff5fb" d="M 33.5,115.5 C 34.4584,115.953 35.2917,116.619 36,117.5C 36.1001,120.437 36.9334,123.104 38.5,125.5C 37.1667,127.167 35.8333,128.833 34.5,130.5C 35.365,131.583 36.365,131.749 37.5,131C 38.7252,129.437 40.2252,128.27 42,127.5C 48.8807,134.023 47.7141,138.356 38.5,140.5C 36.0847,140.281 35.0847,138.948 35.5,136.5C 37.3084,136.509 38.9751,136.009 40.5,135C 41.731,133.817 41.731,132.651 40.5,131.5C 38.1843,133.494 35.5176,134.494 32.5,134.5C 32.9167,131.921 32.25,129.754 30.5,128C 31.056,127.617 31.3893,127.117 31.5,126.5C 32.0476,124.606 33.0476,122.94 34.5,121.5C 34,121.167 33.5,120.833 33,120.5C 31.4329,121.856 29.5996,122.523 27.5,122.5C 27.6816,120.409 27.3482,118.409 26.5,116.5C 28.7427,115.526 31.076,115.192 33.5,115.5 Z"/></g>
<g><path style="opacity:1" fill="#ed9397" d="M 78.5,133.5 C 79.2625,132.732 80.2625,132.232 81.5,132C 80.944,131.617 80.6107,131.117 80.5,130.5C 84.7467,133.254 89.4133,134.088 94.5,133C 96.0368,131.89 96.7035,130.39 96.5,128.5C 95.1667,128.5 93.8333,128.5 92.5,128.5C 92.5,129.5 92.5,130.5 92.5,131.5C 84.4257,129.93 78.9257,125.263 76,117.5C 75.2195,116.056 75.3861,114.723 76.5,113.5C 79.0291,119.863 83.1958,124.863 89,128.5C 89.6667,127.5 89.6667,126.5 89,125.5C 87.5904,123.116 85.5904,121.45 83,120.5C 76.9165,106.796 72.7498,107.462 70.5,122.5C 69.8165,122.863 69.1499,123.196 68.5,123.5C 68.1583,122.662 67.4916,122.328 66.5,122.5C 67.9867,119.015 69.1534,115.349 70,111.5C 71.8799,108.808 74.3799,107.641 77.5,108C 80.2072,110.733 83.3739,111.233 87,109.5C 89.1045,109.789 90.9379,110.622 92.5,112C 93.7956,114.862 95.6289,117.362 98,119.5C 98.6667,124.167 98.6667,128.833 98,133.5C 96.3144,135.919 93.981,136.919 91,136.5C 86.8036,135.654 82.6369,134.654 78.5,133.5 Z"/></g>
<g><path style="opacity:1" fill="#ffd0e3" d="M 92.5,118.5 C 96.4735,119.075 97.4735,121.242 95.5,125C 89.1697,125.175 88.1697,123.008 92.5,118.5 Z"/></g>
<g><path style="opacity:1" fill="#ffe2f3" d="M 82.5,112.5 C 85.1873,112.336 87.854,112.503 90.5,113C 91.9901,115.2 91.6568,117.034 89.5,118.5C 87.6304,112.053 85.9637,112.053 84.5,118.5C 82.7175,116.977 82.0508,114.977 82.5,112.5 Z"/></g>
<g><path style="opacity:1" fill="#e18487" d="M 66.5,122.5 C 67.4916,122.328 68.1583,122.662 68.5,123.5C 68.8844,126.769 70.2177,129.603 72.5,132C 74.0738,132.699 75.4071,132.365 76.5,131C 74.9632,129.89 74.2965,128.39 74.5,126.5C 76.8726,127.203 78.8726,128.536 80.5,130.5C 80.6107,131.117 80.944,131.617 81.5,132C 80.2625,132.232 79.2625,132.732 78.5,133.5C 75.819,135.688 73.6523,138.354 72,141.5C 71.2772,146.896 70.2772,152.229 69,157.5C 62.5113,163.475 57.1779,162.475 53,154.5C 51.1984,141.11 55.6984,130.444 66.5,122.5 Z"/></g>
<g><path style="opacity:1" fill="#ffd8eb" d="M 69.5,134.5 C 70.675,134.281 71.675,134.614 72.5,135.5C 71.348,137.825 69.5147,139.158 67,139.5C 63.3741,139.568 60.5408,138.235 58.5,135.5C 58.9186,134.328 59.5853,133.328 60.5,132.5C 62.7974,135.471 65.7974,137.138 69.5,137.5C 69.5,136.5 69.5,135.5 69.5,134.5 Z"/></g>
<g><path style="opacity:1" fill="#ffe2f3" d="M 69.5,134.5 C 65.1627,134.031 63.496,131.865 64.5,128C 66.5032,129.551 68.1699,131.718 69.5,134.5 Z"/></g>
<g><path style="opacity:1" fill="#dc8388" d="M 33.5,115.5 C 34.209,114.596 35.209,114.263 36.5,114.5C 38.8297,116.542 39.9964,119.208 40,122.5C 51.1788,132.091 52.5121,143.091 44,155.5C 39.7986,161.05 34.2986,163.217 27.5,162C 24.817,160.155 23.1503,157.655 22.5,154.5C 25.4134,150.406 28.5801,146.406 32,142.5C 32.8332,139.829 32.3332,137.496 30.5,135.5C 31.1386,134.903 31.472,134.07 31.5,133C 30.9465,131.449 30.2798,129.949 29.5,128.5C 29.7472,127.287 30.4138,126.62 31.5,126.5C 31.3893,127.117 31.056,127.617 30.5,128C 32.25,129.754 32.9167,131.921 32.5,134.5C 35.5176,134.494 38.1843,133.494 40.5,131.5C 41.731,132.651 41.731,133.817 40.5,135C 38.9751,136.009 37.3084,136.509 35.5,136.5C 35.0847,138.948 36.0847,140.281 38.5,140.5C 47.7141,138.356 48.8807,134.023 42,127.5C 40.2252,128.27 38.7252,129.437 37.5,131C 36.365,131.749 35.365,131.583 34.5,130.5C 35.8333,128.833 37.1667,127.167 38.5,125.5C 36.9334,123.104 36.1001,120.437 36,117.5C 35.2917,116.619 34.4584,115.953 33.5,115.5 Z"/></g>
<g><path style="opacity:1" fill="#ffe2f1" d="M 31.5,147.5 C 33.1958,147.685 34.5291,148.519 35.5,150C 38.3423,151.231 41.0089,151.731 43.5,151.5C 42.91,152.799 41.91,153.632 40.5,154C 37.5184,154.498 34.5184,154.665 31.5,154.5C 30.5615,152.09 30.5615,149.756 31.5,147.5 Z"/></g>
<g><path style="opacity:1" fill="#ffeef7" d="M 43.5,140.5 C 44.5,140.5 45.5,140.5 46.5,140.5C 46.4194,147.588 43.086,149.922 36.5,147.5C 33.4183,142.302 34.4183,140.969 39.5,143.5C 41.6528,143.439 42.9862,142.439 43.5,140.5 Z"/></g>
<g><path style="opacity:1" fill="#fff2f9" d="M 56.5,139.5 C 60.1569,141.653 64.1569,142.987 68.5,143.5C 67.2506,147.742 66.4173,152.075 66,156.5C 62.4566,159.38 59.2899,159.047 56.5,155.5C 58.7662,154.686 61.0995,154.186 63.5,154C 64.3366,152.989 64.67,151.822 64.5,150.5C 61.2139,151.207 57.8806,151.54 54.5,151.5C 54.3118,149.897 54.8118,148.563 56,147.5C 58.7191,148.444 61.5525,148.777 64.5,148.5C 64.5,147.5 64.5,146.5 64.5,145.5C 57.8369,148.144 55.1703,146.144 56.5,139.5 Z"/></g>
<g><path style="opacity:1" fill="#ffd1de" d="M 26.5,152.5 C 29.0113,154.503 31.6779,156.336 34.5,158C 28.7594,160.767 26.0928,158.934 26.5,152.5 Z"/></g>
<g><path style="opacity:1" fill="#fff7fb" d="M 46.5,166.5 C 48.1667,166.5 49.8333,166.5 51.5,166.5C 50.6185,170.909 51.9518,174.409 55.5,177C 59.8321,177.583 64.1654,178.083 68.5,178.5C 68.5,180.167 68.5,181.833 68.5,183.5C 65.4816,183.665 62.4816,183.498 59.5,183C 56.8333,181.333 54.1667,179.667 51.5,178C 49.8866,175.772 49.22,173.272 49.5,170.5C 48.5,170.5 47.5,170.5 46.5,170.5C 46.2384,175.476 48.2384,179.309 52.5,182C 55.3286,183.247 57.9952,184.747 60.5,186.5C 58.5787,187.641 56.5787,187.808 54.5,187C 52.4732,185.121 50.1398,183.954 47.5,183.5C 47.8881,185.685 48.8881,187.518 50.5,189C 47.5591,193.716 43.2258,195.883 37.5,195.5C 33.7436,195.246 30.0769,194.579 26.5,193.5C 26.3227,189.766 26.6561,186.099 27.5,182.5C 28.6874,180.025 30.6874,179.025 33.5,179.5C 32.0788,183.588 32.2455,187.588 34,191.5C 35.1827,192.731 36.3493,192.731 37.5,191.5C 35.699,188.465 35.0323,185.131 35.5,181.5C 36.5,181.5 37.5,181.5 38.5,181.5C 38.8482,185.194 40.5149,188.194 43.5,190.5C 43.8333,190 44.1667,189.5 44.5,189C 43.0471,187.217 42.0471,185.217 41.5,183C 42.7538,179.841 42.7538,176.675 41.5,173.5C 41.9806,170.348 43.6473,168.015 46.5,166.5 Z"/></g>
<g><path style="opacity:1" fill="#d68183" d="M 51.5,164.5 C 49.8333,165.167 48.1667,165.833 46.5,166.5C 43.6473,168.015 41.9806,170.348 41.5,173.5C 42.7538,176.675 42.7538,179.841 41.5,183C 42.0471,185.217 43.0471,187.217 44.5,189C 44.1667,189.5 43.8333,190 43.5,190.5C 40.5149,188.194 38.8482,185.194 38.5,181.5C 37.5,181.5 36.5,181.5 35.5,181.5C 35.0323,185.131 35.699,188.465 37.5,191.5C 36.3493,192.731 35.1827,192.731 34,191.5C 32.2455,187.588 32.0788,183.588 33.5,179.5C 30.6874,179.025 28.6874,180.025 27.5,182.5C 26.2101,183.058 25.3768,184.058 25,185.5C 24.6667,187.5 24.3333,189.5 24,191.5C 23.5034,189.19 23.3367,186.857 23.5,184.5C 24.5035,180.991 26.5035,178.158 29.5,176C 29.3865,174.72 28.7199,173.887 27.5,173.5C 25.2854,174.956 23.2854,176.622 21.5,178.5C 20.6851,179.429 19.8518,180.429 19,181.5C 18.699,184.462 18.5323,187.128 18.5,189.5C 11.8841,183.81 10.0508,176.81 13,168.5C 18.4292,161.084 24.0959,160.75 30,167.5C 31.1798,171.217 32.5131,174.884 34,178.5C 35.8138,179.76 37.6471,179.76 39.5,178.5C 37.3014,172.386 38.968,167.553 44.5,164C 47.0385,163.204 49.3718,163.371 51.5,164.5 Z"/></g>
<g><path style="opacity:1" fill="#ffdae5" d="M 20.5,165.5 C 26.2611,165.709 26.5945,166.542 21.5,168C 19.3843,169.171 18.7176,170.671 19.5,172.5C 22.2114,170.144 25.2114,169.477 28.5,170.5C 22.729,172.807 18.5624,176.807 16,182.5C 12.8492,175.445 14.3492,169.779 20.5,165.5 Z"/></g>
<g><path style="opacity:1" fill="#fff3fb" d="M 23.5,184.5 C 22.6981,185.952 22.1981,187.618 22,189.5C 21.3333,188.833 20.6667,188.167 20,187.5C 19.4138,184.271 19.9138,181.271 21.5,178.5C 23.2854,176.622 25.2854,174.956 27.5,173.5C 28.7199,173.887 29.3865,174.72 29.5,176C 26.5035,178.158 24.5035,180.991 23.5,184.5 Z"/></g>
<g><path style="opacity:1" fill="#e08688" d="M 91.5,139.5 C 94.1569,139.162 96.4902,139.829 98.5,141.5C 102.31,138.662 105.81,138.995 109,142.5C 109.667,146.5 109.667,150.5 109,154.5C 106.937,157.054 105.103,159.72 103.5,162.5C 109.169,175.336 106.502,186.169 95.5,195C 90.1978,198.691 84.5311,199.358 78.5,197C 76.6533,194.421 76.1533,191.588 77,188.5C 78.9216,184.337 81.5882,180.67 85,177.5C 86.772,173.687 87.6053,169.687 87.5,165.5C 81.339,166.669 76.5057,164.669 73,159.5C 71.6838,154.576 73.5171,151.91 78.5,151.5C 77.8748,148.03 78.8748,145.196 81.5,143C 85.0594,142.148 88.3927,140.981 91.5,139.5 Z"/></g>
<g><path style="opacity:1" fill="#ffe2f0" d="M 100.5,142.5 C 104.815,141.683 107.149,143.349 107.5,147.5C 107.209,152.288 105.042,155.954 101,158.5C 100.262,162.402 100.928,166.068 103,169.5C 103.667,172.5 103.667,175.5 103,178.5C 98.5868,179.632 94.0868,179.799 89.5,179C 88.6634,177.989 88.33,176.822 88.5,175.5C 92.4631,176.44 96.4631,176.607 100.5,176C 101.833,175 101.833,174 100.5,173C 98.524,172.812 96.524,172.979 94.5,173.5C 92.6814,173.658 91.3481,172.991 90.5,171.5C 93.4281,170.516 96.4281,170.183 99.5,170.5C 99.5,169.5 99.5,168.5 99.5,167.5C 96.4281,167.817 93.4281,167.484 90.5,166.5C 91.6554,165.05 93.1554,164.05 95,163.5C 95.4317,162.4 94.9317,161.733 93.5,161.5C 88.8673,162.553 84.2007,162.719 79.5,162C 76.5422,159.872 75.8756,157.206 77.5,154C 80.1792,153.566 82.8459,153.732 85.5,154.5C 89.0491,153.241 92.7158,152.407 96.5,152C 99.962,149.761 101.295,146.594 100.5,142.5 Z"/></g>
<g><path style="opacity:1" fill="#d47078" d="M 95.5,157.5 C 90.5374,158.496 85.5374,158.663 80.5,158C 84.0252,157.821 87.3586,157.321 90.5,156.5C 96.2197,155.223 100.886,152.223 104.5,147.5C 105.583,148.365 105.749,149.365 105,150.5C 102.517,153.823 99.3508,156.157 95.5,157.5 Z"/></g>
<g><path style="opacity:1" fill="#fa9fa7" d="M 90.5,156.5 C 87.3586,157.321 84.0252,157.821 80.5,158C 85.5374,158.663 90.5374,158.496 95.5,157.5C 95.0825,158.222 94.4158,158.722 93.5,159C 88.8452,159.499 84.1785,159.666 79.5,159.5C 79.5,158.5 79.5,157.5 79.5,156.5C 83.1667,156.5 86.8333,156.5 90.5,156.5 Z"/></g>
<g><path style="opacity:1" fill="#fdd0dd" d="M 83.5,143.5 C 90.536,142.603 92.2027,145.103 88.5,151C 86.2305,151.758 84.0639,151.591 82,150.5C 82.1571,148.169 82.6571,145.836 83.5,143.5 Z"/></g>
<g><path style="opacity:1" fill="#ffc0cd" d="M 93.5,141.5 C 98.6428,142.402 99.6428,144.902 96.5,149C 91.5042,148.828 91.5042,147.495 96.5,145C 94.7444,144.798 93.0777,144.298 91.5,143.5C 92.2427,142.818 92.9094,142.151 93.5,141.5 Z"/></g>
<g><path style="opacity:1" fill="#e39493" d="M 51.5,164.5 C 62.9125,164.226 69.5792,169.892 71.5,181.5C 71.1667,182.5 70.8333,183.5 70.5,184.5C 65.9671,185.71 61.8004,187.71 58,190.5C 56.5349,189.67 55.0349,189.504 53.5,190C 50.8737,194.652 46.8737,197.318 41.5,198C 31.8932,200.189 24.2265,197.355 18.5,189.5C 18.5323,187.128 18.699,184.462 19,181.5C 19.8518,180.429 20.6851,179.429 21.5,178.5C 19.9138,181.271 19.4138,184.271 20,187.5C 20.6667,188.167 21.3333,188.833 22,189.5C 22.1981,187.618 22.6981,185.952 23.5,184.5C 23.3367,186.857 23.5034,189.19 24,191.5C 24.3333,189.5 24.6667,187.5 25,185.5C 25.3768,184.058 26.2101,183.058 27.5,182.5C 26.6561,186.099 26.3227,189.766 26.5,193.5C 30.0769,194.579 33.7436,195.246 37.5,195.5C 43.2258,195.883 47.5591,193.716 50.5,189C 48.8881,187.518 47.8881,185.685 47.5,183.5C 50.1398,183.954 52.4732,185.121 54.5,187C 56.5787,187.808 58.5787,187.641 60.5,186.5C 57.9952,184.747 55.3286,183.247 52.5,182C 48.2384,179.309 46.2384,175.476 46.5,170.5C 47.5,170.5 48.5,170.5 49.5,170.5C 49.22,173.272 49.8866,175.772 51.5,178C 54.1667,179.667 56.8333,181.333 59.5,183C 62.4816,183.498 65.4816,183.665 68.5,183.5C 68.5,181.833 68.5,180.167 68.5,178.5C 64.1654,178.083 59.8321,177.583 55.5,177C 51.9518,174.409 50.6185,170.909 51.5,166.5C 49.8333,166.5 48.1667,166.5 46.5,166.5C 48.1667,165.833 49.8333,165.167 51.5,164.5 Z"/></g>
<g><path style="opacity:1" fill="#fff3fa" d="M 54.5,167.5 C 60.2228,166.571 63.2228,168.904 63.5,174.5C 60.8127,174.664 58.146,174.497 55.5,174C 53.3162,172.102 52.9829,169.936 54.5,167.5 Z"/></g>
<g><path style="opacity:1" fill="#ffeef8" d="M 85.5,180.5 C 90.2847,182.372 95.118,182.705 100,181.5C 100.5,182 101,182.5 101.5,183C 99.4461,187.441 96.4461,191.108 92.5,194C 88.9613,195.504 85.2946,195.837 81.5,195C 79.5794,193.759 79.246,192.259 80.5,190.5C 82.0009,191.752 83.6675,192.752 85.5,193.5C 86.7843,190.737 85.7843,189.07 82.5,188.5C 81.1667,187.167 81.1667,185.833 82.5,184.5C 86.2001,187.84 90.5335,189.174 95.5,188.5C 95.5,187.5 95.5,186.5 95.5,185.5C 92.059,185.699 88.7256,185.199 85.5,184C 84.3157,182.855 84.3157,181.688 85.5,180.5 Z"/></g>
</svg>
