<?xml version="1.0" encoding="UTF-8"?>
<!DOCTYPE svg PUBLIC "-//W3C//DTD SVG 1.1//EN" "http://www.w3.org/Graphics/SVG/1.1/DTD/svg11.dtd">
<svg xmlns="http://www.w3.org/2000/svg" version="1.1" width="115px" height="220px" style="shape-rendering:geometricPrecision; text-rendering:geometricPrecision; image-rendering:optimizeQuality; fill-rule:evenodd; clip-rule:evenodd" xmlns:xlink="http://www.w3.org/1999/xlink">
<g><path style="opacity:1" fill="#000000" d="M -0.5,-0.5 C 37.8333,-0.5 76.1667,-0.5 114.5,-0.5C 114.5,72.8333 114.5,146.167 114.5,219.5C 76.1667,219.5 37.8333,219.5 -0.5,219.5C -0.5,146.167 -0.5,72.8333 -0.5,-0.5 Z"/></g>
<g><path style="opacity:1" fill="#fefdfd" d="M 1.5,1.5 C 38.5,1.5 75.5,1.5 112.5,1.5C 112.5,73.5 112.5,145.5 112.5,217.5C 75.5,217.5 38.5,217.5 1.5,217.5C 1.5,145.5 1.5,73.5 1.5,1.5 Z"/></g>
<g><path style="opacity:1" fill="#0b0b0b" d="M 30.5,19.5 C 35.5988,19.1746 40.5988,19.6746 45.5,21C 52.0988,27.5931 52.0988,34.2597 45.5,41C 51.1706,45.5297 53.004,51.363 51,58.5C 47.5336,63.8878 42.5336,66.2212 36,65.5C 31.9177,65.9092 28.2511,64.9092 25,62.5C 24.9382,59.8385 25.9382,57.5052 28,55.5C 33.1527,60.6537 38.1527,60.6537 43,55.5C 44.262,47.932 41.0954,44.2654 33.5,44.5C 33.5,42.1667 33.5,39.8333 33.5,37.5C 40.5027,38.3273 43.0027,35.3273 41,28.5C 39.8176,26.6431 38.151,25.6431 36,25.5C 33.3215,26.2799 30.8215,27.1133 28.5,28C 24.23,24.0342 24.8967,21.2008 30.5,19.5 Z"/></g>
<g><path style="opacity:1" fill="#0a0a0a" d="M 77.5,19.5 C 80.7916,19.1196 83.1249,20.4529 84.5,23.5C 78.9754,26.8579 74.642,31.3579 71.5,37C 85.2385,34.7376 91.7385,40.5709 91,54.5C 87.3904,64.7207 80.2237,68.2207 69.5,65C 61.8008,58.2311 59.3008,49.7311 62,39.5C 65.1844,31.1663 70.3511,24.4997 77.5,19.5 Z"/></g>
<g><path style="opacity:1" fill="#f4f4f4" d="M 72.5,43.5 C 81.3285,42.8393 84.4951,46.8393 82,55.5C 77.5786,61.0865 73.5786,60.7531 70,54.5C 68.9464,50.3445 69.7798,46.6779 72.5,43.5 Z"/></g>
<g><path style="opacity:1" fill="#000000" d="M 6.5,84.5 C 39.5,84.5 72.5,84.5 105.5,84.5C 105.5,85.5 105.5,86.5 105.5,87.5C 72.5,87.5 39.5,87.5 6.5,87.5C 6.5,86.5 6.5,85.5 6.5,84.5 Z"/></g>
<g><path style="opacity:1" fill="#fff3fb" d="M 80.5,130.5 C 78.8726,128.536 76.8726,127.203 74.5,126.5C 74.2965,128.39 74.9632,129.89 76.5,131C 75.4071,132.365 74.0738,132.699 72.5,132C 70.654,129.976 69.3207,127.643 68.5,125C 68.6387,123.699 69.3054,122.866 70.5,122.5C 71.3195,119.695 71.8195,116.695 72,113.5C 73.2633,111.203 75.0966,110.37 77.5,111C 79.6972,113.928 81.5305,117.095 83,120.5C 85.94,121.868 88.1067,124.035 89.5,127C 89.3333,127.5 89.1667,128 89,128.5C 83.1958,124.863 79.0291,119.863 76.5,113.5C 75.4015,116.359 75.9015,119.026 78,121.5C 81.5575,126.694 86.3908,130.028 92.5,131.5C 92.5,130.5 92.5,129.5 92.5,128.5C 93.8333,128.5 95.1667,128.5 96.5,128.5C 96.7035,130.39 96.0368,131.89 94.5,133C 89.4133,134.088 84.7467,133.254 80.5,130.5 Z"/></g>
<g><path style="opacity:1" fill="#e17d7f" d="M 69.5,113.5 C 70.4767,116.287 70.81,119.287 70.5,122.5C 69.3054,122.866 68.6387,123.699 68.5,125C 69.3207,127.643 70.654,129.976 72.5,132C 74.0738,132.699 75.4071,132.365 76.5,131C 74.9632,129.89 74.2965,128.39 74.5,126.5C 76.8726,127.203 78.8726,128.536 80.5,130.5C 80.6107,131.117 80.944,131.617 81.5,132C 80.2625,132.232 79.2625,132.732 78.5,133.5C 75.819,135.688 73.6523,138.354 72,141.5C 71.3011,146.237 70.4677,150.904 69.5,155.5C 68.8826,155.611 68.3826,155.944 68,156.5C 67.5034,154.19 67.3367,151.857 67.5,149.5C 67.3184,147.409 67.6518,145.409 68.5,143.5C 66.2338,142.686 63.9005,142.186 61.5,142C 60.0577,141.623 59.0577,140.79 58.5,139.5C 57.0998,138.9 56.0998,137.9 55.5,136.5C 57.9706,129.917 62.1373,124.584 68,120.5C 68.1862,117.964 68.6862,115.631 69.5,113.5 Z"/></g>
<g><path style="opacity:1" fill="#ffe2f3" d="M 69.5,134.5 C 65.1627,134.031 63.496,131.865 64.5,128C 66.5032,129.551 68.1699,131.718 69.5,134.5 Z"/></g>
<g><path style="opacity:1" fill="#ef9599" d="M 78.5,133.5 C 79.2625,132.732 80.2625,132.232 81.5,132C 80.944,131.617 80.6107,131.117 80.5,130.5C 84.7467,133.254 89.4133,134.088 94.5,133C 96.0368,131.89 96.7035,130.39 96.5,128.5C 95.1667,128.5 93.8333,128.5 92.5,128.5C 92.5,129.5 92.5,130.5 92.5,131.5C 86.3908,130.028 81.5575,126.694 78,121.5C 75.9015,119.026 75.4015,116.359 76.5,113.5C 79.0291,119.863 83.1958,124.863 89,128.5C 89.1667,128 89.3333,127.5 89.5,127C 88.1067,124.035 85.94,121.868 83,120.5C 81.5305,117.095 79.6972,113.928 77.5,111C 75.0966,110.37 73.2633,111.203 72,113.5C 71.8195,116.695 71.3195,119.695 70.5,122.5C 70.81,119.287 70.4767,116.287 69.5,113.5C 72.2332,107.141 76.2332,106.141 81.5,110.5C 85.5062,108.768 89.1729,109.268 92.5,112C 93.7956,114.862 95.6289,117.362 98,119.5C 98.6667,124.167 98.6667,128.833 98,133.5C 94.7428,136.428 90.9094,137.262 86.5,136C 83.978,134.659 81.3113,133.826 78.5,133.5 Z"/></g>
<g><path style="opacity:1" fill="#ffd6ec" d="M 92.5,118.5 C 96.4735,119.075 97.4735,121.242 95.5,125C 92.741,125.977 90.741,125.144 89.5,122.5C 89.8333,122.167 90.1667,121.833 90.5,121.5C 91.5,122.167 92.5,122.833 93.5,123.5C 93.8333,123 94.1667,122.5 94.5,122C 93.5705,120.923 92.9038,119.756 92.5,118.5 Z"/></g>
<g><path style="opacity:1" fill="#ffdded" d="M 82.5,112.5 C 85.1873,112.336 87.854,112.503 90.5,113C 91.9901,115.2 91.6568,117.034 89.5,118.5C 87.6304,112.053 85.9637,112.053 84.5,118.5C 82.7175,116.977 82.0508,114.977 82.5,112.5 Z"/></g>
<g><path style="opacity:1" fill="#ffd8eb" d="M 69.5,134.5 C 70.675,134.281 71.675,134.614 72.5,135.5C 71.348,137.825 69.5147,139.158 67,139.5C 63.3741,139.568 60.5408,138.235 58.5,135.5C 58.9186,134.328 59.5853,133.328 60.5,132.5C 62.7974,135.471 65.7974,137.138 69.5,137.5C 69.5,136.5 69.5,135.5 69.5,134.5 Z"/></g>
<g><path style="opacity:1" fill="#ffecf6" d="M 58.5,139.5 C 59.0577,140.79 60.0577,141.623 61.5,142C 63.9005,142.186 66.2338,142.686 68.5,143.5C 67.6518,145.409 67.3184,147.409 67.5,149.5C 66.9965,152.453 65.9965,155.286 64.5,158C 61.1074,159.168 58.4408,158.334 56.5,155.5C 58.7662,154.686 61.0995,154.186 63.5,154C 64.3366,152.989 64.67,151.822 64.5,150.5C 61.2139,151.207 57.8806,151.54 54.5,151.5C 54.3118,149.897 54.8118,148.563 56,147.5C 58.7191,148.444 61.5525,148.777 64.5,148.5C 64.5,147.5 64.5,146.5 64.5,145.5C 62.1806,146.167 59.8473,146.334 57.5,146C 54.5983,143.136 54.9316,140.969 58.5,139.5 Z"/></g>
<g><path style="opacity:1" fill="#df8588" d="M 25.5,112.5 C 34.1698,110.568 39.0032,113.901 40,122.5C 51.1788,132.091 52.5121,143.091 44,155.5C 39.7986,161.05 34.2986,163.217 27.5,162C 24.817,160.155 23.1503,157.655 22.5,154.5C 25.4134,150.406 28.5801,146.406 32,142.5C 33.0904,139.421 32.2571,137.088 29.5,135.5C 24.1022,137.718 18.4355,138.551 12.5,138C 9.00906,135.539 8.00906,132.373 9.5,128.5C 6.59284,124.358 6.92618,120.524 10.5,117C 15.0242,115.409 19.6909,114.409 24.5,114C 25.056,113.617 25.3893,113.117 25.5,112.5 Z"/></g>
<g><path style="opacity:1" fill="#ffd8e7" d="M 31.5,147.5 C 33.1958,147.685 34.5291,148.519 35.5,150C 38.3423,151.231 41.0089,151.731 43.5,151.5C 42.91,152.799 41.91,153.632 40.5,154C 37.5184,154.498 34.5184,154.665 31.5,154.5C 30.5615,152.09 30.5615,149.756 31.5,147.5 Z"/></g>
<g><path style="opacity:1" fill="#fff0f9" d="M 43.5,140.5 C 44.5,140.5 45.5,140.5 46.5,140.5C 46.4194,147.588 43.086,149.922 36.5,147.5C 33.4183,142.302 34.4183,140.969 39.5,143.5C 41.6528,143.439 42.9862,142.439 43.5,140.5 Z"/></g>
<g><path style="opacity:1" fill="#fff5fa" d="M 26.5,115.5 C 30.0071,114.994 33.1737,115.66 36,117.5C 36.1001,120.437 36.9334,123.104 38.5,125.5C 37.1667,127.167 35.8333,128.833 34.5,130.5C 35.365,131.583 36.365,131.749 37.5,131C 41.6507,126.111 44.4841,126.945 46,133.5C 46.6667,134.5 46.6667,135.5 46,136.5C 43.1323,138.755 39.9656,139.922 36.5,140C 35.6634,138.989 35.33,137.822 35.5,136.5C 37.3084,136.509 38.9751,136.009 40.5,135C 41.731,133.817 41.731,132.651 40.5,131.5C 38.1843,133.494 35.5176,134.494 32.5,134.5C 32.7852,132.712 32.4519,131.045 31.5,129.5C 30.0962,130.999 29.4296,130.666 29.5,128.5C 30.9213,125.991 32.5879,123.657 34.5,121.5C 34,121.167 33.5,120.833 33,120.5C 31.4329,121.856 29.5996,122.523 27.5,122.5C 27.552,120.097 27.2186,117.764 26.5,115.5 Z"/></g>
<g><path style="opacity:1" fill="#fff8fb" d="M 24.5,124.5 C 26.3464,124.222 27.6798,124.889 28.5,126.5C 25.8448,130.899 22.1782,133.899 17.5,135.5C 12.0853,134.214 11.0853,131.214 14.5,126.5C 18.4114,128.185 21.7447,127.518 24.5,124.5 Z"/></g>
<g><path style="opacity:1" fill="#ffe7f2" d="M 19.5,116.5 C 24.5966,117.128 25.5966,119.461 22.5,123.5C 21.5713,122.311 21.238,120.978 21.5,119.5C 17.3601,120.044 16.6935,119.044 19.5,116.5 Z"/></g>
<g><path style="opacity:1" fill="#ffd7ea" d="M 11.5,119.5 C 12.5,119.5 13.5,119.5 14.5,119.5C 13.7542,123.31 12.7542,123.31 11.5,119.5 Z"/></g>
<g><path style="opacity:1" fill="#ffcfde" d="M 26.5,152.5 C 29.0113,154.503 31.6779,156.336 34.5,158C 28.7594,160.767 26.0928,158.934 26.5,152.5 Z"/></g>
<g><path style="opacity:1" fill="#e29398" d="M 55.5,136.5 C 56.0998,137.9 57.0998,138.9 58.5,139.5C 54.9316,140.969 54.5983,143.136 57.5,146C 59.8473,146.334 62.1806,146.167 64.5,145.5C 64.5,146.5 64.5,147.5 64.5,148.5C 61.5525,148.777 58.7191,148.444 56,147.5C 54.8118,148.563 54.3118,149.897 54.5,151.5C 57.8806,151.54 61.2139,151.207 64.5,150.5C 64.67,151.822 64.3366,152.989 63.5,154C 61.0995,154.186 58.7662,154.686 56.5,155.5C 58.4408,158.334 61.1074,159.168 64.5,158C 65.9965,155.286 66.9965,152.453 67.5,149.5C 67.3367,151.857 67.5034,154.19 68,156.5C 68.3826,155.944 68.8826,155.611 69.5,155.5C 67.7791,161.027 64.1124,162.86 58.5,161C 57,159.5 55.5,158 54,156.5C 52.4301,150.947 52.0968,145.281 53,139.5C 53.8518,138.429 54.6851,137.429 55.5,136.5 Z"/></g>
<g><path style="opacity:1" fill="#fff7fb" d="M 46.5,166.5 C 48.1667,166.5 49.8333,166.5 51.5,166.5C 50.6185,170.909 51.9518,174.409 55.5,177C 59.8321,177.583 64.1654,178.083 68.5,178.5C 68.5,180.167 68.5,181.833 68.5,183.5C 65.4816,183.665 62.4816,183.498 59.5,183C 56.8333,181.333 54.1667,179.667 51.5,178C 49.8866,175.772 49.22,173.272 49.5,170.5C 48.5,170.5 47.5,170.5 46.5,170.5C 46.2384,175.476 48.2384,179.309 52.5,182C 55.3286,183.247 57.9952,184.747 60.5,186.5C 58.5787,187.641 56.5787,187.808 54.5,187C 52.4732,185.121 50.1398,183.954 47.5,183.5C 47.8881,185.685 48.8881,187.518 50.5,189C 47.5591,193.716 43.2258,195.883 37.5,195.5C 33.7436,195.246 30.0769,194.579 26.5,193.5C 26.3227,189.766 26.6561,186.099 27.5,182.5C 28.6874,180.025 30.6874,179.025 33.5,179.5C 32.0788,183.588 32.2455,187.588 34,191.5C 35.1827,192.731 36.3493,192.731 37.5,191.5C 35.699,188.465 35.0323,185.131 35.5,181.5C 36.5,181.5 37.5,181.5 38.5,181.5C 38.8482,185.194 40.5149,188.194 43.5,190.5C 43.8333,190 44.1667,189.5 44.5,189C 43.0471,187.217 42.0471,185.217 41.5,183C 42.7538,179.841 42.7538,176.675 41.5,173.5C 41.9806,170.348 43.6473,168.015 46.5,166.5 Z"/></g>
<g><path style="opacity:1" fill="#d47f81" d="M 51.5,164.5 C 49.8333,165.167 48.1667,165.833 46.5,166.5C 43.6473,168.015 41.9806,170.348 41.5,173.5C 42.7538,176.675 42.7538,179.841 41.5,183C 42.0471,185.217 43.0471,187.217 44.5,189C 44.1667,189.5 43.8333,190 43.5,190.5C 40.5149,188.194 38.8482,185.194 38.5,181.5C 37.5,181.5 36.5,181.5 35.5,181.5C 35.0323,185.131 35.699,188.465 37.5,191.5C 36.3493,192.731 35.1827,192.731 34,191.5C 32.2455,187.588 32.0788,183.588 33.5,179.5C 30.6874,179.025 28.6874,180.025 27.5,182.5C 24.925,184.845 23.925,187.845 24.5,191.5C 23.209,191.263 22.209,191.596 21.5,192.5C 13.6909,187.211 10.5242,179.878 12,170.5C 16.9181,161.346 22.9181,160.346 30,167.5C 31.1798,171.217 32.5131,174.884 34,178.5C 35.8138,179.76 37.6471,179.76 39.5,178.5C 37.3014,172.386 38.968,167.553 44.5,164C 47.0385,163.204 49.3718,163.371 51.5,164.5 Z"/></g>
<g><path style="opacity:1" fill="#ffecf4" d="M 26.5,173.5 C 28.2517,173.418 29.2517,174.251 29.5,176C 25.0569,179.383 22.5569,183.883 22,189.5C 18.8907,187.614 17.8907,184.947 19,181.5C 21.705,178.964 24.205,176.297 26.5,173.5 Z"/></g>
<g><path style="opacity:1" fill="#ffe0ec" d="M 20.5,165.5 C 26.2611,165.709 26.5945,166.542 21.5,168C 19.3843,169.171 18.7176,170.671 19.5,172.5C 22.2114,170.144 25.2114,169.477 28.5,170.5C 22.729,172.807 18.5624,176.807 16,182.5C 12.8492,175.445 14.3492,169.779 20.5,165.5 Z"/></g>
<g><path style="opacity:1" fill="#e39393" d="M 51.5,164.5 C 62.9125,164.226 69.5792,169.892 71.5,181.5C 71.1667,182.5 70.8333,183.5 70.5,184.5C 65.9671,185.71 61.8004,187.71 58,190.5C 56.5349,189.67 55.0349,189.504 53.5,190C 50.8737,194.652 46.8737,197.318 41.5,198C 33.6255,199.98 26.9588,198.146 21.5,192.5C 22.209,191.596 23.209,191.263 24.5,191.5C 23.925,187.845 24.925,184.845 27.5,182.5C 26.6561,186.099 26.3227,189.766 26.5,193.5C 30.0769,194.579 33.7436,195.246 37.5,195.5C 43.2258,195.883 47.5591,193.716 50.5,189C 48.8881,187.518 47.8881,185.685 47.5,183.5C 50.1398,183.954 52.4732,185.121 54.5,187C 56.5787,187.808 58.5787,187.641 60.5,186.5C 57.9952,184.747 55.3286,183.247 52.5,182C 48.2384,179.309 46.2384,175.476 46.5,170.5C 47.5,170.5 48.5,170.5 49.5,170.5C 49.22,173.272 49.8866,175.772 51.5,178C 54.1667,179.667 56.8333,181.333 59.5,183C 62.4816,183.498 65.4816,183.665 68.5,183.5C 68.5,181.833 68.5,180.167 68.5,178.5C 64.1654,178.083 59.8321,177.583 55.5,177C 51.9518,174.409 50.6185,170.909 51.5,166.5C 49.8333,166.5 48.1667,166.5 46.5,166.5C 48.1667,165.833 49.8333,165.167 51.5,164.5 Z"/></g>
<g><path style="opacity:1" fill="#fff3fa" d="M 54.5,167.5 C 60.2228,166.571 63.2228,168.904 63.5,174.5C 60.8127,174.664 58.146,174.497 55.5,174C 53.3162,172.102 52.9829,169.936 54.5,167.5 Z"/></g>
<g><path style="opacity:1" fill="#e08688" d="M 91.5,139.5 C 94.1569,139.162 96.4902,139.829 98.5,141.5C 103.423,138.356 107.257,139.356 110,144.5C 110.667,147.5 110.667,150.5 110,153.5C 107.606,156.385 105.439,159.385 103.5,162.5C 109.169,175.336 106.502,186.169 95.5,195C 90.1978,198.691 84.5311,199.358 78.5,197C 76.6533,194.421 76.1533,191.588 77,188.5C 78.9216,184.337 81.5882,180.67 85,177.5C 86.772,173.687 87.6053,169.687 87.5,165.5C 81.339,166.669 76.5057,164.669 73,159.5C 71.6838,154.576 73.5171,151.91 78.5,151.5C 77.8748,148.03 78.8748,145.196 81.5,143C 85.0594,142.148 88.3927,140.981 91.5,139.5 Z"/></g>
<g><path style="opacity:1" fill="#ffeff9" d="M 85.5,180.5 C 90.2847,182.372 95.118,182.705 100,181.5C 100.5,182 101,182.5 101.5,183C 99.4461,187.441 96.4461,191.108 92.5,194C 88.9613,195.504 85.2946,195.837 81.5,195C 79.5794,193.759 79.246,192.259 80.5,190.5C 82.0009,191.752 83.6675,192.752 85.5,193.5C 86.7843,190.737 85.7843,189.07 82.5,188.5C 81.1667,187.167 81.1667,185.833 82.5,184.5C 86.2001,187.84 90.5335,189.174 95.5,188.5C 95.5,187.5 95.5,186.5 95.5,185.5C 92.059,185.699 88.7256,185.199 85.5,184C 84.3157,182.855 84.3157,181.688 85.5,180.5 Z"/></g>
<g><path style="opacity:1" fill="#ffe2f0" d="M 100.5,142.5 C 104.815,141.683 107.149,143.349 107.5,147.5C 107.209,152.288 105.042,155.954 101,158.5C 100.262,162.402 100.928,166.068 103,169.5C 103.667,172.5 103.667,175.5 103,178.5C 98.5868,179.632 94.0868,179.799 89.5,179C 88.6634,177.989 88.33,176.822 88.5,175.5C 92.4631,176.44 96.4631,176.607 100.5,176C 101.833,175 101.833,174 100.5,173C 98.524,172.812 96.524,172.979 94.5,173.5C 92.6814,173.658 91.3481,172.991 90.5,171.5C 93.4281,170.516 96.4281,170.183 99.5,170.5C 99.5,169.5 99.5,168.5 99.5,167.5C 96.4281,167.817 93.4281,167.484 90.5,166.5C 91.6554,165.05 93.1554,164.05 95,163.5C 95.4317,162.4 94.9317,161.733 93.5,161.5C 88.8673,162.553 84.2007,162.719 79.5,162C 76.5422,159.872 75.8756,157.206 77.5,154C 80.1792,153.566 82.8459,153.732 85.5,154.5C 89.0491,153.241 92.7158,152.407 96.5,152C 99.962,149.761 101.295,146.594 100.5,142.5 Z"/></g>
<g><path style="opacity:1" fill="#e07f86" d="M 103.5,147.5 C 105.225,147.843 105.725,148.843 105,150.5C 98.4002,158.71 89.9002,161.71 79.5,159.5C 79.5,158.5 79.5,157.5 79.5,156.5C 84.1785,156.666 88.8452,156.499 93.5,156C 95.0261,154.113 97.0261,153.113 99.5,153C 101.464,151.549 102.797,149.716 103.5,147.5 Z"/></g>
<g><path style="opacity:1" fill="#fed2df" d="M 83.5,143.5 C 90.536,142.603 92.2027,145.103 88.5,151C 86.2305,151.758 84.0639,151.591 82,150.5C 82.1571,148.169 82.6571,145.836 83.5,143.5 Z"/></g>
<g><path style="opacity:1" fill="#ffc0cd" d="M 93.5,141.5 C 98.6428,142.402 99.6428,144.902 96.5,149C 91.5042,148.828 91.5042,147.495 96.5,145C 94.7444,144.798 93.0777,144.298 91.5,143.5C 92.2427,142.818 92.9094,142.151 93.5,141.5 Z"/></g>
</svg>
