<?xml version="1.0" encoding="UTF-8"?>
<!DOCTYPE svg PUBLIC "-//W3C//DTD SVG 1.1//EN" "http://www.w3.org/Graphics/SVG/1.1/DTD/svg11.dtd">
<svg xmlns="http://www.w3.org/2000/svg" version="1.1" width="400px" height="400px" style="shape-rendering:geometricPrecision; text-rendering:geometricPrecision; image-rendering:optimizeQuality; fill-rule:evenodd; clip-rule:evenodd" xmlns:xlink="http://www.w3.org/1999/xlink">
<g><path style="opacity:1" fill="#fbfcfb" d="M -0.5,0.5 C 132.833,0.5 266.167,0.5 399.5,0.5C 399.5,133.5 399.5,266.5 399.5,399.5C 266.167,399.5 132.833,399.5 -0.5,399.5C -0.5,266.5 -0.5,133.5 -0.5,0.5 Z"/></g>
<g><path style="opacity:1" fill="#243541" d="M 48.5,11.5 C 149.167,11.3333 249.834,11.5 350.5,12C 353.522,12.0984 356.189,12.9318 358.5,14.5C 355.5,14.5 352.5,14.5 349.5,14.5C 349.389,13.8826 349.056,13.3826 348.5,13C 248.834,12.5 149.167,12.3333 49.5,12.5C 46.8333,12.8333 44.1667,13.1667 41.5,13.5C 43.5145,12.0762 45.8478,11.4095 48.5,11.5 Z"/></g>
<g><path style="opacity:1" fill="#bac5cb" d="M 387.5,347.5 C 387.833,247.332 387.499,147.332 386.5,47.5C 385.795,39.6859 382.795,33.0192 377.5,27.5C 377.5,25.5 376.5,24.5 374.5,24.5C 374.167,23.8333 373.833,23.1667 373.5,22.5C 372.415,20.4131 370.749,19.0798 368.5,18.5C 367.508,18.6716 366.842,18.3382 366.5,17.5C 364.967,15.7549 362.967,14.7549 360.5,14.5C 359.833,14.5 359.167,14.5 358.5,14.5C 356.189,12.9318 353.522,12.0984 350.5,12C 249.834,11.5 149.167,11.3333 48.5,11.5C 151.569,10.8323 254.736,10.1656 358,9.5C 358.915,10.3279 359.581,11.3279 360,12.5C 362.146,13.0805 364.146,12.4138 366,10.5C 368.447,12.5658 370.281,15.0658 371.5,18C 372.833,18 374.167,18 375.5,18C 374.549,18.7175 374.383,19.5509 375,20.5C 377.186,24.0182 380.353,25.8515 384.5,26C 385.952,27.9583 386.285,29.9583 385.5,32C 387.781,33.4823 387.781,35.149 385.5,37C 386.448,37.4828 387.448,37.6495 388.5,37.5C 389.045,41.4709 390.379,45.1376 392.5,48.5C 390.973,53.5554 389.806,53.2221 389,47.5C 388.833,147.668 388.333,247.668 387.5,347.5 Z"/></g>
<g><path style="opacity:1" fill="#051d2e" d="M 49.5,12.5 C 149.167,12.3333 248.834,12.5 348.5,13C 349.056,13.3826 349.389,13.8826 349.5,14.5C 251.787,14.1933 153.787,14.5267 55.5,15.5C 52.9527,15.229 50.9527,14.229 49.5,12.5 Z"/></g>
<g><path style="opacity:1" fill="#565e63" d="M 37.5,13.5 C 38.8333,13.5 40.1667,13.5 41.5,13.5C 38.9116,15.5918 35.9116,16.9251 32.5,17.5C 33.9842,15.9263 35.6508,14.593 37.5,13.5 Z"/></g>
<g><path style="opacity:1" fill="#9ca7af" d="M 360.5,14.5 C 362.967,14.7549 364.967,15.7549 366.5,17.5C 366.167,17.5 365.833,17.5 365.5,17.5C 363.435,17.047 361.768,16.047 360.5,14.5 Z"/></g>
<g><path style="opacity:1" fill="#b1b9c5" d="M 368.5,18.5 C 370.749,19.0798 372.415,20.4131 373.5,22.5C 373.167,22.5 372.833,22.5 372.5,22.5C 370.833,21.5 369.5,20.1667 368.5,18.5 Z"/></g>
<g><path style="opacity:1" fill="#4d5c69" d="M 30.5,18.5 C 28.7607,21.2427 26.4274,23.2427 23.5,24.5C 25.2393,21.7573 27.5726,19.7573 30.5,18.5 Z"/></g>
<g><path style="opacity:1" fill="#8f9fa7" d="M 374.5,24.5 C 376.5,24.5 377.5,25.5 377.5,27.5C 376.167,26.8333 375.167,25.8333 374.5,24.5 Z"/></g>
<g><path style="opacity:1" fill="#60707a" d="M 18.5,30.5 C 18.573,32.0269 17.9063,33.0269 16.5,33.5C 16.427,31.9731 17.0937,30.9731 18.5,30.5 Z"/></g>
<g><path style="opacity:1" fill="#062136" d="M 49.5,12.5 C 50.9527,14.229 52.9527,15.229 55.5,15.5C 153.787,14.5267 251.787,14.1933 349.5,14.5C 352.5,14.5 355.5,14.5 358.5,14.5C 359.167,14.5 359.833,14.5 360.5,14.5C 361.768,16.047 363.435,17.047 365.5,17.5C 362.835,21.5007 361.169,25.834 360.5,30.5C 364.348,30.3114 368.015,30.3114 371.5,30.5C 370.833,31.5 370.167,32.5 369.5,33.5C 370.025,34.1924 370.692,34.6924 371.5,35C 369.878,36.2951 368.545,37.7951 367.5,39.5C 367.608,40.4419 367.941,41.2753 368.5,42C 367.676,44.5505 366.676,47.0505 365.5,49.5C 365.046,46.0359 363.713,42.8692 361.5,40C 361.645,39.228 361.978,38.5613 362.5,38C 356.746,38.2927 351.746,36.2927 347.5,32C 344.647,30.5699 341.647,29.7366 338.5,29.5C 338.5,30.8333 338.5,32.1667 338.5,33.5C 243.305,33.8297 148.138,33.4964 53,32.5C 51.6362,33.3707 50.4695,34.3707 49.5,35.5C 42.0485,34.8889 36.7152,37.8889 33.5,44.5C 30.6008,43.5056 29.9341,44.5056 31.5,47.5C 30.9747,48.1924 30.3081,48.6924 29.5,49C 30.4438,51.7191 30.7771,54.5525 30.5,57.5C 29.7473,54.0312 28.414,50.6978 26.5,47.5C 23.5844,49.9911 22.9178,52.9911 24.5,56.5C 25.7362,57.2458 27.0695,57.5792 28.5,57.5C 28.5,150.833 28.5,244.167 28.5,337.5C 26.1667,337.5 23.8333,337.5 21.5,337.5C 21.6667,244.833 21.5,152.166 21,59.5C 20.3333,58.8333 19.6667,58.1667 19,57.5C 18.5014,53.8484 18.3347,50.1817 18.5,46.5C 17.325,46.281 16.325,46.6143 15.5,47.5C 13.7778,51.2015 13.6112,54.8681 15,58.5C 15.5,154.833 15.6667,251.166 15.5,347.5C 14.2395,344.742 13.4061,341.742 13,338.5C 12.3452,241.467 12.3452,144.467 13,47.5C 12.6667,47.8333 12.3333,48.1667 12,48.5C 11.5,150.166 11.3333,251.833 11.5,353.5C 10.5005,251.668 10.1672,149.668 10.5,47.5C 11.871,45.064 12.871,42.3973 13.5,39.5C 13.5569,38.391 13.8902,37.391 14.5,36.5C 15.9063,36.0269 16.573,35.0269 16.5,33.5C 17.9063,33.0269 18.573,32.0269 18.5,30.5C 19.4194,27.9108 21.086,25.9108 23.5,24.5C 26.4274,23.2427 28.7607,21.2427 30.5,18.5C 30.8417,17.6618 31.5084,17.3284 32.5,17.5C 35.9116,16.9251 38.9116,15.5918 41.5,13.5C 44.1667,13.1667 46.8333,12.8333 49.5,12.5 Z"/></g>
<g><path style="opacity:1" fill="#00203a" d="M 63.5,25.5 C 153.715,25.7357 243.882,25.7357 334,25.5C 335.609,26.1466 337.109,26.98 338.5,28C 337.663,29.0113 337.33,30.1779 337.5,31.5C 244.831,31.8333 152.164,31.5 59.5,30.5C 58.6744,29.549 58.5078,28.549 59,27.5C 60.6225,26.9011 62.1225,26.2344 63.5,25.5 Z"/></g>
<g><path style="opacity:1" fill="#021f39" d="M 59.5,16.5 C 152.167,16.3333 244.834,16.5 337.5,17C 340.377,18.1268 343.377,18.7935 346.5,19C 347.973,19.7096 348.64,20.8762 348.5,22.5C 351.5,22.5 354.5,22.5 357.5,22.5C 357.48,24.143 358.147,25.4763 359.5,26.5C 358.652,28.4086 358.318,30.4086 358.5,32.5C 355.167,32.1667 351.833,31.8333 348.5,31.5C 348.5,30.5 348.5,29.5 348.5,28.5C 345.644,27.1721 342.644,26.1721 339.5,25.5C 339.714,23.8561 339.38,22.3561 338.5,21C 245.167,20.5 151.834,20.3333 58.5,20.5C 58.4326,19.0413 58.7659,17.7079 59.5,16.5 Z"/></g>
<g><path style="opacity:1" fill="#01203a" d="M 365.5,17.5 C 365.833,17.5 366.167,17.5 366.5,17.5C 366.842,18.3382 367.508,18.6716 368.5,18.5C 369.5,20.1667 370.833,21.5 372.5,22.5C 370.816,27.4711 372.482,30.4711 377.5,31.5C 377.833,33.5 378.167,35.5 378.5,37.5C 376.341,38.8282 374.674,40.6615 373.5,43C 373.363,140.467 373.53,237.967 374,335.5C 374.914,337.289 375.747,339.123 376.5,341C 375.007,346.205 374.007,351.538 373.5,357C 376.338,358.755 377.005,361.088 375.5,364C 376.973,364.71 377.64,365.876 377.5,367.5C 371.46,371.684 365.126,375.017 358.5,377.5C 357.257,378.737 356.257,378.404 355.5,376.5C 351.413,376.272 348.08,374.605 345.5,371.5C 347.519,369.81 349.519,368.144 351.5,366.5C 352.338,366.158 352.672,365.492 352.5,364.5C 354.541,364.854 356.374,364.854 358,364.5C 358.908,366.439 360.408,367.439 362.5,367.5C 362.606,364.892 363.772,362.892 366,361.5C 367.129,356.191 368.129,350.857 369,345.5C 369.667,250.167 369.667,154.833 369,59.5C 367.209,56.6504 366.042,53.6504 365.5,50.5C 365.5,50.1667 365.5,49.8333 365.5,49.5C 366.676,47.0505 367.676,44.5505 368.5,42C 367.941,41.2753 367.608,40.4419 367.5,39.5C 368.545,37.7951 369.878,36.2951 371.5,35C 370.692,34.6924 370.025,34.1924 369.5,33.5C 370.167,32.5 370.833,31.5 371.5,30.5C 368.015,30.3114 364.348,30.3114 360.5,30.5C 361.169,25.834 362.835,21.5007 365.5,17.5 Z"/></g>
<g><path style="opacity:1" fill="#78868f" d="M 16.5,33.5 C 16.573,35.0269 15.9063,36.0269 14.5,36.5C 14.427,34.9731 15.0937,33.9731 16.5,33.5 Z"/></g>
<g><path style="opacity:1" fill="#fefefe" d="M 49.5,36.5 C 59.5,36.5 69.5,36.5 79.5,36.5C 76.023,37.3227 72.3563,37.8227 68.5,38C 72.1667,38.3333 75.8333,38.6667 79.5,39C 166.507,39.6022 253.507,39.6022 340.5,39C 343.086,40.3109 345.586,41.8109 348,43.5C 348.333,42.8333 348.667,42.1667 349,41.5C 350.095,45.1337 352.262,46.1337 355.5,44.5C 357.935,47.7968 359.602,51.1302 360.5,54.5C 361.5,153.164 361.833,251.831 361.5,350.5C 361.002,353.326 359.669,355.66 357.5,357.5C 355.473,357.338 353.473,357.505 351.5,358C 350.663,359.011 350.33,360.178 350.5,361.5C 250.81,361.491 151.144,361.491 51.5,361.5C 50.6667,360.5 49.8333,359.5 49,358.5C 47.2354,357.761 45.2354,357.761 43,358.5C 42.7266,356.899 42.2266,355.399 41.5,354C 40.2506,353.26 39.2506,353.427 38.5,354.5C 37.8571,352.924 36.8571,351.59 35.5,350.5C 35.5,349.833 35.5,349.167 35.5,348.5C 35.1757,248.145 35.5091,147.811 36.5,47.5C 37.9063,47.0269 38.573,46.0269 38.5,44.5C 40.8333,42.8333 42.8333,40.8333 44.5,38.5C 45.9303,37.4625 47.597,36.7959 49.5,36.5 Z"/></g>
<g><path style="opacity:1" fill="#f7fdfd" d="M 79.5,36.5 C 168.502,36.1667 257.502,36.5 346.5,37.5C 347.522,38.354 348.355,39.354 349,40.5C 349.333,39.8333 349.667,39.1667 350,38.5C 351.275,41.0448 353.108,43.0448 355.5,44.5C 352.262,46.1337 350.095,45.1337 349,41.5C 348.667,42.1667 348.333,42.8333 348,43.5C 345.586,41.8109 343.086,40.3109 340.5,39C 253.507,39.6022 166.507,39.6022 79.5,39C 75.8333,38.6667 72.1667,38.3333 68.5,38C 72.3563,37.8227 76.023,37.3227 79.5,36.5 Z"/></g>
<g><path style="opacity:1" fill="#031f37" d="M 378.5,37.5 C 379.185,39.4144 379.685,41.4144 380,43.5C 380.75,44.1258 381.584,44.6258 382.5,45C 381.66,48.5042 381.993,52.0042 383.5,55.5C 384.333,149.165 384.833,242.832 385,336.5C 385.177,340.356 385.677,344.023 386.5,347.5C 386.296,350.518 385.963,353.518 385.5,356.5C 384.976,358.306 384.309,359.972 383.5,361.5C 382.504,361.586 381.671,361.252 381,360.5C 379.968,362.994 378.802,365.328 377.5,367.5C 377.64,365.876 376.973,364.71 375.5,364C 377.005,361.088 376.338,358.755 373.5,357C 374.007,351.538 375.007,346.205 376.5,341C 375.747,339.123 374.914,337.289 374,335.5C 373.53,237.967 373.363,140.467 373.5,43C 374.674,40.6615 376.341,38.8282 378.5,37.5 Z"/></g>
<g><path style="opacity:1" fill="#a1aeb6" d="M 13.5,39.5 C 12.871,42.3973 11.871,45.064 10.5,47.5C 10.3455,44.284 11.3455,41.6174 13.5,39.5 Z"/></g>
<g><path style="opacity:1" fill="#859299" d="M 44.5,38.5 C 42.8333,40.8333 40.8333,42.8333 38.5,44.5C 39.5,41.5 41.5,39.5 44.5,38.5 Z"/></g>
<g><path style="opacity:1" fill="#7e8e9b" d="M 38.5,44.5 C 38.573,46.0269 37.9063,47.0269 36.5,47.5C 36.427,45.9731 37.0937,44.9731 38.5,44.5 Z"/></g>
<g><path style="opacity:1" fill="#808f9a" d="M 359.5,44.5 C 360.906,44.9731 361.573,45.9731 361.5,47.5C 360.094,47.0269 359.427,46.0269 359.5,44.5 Z"/></g>
<g><path style="opacity:1" fill="#022039" d="M 30.5,57.5 C 31.8333,103.662 32.4999,150.162 32.5,197C 32.3333,243.5 32.1667,290 32,336.5C 31.0093,337.43 30.5093,338.596 30.5,340C 31.0366,342.975 31.3699,345.975 31.5,349C 31.4188,351.625 30.7522,353.959 29.5,356C 32.0444,357.092 34.7111,357.759 37.5,358C 38.3802,359.356 38.7135,360.856 38.5,362.5C 38.281,363.675 38.6143,364.675 39.5,365.5C 44.5336,365.849 48.5336,368.015 51.5,372C 48.9751,374.291 45.9751,375.624 42.5,376C 45.9667,379.737 50.3001,381.571 55.5,381.5C 150.998,380.168 246.498,380.168 342,381.5C 345.748,381.19 349.248,380.19 352.5,378.5C 355.249,378.756 357.582,379.756 359.5,381.5C 356.69,383.939 353.523,384.605 350,383.5C 345.993,384.941 341.826,385.774 337.5,386C 244.833,386.667 152.167,386.667 59.5,386C 54.2178,385.674 49.0511,384.841 44,383.5C 42.2358,383.544 40.5691,383.878 39,384.5C 38.5172,383.552 38.3505,382.552 38.5,381.5C 35.5433,380.207 32.5433,378.874 29.5,377.5C 28.8165,377.863 28.1499,378.196 27.5,378.5C 26.8333,378.5 26.5,378.167 26.5,377.5C 25.6594,374.481 24.6594,371.481 23.5,368.5C 20.9468,367.904 19.2802,366.404 18.5,364C 16.4074,358.703 15.4074,353.203 15.5,347.5C 15.6667,251.166 15.5,154.833 15,58.5C 13.6112,54.8681 13.7778,51.2015 15.5,47.5C 16.325,46.6143 17.325,46.281 18.5,46.5C 18.3347,50.1817 18.5014,53.8484 19,57.5C 19.6667,58.1667 20.3333,58.8333 21,59.5C 21.5,152.166 21.6667,244.833 21.5,337.5C 23.8333,337.5 26.1667,337.5 28.5,337.5C 28.5,244.167 28.5,150.833 28.5,57.5C 27.0695,57.5792 25.7362,57.2458 24.5,56.5C 22.9178,52.9911 23.5844,49.9911 26.5,47.5C 28.414,50.6978 29.7473,54.0312 30.5,57.5 Z"/></g>
<g><path style="opacity:1" fill="#d0d8dc" d="M 49.5,36.5 C 49.5,36.1667 49.5,35.8333 49.5,35.5C 149.167,35.3333 248.834,35.5 348.5,36C 352.998,37.8976 356.664,40.731 359.5,44.5C 359.427,46.0269 360.094,47.0269 361.5,47.5C 362.491,147.478 362.824,247.478 362.5,347.5C 362.737,348.791 362.404,349.791 361.5,350.5C 361.833,251.831 361.5,153.164 360.5,54.5C 359.602,51.1302 357.935,47.7968 355.5,44.5C 353.108,43.0448 351.275,41.0448 350,38.5C 349.667,39.1667 349.333,39.8333 349,40.5C 348.355,39.354 347.522,38.354 346.5,37.5C 257.502,36.5 168.502,36.1667 79.5,36.5C 69.5,36.5 59.5,36.5 49.5,36.5 Z"/></g>
<g><path style="opacity:1" fill="#182937" d="M 365.5,49.5 C 365.5,49.8333 365.5,50.1667 365.5,50.5C 366.648,149.489 366.815,248.489 366,347.5C 366.102,350.27 365.268,352.937 363.5,355.5C 362.746,352.922 362.746,350.256 363.5,347.5C 363.667,248.166 363.5,148.833 363,49.5C 362.722,48.5842 362.222,47.9175 361.5,47.5C 361.573,45.9731 360.906,44.9731 359.5,44.5C 356.664,40.731 352.998,37.8976 348.5,36C 248.834,35.5 149.167,35.3333 49.5,35.5C 50.4695,34.3707 51.6362,33.3707 53,32.5C 148.138,33.4964 243.305,33.8297 338.5,33.5C 338.5,32.1667 338.5,30.8333 338.5,29.5C 341.647,29.7366 344.647,30.5699 347.5,32C 351.746,36.2927 356.746,38.2927 362.5,38C 361.978,38.5613 361.645,39.228 361.5,40C 363.713,42.8692 365.046,46.0359 365.5,49.5 Z"/></g>
<g><path style="opacity:1" fill="#fefcf5" d="M 7.5,336.5 C 7.16667,337.167 6.83333,337.833 6.5,338.5C 4.54899,338.773 3.04899,338.107 2,336.5C 1.33333,250.5 1.33333,164.5 2,78.5C 3.42468,71.6154 3.92468,64.6154 3.5,57.5C 4.5,57.5 5.5,57.5 6.5,57.5C 7.4485,150.494 7.78183,243.494 7.5,336.5 Z"/></g>
<g><path style="opacity:1" fill="#042036" d="M 365.5,50.5 C 366.042,53.6504 367.209,56.6504 369,59.5C 369.667,154.833 369.667,250.167 369,345.5C 368.129,350.857 367.129,356.191 366,361.5C 363.772,362.892 362.606,364.892 362.5,367.5C 360.408,367.439 358.908,366.439 358,364.5C 356.374,364.854 354.541,364.854 352.5,364.5C 352.783,363.711 353.283,363.044 354,362.5C 355.751,363.174 357.417,363.507 359,363.5C 360.419,362.54 361.919,361.707 363.5,361C 364.801,359.384 364.801,357.884 363.5,356.5C 363.5,356.167 363.5,355.833 363.5,355.5C 365.268,352.937 366.102,350.27 366,347.5C 366.815,248.489 366.648,149.489 365.5,50.5 Z"/></g>
<g><path style="opacity:1" fill="#fcfcf7" d="M 390.5,57.5 C 392.167,57.5 393.833,57.5 395.5,57.5C 394.212,156.712 394.212,255.879 395.5,355C 394.235,358.809 392.235,359.309 389.5,356.5C 390.486,257.053 390.819,157.386 390.5,57.5 Z"/></g>
<g><path style="opacity:1" fill="#dbe4e6" d="M 37.5,13.5 C 35.6508,14.593 33.9842,15.9263 32.5,17.5C 31.5084,17.3284 30.8417,17.6618 30.5,18.5C 27.5726,19.7573 25.2393,21.7573 23.5,24.5C 21.086,25.9108 19.4194,27.9108 18.5,30.5C 17.0937,30.9731 16.427,31.9731 16.5,33.5C 15.0937,33.9731 14.427,34.9731 14.5,36.5C 13.8902,37.391 13.5569,38.391 13.5,39.5C 11.3455,41.6174 10.3455,44.284 10.5,47.5C 10.1672,149.668 10.5005,251.668 11.5,353.5C 13.0931,357.779 14.5931,362.112 16,366.5C 18.7411,369.729 21.2411,373.062 23.5,376.5C 22.2058,375.71 21.0391,374.71 20,373.5C 17.9555,374.772 16.1222,374.439 14.5,372.5C 14.2514,373.582 14.0848,374.915 14,376.5C 11.5346,374.945 11.0346,372.945 12.5,370.5C 9.93985,367.501 9.27318,364.168 10.5,360.5C 10.278,358.945 9.61135,357.611 8.5,356.5C 9.84941,353.837 9.34941,351.504 7,349.5C 5.9204,345.766 5.75373,342.1 6.5,338.5C 6.83333,337.833 7.16667,337.167 7.5,336.5C 8.66577,243.668 8.83244,150.668 8,57.5C 6.6686,54.1662 4.83527,51.1662 2.5,48.5C 5.31927,45.5097 7.98594,42.343 10.5,39C 10.4206,36.9091 10.0872,34.7424 9.5,32.5C 10.1279,30.7419 11.1279,29.2419 12.5,28C 11.3463,27.0862 11.513,26.2529 13,25.5C 14.7698,26.2764 16.6031,26.1097 18.5,25C 21.0126,23.3202 23.0126,21.1535 24.5,18.5C 25.086,18.7093 25.586,19.0426 26,19.5C 27.7963,16.2689 29.2963,12.9356 30.5,9.5C 32.2705,10.0354 32.6039,10.8687 31.5,12C 32.549,12.4922 33.549,12.3256 34.5,11.5C 35.2652,12.6119 36.2652,13.2786 37.5,13.5 Z"/></g>
<g><path style="opacity:1" fill="#051d2e" d="M 15.5,347.5 C 15.4074,353.203 16.4074,358.703 18.5,364C 19.2802,366.404 20.9468,367.904 23.5,368.5C 24.6594,371.481 25.6594,374.481 26.5,377.5C 25.391,377.443 24.391,377.11 23.5,376.5C 21.2411,373.062 18.7411,369.729 16,366.5C 14.5931,362.112 13.0931,357.779 11.5,353.5C 11.3333,251.833 11.5,150.166 12,48.5C 12.3333,48.1667 12.6667,47.8333 13,47.5C 12.3452,144.467 12.3452,241.467 13,338.5C 13.4061,341.742 14.2395,344.742 15.5,347.5 Z"/></g>
<g><path style="opacity:1" fill="#a5b1b8" d="M 361.5,47.5 C 362.222,47.9175 362.722,48.5842 363,49.5C 363.5,148.833 363.667,248.166 363.5,347.5C 363.167,347.5 362.833,347.5 362.5,347.5C 362.824,247.478 362.491,147.478 361.5,47.5 Z"/></g>
<g><path style="opacity:1" fill="#a6b0b9" d="M 36.5,47.5 C 35.5091,147.811 35.1757,248.145 35.5,348.5C 34.3342,249.001 34.1675,149.334 35,49.5C 35.2784,48.5842 35.7784,47.9175 36.5,47.5 Z"/></g>
<g><path style="opacity:1" fill="#354854" d="M 386.5,47.5 C 387.499,147.332 387.833,247.332 387.5,347.5C 387.5,349.5 387.5,351.5 387.5,353.5C 386.833,354.5 386.167,355.5 385.5,356.5C 385.963,353.518 386.296,350.518 386.5,347.5C 386.5,247.5 386.5,147.5 386.5,47.5 Z"/></g>
<g><path style="opacity:1" fill="#061f31" d="M 372.5,22.5 C 372.833,22.5 373.167,22.5 373.5,22.5C 373.833,23.1667 374.167,23.8333 374.5,24.5C 375.167,25.8333 376.167,26.8333 377.5,27.5C 382.795,33.0192 385.795,39.6859 386.5,47.5C 386.5,147.5 386.5,247.5 386.5,347.5C 385.677,344.023 385.177,340.356 385,336.5C 384.833,242.832 384.333,149.165 383.5,55.5C 381.993,52.0042 381.66,48.5042 382.5,45C 381.584,44.6258 380.75,44.1258 380,43.5C 379.685,41.4144 379.185,39.4144 378.5,37.5C 378.167,35.5 377.833,33.5 377.5,31.5C 372.482,30.4711 370.816,27.4711 372.5,22.5 Z"/></g>
<g><path style="opacity:1" fill="#3c3c3c" d="M 126.5,88.5 C 121.012,88.2479 115.678,88.9145 110.5,90.5C 111.842,89.207 113.509,88.3736 115.5,88C 119.358,87.1901 123.024,87.3567 126.5,88.5 Z"/></g>
<g><path style="opacity:1" fill="#363636" d="M 281.5,88.5 C 276.167,88.8333 270.833,89.1667 265.5,89.5C 268.55,88.0648 271.883,87.3981 275.5,87.5C 277.696,87.5046 279.696,87.838 281.5,88.5 Z"/></g>
<g><path style="opacity:1" fill="#060606" d="M 126.5,88.5 C 135.059,89.6107 141.393,93.944 145.5,101.5C 145.259,103.898 145.926,105.898 147.5,107.5C 148.794,111.733 148.794,116.066 147.5,120.5C 145.935,122.509 144.935,124.843 144.5,127.5C 143.662,127.842 143.328,128.508 143.5,129.5C 140.808,131.862 138.141,134.196 135.5,136.5C 133.973,136.427 132.973,137.094 132.5,138.5C 126.87,139.292 121.203,139.625 115.5,139.5C 114.07,138.463 112.403,137.796 110.5,137.5C 109.508,137.672 108.842,137.338 108.5,136.5C 107.738,134.738 106.404,133.738 104.5,133.5C 103.167,131.5 101.5,129.833 99.5,128.5C 98.5,125.167 97.5,121.833 96.5,118.5C 96.123,112.677 96.7897,107.011 98.5,101.5C 101.243,96.4216 105.243,92.7549 110.5,90.5C 115.678,88.9145 121.012,88.2479 126.5,88.5 Z"/></g>
<g><path style="opacity:1" fill="#040404" d="M 281.5,88.5 C 282.5,88.5 283.5,88.5 284.5,88.5C 285.287,90.1042 286.62,90.7709 288.5,90.5C 291.642,92.5805 294.642,94.9138 297.5,97.5C 298.441,99.0495 299.107,100.716 299.5,102.5C 300.457,106.094 301.124,109.76 301.5,113.5C 301.232,116.517 300.898,119.517 300.5,122.5C 299.89,123.391 299.557,124.391 299.5,125.5C 299.672,126.492 299.338,127.158 298.5,127.5C 295.049,132.291 290.715,135.958 285.5,138.5C 279.87,139.292 274.203,139.625 268.5,139.5C 267.486,138.326 266.153,137.66 264.5,137.5C 264.167,137.5 263.833,137.5 263.5,137.5C 259.833,134.5 256.5,131.167 253.5,127.5C 253.065,124.843 252.065,122.509 250.5,120.5C 250.5,119.833 250.5,119.167 250.5,118.5C 250.15,113.009 250.816,107.676 252.5,102.5C 252.328,101.508 252.662,100.842 253.5,100.5C 255.86,99.135 257.527,97.135 258.5,94.5C 259.262,92.7376 260.596,91.7376 262.5,91.5C 264.027,91.573 265.027,90.9063 265.5,89.5C 270.833,89.1667 276.167,88.8333 281.5,88.5 Z"/></g>
<g><path style="opacity:1" fill="#757575" d="M 284.5,88.5 C 286.153,88.6596 287.486,89.3263 288.5,90.5C 286.62,90.7709 285.287,90.1042 284.5,88.5 Z"/></g>
<g><path style="opacity:1" fill="#5d5d5d" d="M 265.5,89.5 C 265.027,90.9063 264.027,91.573 262.5,91.5C 262.973,90.0937 263.973,89.427 265.5,89.5 Z"/></g>
<g><path style="opacity:1" fill="#d2d2d2" d="M 288.5,90.5 C 290.451,90.2267 291.951,90.8934 293,92.5C 293.718,91.5494 294.551,91.3828 295.5,92C 296.464,93.7255 297.131,95.5588 297.5,97.5C 294.642,94.9138 291.642,92.5805 288.5,90.5 Z"/></g>
<g><path style="opacity:1" fill="#3d3d3d" d="M 258.5,94.5 C 257.527,97.135 255.86,99.135 253.5,100.5C 254.443,97.8908 256.11,95.8908 258.5,94.5 Z"/></g>
<g><path style="opacity:1" fill="#7f7f7f" d="M 98.5,101.5 C 96.7897,107.011 96.123,112.677 96.5,118.5C 96.1667,118.5 95.8333,118.5 95.5,118.5C 95.3343,114.154 95.501,109.821 96,105.5C 96.2004,103.68 97.0337,102.347 98.5,101.5 Z"/></g>
<g><path style="opacity:1" fill="#6c6c6c" d="M 145.5,101.5 C 147.074,103.102 147.741,105.102 147.5,107.5C 145.926,105.898 145.259,103.898 145.5,101.5 Z"/></g>
<g><path style="opacity:1" fill="#4f4f4f" d="M 299.5,102.5 C 300.558,103.6 301.392,104.934 302,106.5C 302.499,110.821 302.666,115.154 302.5,119.5C 301.833,120.5 301.167,121.5 300.5,122.5C 300.898,119.517 301.232,116.517 301.5,113.5C 301.124,109.76 300.457,106.094 299.5,102.5 Z"/></g>
<g><path style="opacity:1" fill="#6c6c6c" d="M 252.5,102.5 C 250.816,107.676 250.15,113.009 250.5,118.5C 249.355,114.689 249.188,110.689 250,106.5C 250.2,104.68 251.034,103.347 252.5,102.5 Z"/></g>
<g><path style="opacity:1" fill="#b4b4b4" d="M 302.5,119.5 C 302.975,122.313 301.975,124.313 299.5,125.5C 299.557,124.391 299.89,123.391 300.5,122.5C 301.167,121.5 301.833,120.5 302.5,119.5 Z"/></g>
<g><path style="opacity:1" fill="#9f9f9f" d="M 95.5,118.5 C 95.8333,118.5 96.1667,118.5 96.5,118.5C 97.5,121.833 98.5,125.167 99.5,128.5C 97.1034,125.691 95.7701,122.358 95.5,118.5 Z"/></g>
<g><path style="opacity:1" fill="#999999" d="M 147.5,120.5 C 147.834,123.491 146.834,125.824 144.5,127.5C 144.935,124.843 145.935,122.509 147.5,120.5 Z"/></g>
<g><path style="opacity:1" fill="#979797" d="M 250.5,120.5 C 252.065,122.509 253.065,124.843 253.5,127.5C 253.167,127.5 252.833,127.5 252.5,127.5C 251.061,125.412 250.394,123.079 250.5,120.5 Z"/></g>
<g><path style="opacity:1" fill="#a4a4a4" d="M 99.5,128.5 C 101.5,129.833 103.167,131.5 104.5,133.5C 101.833,132.833 100.167,131.167 99.5,128.5 Z"/></g>
<g><path style="opacity:1" fill="#e5e5e5" d="M 252.5,127.5 C 252.833,127.5 253.167,127.5 253.5,127.5C 256.5,131.167 259.833,134.5 263.5,137.5C 261.857,137.52 260.524,136.853 259.5,135.5C 258.522,135.977 257.689,136.643 257,137.5C 255.266,136.751 253.433,136.251 251.5,136C 250.833,135 250.167,134 249.5,133C 250.573,131.75 250.573,130.416 249.5,129C 249.667,128.5 249.833,128 250,127.5C 250.977,128.774 251.811,128.774 252.5,127.5 Z"/></g>
<g><path style="opacity:1" fill="#9d9d9d" d="M 298.5,127.5 C 296.278,133.726 291.944,137.393 285.5,138.5C 290.715,135.958 295.049,132.291 298.5,127.5 Z"/></g>
<g><path style="opacity:1" fill="#aaaaaa" d="M 143.5,129.5 C 142.095,133.236 139.429,135.569 135.5,136.5C 138.141,134.196 140.808,131.862 143.5,129.5 Z"/></g>
<g><path style="opacity:1" fill="#5a5a5a" d="M 104.5,133.5 C 106.404,133.738 107.738,134.738 108.5,136.5C 106.596,136.262 105.262,135.262 104.5,133.5 Z"/></g>
<g><path style="opacity:1" fill="#8e8e8e" d="M 110.5,137.5 C 112.403,137.796 114.07,138.463 115.5,139.5C 113.302,139.88 111.635,139.213 110.5,137.5 Z"/></g>
<g><path style="opacity:1" fill="#9d9d9d" d="M 264.5,137.5 C 266.153,137.66 267.486,138.326 268.5,139.5C 266.62,139.771 265.287,139.104 264.5,137.5 Z"/></g>
<g><path style="opacity:1" fill="#989898" d="M 132.5,138.5 C 129.474,140.019 126.141,140.685 122.5,140.5C 119.975,140.497 117.641,140.163 115.5,139.5C 121.203,139.625 126.87,139.292 132.5,138.5 Z"/></g>
<g><path style="opacity:1" fill="#818181" d="M 285.5,138.5 C 282.474,140.019 279.141,140.685 275.5,140.5C 272.975,140.497 270.641,140.163 268.5,139.5C 274.203,139.625 279.87,139.292 285.5,138.5 Z"/></g>
<g><path style="opacity:1" fill="#6e7c85" d="M 204.5,173.5 C 204.5,173.833 204.5,174.167 204.5,174.5C 199.13,174.392 193.797,174.725 188.5,175.5C 188.918,174.778 189.584,174.278 190.5,174C 195.155,173.501 199.821,173.334 204.5,173.5 Z"/></g>
<g><path style="opacity:1" fill="#bbc6ca" d="M 204.5,174.5 C 204.5,174.167 204.5,173.833 204.5,173.5C 207.181,173.462 209.681,174.129 212,175.5C 212.772,175.355 213.439,175.022 214,174.5C 214.904,177.233 216.404,179.567 218.5,181.5C 214.423,178.128 209.756,175.795 204.5,174.5 Z"/></g>
<g><path style="opacity:1" fill="#132635" d="M 204.5,174.5 C 209.756,175.795 214.423,178.128 218.5,181.5C 218.833,182.167 219.167,182.833 219.5,183.5C 219.427,185.027 220.094,186.027 221.5,186.5C 221.427,188.027 222.094,189.027 223.5,189.5C 224.11,190.391 224.443,191.391 224.5,192.5C 226.836,204.172 223.502,213.838 214.5,221.5C 211.341,223.08 208.007,224.08 204.5,224.5C 199.401,224.825 194.401,224.325 189.5,223C 190.737,222.768 191.737,222.268 192.5,221.5C 198.642,222.788 204.308,221.621 209.5,218C 212.146,217.503 214.813,217.336 217.5,217.5C 217.321,212.533 218.821,208.2 222,204.5C 222.464,196.418 220.297,189.084 215.5,182.5C 214.833,182.833 214.167,183.167 213.5,183.5C 211.167,182.5 209.5,180.833 208.5,178.5C 200.784,176.848 193.284,177.514 186,180.5C 185.228,180.355 184.561,180.022 184,179.5C 183.184,180.823 182.017,181.489 180.5,181.5C 182.809,179.013 185.476,177.013 188.5,175.5C 193.797,174.725 199.13,174.392 204.5,174.5 Z"/></g>
<g><path style="opacity:1" fill="#667584" d="M 178.5,183.5 C 178.573,185.027 177.906,186.027 176.5,186.5C 176.427,184.973 177.094,183.973 178.5,183.5 Z"/></g>
<g><path style="opacity:1" fill="#68737d" d="M 219.5,183.5 C 220.906,183.973 221.573,184.973 221.5,186.5C 220.094,186.027 219.427,185.027 219.5,183.5 Z"/></g>
<g><path style="opacity:1" fill="#032037" d="M 192.5,221.5 C 189.5,222.833 186.5,222.833 183.5,221.5C 182.027,219.605 180.36,217.939 178.5,216.5C 178.573,214.973 177.906,213.973 176.5,213.5C 176.573,211.973 175.906,210.973 174.5,210.5C 174.167,208.5 173.833,206.5 173.5,204.5C 173.335,201.15 173.502,197.817 174,194.5C 175.591,192.073 176.425,189.407 176.5,186.5C 177.906,186.027 178.573,185.027 178.5,183.5C 178.833,182.5 179.5,181.833 180.5,181.5C 182.017,181.489 183.184,180.823 184,179.5C 184.561,180.022 185.228,180.355 186,180.5C 193.284,177.514 200.784,176.848 208.5,178.5C 209.5,180.833 211.167,182.5 213.5,183.5C 214.167,183.167 214.833,182.833 215.5,182.5C 220.297,189.084 222.464,196.418 222,204.5C 218.821,208.2 217.321,212.533 217.5,217.5C 214.813,217.336 212.146,217.503 209.5,218C 204.308,221.621 198.642,222.788 192.5,221.5 Z"/></g>
<g><path style="opacity:1" fill="#75848d" d="M 221.5,186.5 C 222.906,186.973 223.573,187.973 223.5,189.5C 222.094,189.027 221.427,188.027 221.5,186.5 Z"/></g>
<g><path style="opacity:1" fill="#606e7a" d="M 176.5,186.5 C 176.425,189.407 175.591,192.073 174,194.5C 173.502,197.817 173.335,201.15 173.5,204.5C 172.518,201.038 172.185,197.371 172.5,193.5C 173.472,190.868 174.805,188.535 176.5,186.5 Z"/></g>
<g><path style="opacity:1" fill="#808c95" d="M 174.5,210.5 C 175.906,210.973 176.573,211.973 176.5,213.5C 175.094,213.027 174.427,212.027 174.5,210.5 Z"/></g>
<g><path style="opacity:1" fill="#e0e8ef" d="M 172.5,193.5 C 172.185,197.371 172.518,201.038 173.5,204.5C 173.833,206.5 174.167,208.5 174.5,210.5C 174.427,212.027 175.094,213.027 176.5,213.5C 176.427,215.027 177.094,216.027 178.5,216.5C 180.36,217.939 182.027,219.605 183.5,221.5C 180.236,223.431 178.403,222.431 178,218.5C 176.899,216.606 175.566,215.939 174,216.5C 173.517,215.552 173.351,214.552 173.5,213.5C 172.5,213.5 171.5,213.5 170.5,213.5C 169.779,210.183 169.612,206.849 170,203.5C 170.333,204.833 170.667,206.167 171,207.5C 171.174,202.649 171.674,197.982 172.5,193.5 Z"/></g>
<g><path style="opacity:1" fill="#7c8895" d="M 176.5,213.5 C 177.906,213.973 178.573,214.973 178.5,216.5C 177.094,216.027 176.427,215.027 176.5,213.5 Z"/></g>
<g><path style="opacity:1" fill="#344450" d="M 183.5,221.5 C 186.5,222.833 189.5,222.833 192.5,221.5C 191.737,222.268 190.737,222.768 189.5,223C 194.401,224.325 199.401,224.825 204.5,224.5C 204.5,224.833 204.5,225.167 204.5,225.5C 196.897,227.612 189.897,226.278 183.5,221.5 Z"/></g>
<g><path style="opacity:1" fill="#d5e0e6" d="M 224.5,192.5 C 225.117,192.611 225.617,192.944 226,193.5C 226.217,198.553 226.717,203.553 227.5,208.5C 223.659,212.183 220.826,216.517 219,221.5C 217.89,223.037 216.39,223.703 214.5,223.5C 214.5,222.833 214.5,222.167 214.5,221.5C 223.502,213.838 226.836,204.172 224.5,192.5 Z"/></g>
<g><path style="opacity:1" fill="#a5b3bb" d="M 214.5,221.5 C 214.5,222.167 214.5,222.833 214.5,223.5C 211.365,225.023 208.032,225.69 204.5,225.5C 204.5,225.167 204.5,224.833 204.5,224.5C 208.007,224.08 211.341,223.08 214.5,221.5 Z"/></g>
<g><path style="opacity:1" fill="#adadad" d="M 287.5,262.5 C 281.989,260.79 276.323,260.123 270.5,260.5C 270.611,259.883 270.944,259.383 271.5,259C 275.167,258.333 278.833,258.333 282.5,259C 284.584,259.697 286.251,260.864 287.5,262.5 Z"/></g>
<g><path style="opacity:1" fill="#8f8f8f" d="M 133.5,262.5 C 126.93,260.328 120.264,259.995 113.5,261.5C 113.611,260.883 113.944,260.383 114.5,260C 119.833,259.333 125.167,259.333 130.5,260C 131.942,260.377 132.942,261.21 133.5,262.5 Z"/></g>
<g><path style="opacity:1" fill="#040404" d="M 133.5,262.5 C 134.167,262.833 134.833,263.167 135.5,263.5C 135.973,264.906 136.973,265.573 138.5,265.5C 138.833,266.5 139.5,267.167 140.5,267.5C 140.738,269.404 141.738,270.738 143.5,271.5C 144.167,271.5 144.5,271.833 144.5,272.5C 144.427,274.027 145.094,275.027 146.5,275.5C 147.254,280.463 147.587,285.463 147.5,290.5C 145.975,297.215 142.642,302.881 137.5,307.5C 134.669,308.079 132.336,309.412 130.5,311.5C 129.167,311.5 127.833,311.5 126.5,311.5C 121.463,311.587 116.463,311.254 111.5,310.5C 110.29,310.068 109.29,309.401 108.5,308.5C 106.766,305.8 104.432,303.8 101.5,302.5C 101.167,302.5 100.833,302.5 100.5,302.5C 96.8956,294.6 95.5623,286.267 96.5,277.5C 97.6528,275.364 98.9862,273.364 100.5,271.5C 101.766,270.91 103.099,270.41 104.5,270C 105.234,267.439 106.567,265.273 108.5,263.5C 109.78,262.069 111.447,261.402 113.5,261.5C 120.264,259.995 126.93,260.328 133.5,262.5 Z"/></g>
<g><path style="opacity:1" fill="#060606" d="M 270.5,260.5 C 276.323,260.123 281.989,260.79 287.5,262.5C 287.833,262.5 288.167,262.5 288.5,262.5C 289.262,264.262 290.596,265.262 292.5,265.5C 295.941,267.612 298.275,270.612 299.5,274.5C 301.184,279.676 301.85,285.009 301.5,290.5C 300.5,293.833 299.5,297.167 298.5,300.5C 296.413,301.585 295.08,303.251 294.5,305.5C 292.77,306.026 291.436,307.026 290.5,308.5C 287.843,308.935 285.509,309.935 283.5,311.5C 277.28,313.034 271.28,312.701 265.5,310.5C 265.027,309.094 264.027,308.427 262.5,308.5C 261.29,308.068 260.29,307.401 259.5,306.5C 258.167,304.5 256.5,302.833 254.5,301.5C 254.34,299.847 253.674,298.514 252.5,297.5C 250.356,290.251 250.023,282.918 251.5,275.5C 252.906,275.027 253.573,274.027 253.5,272.5C 253.5,271.833 253.833,271.5 254.5,271.5C 256.587,270.415 257.92,268.749 258.5,266.5C 260.404,266.262 261.738,265.262 262.5,263.5C 264.798,261.539 267.465,260.539 270.5,260.5 Z"/></g>
<g><path style="opacity:1" fill="#898989" d="M 288.5,262.5 C 290.404,262.738 291.738,263.738 292.5,265.5C 290.596,265.262 289.262,264.262 288.5,262.5 Z"/></g>
<g><path style="opacity:1" fill="#7c7c7c" d="M 135.5,263.5 C 137.027,263.427 138.027,264.094 138.5,265.5C 136.973,265.573 135.973,264.906 135.5,263.5 Z"/></g>
<g><path style="opacity:1" fill="#5f5f5f" d="M 262.5,263.5 C 261.738,265.262 260.404,266.262 258.5,266.5C 259.262,264.738 260.596,263.738 262.5,263.5 Z"/></g>
<g><path style="opacity:1" fill="#292929" d="M 108.5,263.5 C 106.567,265.273 105.234,267.439 104.5,270C 103.099,270.41 101.766,270.91 100.5,271.5C 102.167,267.833 104.833,265.167 108.5,263.5 Z"/></g>
<g><path style="opacity:1" fill="#565656" d="M 140.5,267.5 C 142.262,268.262 143.262,269.596 143.5,271.5C 141.738,270.738 140.738,269.404 140.5,267.5 Z"/></g>
<g><path style="opacity:1" fill="#4f4f4f" d="M 258.5,266.5 C 257.92,268.749 256.587,270.415 254.5,271.5C 255.08,269.251 256.413,267.585 258.5,266.5 Z"/></g>
<g><path style="opacity:1" fill="#8f8f8f" d="M 144.5,272.5 C 145.906,272.973 146.573,273.973 146.5,275.5C 145.094,275.027 144.427,274.027 144.5,272.5 Z"/></g>
<g><path style="opacity:1" fill="#8c8c8c" d="M 253.5,272.5 C 253.573,274.027 252.906,275.027 251.5,275.5C 251.427,273.973 252.094,272.973 253.5,272.5 Z"/></g>
<g><path style="opacity:1" fill="#777777" d="M 299.5,274.5 C 300.79,275.058 301.623,276.058 302,277.5C 302.499,281.821 302.666,286.154 302.5,290.5C 302.167,290.5 301.833,290.5 301.5,290.5C 301.85,285.009 301.184,279.676 299.5,274.5 Z"/></g>
<g><path style="opacity:1" fill="#6b6b6b" d="M 251.5,275.5 C 250.023,282.918 250.356,290.251 252.5,297.5C 250.194,293.773 249.194,289.606 249.5,285C 249.328,281.523 249.994,278.356 251.5,275.5 Z"/></g>
<g><path style="opacity:1" fill="#6c6c6c" d="M 146.5,275.5 C 147.268,276.263 147.768,277.263 148,278.5C 148.499,282.486 148.666,286.486 148.5,290.5C 148.167,290.5 147.833,290.5 147.5,290.5C 147.587,285.463 147.254,280.463 146.5,275.5 Z"/></g>
<g><path style="opacity:1" fill="#9d9d9d" d="M 301.5,290.5 C 301.833,290.5 302.167,290.5 302.5,290.5C 302.665,294.579 301.331,297.912 298.5,300.5C 299.5,297.167 300.5,293.833 301.5,290.5 Z"/></g>
<g><path style="opacity:1" fill="#c8c8c8" d="M 147.5,290.5 C 147.833,290.5 148.167,290.5 148.5,290.5C 148.353,293.443 147.687,296.276 146.5,299C 146.611,300.722 147.111,300.888 148,299.5C 148.667,300.167 148.667,300.833 148,301.5C 144.126,302.88 140.626,304.88 137.5,307.5C 142.642,302.881 145.975,297.215 147.5,290.5 Z"/></g>
<g><path style="opacity:1" fill="#a2a2a2" d="M 96.5,277.5 C 95.5623,286.267 96.8956,294.6 100.5,302.5C 98.0281,300.913 96.5281,298.579 96,295.5C 95.1808,289.319 95.3475,283.319 96.5,277.5 Z"/></g>
<g><path style="opacity:1" fill="#979797" d="M 254.5,301.5 C 256.5,302.833 258.167,304.5 259.5,306.5C 256.833,305.833 255.167,304.167 254.5,301.5 Z"/></g>
<g><path style="opacity:1" fill="#9b9b9b" d="M 298.5,300.5 C 297.92,302.749 296.587,304.415 294.5,305.5C 295.08,303.251 296.413,301.585 298.5,300.5 Z"/></g>
<g><path style="opacity:1" fill="#555555" d="M 101.5,302.5 C 104.432,303.8 106.766,305.8 108.5,308.5C 106.405,307.588 104.405,306.421 102.5,305C 101.748,304.329 101.414,303.496 101.5,302.5 Z"/></g>
<g><path style="opacity:1" fill="#808080" d="M 262.5,308.5 C 264.027,308.427 265.027,309.094 265.5,310.5C 263.973,310.573 262.973,309.906 262.5,308.5 Z"/></g>
<g><path style="opacity:1" fill="#c7c7c7" d="M 137.5,307.5 C 136.555,310.987 134.222,312.32 130.5,311.5C 132.336,309.412 134.669,308.079 137.5,307.5 Z"/></g>
<g><path style="opacity:1" fill="#a9a9a9" d="M 290.5,308.5 C 288.824,310.834 286.491,311.834 283.5,311.5C 285.509,309.935 287.843,308.935 290.5,308.5 Z"/></g>
<g><path style="opacity:1" fill="#535353" d="M 111.5,310.5 C 116.463,311.254 121.463,311.587 126.5,311.5C 124.696,312.162 122.696,312.495 120.5,312.5C 117.186,312.657 114.186,311.991 111.5,310.5 Z"/></g>
<g><path style="opacity:1" fill="#55636d" d="M 35.5,350.5 C 36.8571,351.59 37.8571,352.924 38.5,354.5C 38.5,355.167 38.5,355.833 38.5,356.5C 36.7549,354.967 35.7549,352.967 35.5,350.5 Z"/></g>
<g><path style="opacity:1" fill="#c1ccd5" d="M 387.5,353.5 C 387.493,357.554 386.16,360.887 383.5,363.5C 383.5,362.833 383.5,362.167 383.5,361.5C 384.309,359.972 384.976,358.306 385.5,356.5C 386.167,355.5 386.833,354.5 387.5,353.5 Z"/></g>
<g><path style="opacity:1" fill="#263542" d="M 362.5,347.5 C 362.833,347.5 363.167,347.5 363.5,347.5C 362.746,350.256 362.746,352.922 363.5,355.5C 363.5,355.833 363.5,356.167 363.5,356.5C 363.103,357.525 362.437,357.692 361.5,357C 362.451,356.282 362.617,355.449 362,354.5C 360.619,356.635 359.619,358.968 359,361.5C 357.224,360.464 355.391,360.464 353.5,361.5C 354.833,360.167 356.167,358.833 357.5,357.5C 359.669,355.66 361.002,353.326 361.5,350.5C 362.404,349.791 362.737,348.791 362.5,347.5 Z"/></g>
<g><path style="opacity:1" fill="#dce6e9" d="M 357.5,357.5 C 356.167,358.833 354.833,360.167 353.5,361.5C 350.743,362.512 348.076,363.512 345.5,364.5C 247.499,364.667 149.499,364.5 51.5,364C 49.8455,363.392 48.1789,362.892 46.5,362.5C 46.0269,361.094 45.0269,360.427 43.5,360.5C 41.8333,359.167 40.1667,357.833 38.5,356.5C 38.5,355.833 38.5,355.167 38.5,354.5C 39.2506,353.427 40.2506,353.26 41.5,354C 42.2266,355.399 42.7266,356.899 43,358.5C 45.2354,357.761 47.2354,357.761 49,358.5C 49.8333,359.5 50.6667,360.5 51.5,361.5C 151.144,361.491 250.81,361.491 350.5,361.5C 350.33,360.178 350.663,359.011 351.5,358C 353.473,357.505 355.473,357.338 357.5,357.5 Z"/></g>
<g><path style="opacity:1" fill="#0d2234" d="M 49.5,35.5 C 49.5,35.8333 49.5,36.1667 49.5,36.5C 47.597,36.7959 45.9303,37.4625 44.5,38.5C 41.5,39.5 39.5,41.5 38.5,44.5C 37.0937,44.9731 36.427,45.9731 36.5,47.5C 35.7784,47.9175 35.2784,48.5842 35,49.5C 34.1675,149.334 34.3342,249.001 35.5,348.5C 35.5,349.167 35.5,349.833 35.5,350.5C 35.7549,352.967 36.7549,354.967 38.5,356.5C 40.1667,357.833 41.8333,359.167 43.5,360.5C 43.9731,361.906 44.9731,362.573 46.5,362.5C 47.347,363.966 48.6803,364.8 50.5,365C 149.001,365.832 247.334,365.666 345.5,364.5C 348.076,363.512 350.743,362.512 353.5,361.5C 355.391,360.464 357.224,360.464 359,361.5C 359.619,358.968 360.619,356.635 362,354.5C 362.617,355.449 362.451,356.282 361.5,357C 362.437,357.692 363.103,357.525 363.5,356.5C 364.801,357.884 364.801,359.384 363.5,361C 361.919,361.707 360.419,362.54 359,363.5C 357.417,363.507 355.751,363.174 354,362.5C 353.283,363.044 352.783,363.711 352.5,364.5C 352.672,365.492 352.338,366.158 351.5,366.5C 251.181,367.653 150.848,367.82 50.5,367C 46.5326,365.173 42.5326,363.673 38.5,362.5C 38.7135,360.856 38.3802,359.356 37.5,358C 34.7111,357.759 32.0444,357.092 29.5,356C 30.7522,353.959 31.4188,351.625 31.5,349C 31.3699,345.975 31.0366,342.975 30.5,340C 30.5093,338.596 31.0093,337.43 32,336.5C 32.1667,290 32.3333,243.5 32.5,197C 32.4999,150.162 31.8333,103.662 30.5,57.5C 30.7771,54.5525 30.4438,51.7191 29.5,49C 30.3081,48.6924 30.9747,48.1924 31.5,47.5C 29.9341,44.5056 30.6008,43.5056 33.5,44.5C 36.7152,37.8889 42.0485,34.8889 49.5,35.5 Z"/></g>
<g><path style="opacity:1" fill="#354756" d="M 46.5,362.5 C 48.1789,362.892 49.8455,363.392 51.5,364C 149.499,364.5 247.499,364.667 345.5,364.5C 247.334,365.666 149.001,365.832 50.5,365C 48.6803,364.8 47.347,363.966 46.5,362.5 Z"/></g>
<g><path style="opacity:1" fill="#828d98" d="M 43.5,360.5 C 45.0269,360.427 46.0269,361.094 46.5,362.5C 44.9731,362.573 43.9731,361.906 43.5,360.5 Z"/></g>
<g><path style="opacity:1" fill="#041f35" d="M 38.5,362.5 C 42.5326,363.673 46.5326,365.173 50.5,367C 150.848,367.82 251.181,367.653 351.5,366.5C 349.519,368.144 347.519,369.81 345.5,371.5C 348.08,374.605 351.413,376.272 355.5,376.5C 356.257,378.404 357.257,378.737 358.5,377.5C 362.893,377.457 363.226,377.957 359.5,379C 361.842,380.392 361.842,381.225 359.5,381.5C 357.582,379.756 355.249,378.756 352.5,378.5C 349.248,380.19 345.748,381.19 342,381.5C 246.498,380.168 150.998,380.168 55.5,381.5C 50.3001,381.571 45.9667,379.737 42.5,376C 45.9751,375.624 48.9751,374.291 51.5,372C 48.5336,368.015 44.5336,365.849 39.5,365.5C 38.6143,364.675 38.281,363.675 38.5,362.5 Z"/></g>
<g><path style="opacity:1" fill="#012039" d="M 59.5,369.5 C 152.169,369.167 244.836,369.5 337.5,370.5C 338.833,371.833 338.833,373.167 337.5,374.5C 244.502,375.5 151.502,375.833 58.5,375.5C 58.3253,373.379 58.6586,371.379 59.5,369.5 Z"/></g>
<g><path style="opacity:1" fill="#a1adb4" d="M 378.5,371.5 C 377.833,374.167 376.167,375.833 373.5,376.5C 374.833,374.5 376.5,372.833 378.5,371.5 Z"/></g>
<g><path style="opacity:1" fill="#848d95" d="M 34.5,383.5 C 36.0269,383.427 37.0269,384.094 37.5,385.5C 35.9731,385.573 34.9731,384.906 34.5,383.5 Z"/></g>
<g><path style="opacity:1" fill="#73818c" d="M 37.5,385.5 C 40.1522,385.41 42.4855,386.076 44.5,387.5C 41.8478,387.59 39.5145,386.924 37.5,385.5 Z"/></g>
<g><path style="opacity:1" fill="#8a99a1" d="M 363.5,383.5 C 360.808,386.181 357.475,387.514 353.5,387.5C 356.54,385.654 359.873,384.321 363.5,383.5 Z"/></g>
<g><path style="opacity:1" fill="#122636" d="M 383.5,361.5 C 383.5,362.167 383.5,362.833 383.5,363.5C 381.833,366.167 380.167,368.833 378.5,371.5C 376.5,372.833 374.833,374.5 373.5,376.5C 370.516,379.326 367.183,381.659 363.5,383.5C 359.873,384.321 356.54,385.654 353.5,387.5C 353.167,387.5 352.833,387.5 352.5,387.5C 251.189,388.491 149.855,388.824 48.5,388.5C 46.901,388.768 45.5676,388.434 44.5,387.5C 42.4855,386.076 40.1522,385.41 37.5,385.5C 37.0269,384.094 36.0269,383.427 34.5,383.5C 31.3257,382.99 28.9923,381.323 27.5,378.5C 28.1499,378.196 28.8165,377.863 29.5,377.5C 32.5433,378.874 35.5433,380.207 38.5,381.5C 38.3505,382.552 38.5172,383.552 39,384.5C 40.5691,383.878 42.2358,383.544 44,383.5C 49.0511,384.841 54.2178,385.674 59.5,386C 152.167,386.667 244.833,386.667 337.5,386C 341.826,385.774 345.993,384.941 350,383.5C 353.523,384.605 356.69,383.939 359.5,381.5C 361.842,381.225 361.842,380.392 359.5,379C 363.226,377.957 362.893,377.457 358.5,377.5C 365.126,375.017 371.46,371.684 377.5,367.5C 378.802,365.328 379.968,362.994 381,360.5C 381.671,361.252 382.504,361.586 383.5,361.5 Z"/></g>
<g><path style="opacity:1" fill="#a1acb3" d="M 352.5,387.5 C 352.389,388.117 352.056,388.617 351.5,389C 250.333,389.833 149.333,389.666 48.5,388.5C 149.855,388.824 251.189,388.491 352.5,387.5 Z"/></g>
</svg>
