<?xml version="1.0" encoding="UTF-8"?>
<!DOCTYPE svg PUBLIC "-//W3C//DTD SVG 1.1//EN" "http://www.w3.org/Graphics/SVG/1.1/DTD/svg11.dtd">
<svg xmlns="http://www.w3.org/2000/svg" version="1.1" width="400px" height="400px" style="shape-rendering:geometricPrecision; text-rendering:geometricPrecision; image-rendering:optimizeQuality; fill-rule:evenodd; clip-rule:evenodd" xmlns:xlink="http://www.w3.org/1999/xlink">
<g><path style="opacity:1" fill="#fbfdfc" d="M -0.5,-0.5 C 131.5,-0.5 263.5,-0.5 395.5,-0.5C 395.5,132.5 395.5,265.5 395.5,398.5C 263.5,398.5 131.5,398.5 -0.5,398.5C -0.5,265.5 -0.5,132.5 -0.5,-0.5 Z"/></g>
<g><path style="opacity:1" fill="#e3ecf0" d="M 380.5,29.5 C 375.722,24.3789 370.388,20.0456 364.5,16.5C 364.027,15.0937 363.027,14.427 361.5,14.5C 358.302,13.2132 354.969,12.5465 351.5,12.5C 351.167,12.5 350.833,12.5 350.5,12.5C 350.5,11.8333 350.167,11.5 349.5,11.5C 250.335,10.5006 151.001,10.1672 51.5,10.5C 151.014,9.82659 250.68,9.15992 350.5,8.5C 353.079,8.85952 355.579,9.52619 358,10.5C 359.465,9.67046 360.965,9.50379 362.5,10C 364.768,11.9566 366.768,14.1233 368.5,16.5C 371.109,17.2305 373.776,17.7305 376.5,18C 375.833,18.3333 375.167,18.6667 374.5,19C 376.42,20.1223 378.42,20.9556 380.5,21.5C 381.289,24.4456 381.289,27.1122 380.5,29.5 Z"/></g>
<g><path style="opacity:1" fill="#041d32" d="M 350.5,12.5 C 350.833,12.5 351.167,12.5 351.5,12.5C 351.5,12.8333 351.5,13.1667 351.5,13.5C 258.172,14.4487 164.839,14.782 71.5,14.5C 65.5807,13.7092 59.5807,13.2092 53.5,13C 152.499,12.5 251.499,12.3333 350.5,12.5 Z"/></g>
<g><path style="opacity:1" fill="#021f3b" d="M 351.5,13.5 C 352.833,13.8333 354.167,14.1667 355.5,14.5C 354.068,16.4377 352.401,18.2711 350.5,20C 350.645,20.772 350.978,21.4387 351.5,22C 344.808,22.8309 338.142,22.6642 331.5,21.5C 332.571,19.6745 331.904,18.5079 329.5,18C 316.833,17.3333 304.167,17.3333 291.5,18C 290.416,20.8249 289.249,20.9915 288,18.5C 287.333,22.5 286.667,22.5 286,18.5C 285,21.1667 284,21.1667 283,18.5C 282.333,22.5 281.667,22.5 281,18.5C 280,21.1667 279,21.1667 278,18.5C 277.333,22.5 276.667,22.5 276,18.5C 275,21.1667 274,21.1667 273,18.5C 271.927,19.2797 270.76,19.113 269.5,18C 243.5,17.3333 217.5,17.3333 191.5,18C 190.416,20.8249 189.249,20.9915 188,18.5C 187.333,22.5 186.667,22.5 186,18.5C 185,21.1667 184,21.1667 183,18.5C 182.333,22.5 181.667,22.5 181,18.5C 180,21.1667 179,21.1667 178,18.5C 177.333,22.5 176.667,22.5 176,18.5C 175,21.1667 174,21.1667 173,18.5C 171.927,19.2797 170.76,19.113 169.5,18C 143.5,17.3333 117.5,17.3333 91.5,18C 90.4158,20.8249 89.2492,20.9915 88,18.5C 87.3333,22.5 86.6667,22.5 86,18.5C 85,21.1667 84,21.1667 83,18.5C 82.3333,22.5 81.6667,22.5 81,18.5C 80,21.1667 79,21.1667 78,18.5C 77.3333,22.5 76.6667,22.5 76,18.5C 75.6924,19.3081 75.1924,19.9747 74.5,20.5C 73.7174,18.7118 72.3841,17.7118 70.5,17.5C 71.1098,16.609 71.4431,15.609 71.5,14.5C 164.839,14.782 258.172,14.4487 351.5,13.5 Z"/></g>
<g><path style="opacity:1" fill="#909da6" d="M 37.5,14.5 C 37.0269,15.9063 36.0269,16.573 34.5,16.5C 34.9731,15.0937 35.9731,14.427 37.5,14.5 Z"/></g>
<g><path style="opacity:1" fill="#98a2a9" d="M 361.5,14.5 C 363.027,14.427 364.027,15.0937 364.5,16.5C 362.973,16.573 361.973,15.9063 361.5,14.5 Z"/></g>
<g><path style="opacity:1" fill="#192d41" d="M 349.5,11.5 C 350.167,11.5 350.5,11.8333 350.5,12.5C 251.499,12.3333 152.499,12.5 53.5,13C 59.5807,13.2092 65.5807,13.7092 71.5,14.5C 71.4431,15.609 71.1098,16.609 70.5,17.5C 64.5069,18.154 58.3402,18.154 52,17.5C 51.2174,19.4335 51.7174,20.9335 53.5,22C 50.5744,22.687 49.2411,24.5203 49.5,27.5C 44.9073,26.4183 41.9073,28.085 40.5,32.5C 41.6682,33.9056 41.3348,35.0723 39.5,36C 41.2495,37.3186 43.2495,37.8186 45.5,37.5C 43.8608,38.4725 42.5274,39.8058 41.5,41.5C 39.7376,42.2623 38.7376,43.5956 38.5,45.5C 37.207,46.842 36.3736,48.5087 36,50.5C 35.5,149.499 35.3333,248.499 35.5,347.5C 34.7784,347.918 34.2784,348.584 34,349.5C 32.6926,346.525 31.8593,343.358 31.5,340C 32.1619,245.281 32.8286,150.614 33.5,56C 31.0118,53.2576 29.1785,50.091 28,46.5C 27.7822,43.5738 27.2822,40.7405 26.5,38C 23.3307,37.0218 20.4973,37.5218 18,39.5C 17.0128,44.1334 15.3461,48.4667 13,52.5C 12.5034,50.1902 12.3367,47.8568 12.5,45.5C 12.9628,42.779 13.6295,40.1123 14.5,37.5C 15.9063,37.0269 16.573,36.0269 16.5,34.5C 16.9321,33.2905 17.5987,32.2905 18.5,31.5C 20.2624,30.7377 21.2624,29.4044 21.5,27.5C 23.0268,25.0615 25.0268,23.0615 27.5,21.5C 29.0269,21.573 30.0269,20.9063 30.5,19.5C 31.4363,18.0256 32.7697,17.0256 34.5,16.5C 36.0269,16.573 37.0269,15.9063 37.5,14.5C 40.8151,13.6712 44.1484,12.8379 47.5,12C 148.166,11.5 248.833,11.3333 349.5,11.5 Z"/></g>
<g><path style="opacity:1" fill="#c3cfd5" d="M 51.5,10.5 C 151.001,10.1672 250.335,10.5006 349.5,11.5C 248.833,11.3333 148.166,11.5 47.5,12C 44.1484,12.8379 40.8151,13.6712 37.5,14.5C 35.9731,14.427 34.9731,15.0937 34.5,16.5C 32.7697,17.0256 31.4363,18.0256 30.5,19.5C 28.9731,19.427 27.9731,20.0937 27.5,21.5C 25.0268,23.0615 23.0268,25.0615 21.5,27.5C 20.8333,27.8333 20.1667,28.1667 19.5,28.5C 18.2825,27.8386 16.9492,27.1719 15.5,26.5C 19.9048,24.592 23.5715,21.7587 26.5,18C 27.7932,17.51 29.1266,17.3433 30.5,17.5C 30.2965,15.6096 30.9632,14.1096 32.5,13C 38.7635,11.718 45.0969,10.8847 51.5,10.5 Z"/></g>
<g><path style="opacity:1" fill="#012039" d="M 355.5,14.5 C 356.675,14.281 357.675,14.6143 358.5,15.5C 359.167,17.8333 359.833,20.1667 360.5,22.5C 362.045,23.4519 363.712,23.7852 365.5,23.5C 365.119,25.9418 365.786,26.6085 367.5,25.5C 371.508,26.8687 374.175,29.5354 375.5,33.5C 375.471,35.0293 374.804,36.196 373.5,37C 374.108,38.231 374.441,39.5643 374.5,41C 373.118,44.1164 372.451,47.4497 372.5,51C 373.653,145.825 373.82,240.658 373,335.5C 372.722,336.416 372.222,337.082 371.5,337.5C 371.486,242.564 371.486,147.731 371.5,53C 370.072,52.4209 368.738,52.5876 367.5,53.5C 368.412,51.4048 369.579,49.4048 371,47.5C 370.573,42.5915 367.74,40.2582 362.5,40.5C 362.561,38.4078 363.561,36.9078 365.5,36C 364.382,34.9264 363.382,33.7598 362.5,32.5C 361.28,31.2889 360.113,31.2889 359,32.5C 357.494,29.526 355.828,29.1927 354,31.5C 352.812,30.4366 352.312,29.1033 352.5,27.5C 347.177,27.5033 341.843,27.5033 336.5,27.5C 333.771,27.2948 331.438,28.1282 329.5,30C 317.5,30.6667 305.5,30.6667 293.5,30C 289.606,28.001 285.44,27.1677 281,27.5C 276.817,27.1255 272.983,27.9588 269.5,30C 244.167,30.6667 218.833,30.6667 193.5,30C 189.606,28.001 185.44,27.1677 181,27.5C 176.817,27.1255 172.983,27.9588 169.5,30C 144.167,30.6667 118.833,30.6667 93.5,30C 89.6062,28.001 85.4395,27.1677 81,27.5C 76.8167,27.1255 72.9834,27.9588 69.5,30C 63.3533,31.1301 57.3533,32.2967 51.5,33.5C 50.1667,33.8333 50.1667,34.1667 51.5,34.5C 51.5,34.8333 51.5,35.1667 51.5,35.5C 51.5,35.8333 51.5,36.1667 51.5,36.5C 49.4352,36.5172 47.4352,36.8505 45.5,37.5C 43.2495,37.8186 41.2495,37.3186 39.5,36C 41.3348,35.0723 41.6682,33.9056 40.5,32.5C 41.9073,28.085 44.9073,26.4183 49.5,27.5C 49.2411,24.5203 50.5744,22.687 53.5,22C 51.7174,20.9335 51.2174,19.4335 52,17.5C 58.3402,18.154 64.5069,18.154 70.5,17.5C 72.3841,17.7118 73.7174,18.7118 74.5,20.5C 75.1924,19.9747 75.6924,19.3081 76,18.5C 76.6667,22.5 77.3333,22.5 78,18.5C 79,21.1667 80,21.1667 81,18.5C 81.6667,22.5 82.3333,22.5 83,18.5C 84,21.1667 85,21.1667 86,18.5C 86.6667,22.5 87.3333,22.5 88,18.5C 89.2492,20.9915 90.4158,20.8249 91.5,18C 117.5,17.3333 143.5,17.3333 169.5,18C 170.76,19.113 171.927,19.2797 173,18.5C 174,21.1667 175,21.1667 176,18.5C 176.667,22.5 177.333,22.5 178,18.5C 179,21.1667 180,21.1667 181,18.5C 181.667,22.5 182.333,22.5 183,18.5C 184,21.1667 185,21.1667 186,18.5C 186.667,22.5 187.333,22.5 188,18.5C 189.249,20.9915 190.416,20.8249 191.5,18C 217.5,17.3333 243.5,17.3333 269.5,18C 270.76,19.113 271.927,19.2797 273,18.5C 274,21.1667 275,21.1667 276,18.5C 276.667,22.5 277.333,22.5 278,18.5C 279,21.1667 280,21.1667 281,18.5C 281.667,22.5 282.333,22.5 283,18.5C 284,21.1667 285,21.1667 286,18.5C 286.667,22.5 287.333,22.5 288,18.5C 289.249,20.9915 290.416,20.8249 291.5,18C 304.167,17.3333 316.833,17.3333 329.5,18C 331.904,18.5079 332.571,19.6745 331.5,21.5C 338.142,22.6642 344.808,22.8309 351.5,22C 350.978,21.4387 350.645,20.772 350.5,20C 352.401,18.2711 354.068,16.4377 355.5,14.5 Z"/></g>
<g><path style="opacity:1" fill="#4f606a" d="M 30.5,19.5 C 30.0269,20.9063 29.0269,21.573 27.5,21.5C 27.9731,20.0937 28.9731,19.427 30.5,19.5 Z"/></g>
<g><path style="opacity:1" fill="#10273b" d="M 367.5,53.5 C 367.5,53.8333 367.5,54.1667 367.5,54.5C 366.778,54.9175 366.278,55.5842 366,56.5C 365.5,152.499 365.333,248.499 365.5,344.5C 365.167,344.5 364.833,344.5 364.5,344.5C 364.667,246.166 364.5,147.833 364,49.5C 363.617,48.944 363.117,48.6107 362.5,48.5C 362.167,47.8333 361.833,47.1667 361.5,46.5C 361.573,44.9731 360.906,43.9731 359.5,43.5C 358.5,41.8333 357.167,40.5 355.5,39.5C 355.027,38.0937 354.027,37.427 352.5,37.5C 351.234,36.9101 349.901,36.4101 348.5,36C 249.501,35.5 150.501,35.3333 51.5,35.5C 51.5,35.1667 51.5,34.8333 51.5,34.5C 151.581,34.9954 251.581,34.4954 351.5,33C 251.555,33.493 151.555,33.6597 51.5,33.5C 57.3533,32.2967 63.3533,31.1301 69.5,30C 72.9834,27.9588 76.8167,27.1255 81,27.5C 85.4395,27.1677 89.6062,28.001 93.5,30C 118.833,30.6667 144.167,30.6667 169.5,30C 172.983,27.9588 176.817,27.1255 181,27.5C 185.44,27.1677 189.606,28.001 193.5,30C 218.833,30.6667 244.167,30.6667 269.5,30C 272.983,27.9588 276.817,27.1255 281,27.5C 285.44,27.1677 289.606,28.001 293.5,30C 305.5,30.6667 317.5,30.6667 329.5,30C 331.438,28.1282 333.771,27.2948 336.5,27.5C 341.843,27.5033 347.177,27.5033 352.5,27.5C 352.312,29.1033 352.812,30.4366 354,31.5C 355.828,29.1927 357.494,29.526 359,32.5C 360.113,31.2889 361.28,31.2889 362.5,32.5C 363.382,33.7598 364.382,34.9264 365.5,36C 363.561,36.9078 362.561,38.4078 362.5,40.5C 367.74,40.2582 370.573,42.5915 371,47.5C 369.579,49.4048 368.412,51.4048 367.5,53.5 Z"/></g>
<g><path style="opacity:1" fill="#596772" d="M 21.5,27.5 C 21.2624,29.4044 20.2624,30.7377 18.5,31.5C 18.5569,30.391 18.8902,29.391 19.5,28.5C 20.1667,28.1667 20.8333,27.8333 21.5,27.5 Z"/></g>
<g><path style="opacity:1" fill="#031525" d="M 51.5,34.5 C 50.1667,34.1667 50.1667,33.8333 51.5,33.5C 151.555,33.6597 251.555,33.493 351.5,33C 251.581,34.4954 151.581,34.9954 51.5,34.5 Z"/></g>
<g><path style="opacity:1" fill="#8a9698" d="M 16.5,34.5 C 16.573,36.0269 15.9063,37.0269 14.5,37.5C 14.427,35.9731 15.0937,34.9731 16.5,34.5 Z"/></g>
<g><path style="opacity:1" fill="#dde5e9" d="M 51.5,35.5 C 150.501,35.3333 249.501,35.5 348.5,36C 349.901,36.4101 351.234,36.9101 352.5,37.5C 352.973,38.9063 353.973,39.573 355.5,39.5C 357.167,40.5 358.5,41.8333 359.5,43.5C 359.427,45.0269 360.094,46.0269 361.5,46.5C 361.833,47.1667 362.167,47.8333 362.5,48.5C 362.5,49.1667 362.5,49.8333 362.5,50.5C 360.629,50.8588 359.129,51.8588 358,53.5C 356.883,52.0506 356.216,50.3839 356,48.5C 355.25,47.8742 354.416,47.3742 353.5,47C 356.284,44.2159 355.617,42.5492 351.5,42C 352.451,41.2825 352.617,40.4491 352,39.5C 348.191,41.088 344.857,40.4213 342,37.5C 246.882,38.1702 151.715,38.8369 56.5,39.5C 53.6285,37.6415 51.6285,38.3082 50.5,41.5C 50.7093,42.086 51.0426,42.586 51.5,43C 49.7928,43.1953 48.1261,43.1953 46.5,43C 48.5161,43.8995 50.1828,45.2328 51.5,47C 50.5509,47.6172 49.7175,47.4506 49,46.5C 47.8357,50.9274 45.5023,51.9274 42,49.5C 41.6758,51.5689 40.8425,51.9023 39.5,50.5C 38.8333,52.8333 38.1667,55.1667 37.5,57.5C 36.5,154.498 36.1667,251.498 36.5,348.5C 35.8333,348.5 35.5,348.167 35.5,347.5C 35.3333,248.499 35.5,149.499 36,50.5C 36.3736,48.5087 37.207,46.842 38.5,45.5C 40.2624,44.7377 41.2624,43.4044 41.5,41.5C 45.2364,40.5618 48.5697,38.8952 51.5,36.5C 51.5,36.1667 51.5,35.8333 51.5,35.5 Z"/></g>
<g><path style="opacity:1" fill="#fefefe" d="M 362.5,50.5 C 362.667,149.501 362.5,248.501 362,347.5C 359.108,349.394 357.441,352.061 357,355.5C 355.67,356.582 354.17,357.249 352.5,357.5C 349.57,358.623 346.57,359.623 343.5,360.5C 247.835,361.667 152.168,361.833 56.5,361C 58.3839,360.784 60.0506,360.117 61.5,359C 55.857,358.136 50.1903,357.469 44.5,357C 43.2644,355.915 41.9311,355.082 40.5,354.5C 39.391,354.443 38.391,354.11 37.5,353.5C 36.962,351.883 36.6287,350.216 36.5,348.5C 36.1667,251.498 36.5,154.498 37.5,57.5C 38.1667,55.1667 38.8333,52.8333 39.5,50.5C 40.8425,51.9023 41.6758,51.5689 42,49.5C 45.5023,51.9274 47.8357,50.9274 49,46.5C 49.7175,47.4506 50.5509,47.6172 51.5,47C 50.1828,45.2328 48.5161,43.8995 46.5,43C 48.1261,43.1953 49.7928,43.1953 51.5,43C 51.0426,42.586 50.7093,42.086 50.5,41.5C 51.6285,38.3082 53.6285,37.6415 56.5,39.5C 151.715,38.8369 246.882,38.1702 342,37.5C 344.857,40.4213 348.191,41.088 352,39.5C 352.617,40.4491 352.451,41.2825 351.5,42C 355.617,42.5492 356.284,44.2159 353.5,47C 354.416,47.3742 355.25,47.8742 356,48.5C 356.216,50.3839 356.883,52.0506 358,53.5C 359.129,51.8588 360.629,50.8588 362.5,50.5 Z"/></g>
<g><path style="opacity:1" fill="#0d273a" d="M 351.5,13.5 C 351.5,13.1667 351.5,12.8333 351.5,12.5C 354.969,12.5465 358.302,13.2132 361.5,14.5C 361.973,15.9063 362.973,16.573 364.5,16.5C 370.388,20.0456 375.722,24.3789 380.5,29.5C 381.833,32.1667 383.167,34.8333 384.5,37.5C 384.259,39.8984 384.926,41.8984 386.5,43.5C 387.612,45.5994 388.279,47.9327 388.5,50.5C 388.833,150.335 388.499,250.001 387.5,349.5C 387.5,347.5 387.5,345.5 387.5,343.5C 387.834,243.153 387.501,147.487 386.5,56.5C 386.167,56.5 385.833,56.5 385.5,56.5C 385.976,52.6161 384.976,49.2827 382.5,46.5C 382.167,47.3333 381.833,48.1667 381.5,49C 380.877,54.8858 380.877,61.0525 381.5,67.5C 380.833,157.668 380.167,248.001 379.5,338.5C 375.829,344.349 373.329,350.683 372,357.5C 371.667,356.833 371.333,356.167 371,355.5C 370.29,356.973 369.124,357.64 367.5,357.5C 366.629,354.888 365.963,352.221 365.5,349.5C 366.167,347.833 366.833,346.167 367.5,344.5C 368.432,347.267 369.599,349.933 371,352.5C 371.499,347.511 371.666,342.511 371.5,337.5C 372.222,337.082 372.722,336.416 373,335.5C 373.82,240.658 373.653,145.825 372.5,51C 372.451,47.4497 373.118,44.1164 374.5,41C 374.441,39.5643 374.108,38.231 373.5,37C 374.804,36.196 375.471,35.0293 375.5,33.5C 374.175,29.5354 371.508,26.8687 367.5,25.5C 365.786,26.6085 365.119,25.9418 365.5,23.5C 363.712,23.7852 362.045,23.4519 360.5,22.5C 359.833,20.1667 359.167,17.8333 358.5,15.5C 357.675,14.6143 356.675,14.281 355.5,14.5C 354.167,14.1667 352.833,13.8333 351.5,13.5 Z"/></g>
<g><path style="opacity:1" fill="#b9c4cd" d="M 51.5,36.5 C 48.5697,38.8952 45.2364,40.5618 41.5,41.5C 42.5274,39.8058 43.8608,38.4725 45.5,37.5C 47.4352,36.8505 49.4352,36.5172 51.5,36.5 Z"/></g>
<g><path style="opacity:1" fill="#61717a" d="M 352.5,37.5 C 354.027,37.427 355.027,38.0937 355.5,39.5C 353.973,39.573 352.973,38.9063 352.5,37.5 Z"/></g>
<g><path style="opacity:1" fill="#667785" d="M 384.5,37.5 C 386.074,39.1016 386.741,41.1016 386.5,43.5C 384.926,41.8984 384.259,39.8984 384.5,37.5 Z"/></g>
<g><path style="opacity:1" fill="#97a2ae" d="M 41.5,41.5 C 41.2624,43.4044 40.2624,44.7377 38.5,45.5C 38.7376,43.5956 39.7376,42.2623 41.5,41.5 Z"/></g>
<g><path style="opacity:1" fill="#81919d" d="M 359.5,43.5 C 360.906,43.9731 361.573,44.9731 361.5,46.5C 360.094,46.0269 359.427,45.0269 359.5,43.5 Z"/></g>
<g><path style="opacity:1" fill="#052239" d="M 35.5,347.5 C 35.5,348.167 35.8333,348.5 36.5,348.5C 36.6287,350.216 36.962,351.883 37.5,353.5C 38.1667,354.833 38.8333,356.167 39.5,357.5C 39.6125,362.176 42.1125,365.51 47,367.5C 48.2227,365.015 49.7227,364.848 51.5,367C 99.6667,367.167 147.833,367.333 196,367.5C 249.821,367.463 303.321,367.13 356.5,366.5C 353.944,369.668 352.944,373.334 353.5,377.5C 352.448,377.351 351.448,377.517 350.5,378C 350.833,378.333 351.167,378.667 351.5,379C 344.421,379.203 337.421,379.703 330.5,380.5C 330.893,382.284 331.559,383.95 332.5,385.5C 331.078,385.25 330.078,384.417 329.5,383C 240.167,382.333 150.833,382.333 61.5,383C 58.1667,383.333 54.8333,383.667 51.5,384C 52.056,384.383 52.3893,384.883 52.5,385.5C 50.901,385.232 49.5676,385.566 48.5,386.5C 48.1667,386.5 47.8333,386.5 47.5,386.5C 43.6731,384.266 39.8398,381.933 36,379.5C 34.8173,380.731 33.6507,380.731 32.5,379.5C 30.7054,375.832 27.872,373.165 24,371.5C 23.08,368.062 21.4133,365.062 19,362.5C 18.0494,362.884 17.2161,363.217 16.5,363.5C 15.5,362.167 14.5,360.833 13.5,359.5C 12.6712,356.185 11.8379,352.852 11,349.5C 10.3333,249.5 10.3333,149.5 11,49.5C 11.21,47.9419 11.71,46.6085 12.5,45.5C 12.3367,47.8568 12.5034,50.1902 13,52.5C 15.3461,48.4667 17.0128,44.1334 18,39.5C 20.4973,37.5218 23.3307,37.0218 26.5,38C 27.2822,40.7405 27.7822,43.5738 28,46.5C 29.1785,50.091 31.0118,53.2576 33.5,56C 32.8286,150.614 32.1619,245.281 31.5,340C 31.8593,343.358 32.6926,346.525 34,349.5C 34.2784,348.584 34.7784,347.918 35.5,347.5 Z"/></g>
<g><path style="opacity:1" fill="#6d7987" d="M 362.5,48.5 C 363.117,48.6107 363.617,48.944 364,49.5C 364.5,147.833 364.667,246.166 364.5,344.5C 364.737,345.791 364.404,346.791 363.5,347.5C 363.833,248.332 363.499,149.332 362.5,50.5C 362.5,49.8333 362.5,49.1667 362.5,48.5 Z"/></g>
<g><path style="opacity:1" fill="#0b1c32" d="M 385.5,56.5 C 385.833,56.5 386.167,56.5 386.5,56.5C 386.833,150.335 386.499,244.001 385.5,337.5C 385.494,243.626 385.494,149.959 385.5,56.5 Z"/></g>
<g><path style="opacity:1" fill="#e7eff7" d="M 362.5,50.5 C 363.499,149.332 363.833,248.332 363.5,347.5C 362.488,350.257 361.488,352.924 360.5,355.5C 358.167,357.167 356.167,359.167 354.5,361.5C 353.391,361.557 352.391,361.89 351.5,362.5C 352.038,360.883 352.371,359.216 352.5,357.5C 354.17,357.249 355.67,356.582 357,355.5C 357.441,352.061 359.108,349.394 362,347.5C 362.5,248.501 362.667,149.501 362.5,50.5 Z"/></g>
<g><path style="opacity:1" fill="#071b32" d="M 367.5,54.5 C 367.5,151.167 367.5,247.833 367.5,344.5C 366.833,346.167 366.167,347.833 365.5,349.5C 365.5,347.833 365.5,346.167 365.5,344.5C 365.333,248.499 365.5,152.499 366,56.5C 366.278,55.5842 366.778,54.9175 367.5,54.5 Z"/></g>
<g><path style="opacity:1" fill="#031f3d" d="M 371.5,337.5 C 371.666,342.511 371.499,347.511 371,352.5C 369.599,349.933 368.432,347.267 367.5,344.5C 367.5,247.833 367.5,151.167 367.5,54.5C 367.5,54.1667 367.5,53.8333 367.5,53.5C 368.738,52.5876 370.072,52.4209 371.5,53C 371.486,147.731 371.486,242.564 371.5,337.5 Z"/></g>
<g><path style="opacity:1" fill="#02203a" d="M 381.5,67.5 C 382.666,157.666 382.832,247.999 382,338.5C 380.577,341.74 380.577,345.074 382,348.5C 382.191,346.292 382.691,344.292 383.5,342.5C 383.463,348.535 382.963,354.535 382,360.5C 380.308,360.676 378.808,361.176 377.5,362C 377.833,362.333 378.167,362.667 378.5,363C 377.128,364.242 376.128,365.742 375.5,367.5C 372.101,368.288 368.767,369.288 365.5,370.5C 364.248,372.001 363.248,373.668 362.5,375.5C 359.046,377.316 355.713,379.316 352.5,381.5C 351.754,382.736 351.421,384.07 351.5,385.5C 345.167,385.5 338.833,385.5 332.5,385.5C 331.559,383.95 330.893,382.284 330.5,380.5C 337.421,379.703 344.421,379.203 351.5,379C 351.167,378.667 350.833,378.333 350.5,378C 351.448,377.517 352.448,377.351 353.5,377.5C 352.944,373.334 353.944,369.668 356.5,366.5C 356.511,364.983 357.177,363.816 358.5,363C 361.298,360.696 364.298,358.862 367.5,357.5C 369.124,357.64 370.29,356.973 371,355.5C 371.333,356.167 371.667,356.833 372,357.5C 373.329,350.683 375.829,344.349 379.5,338.5C 380.167,248.001 380.833,157.668 381.5,67.5 Z"/></g>
<g><path style="opacity:1" fill="#051d38" d="M 385.5,56.5 C 385.494,149.959 385.494,243.626 385.5,337.5C 384.069,338.78 383.402,340.447 383.5,342.5C 382.691,344.292 382.191,346.292 382,348.5C 380.577,345.074 380.577,341.74 382,338.5C 382.832,247.999 382.666,157.666 381.5,67.5C 380.877,61.0525 380.877,54.8858 381.5,49C 381.833,48.1667 382.167,47.3333 382.5,46.5C 384.976,49.2827 385.976,52.6161 385.5,56.5 Z"/></g>
<g><path style="opacity:1" fill="#0a1627" d="M 387.5,343.5 C 386.542,341.698 385.875,339.698 385.5,337.5C 386.499,244.001 386.833,150.335 386.5,56.5C 387.501,147.487 387.834,243.153 387.5,343.5 Z"/></g>
<g><path style="opacity:1" fill="#c6ced2" d="M 388.5,50.5 C 389.666,150.332 389.832,250.332 389,350.5C 388.768,351.737 388.268,352.737 387.5,353.5C 387.5,352.167 387.5,350.833 387.5,349.5C 388.499,250.001 388.833,150.335 388.5,50.5 Z"/></g>
<g><path style="opacity:1" fill="#bbc2c7" d="M 125.5,93.5 C 125.5,93.8333 125.5,94.1667 125.5,94.5C 121.486,94.3345 117.486,94.5012 113.5,95C 112.584,95.2784 111.918,95.7784 111.5,96.5C 110.167,96.8333 108.833,97.1667 107.5,97.5C 109.626,95.9819 110.792,94.3153 111,92.5C 115.781,93.419 120.615,93.7523 125.5,93.5 Z"/></g>
<g><path style="opacity:1" fill="#394451" d="M 125.5,94.5 C 126.492,94.3284 127.158,94.6618 127.5,95.5C 122.13,95.3921 116.797,95.7255 111.5,96.5C 111.918,95.7784 112.584,95.2784 113.5,95C 117.486,94.5012 121.486,94.3345 125.5,94.5 Z"/></g>
<g><path style="opacity:1" fill="#e4ebef" d="M 106.5,97.5 C 106.5,97.8333 106.5,98.1667 106.5,98.5C 104.251,99.0798 102.585,100.413 101.5,102.5C 98.9836,105.534 96.9836,108.868 95.5,112.5C 94.8333,113.833 94.1667,115.167 93.5,116.5C 93.6495,115.448 93.4828,114.448 93,113.5C 92.1107,114.888 91.6107,114.722 91.5,113C 93.7384,109.386 95.5718,105.553 97,101.5C 98.7787,98.7236 99.7787,99.0569 100,102.5C 100.17,100.285 100.837,98.2852 102,96.5C 103.356,97.3802 104.856,97.7135 106.5,97.5 Z"/></g>
<g><path style="opacity:1" fill="#032038" d="M 143.5,132.5 C 141.216,137.783 137.549,141.783 132.5,144.5C 130.139,144.674 127.806,145.007 125.5,145.5C 121.363,145.854 117.363,145.354 113.5,144C 114.5,143.667 115.5,143.333 116.5,143C 114.1,142.814 111.766,142.314 109.5,141.5C 108.147,140.476 107.48,139.143 107.5,137.5C 106.178,137.67 105.011,137.337 104,136.5C 103.904,133.549 103.071,130.882 101.5,128.5C 102.97,126.518 102.636,124.852 100.5,123.5C 101.471,122.038 101.138,120.705 99.5,119.5C 97.3925,109.091 101.393,102.758 111.5,100.5C 110.359,99.5745 110.359,98.7412 111.5,98C 117.204,97.4698 122.871,97.8032 128.5,99C 130.681,100.348 132.348,102.182 133.5,104.5C 135.794,105.706 138.127,106.706 140.5,107.5C 141.684,112.122 142.684,116.789 143.5,121.5C 141.285,122.615 140.285,124.948 140.5,128.5C 141.5,128.5 142.5,128.5 143.5,128.5C 143.5,129.833 143.5,131.167 143.5,132.5 Z"/></g>
<g><path style="opacity:1" fill="#5f6b75" d="M 106.5,98.5 C 105.415,100.587 103.749,101.92 101.5,102.5C 102.585,100.413 104.251,99.0798 106.5,98.5 Z"/></g>
<g><path style="opacity:1" fill="#112436" d="M 127.5,95.5 C 132.511,96.5067 136.845,98.84 140.5,102.5C 140.427,104.027 141.094,105.027 142.5,105.5C 147.498,112.08 148.831,119.414 146.5,127.5C 144.787,128.635 144.12,130.302 144.5,132.5C 144.167,132.5 143.833,132.5 143.5,132.5C 143.5,131.167 143.5,129.833 143.5,128.5C 142.5,128.5 141.5,128.5 140.5,128.5C 140.285,124.948 141.285,122.615 143.5,121.5C 142.684,116.789 141.684,112.122 140.5,107.5C 138.127,106.706 135.794,105.706 133.5,104.5C 132.348,102.182 130.681,100.348 128.5,99C 122.871,97.8032 117.204,97.4698 111.5,98C 110.359,98.7412 110.359,99.5745 111.5,100.5C 101.393,102.758 97.3925,109.091 99.5,119.5C 101.138,120.705 101.471,122.038 100.5,123.5C 102.636,124.852 102.97,126.518 101.5,128.5C 103.071,130.882 103.904,133.549 104,136.5C 105.011,137.337 106.178,137.67 107.5,137.5C 107.48,139.143 108.147,140.476 109.5,141.5C 111.766,142.314 114.1,142.814 116.5,143C 115.5,143.333 114.5,143.667 113.5,144C 117.363,145.354 121.363,145.854 125.5,145.5C 122.375,146.479 119.042,146.813 115.5,146.5C 109.038,144.354 103.704,140.688 99.5,135.5C 99.573,133.973 98.9063,132.973 97.5,132.5C 97.2041,130.597 96.5375,128.93 95.5,127.5C 95.5,122.5 95.5,117.5 95.5,112.5C 96.9836,108.868 98.9836,105.534 101.5,102.5C 103.749,101.92 105.415,100.587 106.5,98.5C 106.5,98.1667 106.5,97.8333 106.5,97.5C 106.833,97.5 107.167,97.5 107.5,97.5C 108.833,97.1667 110.167,96.8333 111.5,96.5C 116.797,95.7255 122.13,95.3921 127.5,95.5 Z"/></g>
<g><path style="opacity:1" fill="#5e6a73" d="M 140.5,102.5 C 141.906,102.973 142.573,103.973 142.5,105.5C 141.094,105.027 140.427,104.027 140.5,102.5 Z"/></g>
<g><path style="opacity:1" fill="#ecf0f2" d="M 145.5,131.5 C 145.833,130.167 146.167,128.833 146.5,127.5C 148.831,119.414 147.498,112.08 142.5,105.5C 142.573,103.973 141.906,102.973 140.5,102.5C 136.845,98.84 132.511,96.5067 127.5,95.5C 127.158,94.6618 126.492,94.3284 125.5,94.5C 125.5,94.1667 125.5,93.8333 125.5,93.5C 129.023,92.491 132.523,92.491 136,93.5C 136.945,93.0946 137.612,92.428 138,91.5C 139,93.1667 140.333,94.5 142,95.5C 142.216,97.3839 142.883,99.0506 144,100.5C 144.617,99.5509 144.451,98.7175 143.5,98C 144.449,97.3828 145.282,97.5494 146,98.5C 147.582,100.624 147.749,102.79 146.5,105C 148.822,108.3 150.156,111.967 150.5,116C 149.422,119.362 149.422,122.695 150.5,126C 149.144,127.567 148.477,129.4 148.5,131.5C 147.5,131.5 146.5,131.5 145.5,131.5 Z"/></g>
<g><path style="opacity:1" fill="#95a0a7" d="M 95.5,112.5 C 95.5,117.5 95.5,122.5 95.5,127.5C 93.783,124.155 93.1164,120.489 93.5,116.5C 94.1667,115.167 94.8333,113.833 95.5,112.5 Z"/></g>
<g><path style="opacity:1" fill="#5d6b77" d="M 146.5,127.5 C 146.167,128.833 145.833,130.167 145.5,131.5C 145.5,131.833 145.5,132.167 145.5,132.5C 145.167,132.5 144.833,132.5 144.5,132.5C 144.12,130.302 144.787,128.635 146.5,127.5 Z"/></g>
<g><path style="opacity:1" fill="#e7eff2" d="M 95.5,127.5 C 96.5375,128.93 97.2041,130.597 97.5,132.5C 97.427,134.027 98.0937,135.027 99.5,135.5C 103.704,140.688 109.038,144.354 115.5,146.5C 121.399,148.114 127.065,147.448 132.5,144.5C 137.549,141.783 141.216,137.783 143.5,132.5C 143.833,132.5 144.167,132.5 144.5,132.5C 144.833,132.5 145.167,132.5 145.5,132.5C 145.871,135.514 145.371,138.514 144,141.5C 142.723,143.731 140.889,145.398 138.5,146.5C 137.808,145.975 137.308,145.308 137,144.5C 135.068,146.038 132.901,147.205 130.5,148C 123.783,148.204 117.117,148.704 110.5,149.5C 109.749,148.624 109.249,147.624 109,146.5C 102.714,146.569 99.0476,143.235 98,136.5C 97.6667,136.833 97.3333,137.167 97,137.5C 95.9571,134.243 95.4571,130.91 95.5,127.5 Z"/></g>
<g><path style="opacity:1" fill="#9ea8b3" d="M 132.5,144.5 C 127.065,147.448 121.399,148.114 115.5,146.5C 119.042,146.813 122.375,146.479 125.5,145.5C 127.806,145.007 130.139,144.674 132.5,144.5 Z"/></g>
<g><path style="opacity:1" fill="#708491" d="M 97.5,132.5 C 98.9063,132.973 99.573,133.973 99.5,135.5C 98.0937,135.027 97.427,134.027 97.5,132.5 Z"/></g>
<g><path style="opacity:1" fill="#c3ced5" d="M 213.5,177.5 C 211.421,177.029 209.421,176.363 207.5,175.5C 206.167,174.833 204.833,174.167 203.5,173.5C 205.92,173.708 208.253,173.374 210.5,172.5C 211.32,174.319 212.32,175.986 213.5,177.5 Z"/></g>
<g><path style="opacity:1" fill="#858a8e" d="M 192.5,174.5 C 190.544,175.492 188.544,176.492 186.5,177.5C 187.687,175.025 189.687,174.025 192.5,174.5 Z"/></g>
<g><path style="opacity:1" fill="#042037" d="M 207.5,175.5 C 209.421,176.363 211.421,177.029 213.5,177.5C 214.262,179.262 215.596,180.262 217.5,180.5C 217.833,181.5 218.5,182.167 219.5,182.5C 219.5,183.167 219.5,183.833 219.5,184.5C 220.716,187.586 222.216,190.586 224,193.5C 224.499,197.152 224.665,200.818 224.5,204.5C 224.483,206.565 224.15,208.565 223.5,210.5C 223.443,211.609 223.11,212.609 222.5,213.5C 219.833,216.833 216.833,219.833 213.5,222.5C 212.508,222.328 211.842,222.662 211.5,223.5C 209.5,223.833 207.5,224.167 205.5,224.5C 201.818,224.665 198.152,224.499 194.5,224C 197.742,223.717 198.076,222.883 195.5,221.5C 196.72,219.177 195.887,217.844 193,217.5C 188.843,221.373 185.343,220.707 182.5,215.5C 180.349,207.598 179.182,199.598 179,191.5C 179.333,191.833 179.667,192.167 180,192.5C 180.782,189.927 182.282,187.927 184.5,186.5C 185.452,184.955 185.785,183.288 185.5,181.5C 188.232,179.965 190.898,178.131 193.5,176C 198.155,175.501 202.821,175.334 207.5,175.5 Z"/></g>
<g><path style="opacity:1" fill="#88949d" d="M 213.5,177.5 C 215.404,177.738 216.738,178.738 217.5,180.5C 215.596,180.262 214.262,179.262 213.5,177.5 Z"/></g>
<g><path style="opacity:1" fill="#707d86" d="M 219.5,182.5 C 220.906,182.973 221.573,183.973 221.5,185.5C 220.833,185.167 220.167,184.833 219.5,184.5C 219.5,183.833 219.5,183.167 219.5,182.5 Z"/></g>
<g><path style="opacity:1" fill="#303f4f" d="M 219.5,184.5 C 220.167,184.833 220.833,185.167 221.5,185.5C 223.341,187.849 224.674,190.515 225.5,193.5C 225.815,197.371 225.482,201.038 224.5,204.5C 224.665,200.818 224.499,197.152 224,193.5C 222.216,190.586 220.716,187.586 219.5,184.5 Z"/></g>
<g><path style="opacity:1" fill="#ebf2f4" d="M 203.5,173.5 C 199.731,173.244 196.064,173.577 192.5,174.5C 189.687,174.025 187.687,175.025 186.5,177.5C 181.076,180.264 177.409,184.598 175.5,190.5C 174.883,190.611 174.383,190.944 174,191.5C 173.183,197.016 173.349,202.35 174.5,207.5C 174.12,209.698 174.787,211.365 176.5,212.5C 179.947,218.613 184.947,222.946 191.5,225.5C 198.159,227.002 204.826,226.668 211.5,224.5C 211.773,226.451 211.107,227.951 209.5,229C 201.035,230.192 192.868,229.359 185,226.5C 182.011,228.126 179.511,227.626 177.5,225C 177.735,224.127 178.069,223.293 178.5,222.5C 176.829,220.49 176.162,218.157 176.5,215.5C 175.5,215.5 174.5,215.5 173.5,215.5C 173.677,213.019 172.677,211.186 170.5,210C 170.957,209.586 171.291,209.086 171.5,208.5C 170.109,206.38 169.442,204.047 169.5,201.5C 170.231,196.859 170.564,192.193 170.5,187.5C 172.942,187.881 173.609,187.214 172.5,185.5C 174.818,184.348 176.652,182.681 178,180.5C 178.333,180.833 178.667,181.167 179,181.5C 179.49,180.207 179.657,178.873 179.5,177.5C 180.873,177.657 182.207,177.49 183.5,177C 183.167,176.667 182.833,176.333 182.5,176C 185.763,175.131 186.096,173.797 183.5,172C 185.813,172.149 188.147,172.649 190.5,173.5C 194.985,172.261 199.318,172.261 203.5,173.5 Z"/></g>
<g><path style="opacity:1" fill="#4f6069" d="M 175.5,190.5 C 174.593,196.106 174.26,201.773 174.5,207.5C 173.349,202.35 173.183,197.016 174,191.5C 174.383,190.944 174.883,190.611 175.5,190.5 Z"/></g>
<g><path style="opacity:1" fill="#89939c" d="M 225.5,193.5 C 226.645,197.311 226.812,201.311 226,205.5C 225.901,207.653 225.067,209.319 223.5,210.5C 224.15,208.565 224.483,206.565 224.5,204.5C 225.482,201.038 225.815,197.371 225.5,193.5 Z"/></g>
<g><path style="opacity:1" fill="#8c969e" d="M 174.5,207.5 C 175.537,208.93 176.204,210.597 176.5,212.5C 174.787,211.365 174.12,209.698 174.5,207.5 Z"/></g>
<g><path style="opacity:1" fill="#112537" d="M 203.5,173.5 C 204.833,174.167 206.167,174.833 207.5,175.5C 202.821,175.334 198.155,175.501 193.5,176C 190.898,178.131 188.232,179.965 185.5,181.5C 185.785,183.288 185.452,184.955 184.5,186.5C 182.282,187.927 180.782,189.927 180,192.5C 179.667,192.167 179.333,191.833 179,191.5C 179.182,199.598 180.349,207.598 182.5,215.5C 185.343,220.707 188.843,221.373 193,217.5C 195.887,217.844 196.72,219.177 195.5,221.5C 198.076,222.883 197.742,223.717 194.5,224C 198.152,224.499 201.818,224.665 205.5,224.5C 201.03,225.486 196.363,225.819 191.5,225.5C 184.947,222.946 179.947,218.613 176.5,212.5C 176.204,210.597 175.537,208.93 174.5,207.5C 174.26,201.773 174.593,196.106 175.5,190.5C 177.409,184.598 181.076,180.264 186.5,177.5C 188.544,176.492 190.544,175.492 192.5,174.5C 196.064,173.577 199.731,173.244 203.5,173.5 Z"/></g>
<g><path style="opacity:1" fill="#a3afb9" d="M 222.5,213.5 C 221.131,218.202 218.131,221.202 213.5,222.5C 216.833,219.833 219.833,216.833 222.5,213.5 Z"/></g>
<g><path style="opacity:1" fill="#7d8b95" d="M 211.5,223.5 C 211.5,223.833 211.5,224.167 211.5,224.5C 204.826,226.668 198.159,227.002 191.5,225.5C 196.363,225.819 201.03,225.486 205.5,224.5C 207.5,224.167 209.5,223.833 211.5,223.5 Z"/></g>
<g><path style="opacity:1" fill="#5c6975" d="M 283.5,253.5 C 283.5,253.833 283.5,254.167 283.5,254.5C 278.13,254.392 272.797,254.725 267.5,255.5C 267.918,254.778 268.584,254.278 269.5,254C 274.155,253.501 278.821,253.334 283.5,253.5 Z"/></g>
<g><path style="opacity:1" fill="#c5ced4" d="M 283.5,254.5 C 283.5,254.167 283.5,253.833 283.5,253.5C 286.167,253.833 288.833,254.167 291.5,254.5C 292.401,255.29 293.068,256.29 293.5,257.5C 290.156,256.492 286.823,255.492 283.5,254.5 Z"/></g>
<g><path style="opacity:1" fill="#052037" d="M 283.5,254.5 C 286.823,255.492 290.156,256.492 293.5,257.5C 293.5,258.167 293.833,258.5 294.5,258.5C 295.5,259.833 296.5,261.167 297.5,262.5C 298.08,264.749 299.413,266.415 301.5,267.5C 303.123,273.012 303.79,278.678 303.5,284.5C 303.477,286.927 302.977,289.26 302,291.5C 299.98,293.551 298.48,295.884 297.5,298.5C 295.223,299.449 293.223,300.782 291.5,302.5C 284.787,305.576 277.787,306.243 270.5,304.5C 269.024,302.451 267.69,300.284 266.5,298C 264.187,297.338 261.854,296.838 259.5,296.5C 258.886,290.741 257.22,285.408 254.5,280.5C 254.781,278.222 256.115,277.055 258.5,277C 258.201,275.68 258.034,274.18 258,272.5C 256.915,271.264 256.082,269.931 255.5,268.5C 255.5,267.833 255.5,267.167 255.5,266.5C 256.906,266.027 257.573,265.027 257.5,263.5C 258.5,261.833 259.833,260.5 261.5,259.5C 263.027,259.573 264.027,258.906 264.5,257.5C 264.973,256.094 265.973,255.427 267.5,255.5C 272.797,254.725 278.13,254.392 283.5,254.5 Z"/></g>
<g><path style="opacity:1" fill="#4f606f" d="M 264.5,257.5 C 264.027,258.906 263.027,259.573 261.5,259.5C 261.973,258.094 262.973,257.427 264.5,257.5 Z"/></g>
<g><path style="opacity:1" fill="#dfe5ea" d="M 294.5,258.5 C 296.717,259.238 298.884,259.571 301,259.5C 301.684,260.784 301.517,261.951 300.5,263C 302.55,264.636 303.55,266.802 303.5,269.5C 302.833,268.833 302.167,268.167 301.5,267.5C 300.92,265.251 299.587,263.585 297.5,262.5C 296.5,261.167 295.5,259.833 294.5,258.5 Z"/></g>
<g><path style="opacity:1" fill="#455161" d="M 297.5,262.5 C 299.587,263.585 300.92,265.251 301.5,267.5C 299.413,266.415 298.08,264.749 297.5,262.5 Z"/></g>
<g><path style="opacity:1" fill="#66727d" d="M 257.5,263.5 C 257.573,265.027 256.906,266.027 255.5,266.5C 255.427,264.973 256.094,263.973 257.5,263.5 Z"/></g>
<g><path style="opacity:1" fill="#818f99" d="M 255.5,266.5 C 255.5,267.167 255.5,267.833 255.5,268.5C 254.833,268.833 254.167,269.167 253.5,269.5C 253.427,267.973 254.094,266.973 255.5,266.5 Z"/></g>
<g><path style="opacity:1" fill="#edf3f5" d="M 291.5,254.5 C 288.833,254.167 286.167,253.833 283.5,253.5C 278.821,253.334 274.155,253.501 269.5,254C 268.584,254.278 267.918,254.778 267.5,255.5C 265.973,255.427 264.973,256.094 264.5,257.5C 262.973,257.427 261.973,258.094 261.5,259.5C 259.833,260.5 258.5,261.833 257.5,263.5C 256.094,263.973 255.427,264.973 255.5,266.5C 254.094,266.973 253.427,267.973 253.5,269.5C 252.202,276.197 252.202,282.864 253.5,289.5C 253.427,291.027 254.094,292.027 255.5,292.5C 258.167,297.167 261.833,300.833 266.5,303.5C 267.347,304.966 268.68,305.8 270.5,306C 275.833,306.667 281.167,306.667 286.5,306C 288.59,305.331 290.257,304.164 291.5,302.5C 293.223,300.782 295.223,299.449 297.5,298.5C 299.395,297.027 301.061,295.36 302.5,293.5C 303.376,293.369 304.043,293.702 304.5,294.5C 301.734,297.728 299.234,301.061 297,304.5C 296.667,304.167 296.333,303.833 296,303.5C 293.575,305.631 290.742,307.131 287.5,308C 282.628,308.246 277.795,308.746 273,309.5C 269.157,307.331 264.991,306.331 260.5,306.5C 260.719,305.325 260.386,304.325 259.5,303.5C 258.391,304.59 257.391,304.59 256.5,303.5C 254.978,298.495 252.812,293.829 250,289.5C 248.559,288.74 247.059,288.074 245.5,287.5C 245.81,285.799 245.31,284.132 244,282.5C 243.333,281.167 242.667,281.167 242,282.5C 241.316,281.216 241.483,280.049 242.5,279C 244.842,277.829 247.176,276.662 249.5,275.5C 248.737,274.281 247.737,273.281 246.5,272.5C 247.628,271.738 248.795,271.071 250,270.5C 250.375,263.697 253.542,258.863 259.5,256C 260.349,253.645 261.849,251.812 264,250.5C 265.301,251.893 266.801,252.393 268.5,252C 266.842,251.275 266.342,250.108 267,248.5C 267.388,249.428 268.055,250.095 269,250.5C 269.667,249.833 270.333,249.167 271,248.5C 272.95,250.571 275.117,250.905 277.5,249.5C 282.508,250.895 287.175,252.562 291.5,254.5 Z"/></g>
<g><path style="opacity:1" fill="#112735" d="M 255.5,268.5 C 256.082,269.931 256.915,271.264 258,272.5C 258.034,274.18 258.201,275.68 258.5,277C 256.115,277.055 254.781,278.222 254.5,280.5C 257.22,285.408 258.886,290.741 259.5,296.5C 261.854,296.838 264.187,297.338 266.5,298C 267.69,300.284 269.024,302.451 270.5,304.5C 269.167,304.167 267.833,303.833 266.5,303.5C 261.833,300.833 258.167,297.167 255.5,292.5C 255.573,290.973 254.906,289.973 253.5,289.5C 252.202,282.864 252.202,276.197 253.5,269.5C 254.167,269.167 254.833,268.833 255.5,268.5 Z"/></g>
<g><path style="opacity:1" fill="#556471" d="M 301.5,267.5 C 302.167,268.167 302.833,268.833 303.5,269.5C 303.433,270.959 303.766,272.292 304.5,273.5C 304.815,277.371 304.482,281.038 303.5,284.5C 303.79,278.678 303.123,273.012 301.5,267.5 Z"/></g>
<g><path style="opacity:1" fill="#ccd6dc" d="M 304.5,273.5 C 305.213,278.368 305.879,283.368 306.5,288.5C 305.754,289.736 305.421,291.07 305.5,292.5C 304.209,292.263 303.209,292.596 302.5,293.5C 301.061,295.36 299.395,297.027 297.5,298.5C 298.48,295.884 299.98,293.551 302,291.5C 302.977,289.26 303.477,286.927 303.5,284.5C 304.482,281.038 304.815,277.371 304.5,273.5 Z"/></g>
<g><path style="opacity:1" fill="#727f86" d="M 253.5,289.5 C 254.906,289.973 255.573,290.973 255.5,292.5C 254.094,292.027 253.427,291.027 253.5,289.5 Z"/></g>
<g><path style="opacity:1" fill="#96a1a7" d="M 291.5,302.5 C 290.257,304.164 288.59,305.331 286.5,306C 281.167,306.667 275.833,306.667 270.5,306C 268.68,305.8 267.347,304.966 266.5,303.5C 267.833,303.833 269.167,304.167 270.5,304.5C 277.787,306.243 284.787,305.576 291.5,302.5 Z"/></g>
<g><path style="opacity:1" fill="#a1a8b1" d="M 37.5,353.5 C 38.391,354.11 39.391,354.443 40.5,354.5C 40.8333,355.833 41.1667,357.167 41.5,358.5C 40.8333,358.167 40.1667,357.833 39.5,357.5C 38.8333,356.167 38.1667,354.833 37.5,353.5 Z"/></g>
<g><path style="opacity:1" fill="#51606c" d="M 360.5,355.5 C 359.5,358.5 357.5,360.5 354.5,361.5C 356.167,359.167 358.167,357.167 360.5,355.5 Z"/></g>
<g><path style="opacity:1" fill="#6e7d89" d="M 386.5,357.5 C 386.204,359.403 385.537,361.07 384.5,362.5C 384.12,360.302 384.787,358.635 386.5,357.5 Z"/></g>
<g><path style="opacity:1" fill="#f3fafc" d="M 40.5,354.5 C 41.9311,355.082 43.2644,355.915 44.5,357C 50.1903,357.469 55.857,358.136 61.5,359C 60.0506,360.117 58.3839,360.784 56.5,361C 152.168,361.833 247.835,361.667 343.5,360.5C 346.57,359.623 349.57,358.623 352.5,357.5C 352.371,359.216 352.038,360.883 351.5,362.5C 250.862,363.493 150.195,363.827 49.5,363.5C 46.4887,362.331 43.822,360.664 41.5,358.5C 41.1667,357.167 40.8333,355.833 40.5,354.5 Z"/></g>
<g><path style="opacity:1" fill="#122534" d="M 47.5,386.5 C 44.8333,386.167 42.1667,385.833 39.5,385.5C 39.1667,385.5 38.8333,385.5 38.5,385.5C 38.0269,384.094 37.0269,383.427 35.5,383.5C 33.4068,382.955 31.4068,382.122 29.5,381C 26.9638,378.295 24.2971,375.795 21.5,373.5C 19.3006,370.435 17.6339,367.101 16.5,363.5C 17.2161,363.217 18.0494,362.884 19,362.5C 21.4133,365.062 23.08,368.062 24,371.5C 27.872,373.165 30.7054,375.832 32.5,379.5C 33.6507,380.731 34.8173,380.731 36,379.5C 39.8398,381.933 43.6731,384.266 47.5,386.5 Z"/></g>
<g><path style="opacity:1" fill="#14293a" d="M 364.5,344.5 C 364.833,344.5 365.167,344.5 365.5,344.5C 365.5,346.167 365.5,347.833 365.5,349.5C 365.963,352.221 366.629,354.888 367.5,357.5C 364.298,358.862 361.298,360.696 358.5,363C 357.177,363.816 356.511,364.983 356.5,366.5C 303.321,367.13 249.821,367.463 196,367.5C 147.833,367.333 99.6667,367.167 51.5,367C 49.7227,364.848 48.2227,365.015 47,367.5C 42.1125,365.51 39.6125,362.176 39.5,357.5C 40.1667,357.833 40.8333,358.167 41.5,358.5C 43.822,360.664 46.4887,362.331 49.5,363.5C 149.332,364.666 249.332,364.832 349.5,364C 350.416,363.722 351.082,363.222 351.5,362.5C 352.391,361.89 353.391,361.557 354.5,361.5C 357.5,360.5 359.5,358.5 360.5,355.5C 361.488,352.924 362.488,350.257 363.5,347.5C 364.404,346.791 364.737,345.791 364.5,344.5 Z"/></g>
<g><path style="opacity:1" fill="#9daab4" d="M 351.5,362.5 C 351.082,363.222 350.416,363.722 349.5,364C 249.332,364.832 149.332,364.666 49.5,363.5C 150.195,363.827 250.862,363.493 351.5,362.5 Z"/></g>
<g><path style="opacity:1" fill="#bcc6ce" d="M 13.5,359.5 C 14.5,360.833 15.5,362.167 16.5,363.5C 17.6339,367.101 19.3006,370.435 21.5,373.5C 20.2058,372.71 19.0391,371.71 18,370.5C 17.7216,371.416 17.2216,372.082 16.5,372.5C 15.7956,368.094 14.7956,363.76 13.5,359.5 Z"/></g>
<g><path style="opacity:1" fill="#041f39" d="M 330.5,380.5 C 237.263,380.832 144.096,380.499 51,379.5C 48.9714,381.436 46.8047,381.27 44.5,379C 45.8721,378.598 47.2054,378.098 48.5,377.5C 143.049,377.341 237.716,377.508 332.5,378C 331.244,378.417 330.577,379.25 330.5,380.5 Z"/></g>
<g><path style="opacity:1" fill="#c7d2da" d="M 371.5,379.5 C 371.67,380.822 371.337,381.989 370.5,383C 365.739,385.197 360.739,386.697 355.5,387.5C 360.877,385.033 366.21,382.367 371.5,379.5 Z"/></g>
<g><path style="opacity:1" fill="#65717a" d="M 35.5,383.5 C 37.0269,383.427 38.0269,384.094 38.5,385.5C 36.9731,385.573 35.9731,384.906 35.5,383.5 Z"/></g>
<g><path style="opacity:1" fill="#072032" d="M 385.5,337.5 C 385.875,339.698 386.542,341.698 387.5,343.5C 387.5,345.5 387.5,347.5 387.5,349.5C 387.5,350.833 387.5,352.167 387.5,353.5C 386.566,354.568 386.232,355.901 386.5,357.5C 384.787,358.635 384.12,360.302 384.5,362.5C 380.905,368.668 376.572,374.335 371.5,379.5C 366.21,382.367 360.877,385.033 355.5,387.5C 354.167,387.5 352.833,387.5 351.5,387.5C 343.343,386.671 335.01,386.171 326.5,386C 235.167,385.5 143.834,385.333 52.5,385.5C 52.3893,384.883 52.056,384.383 51.5,384C 54.8333,383.667 58.1667,383.333 61.5,383C 150.833,382.333 240.167,382.333 329.5,383C 330.078,384.417 331.078,385.25 332.5,385.5C 338.833,385.5 345.167,385.5 351.5,385.5C 351.421,384.07 351.754,382.736 352.5,381.5C 355.713,379.316 359.046,377.316 362.5,375.5C 363.248,373.668 364.248,372.001 365.5,370.5C 368.767,369.288 372.101,368.288 375.5,367.5C 376.128,365.742 377.128,364.242 378.5,363C 378.167,362.667 377.833,362.333 377.5,362C 378.808,361.176 380.308,360.676 382,360.5C 382.963,354.535 383.463,348.535 383.5,342.5C 383.402,340.447 384.069,338.78 385.5,337.5 Z"/></g>
<g><path style="opacity:1" fill="#081e2b" d="M 52.5,385.5 C 143.834,385.333 235.167,385.5 326.5,386C 335.01,386.171 343.343,386.671 351.5,387.5C 250.332,387.833 149.332,387.499 48.5,386.5C 49.5676,385.566 50.901,385.232 52.5,385.5 Z"/></g>
<g><path style="opacity:1" fill="#22343f" d="M 39.5,385.5 C 42.1667,385.833 44.8333,386.167 47.5,386.5C 47.8333,386.5 48.1667,386.5 48.5,386.5C 149.332,387.499 250.332,387.833 351.5,387.5C 251.668,388.499 151.668,388.833 51.5,388.5C 47.0981,388.692 43.0981,387.692 39.5,385.5 Z"/></g>
<g><path style="opacity:1" fill="#93a2aa" d="M 351.5,387.5 C 352.833,387.5 354.167,387.5 355.5,387.5C 353.485,388.924 351.152,389.59 348.5,389.5C 249.332,389.833 150.332,389.499 51.5,388.5C 151.668,388.833 251.668,388.499 351.5,387.5 Z"/></g>
<g><path style="opacity:1" fill="#eff6f8" d="M 21.5,373.5 C 24.2971,375.795 26.9638,378.295 29.5,381C 31.4068,382.122 33.4068,382.955 35.5,383.5C 35.9731,384.906 36.9731,385.573 38.5,385.5C 38.8333,385.5 39.1667,385.5 39.5,385.5C 43.0981,387.692 47.0981,388.692 51.5,388.5C 150.332,389.499 249.332,389.833 348.5,389.5C 342.986,390.167 337.319,390.833 331.5,391.5C 236.835,392.667 142.168,392.833 47.5,392C 42.5368,390.857 37.8701,389.024 33.5,386.5C 29.5711,387.41 25.9045,387.244 22.5,386C 21.1667,384.667 21.1667,383.333 22.5,382C 20.8231,380.005 19.3231,377.839 18,375.5C 17.6411,378.544 16.9745,378.878 16,376.5C 15.4209,375.072 15.5876,373.738 16.5,372.5C 17.2216,372.082 17.7216,371.416 18,370.5C 19.0391,371.71 20.2058,372.71 21.5,373.5 Z"/></g>
</svg>
