<?xml version="1.0" encoding="UTF-8"?>
<!DOCTYPE svg PUBLIC "-//W3C//DTD SVG 1.1//EN" "http://www.w3.org/Graphics/SVG/1.1/DTD/svg11.dtd">
<svg xmlns="http://www.w3.org/2000/svg" version="1.1" width="400px" height="400px" style="shape-rendering:geometricPrecision; text-rendering:geometricPrecision; image-rendering:optimizeQuality; fill-rule:evenodd; clip-rule:evenodd" xmlns:xlink="http://www.w3.org/1999/xlink">
<g><path style="opacity:1" fill="#f7f9f9" d="M -0.5,-0.5 C 132.833,-0.5 266.167,-0.5 399.5,-0.5C 399.5,132.167 399.5,264.833 399.5,397.5C 266.167,397.5 132.833,397.5 -0.5,397.5C -0.5,264.833 -0.5,132.167 -0.5,-0.5 Z"/></g>
<g><path style="opacity:1" fill="#f0f7f8" d="M 386.5,39.5 C 386.167,39.5 385.833,39.5 385.5,39.5C 385.108,37.8211 384.608,36.1545 384,34.5C 381.597,32.695 379.93,30.3616 379,27.5C 377.223,25.2101 375.056,23.5434 372.5,22.5C 368.979,18.5699 364.645,15.9033 359.5,14.5C 356.47,12.87 353.137,11.87 349.5,11.5C 249.001,10.3342 148.334,10.1675 47.5,11C 46.5842,11.2784 45.9175,11.7784 45.5,12.5C 42.6538,12.5516 40.3204,13.5516 38.5,15.5C 37.8333,15.5 37.1667,15.5 36.5,15.5C 34.9731,15.427 33.9731,16.0937 33.5,17.5C 32.609,18.1098 31.609,18.4431 30.5,18.5C 30.3893,17.8826 30.056,17.3826 29.5,17C 30.624,16.7508 31.624,16.2508 32.5,15.5C 31.3298,12.6231 31.9965,10.4564 34.5,9C 32.4049,8.44437 32.2382,7.94437 34,7.5C 39.9314,9.39902 45.7647,9.39902 51.5,7.5C 150.772,7.34756 250.105,7.51422 349.5,8C 354.47,10.0339 359.303,9.8672 364,7.5C 366.011,10.3643 368.178,10.6976 370.5,8.5C 370.676,10.6716 370.843,13.0049 371,15.5C 374.201,17.368 376.701,19.868 378.5,23C 380.333,24.1667 382.167,25.3333 384,26.5C 384.333,26.1667 384.667,25.8333 385,25.5C 385.635,26.9663 386.469,28.2997 387.5,29.5C 387.191,32.8574 386.858,36.1907 386.5,39.5 Z"/></g>
<g><path style="opacity:1" fill="#9babb5" d="M 349.5,11.5 C 249.332,11.1672 149.332,11.5006 49.5,12.5C 48.5,12.5 47.5,12.5 46.5,12.5C 46.1667,12.5 45.8333,12.5 45.5,12.5C 45.9175,11.7784 46.5842,11.2784 47.5,11C 148.334,10.1675 249.001,10.3342 349.5,11.5 Z"/></g>
<g><path style="opacity:1" fill="#2b3d4d" d="M 49.5,12.5 C 149.332,11.5006 249.332,11.1672 349.5,11.5C 353.137,11.87 356.47,12.87 359.5,14.5C 356.187,13.9552 352.854,13.4552 349.5,13C 249.501,12.5 149.501,12.3333 49.5,12.5 Z"/></g>
<g><path style="opacity:1" fill="#4d5d6a" d="M 45.5,12.5 C 45.8333,12.5 46.1667,12.5 46.5,12.5C 44.064,13.871 41.3973,14.871 38.5,15.5C 40.3204,13.5516 42.6538,12.5516 45.5,12.5 Z"/></g>
<g><path style="opacity:1" fill="#0b2337" d="M 46.5,12.5 C 47.5,12.5 48.5,12.5 49.5,12.5C 149.501,12.3333 249.501,12.5 349.5,13C 352.854,13.4552 356.187,13.9552 359.5,14.5C 364.645,15.9033 368.979,18.5699 372.5,22.5C 372.325,25.3289 373.658,26.9955 376.5,27.5C 377.04,28.7481 377.707,29.9148 378.5,31C 377.5,31.3333 376.5,31.6667 375.5,32C 376.833,32.6667 378.167,33.3333 379.5,34C 378.829,34.9862 378.829,36.1529 379.5,37.5C 378.167,37.5 376.833,37.5 375.5,37.5C 374.448,37.6495 373.448,37.4828 372.5,37C 373.28,35.927 373.113,34.7604 372,33.5C 371.667,34.5 371.333,35.5 371,36.5C 370.502,33.1832 370.335,29.8499 370.5,26.5C 368.339,26.1742 366.506,25.1742 365,23.5C 362.487,25.9228 359.487,27.2561 356,27.5C 353.092,26.1208 350.259,24.4541 347.5,22.5C 344.244,23.5424 340.911,22.8757 337.5,20.5C 337.414,19.5041 337.748,18.6708 338.5,18C 344.175,17.5359 344.508,16.8693 339.5,16C 342.5,15.6667 345.5,15.3333 348.5,15C 251.316,14.8275 154.149,14.3275 57,13.5C 54.5379,14.1595 52.0379,14.4928 49.5,14.5C 49.5,15.5 49.5,16.5 49.5,17.5C 53.1667,17.5 56.8333,17.5 60.5,17.5C 60.1322,21.2013 58.1322,23.2013 54.5,23.5C 53.8501,23.1961 53.1835,22.8627 52.5,22.5C 50.677,23.7472 48.677,24.4139 46.5,24.5C 46.33,25.8221 46.6634,26.9887 47.5,28C 49.4595,28.9309 51.4595,29.7643 53.5,30.5C 62.8124,26.8329 72.1457,26.6662 81.5,30C 100.167,30.6667 118.833,30.6667 137.5,30C 145.5,26.6667 153.5,26.6667 161.5,30C 186.833,30.6667 212.167,30.6667 237.5,30C 245.5,26.6667 253.5,26.6667 261.5,30C 280.167,30.6667 298.833,30.6667 317.5,30C 321.224,28.0125 325.224,27.1791 329.5,27.5C 332.167,27.6667 334.833,27.8333 337.5,28C 338,28.5 338.5,29 339,29.5C 342.322,29.3964 345.822,29.2297 349.5,29C 350.274,31.4397 351.94,32.773 354.5,33C 353.347,34.883 351.681,35.7163 349.5,35.5C 250.166,35.3333 150.833,35.5 51.5,36C 49.8455,36.6077 48.1789,37.1077 46.5,37.5C 45.791,36.596 44.791,36.2627 43.5,36.5C 44.1105,33.039 42.9439,30.3723 40,28.5C 39.7489,26.567 39.2489,24.7337 38.5,23C 29.1549,22.7817 23.3216,27.2817 21,36.5C 20,37.1667 19,37.8333 18,38.5C 16.6251,42.8858 15.7918,47.3858 15.5,52C 16.1499,140.495 16.8166,228.995 17.5,317.5C 18.086,317.291 18.586,316.957 19,316.5C 19.6962,327.774 18.8629,338.941 16.5,350C 17.277,353.93 18.277,357.763 19.5,361.5C 18.596,360.791 18.2627,359.791 18.5,358.5C 17.1667,358.5 15.8333,358.5 14.5,358.5C 14.0113,357.005 13.3446,355.671 12.5,354.5C 11.5024,252.237 11.1691,149.904 11.5,47.5C 12.5375,46.0697 13.2041,44.403 13.5,42.5C 14.5375,41.0697 15.2041,39.403 15.5,37.5C 17.3375,32.3346 20.3375,28.0013 24.5,24.5C 26.7488,23.9202 28.4154,22.5869 29.5,20.5C 29.8333,19.8333 30.1667,19.1667 30.5,18.5C 31.609,18.4431 32.609,18.1098 33.5,17.5C 35.0269,17.573 36.0269,16.9063 36.5,15.5C 37.1667,15.5 37.8333,15.5 38.5,15.5C 41.3973,14.871 44.064,13.871 46.5,12.5 Z"/></g>
<g><path style="opacity:1" fill="#021f3b" d="M 337.5,20.5 C 336.778,20.0825 336.278,19.4158 336,18.5C 335.333,22.5 334.667,22.5 334,18.5C 333,21.1667 332,21.1667 331,18.5C 330.333,22.5 329.667,22.5 329,18.5C 328,21.1667 327,21.1667 326,18.5C 325.333,22.5 324.667,22.5 324,18.5C 323,21.1667 322,21.1667 321,18.5C 319.927,19.2797 318.76,19.113 317.5,18C 298.167,17.3333 278.833,17.3333 259.5,18C 258.416,20.8249 257.249,20.9915 256,18.5C 255.333,22.5 254.667,22.5 254,18.5C 253,21.1667 252,21.1667 251,18.5C 250.333,22.5 249.667,22.5 249,18.5C 248,21.1667 247,21.1667 246,18.5C 245.333,22.5 244.667,22.5 244,18.5C 243,21.1667 242,21.1667 241,18.5C 239.927,19.2797 238.76,19.113 237.5,18C 212.154,17.9935 186.487,17.9935 160.5,18C 159.354,18.6449 158.354,19.4783 157.5,20.5C 156.117,17.9244 155.283,18.2577 155,21.5C 154.717,18.2577 153.883,17.9244 152.5,20.5C 151.117,17.9244 150.283,18.2577 150,21.5C 149.717,18.2577 148.883,17.9244 147.5,20.5C 146.117,17.9244 145.283,18.2577 145,21.5C 144.717,18.2577 143.883,17.9244 142.5,20.5C 141.808,19.9747 141.308,19.3081 141,18.5C 139.927,19.2797 138.76,19.113 137.5,18C 118.5,17.3333 99.5,17.3333 80.5,18C 78.311,18.677 77.9776,19.8437 79.5,21.5C 71.1713,22.3328 62.838,22.9995 54.5,23.5C 58.1322,23.2013 60.1322,21.2013 60.5,17.5C 56.8333,17.5 53.1667,17.5 49.5,17.5C 49.5,16.5 49.5,15.5 49.5,14.5C 52.0379,14.4928 54.5379,14.1595 57,13.5C 154.149,14.3275 251.316,14.8275 348.5,15C 345.5,15.3333 342.5,15.6667 339.5,16C 344.508,16.8693 344.175,17.5359 338.5,18C 337.748,18.6708 337.414,19.5041 337.5,20.5 Z"/></g>
<g><path style="opacity:1" fill="#6d7b84" d="M 36.5,15.5 C 36.0269,16.9063 35.0269,17.573 33.5,17.5C 33.9731,16.0937 34.9731,15.427 36.5,15.5 Z"/></g>
<g><path style="opacity:1" fill="#012039" d="M 337.5,20.5 C 340.911,22.8757 344.244,23.5424 347.5,22.5C 350.259,24.4541 353.092,26.1208 356,27.5C 359.487,27.2561 362.487,25.9228 365,23.5C 366.506,25.1742 368.339,26.1742 370.5,26.5C 370.335,29.8499 370.502,33.1832 371,36.5C 371.333,35.5 371.667,34.5 372,33.5C 373.113,34.7604 373.28,35.927 372.5,37C 373.448,37.4828 374.448,37.6495 375.5,37.5C 376.171,41.8262 374.504,44.8262 370.5,46.5C 371.242,47.2868 372.075,47.9535 373,48.5C 373.449,51.132 374.283,53.632 375.5,56C 374.337,149.139 374.17,242.305 375,335.5C 375.914,337.289 376.747,339.123 377.5,341C 375.879,346.316 374.879,351.816 374.5,357.5C 371.794,357.425 369.127,357.092 366.5,356.5C 367.499,352.858 368.665,349.191 370,345.5C 370.667,250.167 370.667,154.833 370,59.5C 369.329,58.7476 368.496,58.4142 367.5,58.5C 367.179,57.1825 366.846,55.8492 366.5,54.5C 368.026,51.3462 368.693,48.0128 368.5,44.5C 364.115,41.9778 359.449,39.9778 354.5,38.5C 352.833,37.8333 351.167,37.1667 349.5,36.5C 349.5,36.1667 349.5,35.8333 349.5,35.5C 351.681,35.7163 353.347,34.883 354.5,33C 351.94,32.773 350.274,31.4397 349.5,29C 345.822,29.2297 342.322,29.3964 339,29.5C 338.5,29 338,28.5 337.5,28C 334.833,27.8333 332.167,27.6667 329.5,27.5C 325.224,27.1791 321.224,28.0125 317.5,30C 298.833,30.6667 280.167,30.6667 261.5,30C 253.5,26.6667 245.5,26.6667 237.5,30C 212.167,30.6667 186.833,30.6667 161.5,30C 153.5,26.6667 145.5,26.6667 137.5,30C 118.833,30.6667 100.167,30.6667 81.5,30C 72.1457,26.6662 62.8124,26.8329 53.5,30.5C 51.4595,29.7643 49.4595,28.9309 47.5,28C 46.6634,26.9887 46.33,25.8221 46.5,24.5C 48.677,24.4139 50.677,23.7472 52.5,22.5C 53.1835,22.8627 53.8501,23.1961 54.5,23.5C 62.838,22.9995 71.1713,22.3328 79.5,21.5C 77.9776,19.8437 78.311,18.677 80.5,18C 99.5,17.3333 118.5,17.3333 137.5,18C 138.76,19.113 139.927,19.2797 141,18.5C 141.308,19.3081 141.808,19.9747 142.5,20.5C 143.883,17.9244 144.717,18.2577 145,21.5C 145.283,18.2577 146.117,17.9244 147.5,20.5C 148.883,17.9244 149.717,18.2577 150,21.5C 150.283,18.2577 151.117,17.9244 152.5,20.5C 153.883,17.9244 154.717,18.2577 155,21.5C 155.283,18.2577 156.117,17.9244 157.5,20.5C 158.354,19.4783 159.354,18.6449 160.5,18C 186.487,17.9935 212.154,17.9935 237.5,18C 238.76,19.113 239.927,19.2797 241,18.5C 242,21.1667 243,21.1667 244,18.5C 244.667,22.5 245.333,22.5 246,18.5C 247,21.1667 248,21.1667 249,18.5C 249.667,22.5 250.333,22.5 251,18.5C 252,21.1667 253,21.1667 254,18.5C 254.667,22.5 255.333,22.5 256,18.5C 257.249,20.9915 258.416,20.8249 259.5,18C 278.833,17.3333 298.167,17.3333 317.5,18C 318.76,19.113 319.927,19.2797 321,18.5C 322,21.1667 323,21.1667 324,18.5C 324.667,22.5 325.333,22.5 326,18.5C 327,21.1667 328,21.1667 329,18.5C 329.667,22.5 330.333,22.5 331,18.5C 332,21.1667 333,21.1667 334,18.5C 334.667,22.5 335.333,22.5 336,18.5C 336.278,19.4158 336.778,20.0825 337.5,20.5 Z"/></g>
<g><path style="opacity:1" fill="#4f5d6a" d="M 29.5,20.5 C 28.4154,22.5869 26.7488,23.9202 24.5,24.5C 25.5846,22.4131 27.2512,21.0798 29.5,20.5 Z"/></g>
<g><path style="opacity:1" fill="#ebf2f5" d="M 30.5,18.5 C 30.1667,19.1667 29.8333,19.8333 29.5,20.5C 27.2512,21.0798 25.5846,22.4131 24.5,24.5C 20.3375,28.0013 17.3375,32.3346 15.5,37.5C 13.7868,38.6354 13.1201,40.302 13.5,42.5C 13.2041,44.403 12.5375,46.0697 11.5,47.5C 11.8165,42.8463 11.1499,38.3463 9.5,34C 11.3118,27.5747 15.6451,24.2414 22.5,24C 22.1667,23.6667 21.8333,23.3333 21.5,23C 22.7662,20.4217 24.7662,18.5884 27.5,17.5C 28.4168,18.1272 29.4168,18.4606 30.5,18.5 Z"/></g>
<g><path style="opacity:1" fill="#1d2f3c" d="M 372.5,22.5 C 375.056,23.5434 377.223,25.2101 379,27.5C 379.93,30.3616 381.597,32.695 384,34.5C 384.608,36.1545 385.108,37.8211 385.5,39.5C 385.5,39.8333 385.5,40.1667 385.5,40.5C 384.222,40.2178 383.222,39.5511 382.5,38.5C 381.209,38.7373 380.209,38.404 379.5,37.5C 378.829,36.1529 378.829,34.9862 379.5,34C 378.167,33.3333 376.833,32.6667 375.5,32C 376.5,31.6667 377.5,31.3333 378.5,31C 377.707,29.9148 377.04,28.7481 376.5,27.5C 373.658,26.9955 372.325,25.3289 372.5,22.5 Z"/></g>
<g><path style="opacity:1" fill="#f5fcfe" d="M 349.5,36.5 C 351.167,37.1667 352.833,37.8333 354.5,38.5C 356.5,40.5 358.5,42.5 360.5,44.5C 360.427,46.0269 361.094,47.0269 362.5,47.5C 362.5,48.8333 362.5,50.1667 362.5,51.5C 362.5,146.833 362.5,242.167 362.5,337.5C 361.667,243.668 361.167,149.668 361,55.5C 360.511,52.0178 359.345,48.8512 357.5,46C 355.924,45.5604 354.59,44.727 353.5,43.5C 352.914,43.7093 352.414,44.0426 352,44.5C 348.128,42.6108 345.295,40.2775 343.5,37.5C 248.185,38.8311 152.852,38.8311 57.5,37.5C 55.8034,37.8988 54.1368,38.3988 52.5,39C 50.5327,41.4359 48.866,43.9359 47.5,46.5C 44.7284,45.6285 42.0618,45.6285 39.5,46.5C 39.5,45.8333 39.5,45.1667 39.5,44.5C 39.9568,42.2273 41.2901,40.894 43.5,40.5C 46.705,39.8989 49.705,38.7323 52.5,37C 151.499,36.5 250.499,36.3333 349.5,36.5 Z"/></g>
<g><path style="opacity:1" fill="#fefefe" d="M 362.5,337.5 C 362.665,341.182 362.499,344.848 362,348.5C 359.298,350.043 358.132,352.376 358.5,355.5C 356.801,355.34 355.134,355.506 353.5,356C 352.077,358.531 350.077,360.365 347.5,361.5C 249.446,361.496 151.446,361.496 53.5,361.5C 51.3359,360.586 49.3359,359.419 47.5,358C 48.731,356.817 48.731,355.651 47.5,354.5C 46.8333,355.167 46.1667,355.833 45.5,356.5C 44.3776,354.956 44.711,353.623 46.5,352.5C 45.7542,351.264 45.4208,349.93 45.5,348.5C 40.5776,348.11 40.2443,349.277 44.5,352C 42.8034,352.384 41.1368,352.218 39.5,351.5C 39.313,349.436 38.813,347.436 38,345.5C 37.5,247.501 37.3333,149.501 37.5,51.5C 37.7959,49.597 38.4625,47.9303 39.5,46.5C 42.0618,45.6285 44.7284,45.6285 47.5,46.5C 48.866,43.9359 50.5327,41.4359 52.5,39C 54.1368,38.3988 55.8034,37.8988 57.5,37.5C 152.852,38.8311 248.185,38.8311 343.5,37.5C 345.295,40.2775 348.128,42.6108 352,44.5C 352.414,44.0426 352.914,43.7093 353.5,43.5C 354.59,44.727 355.924,45.5604 357.5,46C 359.345,48.8512 360.511,52.0178 361,55.5C 361.167,149.668 361.667,243.668 362.5,337.5 Z"/></g>
<g><path style="opacity:1" fill="#022039" d="M 46.5,37.5 C 46.1667,37.5 45.8333,37.5 45.5,37.5C 43.7376,37.3573 42.0709,37.6906 40.5,38.5C 39.561,36.9466 38.3943,35.6133 37,34.5C 34.865,35.9284 32.6983,37.2617 30.5,38.5C 30.0722,43.0022 30.7389,47.5022 32.5,52C 31.115,53.9645 31.2816,55.7979 33,57.5C 33.8273,151.684 33.6606,245.851 32.5,340C 33.8249,345.789 34.8249,351.623 35.5,357.5C 29.3137,359.312 26.647,356.978 27.5,350.5C 27.4283,346.854 28.095,343.354 29.5,340C 29.4929,245.999 29.4929,151.832 29.5,57.5C 27.5328,57.7394 25.6995,57.4061 24,56.5C 21.3,45.8189 19.8,46.1522 19.5,57.5C 20.5,57.5 21.5,57.5 22.5,57.5C 23.157,156.251 22.4904,254.918 20.5,353.5C 23.3303,356.444 25.997,359.611 28.5,363C 31.0101,363.376 33.3435,364.21 35.5,365.5C 37.0102,369.947 35.3435,372.28 30.5,372.5C 30.5,373.833 30.5,375.167 30.5,376.5C 27.1245,375.374 24.9579,373.041 24,369.5C 23.2588,370.641 22.4255,370.641 21.5,369.5C 19.9462,367.067 19.2796,364.4 19.5,361.5C 18.277,357.763 17.277,353.93 16.5,350C 18.8629,338.941 19.6962,327.774 19,316.5C 18.586,316.957 18.086,317.291 17.5,317.5C 16.8166,228.995 16.1499,140.495 15.5,52C 15.7918,47.3858 16.6251,42.8858 18,38.5C 19,37.8333 20,37.1667 21,36.5C 23.3216,27.2817 29.1549,22.7817 38.5,23C 39.2489,24.7337 39.7489,26.567 40,28.5C 42.9439,30.3723 44.1105,33.039 43.5,36.5C 44.791,36.2627 45.791,36.596 46.5,37.5 Z"/></g>
<g><path style="opacity:1" fill="#acb9c3" d="M 349.5,35.5 C 349.5,35.8333 349.5,36.1667 349.5,36.5C 250.499,36.3333 151.499,36.5 52.5,37C 49.705,38.7323 46.705,39.8989 43.5,40.5C 44.1667,39.5 44.8333,38.5 45.5,37.5C 45.8333,37.5 46.1667,37.5 46.5,37.5C 48.1789,37.1077 49.8455,36.6077 51.5,36C 150.833,35.5 250.166,35.3333 349.5,35.5 Z"/></g>
<g><path style="opacity:1" fill="#828f9b" d="M 15.5,37.5 C 15.2041,39.403 14.5375,41.0697 13.5,42.5C 13.1201,40.302 13.7868,38.6354 15.5,37.5 Z"/></g>
<g><path style="opacity:1" fill="#a5b1b8" d="M 385.5,39.5 C 385.833,39.5 386.167,39.5 386.5,39.5C 387.774,41.9925 388.44,44.6592 388.5,47.5C 387.833,46.5 387.167,45.5 386.5,44.5C 386.567,43.0413 386.234,41.7079 385.5,40.5C 385.5,40.1667 385.5,39.8333 385.5,39.5 Z"/></g>
<g><path style="opacity:1" fill="#032037" d="M 375.5,37.5 C 376.833,37.5 378.167,37.5 379.5,37.5C 380.209,38.404 381.209,38.7373 382.5,38.5C 383.567,44.0662 384.901,49.5662 386.5,55C 385.182,154.826 385.182,254.659 386.5,354.5C 386.037,357.221 385.371,359.888 384.5,362.5C 383.662,362.842 383.328,363.508 383.5,364.5C 378.017,367.088 373.184,371.088 369,376.5C 366.201,377.773 364.367,379.773 363.5,382.5C 362.5,382.5 361.5,382.5 360.5,382.5C 360.624,380.418 361.624,378.918 363.5,378C 361.366,377.873 359.199,378.039 357,378.5C 352.972,378.216 349.138,377.382 345.5,376C 351.639,372.331 358.306,371.164 365.5,372.5C 367.924,371.262 370.258,369.762 372.5,368C 368.459,365.985 364.792,363.485 361.5,360.5C 360.818,361.243 360.151,361.909 359.5,362.5C 359.5,359.167 361.167,357.5 364.5,357.5C 365.008,352.784 365.842,348.118 367,343.5C 367.5,248.501 367.667,153.501 367.5,58.5C 368.496,58.4142 369.329,58.7476 370,59.5C 370.667,154.833 370.667,250.167 370,345.5C 368.665,349.191 367.499,352.858 366.5,356.5C 369.127,357.092 371.794,357.425 374.5,357.5C 374.879,351.816 375.879,346.316 377.5,341C 376.747,339.123 375.914,337.289 375,335.5C 374.17,242.305 374.337,149.139 375.5,56C 374.283,53.632 373.449,51.132 373,48.5C 372.075,47.9535 371.242,47.2868 370.5,46.5C 374.504,44.8262 376.171,41.8262 375.5,37.5 Z"/></g>
<g><path style="opacity:1" fill="#fefcf5" d="M 4.5,56.5 C 5.82207,56.33 6.98873,56.6634 8,57.5C 8.66667,150.833 8.66667,244.167 8,337.5C 6.66667,338.833 5.33333,338.833 4,337.5C 3.66667,330.5 3.33333,323.5 3,316.5C 2.33333,230.5 2.33333,144.5 3,58.5C 3.71719,57.9558 4.21719,57.2891 4.5,56.5 Z"/></g>
<g><path style="opacity:1" fill="#fcfcf7" d="M 393.5,56.5 C 394.496,56.4142 395.329,56.7476 396,57.5C 395.69,156.817 395.357,256.15 395,355.5C 394.395,357.481 393.395,357.815 392,356.5C 391.333,257.167 391.333,157.833 392,58.5C 392.717,57.9558 393.217,57.2891 393.5,56.5 Z"/></g>
<g><path style="opacity:1" fill="#011e37" d="M 380.5,47.5 C 382.175,49.6765 383.509,52.1765 384.5,55C 384.802,149.136 384.469,243.302 383.5,337.5C 382.914,337.291 382.414,336.957 382,336.5C 381.667,243.5 381.333,150.5 381,57.5C 379.977,56.3999 379.477,55.0666 379.5,53.5C 379.84,51.4878 380.173,49.4878 380.5,47.5 Z"/></g>
<g><path style="opacity:1" fill="#364854" d="M 386.5,44.5 C 387.167,45.5 387.833,46.5 388.5,47.5C 388.833,150.001 388.499,252.335 387.5,354.5C 387.825,251.145 387.491,147.811 386.5,44.5 Z"/></g>
<g><path style="opacity:1" fill="#142738" d="M 45.5,37.5 C 44.8333,38.5 44.1667,39.5 43.5,40.5C 41.2901,40.894 39.9568,42.2273 39.5,44.5C 37.8639,45.7489 36.6972,47.4156 36,49.5C 35.3333,149.167 35.3333,248.833 36,348.5C 36.0995,350.653 36.9328,352.319 38.5,353.5C 38.5,354.167 38.8333,354.5 39.5,354.5C 40.4735,357.135 42.1402,359.135 44.5,360.5C 44.9731,361.906 45.9731,362.573 47.5,362.5C 47.9175,363.222 48.5842,363.722 49.5,364C 149.668,364.832 249.668,364.666 349.5,363.5C 353.053,361.965 356.386,359.965 359.5,357.5C 361.759,356.656 362.759,354.989 362.5,352.5C 363.222,352.082 363.722,351.416 364,350.5C 364.667,250.167 364.667,149.833 364,49.5C 363.722,48.5842 363.222,47.9175 362.5,47.5C 362.573,45.9731 361.906,44.9731 360.5,44.5C 358.5,42.5 356.5,40.5 354.5,38.5C 359.449,39.9778 364.115,41.9778 368.5,44.5C 368.693,48.0128 368.026,51.3462 366.5,54.5C 366.846,55.8492 367.179,57.1825 367.5,58.5C 367.667,153.501 367.5,248.501 367,343.5C 365.842,348.118 365.008,352.784 364.5,357.5C 361.167,357.5 359.5,359.167 359.5,362.5C 357.551,364.563 355.218,365.896 352.5,366.5C 258.074,367.491 163.407,367.825 68.5,367.5C 59.7748,367.261 51.1082,366.427 42.5,365C 39.572,362.911 37.2386,360.411 35.5,357.5C 34.8249,351.623 33.8249,345.789 32.5,340C 33.6606,245.851 33.8273,151.684 33,57.5C 31.2816,55.7979 31.115,53.9645 32.5,52C 30.7389,47.5022 30.0722,43.0022 30.5,38.5C 32.6983,37.2617 34.865,35.9284 37,34.5C 38.3943,35.6133 39.561,36.9466 40.5,38.5C 42.0709,37.6906 43.7376,37.3573 45.5,37.5 Z"/></g>
<g><path style="opacity:1" fill="#a4b0b7" d="M 362.5,47.5 C 363.222,47.9175 363.722,48.5842 364,49.5C 364.667,149.833 364.667,250.167 364,350.5C 363.722,351.416 363.222,352.082 362.5,352.5C 363.828,252.027 363.828,151.694 362.5,51.5C 362.5,50.1667 362.5,48.8333 362.5,47.5 Z"/></g>
<g><path style="opacity:1" fill="#e5ebef" d="M 37.5,51.5 C 37.3333,149.501 37.5,247.501 38,345.5C 38.813,347.436 39.313,349.436 39.5,351.5C 39.5,352.5 39.5,353.5 39.5,354.5C 38.8333,354.5 38.5,354.167 38.5,353.5C 38.0046,351.518 37.5046,349.518 37,347.5C 36.1675,248.666 36.3342,149.999 37.5,51.5 Z"/></g>
<g><path style="opacity:1" fill="#e5ecf0" d="M 362.5,51.5 C 363.828,151.694 363.828,252.027 362.5,352.5C 361.11,353.899 360.11,355.566 359.5,357.5C 356.386,359.965 353.053,361.965 349.5,363.5C 348.5,363.5 347.5,363.5 346.5,363.5C 346.833,362.833 347.167,362.167 347.5,361.5C 350.077,360.365 352.077,358.531 353.5,356C 355.134,355.506 356.801,355.34 358.5,355.5C 358.132,352.376 359.298,350.043 362,348.5C 362.499,344.848 362.665,341.182 362.5,337.5C 362.5,242.167 362.5,146.833 362.5,51.5 Z"/></g>
<g><path style="opacity:1" fill="#798c93" d="M 360.5,44.5 C 361.906,44.9731 362.573,45.9731 362.5,47.5C 361.094,47.0269 360.427,46.0269 360.5,44.5 Z"/></g>
<g><path style="opacity:1" fill="#a6b0b8" d="M 39.5,44.5 C 39.5,45.1667 39.5,45.8333 39.5,46.5C 38.4625,47.9303 37.7959,49.597 37.5,51.5C 36.3342,149.999 36.1675,248.666 37,347.5C 37.5046,349.518 38.0046,351.518 38.5,353.5C 36.9328,352.319 36.0995,350.653 36,348.5C 35.3333,248.833 35.3333,149.167 36,49.5C 36.6972,47.4156 37.8639,45.7489 39.5,44.5 Z"/></g>
<g><path style="opacity:1" fill="#041e30" d="M 382.5,38.5 C 383.222,39.5511 384.222,40.2178 385.5,40.5C 386.234,41.7079 386.567,43.0413 386.5,44.5C 387.491,147.811 387.825,251.145 387.5,354.5C 387.167,354.5 386.833,354.5 386.5,354.5C 385.182,254.659 385.182,154.826 386.5,55C 384.901,49.5662 383.567,44.0662 382.5,38.5 Z"/></g>
<g><path style="opacity:1" fill="#e6ebef" d="M 158.5,124.5 C 157.5,123.167 156.5,121.833 155.5,120.5C 153.573,117.233 151.239,114.233 148.5,111.5C 147.884,109.583 146.55,108.416 144.5,108C 144.833,107.667 145.167,107.333 145.5,107C 142.854,106.503 140.187,106.336 137.5,106.5C 133.833,106.5 130.167,106.5 126.5,106.5C 130.634,105.515 134.968,105.182 139.5,105.5C 139.5,104.5 139.5,103.5 139.5,102.5C 142.891,102.297 145.891,103.297 148.5,105.5C 148.291,106.086 147.957,106.586 147.5,107C 149.076,107.44 150.41,108.273 151.5,109.5C 151.833,108.833 152.167,108.167 152.5,107.5C 154.135,108.33 155.802,108.497 157.5,108C 156.833,108.667 156.167,109.333 155.5,110C 155.857,113.432 157.19,116.765 159.5,120C 158.852,121.44 158.519,122.94 158.5,124.5 Z"/></g>
<g><path style="opacity:1" fill="#bfc9d1" d="M 137.5,107.5 C 137.5,107.167 137.5,106.833 137.5,106.5C 140.187,106.336 142.854,106.503 145.5,107C 145.167,107.333 144.833,107.667 144.5,108C 146.55,108.416 147.884,109.583 148.5,111.5C 145.161,109.386 141.495,108.053 137.5,107.5 Z"/></g>
<g><path style="opacity:1" fill="#364656" d="M 126.5,106.5 C 130.167,106.5 133.833,106.5 137.5,106.5C 137.5,106.833 137.5,107.167 137.5,107.5C 129.985,107.137 122.985,108.804 116.5,112.5C 118.811,109.003 122.144,107.003 126.5,106.5 Z"/></g>
<g><path style="opacity:1" fill="#032036" d="M 155.5,120.5 C 155.461,121.583 155.127,122.583 154.5,123.5C 154.846,124.696 155.346,124.696 156,123.5C 157.309,128.066 157.809,132.733 157.5,137.5C 157.233,139.965 156.566,142.299 155.5,144.5C 154.883,144.389 154.383,144.056 154,143.5C 152.908,145.131 152.075,146.798 151.5,148.5C 148.86,148.954 146.527,150.121 144.5,152C 144.833,152.333 145.167,152.667 145.5,153C 143.285,153.17 141.285,153.837 139.5,155C 133.085,155.559 126.752,155.059 120.5,153.5C 120.67,152.178 120.337,151.011 119.5,150C 116.816,149.222 114.483,147.889 112.5,146C 113.252,145.329 113.586,144.496 113.5,143.5C 114.268,144.263 114.768,145.263 115,146.5C 115.875,144.487 117.209,144.487 119,146.5C 119.167,143.5 119.333,140.5 119.5,137.5C 119.446,134.061 118.78,130.894 117.5,128C 119.233,125.699 120.233,123.032 120.5,120C 119.343,117.893 120.176,116.726 123,116.5C 128.257,117.65 133.257,117.65 138,116.5C 139.095,123.419 139.929,130.419 140.5,137.5C 141.086,137.291 141.586,136.957 142,136.5C 142.167,134.667 142.333,132.833 142.5,131C 141.876,127.107 141.376,123.274 141,119.5C 142.552,118.034 144.386,117.034 146.5,116.5C 148.079,120.023 149.412,123.69 150.5,127.5C 149.382,130.812 149.382,134.145 150.5,137.5C 152.167,137.5 153.833,137.5 155.5,137.5C 155.355,132.438 154.688,127.438 153.5,122.5C 153.233,120.024 153.899,119.357 155.5,120.5 Z"/></g>
<g><path style="opacity:1" fill="#5e6372" d="M 114.5,113.5 C 114.267,115.062 113.6,116.395 112.5,117.5C 111.833,117.833 111.167,118.167 110.5,118.5C 111.08,116.251 112.413,114.585 114.5,113.5 Z"/></g>
<g><path style="opacity:1" fill="#78838e" d="M 110.5,118.5 C 110.573,120.027 109.906,121.027 108.5,121.5C 108.427,119.973 109.094,118.973 110.5,118.5 Z"/></g>
<g><path style="opacity:1" fill="#051f38" d="M 137.5,107.5 C 141.495,108.053 145.161,109.386 148.5,111.5C 151.239,114.233 153.573,117.233 155.5,120.5C 153.899,119.357 153.233,120.024 153.5,122.5C 154.688,127.438 155.355,132.438 155.5,137.5C 153.833,137.5 152.167,137.5 150.5,137.5C 149.382,134.145 149.382,130.812 150.5,127.5C 149.412,123.69 148.079,120.023 146.5,116.5C 144.386,117.034 142.552,118.034 141,119.5C 141.376,123.274 141.876,127.107 142.5,131C 142.333,132.833 142.167,134.667 142,136.5C 141.586,136.957 141.086,137.291 140.5,137.5C 139.929,130.419 139.095,123.419 138,116.5C 133.257,117.65 128.257,117.65 123,116.5C 120.176,116.726 119.343,117.893 120.5,120C 120.233,123.032 119.233,125.699 117.5,128C 118.78,130.894 119.446,134.061 119.5,137.5C 119.333,140.5 119.167,143.5 119,146.5C 117.209,144.487 115.875,144.487 115,146.5C 114.768,145.263 114.268,144.263 113.5,143.5C 111.712,140.188 110.045,136.854 108.5,133.5C 110.459,128.455 112.126,123.288 113.5,118C 113.272,117.601 112.938,117.435 112.5,117.5C 113.6,116.395 114.267,115.062 114.5,113.5C 114.842,112.662 115.508,112.328 116.5,112.5C 122.985,108.804 129.985,107.137 137.5,107.5 Z"/></g>
<g><path style="opacity:1" fill="#475664" d="M 108.5,122.5 C 107.746,127.463 107.413,132.463 107.5,137.5C 107.167,137.5 106.833,137.5 106.5,137.5C 106.334,133.154 106.501,128.821 107,124.5C 107.278,123.584 107.778,122.918 108.5,122.5 Z"/></g>
<g><path style="opacity:1" fill="#445460" d="M 155.5,120.5 C 156.5,121.833 157.5,123.167 158.5,124.5C 159.662,128.98 159.662,133.313 158.5,137.5C 158.167,137.5 157.833,137.5 157.5,137.5C 157.809,132.733 157.309,128.066 156,123.5C 155.346,124.696 154.846,124.696 154.5,123.5C 155.127,122.583 155.461,121.583 155.5,120.5 Z"/></g>
<g><path style="opacity:1" fill="#112434" d="M 112.5,117.5 C 112.938,117.435 113.272,117.601 113.5,118C 112.126,123.288 110.459,128.455 108.5,133.5C 110.045,136.854 111.712,140.188 113.5,143.5C 113.586,144.496 113.252,145.329 112.5,146C 114.483,147.889 116.816,149.222 119.5,150C 120.337,151.011 120.67,152.178 120.5,153.5C 126.752,155.059 133.085,155.559 139.5,155C 141.285,153.837 143.285,153.17 145.5,153C 145.167,152.667 144.833,152.333 144.5,152C 146.527,150.121 148.86,148.954 151.5,148.5C 152.075,146.798 152.908,145.131 154,143.5C 154.383,144.056 154.883,144.389 155.5,144.5C 155.5,144.833 155.5,145.167 155.5,145.5C 152.408,151.254 147.741,155.254 141.5,157.5C 135.479,158.726 129.479,158.726 123.5,157.5C 120.562,156.221 117.896,154.555 115.5,152.5C 114.167,150.5 112.5,148.833 110.5,147.5C 109.492,144.156 108.492,140.823 107.5,137.5C 107.413,132.463 107.746,127.463 108.5,122.5C 108.5,122.167 108.5,121.833 108.5,121.5C 109.906,121.027 110.573,120.027 110.5,118.5C 111.167,118.167 111.833,117.833 112.5,117.5 Z"/></g>
<g><path style="opacity:1" fill="#91a0ab" d="M 106.5,137.5 C 106.833,137.5 107.167,137.5 107.5,137.5C 108.492,140.823 109.492,144.156 110.5,147.5C 107.819,144.808 106.486,141.475 106.5,137.5 Z"/></g>
<g><path style="opacity:1" fill="#85939f" d="M 157.5,137.5 C 157.833,137.5 158.167,137.5 158.5,137.5C 158.326,139.861 157.993,142.194 157.5,144.5C 156.833,144.833 156.167,145.167 155.5,145.5C 155.5,145.167 155.5,144.833 155.5,144.5C 156.566,142.299 157.233,139.965 157.5,137.5 Z"/></g>
<g><path style="opacity:1" fill="#929fa8" d="M 110.5,147.5 C 112.5,148.833 114.167,150.5 115.5,152.5C 112.833,151.833 111.167,150.167 110.5,147.5 Z"/></g>
<g><path style="opacity:1" fill="#e1e9ee" d="M 157.5,144.5 C 157.523,150.121 155.19,154.454 150.5,157.5C 147.461,157.971 144.461,158.304 141.5,158.5C 141.5,158.167 141.5,157.833 141.5,157.5C 147.741,155.254 152.408,151.254 155.5,145.5C 156.167,145.167 156.833,144.833 157.5,144.5 Z"/></g>
<g><path style="opacity:1" fill="#b0b8be" d="M 123.5,157.5 C 129.479,158.726 135.479,158.726 141.5,157.5C 141.5,157.833 141.5,158.167 141.5,158.5C 138.417,159.125 135.251,159.458 132,159.5C 128.748,159.481 125.915,158.814 123.5,157.5 Z"/></g>
<g><path style="opacity:1" fill="#eef4f3" d="M 293.5,259.5 C 292.833,258.833 292.167,258.167 291.5,257.5C 290.641,253.108 288.307,249.775 284.5,247.5C 283.609,246.89 282.609,246.557 281.5,246.5C 281.631,245.624 281.298,244.957 280.5,244.5C 277.805,243.492 275.138,242.492 272.5,241.5C 270.866,240.839 269.033,240.506 267,240.5C 263.85,240.36 261.017,241.027 258.5,242.5C 253.358,244.304 249.025,247.304 245.5,251.5C 245.5,249.833 245.5,248.167 245.5,246.5C 246.833,246.5 248.167,246.5 249.5,246.5C 249.421,245.07 249.754,243.736 250.5,242.5C 253.083,241.277 255.25,239.61 257,237.5C 265.915,237.558 274.915,237.558 284,237.5C 284.5,237.667 285,237.833 285.5,238C 284.692,238.308 284.025,238.808 283.5,239.5C 285.951,243.285 289.284,245.952 293.5,247.5C 293.069,248.293 292.735,249.127 292.5,250C 294.366,252.216 295.2,254.716 295,257.5C 294.667,257.167 294.333,256.833 294,256.5C 293.517,257.448 293.351,258.448 293.5,259.5 Z"/></g>
<g><path style="opacity:1" fill="#99a2a8" d="M 272.5,241.5 C 267.797,241.437 263.13,241.771 258.5,242.5C 261.017,241.027 263.85,240.36 267,240.5C 269.033,240.506 270.866,240.839 272.5,241.5 Z"/></g>
<g><path style="opacity:1" fill="#1b2c3d" d="M 272.5,241.5 C 275.138,242.492 277.805,243.492 280.5,244.5C 281.298,244.957 281.631,245.624 281.5,246.5C 280.549,249.045 279.549,249.045 278.5,246.5C 276.922,245.702 275.256,245.202 273.5,245C 274.167,244.667 274.833,244.333 275.5,244C 265.57,241.663 257.57,244.33 251.5,252C 250.216,252.684 249.049,252.517 248,251.5C 247.943,253.91 246.776,255.244 244.5,255.5C 244.833,254.167 245.167,252.833 245.5,251.5C 249.025,247.304 253.358,244.304 258.5,242.5C 263.13,241.771 267.797,241.437 272.5,241.5 Z"/></g>
<g><path style="opacity:1" fill="#032037" d="M 281.5,246.5 C 282.609,246.557 283.609,246.89 284.5,247.5C 282.815,251.12 282.149,254.786 282.5,258.5C 287.51,257.674 289.843,259.841 289.5,265C 288.877,268.481 288.377,271.981 288,275.5C 287.075,276.047 286.242,276.713 285.5,277.5C 286.428,278.768 286.595,280.101 286,281.5C 282.273,282.598 279.773,284.932 278.5,288.5C 272.305,291.466 266.305,291.133 260.5,287.5C 259.707,287.931 258.873,288.265 258,288.5C 254.841,287.089 251.674,285.756 248.5,284.5C 247.5,283.833 246.5,283.167 245.5,282.5C 244.306,279.549 243.306,276.549 242.5,273.5C 242.392,268.13 242.725,262.797 243.5,257.5C 243.328,256.508 243.662,255.842 244.5,255.5C 246.776,255.244 247.943,253.91 248,251.5C 249.049,252.517 250.216,252.684 251.5,252C 257.57,244.33 265.57,241.663 275.5,244C 274.833,244.333 274.167,244.667 273.5,245C 275.256,245.202 276.922,245.702 278.5,246.5C 279.549,249.045 280.549,249.045 281.5,246.5 Z"/></g>
<g><path style="opacity:1" fill="#4d5e6a" d="M 243.5,257.5 C 242.725,262.797 242.392,268.13 242.5,273.5C 242.167,273.5 241.833,273.5 241.5,273.5C 239.674,267.723 240.341,262.39 243.5,257.5 Z"/></g>
<g><path style="opacity:1" fill="#4e5e69" d="M 291.5,257.5 C 292.167,258.167 292.833,258.833 293.5,259.5C 293.746,265.559 293.413,271.559 292.5,277.5C 292.167,277.5 291.833,277.5 291.5,277.5C 292.783,270.841 292.783,264.174 291.5,257.5 Z"/></g>
<g><path style="opacity:1" fill="#a5b6bc" d="M 291.5,277.5 C 291.833,277.5 292.167,277.5 292.5,277.5C 292.25,279.674 291.25,281.341 289.5,282.5C 289.796,280.597 290.463,278.93 291.5,277.5 Z"/></g>
<g><path style="opacity:1" fill="#97a3b1" d="M 245.5,282.5 C 246.5,283.167 247.5,283.833 248.5,284.5C 249.11,285.391 249.443,286.391 249.5,287.5C 247.413,286.415 246.08,284.749 245.5,282.5 Z"/></g>
<g><path style="opacity:1" fill="#e1e7ec" d="M 241.5,273.5 C 241.833,273.5 242.167,273.5 242.5,273.5C 243.306,276.549 244.306,279.549 245.5,282.5C 246.08,284.749 247.413,286.415 249.5,287.5C 253.106,290.391 257.106,292.391 261.5,293.5C 258.455,293.296 255.621,293.296 253,293.5C 250.636,291.637 248.136,289.971 245.5,288.5C 243.648,286.143 242.481,283.477 242,280.5C 241.111,281.888 240.611,281.722 240.5,280C 241.287,277.901 241.62,275.734 241.5,273.5 Z"/></g>
<g><path style="opacity:1" fill="#a5b0b7" d="M 289.5,282.5 C 287.438,286.895 284.104,289.895 279.5,291.5C 282.808,288.529 286.141,285.529 289.5,282.5 Z"/></g>
<g><path style="opacity:1" fill="#112534" d="M 284.5,247.5 C 288.307,249.775 290.641,253.108 291.5,257.5C 292.783,264.174 292.783,270.841 291.5,277.5C 290.463,278.93 289.796,280.597 289.5,282.5C 286.141,285.529 282.808,288.529 279.5,291.5C 278.167,291.833 276.833,292.167 275.5,292.5C 270.897,293.383 266.23,293.717 261.5,293.5C 257.106,292.391 253.106,290.391 249.5,287.5C 249.443,286.391 249.11,285.391 248.5,284.5C 251.674,285.756 254.841,287.089 258,288.5C 258.873,288.265 259.707,287.931 260.5,287.5C 266.305,291.133 272.305,291.466 278.5,288.5C 279.773,284.932 282.273,282.598 286,281.5C 286.595,280.101 286.428,278.768 285.5,277.5C 286.242,276.713 287.075,276.047 288,275.5C 288.377,271.981 288.877,268.481 289.5,265C 289.843,259.841 287.51,257.674 282.5,258.5C 282.149,254.786 282.815,251.12 284.5,247.5 Z"/></g>
<g><path style="opacity:1" fill="#a7b3bb" d="M 275.5,292.5 C 275.389,293.117 275.056,293.617 274.5,294C 269.98,294.814 265.646,294.647 261.5,293.5C 266.23,293.717 270.897,293.383 275.5,292.5 Z"/></g>
<g><path style="opacity:1" fill="#424f5b" d="M 362.5,352.5 C 362.759,354.989 361.759,356.656 359.5,357.5C 360.11,355.566 361.11,353.899 362.5,352.5 Z"/></g>
<g><path style="opacity:1" fill="#94a0a7" d="M 12.5,354.5 C 13.3446,355.671 14.0113,357.005 14.5,358.5C 14.8333,359.833 15.1667,361.167 15.5,362.5C 13.0181,360.497 12.0181,357.831 12.5,354.5 Z"/></g>
<g><path style="opacity:1" fill="#939fa9" d="M 386.5,354.5 C 386.833,354.5 387.167,354.5 387.5,354.5C 387.982,357.831 386.982,360.497 384.5,362.5C 385.371,359.888 386.037,357.221 386.5,354.5 Z"/></g>
<g><path style="opacity:1" fill="#f4fbfd" d="M 347.5,361.5 C 347.167,362.167 346.833,362.833 346.5,363.5C 246.811,363.824 147.145,363.491 47.5,362.5C 47.0269,361.094 46.0269,360.427 44.5,360.5C 42.1402,359.135 40.4735,357.135 39.5,354.5C 39.5,353.5 39.5,352.5 39.5,351.5C 41.1368,352.218 42.8034,352.384 44.5,352C 40.2443,349.277 40.5776,348.11 45.5,348.5C 45.4208,349.93 45.7542,351.264 46.5,352.5C 44.711,353.623 44.3776,354.956 45.5,356.5C 46.1667,355.833 46.8333,355.167 47.5,354.5C 48.731,355.651 48.731,356.817 47.5,358C 49.3359,359.419 51.3359,360.586 53.5,361.5C 151.446,361.496 249.446,361.496 347.5,361.5 Z"/></g>
<g><path style="opacity:1" fill="#8c98a2" d="M 44.5,360.5 C 46.0269,360.427 47.0269,361.094 47.5,362.5C 45.9731,362.573 44.9731,361.906 44.5,360.5 Z"/></g>
<g><path style="opacity:1" fill="#9dabb4" d="M 47.5,362.5 C 147.145,363.491 246.811,363.824 346.5,363.5C 347.5,363.5 348.5,363.5 349.5,363.5C 249.668,364.666 149.668,364.832 49.5,364C 48.5842,363.722 47.9175,363.222 47.5,362.5 Z"/></g>
<g><path style="opacity:1" fill="#042036" d="M 35.5,357.5 C 37.2386,360.411 39.572,362.911 42.5,365C 51.1082,366.427 59.7748,367.261 68.5,367.5C 163.407,367.825 258.074,367.491 352.5,366.5C 352.03,367.693 351.03,368.36 349.5,368.5C 346.201,369.21 342.867,369.543 339.5,369.5C 338.451,373.831 340.118,375.997 344.5,376C 341.635,376.837 338.802,377.67 336,378.5C 244.117,377.176 152.45,377.176 61,378.5C 59.3523,377.283 57.519,376.45 55.5,376C 58.7868,375.255 59.7868,373.422 58.5,370.5C 53.3464,369.698 48.3464,368.364 43.5,366.5C 39.9761,367.05 38.9761,368.884 40.5,372C 43.1667,372.333 45.8333,372.667 48.5,373C 50.0261,374.887 52.0261,375.887 54.5,376C 49.0079,377.286 43.3413,377.953 37.5,378C 35.6161,378.216 33.9494,378.883 32.5,380C 40.9485,383.354 48.7819,383.187 56,379.5C 152.225,380.168 248.725,380.834 345.5,381.5C 348.765,380.003 351.765,380.336 354.5,382.5C 354.217,383.289 353.717,383.956 353,384.5C 249.438,384.814 145.772,384.48 42,383.5C 41.5,383.667 41,383.833 40.5,384C 41.4158,384.278 42.0825,384.778 42.5,385.5C 41.5,385.5 40.5,385.5 39.5,385.5C 39.1667,385.5 38.8333,385.5 38.5,385.5C 38.0269,384.094 37.0269,383.427 35.5,383.5C 31.6923,381.427 28.0256,379.094 24.5,376.5C 23.9202,374.251 22.5869,372.585 20.5,371.5C 20.5,370.833 20.1667,370.5 19.5,370.5C 18.6743,367.515 17.341,364.849 15.5,362.5C 15.1667,361.167 14.8333,359.833 14.5,358.5C 15.8333,358.5 17.1667,358.5 18.5,358.5C 18.2627,359.791 18.596,360.791 19.5,361.5C 19.2796,364.4 19.9462,367.067 21.5,369.5C 22.4255,370.641 23.2588,370.641 24,369.5C 24.9579,373.041 27.1245,375.374 30.5,376.5C 30.5,375.167 30.5,373.833 30.5,372.5C 35.3435,372.28 37.0102,369.947 35.5,365.5C 33.3435,364.21 31.0101,363.376 28.5,363C 25.997,359.611 23.3303,356.444 20.5,353.5C 22.4904,254.918 23.157,156.251 22.5,57.5C 21.5,57.5 20.5,57.5 19.5,57.5C 19.8,46.1522 21.3,45.8189 24,56.5C 25.6995,57.4061 27.5328,57.7394 29.5,57.5C 29.4929,151.832 29.4929,245.999 29.5,340C 28.095,343.354 27.4283,346.854 27.5,350.5C 26.647,356.978 29.3137,359.312 35.5,357.5 Z"/></g>
<g><path style="opacity:1" fill="#c5cfd6" d="M 15.5,362.5 C 17.341,364.849 18.6743,367.515 19.5,370.5C 17.9256,370.063 16.7589,369.063 16,367.5C 15.6667,368.167 15.3333,368.833 15,369.5C 14.9822,367.203 15.1489,364.869 15.5,362.5 Z"/></g>
<g><path style="opacity:1" fill="#9da9b0" d="M 20.5,371.5 C 22.5869,372.585 23.9202,374.251 24.5,376.5C 22.4131,375.415 21.0798,373.749 20.5,371.5 Z"/></g>
<g><path style="opacity:1" fill="#9faab2" d="M 380.5,370.5 C 379.5,373.5 377.5,375.5 374.5,376.5C 376.167,374.167 378.167,372.167 380.5,370.5 Z"/></g>
<g><path style="opacity:1" fill="#031f39" d="M 360.5,382.5 C 358.19,382.242 356.19,382.242 354.5,382.5C 351.765,380.336 348.765,380.003 345.5,381.5C 248.725,380.834 152.225,380.168 56,379.5C 48.7819,383.187 40.9485,383.354 32.5,380C 33.9494,378.883 35.6161,378.216 37.5,378C 43.3413,377.953 49.0079,377.286 54.5,376C 52.0261,375.887 50.0261,374.887 48.5,373C 45.8333,372.667 43.1667,372.333 40.5,372C 38.9761,368.884 39.9761,367.05 43.5,366.5C 48.3464,368.364 53.3464,369.698 58.5,370.5C 59.7868,373.422 58.7868,375.255 55.5,376C 57.519,376.45 59.3523,377.283 61,378.5C 152.45,377.176 244.117,377.176 336,378.5C 338.802,377.67 341.635,376.837 344.5,376C 340.118,375.997 338.451,373.831 339.5,369.5C 342.867,369.543 346.201,369.21 349.5,368.5C 351.03,368.36 352.03,367.693 352.5,366.5C 355.218,365.896 357.551,364.563 359.5,362.5C 360.151,361.909 360.818,361.243 361.5,360.5C 364.792,363.485 368.459,365.985 372.5,368C 370.258,369.762 367.924,371.262 365.5,372.5C 358.306,371.164 351.639,372.331 345.5,376C 349.138,377.382 352.972,378.216 357,378.5C 359.199,378.039 361.366,377.873 363.5,378C 361.624,378.918 360.624,380.418 360.5,382.5 Z"/></g>
<g><path style="opacity:1" fill="#012039" d="M 79.5,369.5 C 159.169,369.167 238.836,369.5 318.5,370.5C 319.833,371.833 319.833,373.167 318.5,374.5C 239.169,375.667 159.835,375.833 80.5,375C 79.5939,373.301 79.2606,371.467 79.5,369.5 Z"/></g>
<g><path style="opacity:1" fill="#cdd7db" d="M 374.5,377.5 C 373.547,380.438 371.547,382.271 368.5,383C 370.992,384.249 370.825,385.416 368,386.5C 367.481,385.484 366.647,384.818 365.5,384.5C 363.666,385.754 361.666,386.421 359.5,386.5C 364.625,383.768 369.625,380.768 374.5,377.5 Z"/></g>
<g><path style="opacity:1" fill="#79858e" d="M 35.5,383.5 C 37.0269,383.427 38.0269,384.094 38.5,385.5C 36.9731,385.573 35.9731,384.906 35.5,383.5 Z"/></g>
<g><path style="opacity:1" fill="#092131" d="M 383.5,364.5 C 382.5,366.5 381.5,368.5 380.5,370.5C 378.167,372.167 376.167,374.167 374.5,376.5C 374.5,376.833 374.5,377.167 374.5,377.5C 369.625,380.768 364.625,383.768 359.5,386.5C 356.873,387.092 354.206,387.425 351.5,387.5C 351.082,386.778 350.416,386.278 349.5,386C 328,385.833 306.5,385.667 285,385.5C 206.489,385.672 126.656,386.005 45.5,386.5C 44.391,386.443 43.391,386.11 42.5,385.5C 42.0825,384.778 41.4158,384.278 40.5,384C 41,383.833 41.5,383.667 42,383.5C 145.772,384.48 249.438,384.814 353,384.5C 353.717,383.956 354.217,383.289 354.5,382.5C 356.19,382.242 358.19,382.242 360.5,382.5C 361.5,382.5 362.5,382.5 363.5,382.5C 364.367,379.773 366.201,377.773 369,376.5C 373.184,371.088 378.017,367.088 383.5,364.5 Z"/></g>
<g><path style="opacity:1" fill="#0e232f" d="M 351.5,387.5 C 250.874,388.495 150.207,388.829 49.5,388.5C 48.0413,388.567 46.7079,388.234 45.5,387.5C 45.5,387.167 45.5,386.833 45.5,386.5C 126.656,386.005 206.489,385.672 285,385.5C 306.5,385.667 328,385.833 349.5,386C 350.416,386.278 351.082,386.778 351.5,387.5 Z"/></g>
<g><path style="opacity:1" fill="#556572" d="M 39.5,385.5 C 40.5,385.5 41.5,385.5 42.5,385.5C 43.391,386.11 44.391,386.443 45.5,386.5C 45.5,386.833 45.5,387.167 45.5,387.5C 43.1016,387.741 41.1016,387.074 39.5,385.5 Z"/></g>
<g><path style="opacity:1" fill="#f4fafc" d="M 19.5,370.5 C 20.1667,370.5 20.5,370.833 20.5,371.5C 21.0798,373.749 22.4131,375.415 24.5,376.5C 28.0256,379.094 31.6923,381.427 35.5,383.5C 35.9731,384.906 36.9731,385.573 38.5,385.5C 38.8333,385.5 39.1667,385.5 39.5,385.5C 41.1016,387.074 43.1016,387.741 45.5,387.5C 46.7079,388.234 48.0413,388.567 49.5,388.5C 49.9175,389.222 50.5842,389.722 51.5,390C 147.499,390.5 243.499,390.667 339.5,390.5C 339.611,391.117 339.944,391.617 340.5,392C 245.158,392.179 149.824,392.679 54.5,393.5C 50.8997,393.355 47.3997,392.689 44,391.5C 42.7741,391.645 41.6074,391.978 40.5,392.5C 39.166,387.758 35.8327,385.924 30.5,387C 28.7868,385.075 27.4535,382.908 26.5,380.5C 24.8345,378.667 22.8345,377.334 20.5,376.5C 19.6518,374.591 19.3184,372.591 19.5,370.5 Z"/></g>
<g><path style="opacity:1" fill="#c4d0d5" d="M 359.5,386.5 C 359.5,387.833 359.5,389.167 359.5,390.5C 352.833,390.5 346.167,390.5 339.5,390.5C 243.499,390.667 147.499,390.5 51.5,390C 50.5842,389.722 49.9175,389.222 49.5,388.5C 150.207,388.829 250.874,388.495 351.5,387.5C 354.206,387.425 356.873,387.092 359.5,386.5 Z"/></g>
</svg>
