<?xml version="1.0" encoding="UTF-8"?>
<!DOCTYPE svg PUBLIC "-//W3C//DTD SVG 1.1//EN" "http://www.w3.org/Graphics/SVG/1.1/DTD/svg11.dtd">
<svg xmlns="http://www.w3.org/2000/svg" version="1.1" width="400px" height="400px" style="shape-rendering:geometricPrecision; text-rendering:geometricPrecision; image-rendering:optimizeQuality; fill-rule:evenodd; clip-rule:evenodd" xmlns:xlink="http://www.w3.org/1999/xlink">
<g><path style="opacity:1" fill="#fdfdfd" d="M -0.5,-0.5 C 132.833,-0.5 266.167,-0.5 399.5,-0.5C 399.5,132.833 399.5,266.167 399.5,399.5C 266.167,399.5 132.833,399.5 -0.5,399.5C -0.5,266.167 -0.5,132.833 -0.5,-0.5 Z"/></g>
<g><path style="opacity:1" fill="#f0f7f8" d="M 366.5,16.5 C 364.579,15.6373 362.579,14.9707 360.5,14.5C 357.833,13.8333 355.167,13.1667 352.5,12.5C 350.901,12.7678 349.568,12.4345 348.5,11.5C 249.001,10.5006 149.335,10.1672 49.5,10.5C 54.6509,9.67331 59.9842,9.17331 65.5,9C 65.1667,8.66667 64.8333,8.33333 64.5,8C 158.913,7.51271 253.247,7.34604 347.5,7.5C 350.843,8.02582 354.01,9.02582 357,10.5C 358.388,9.44636 359.888,9.27969 361.5,10C 362.665,11.0836 363.998,11.9169 365.5,12.5C 366.429,13.6888 366.762,15.0222 366.5,16.5 Z"/></g>
<g><path style="opacity:1" fill="#9aaab4" d="M 49.5,10.5 C 149.335,10.1672 249.001,10.5006 348.5,11.5C 247.811,11.1757 147.145,11.509 46.5,12.5C 47.5,11.8333 48.5,11.1667 49.5,10.5 Z"/></g>
<g><path style="opacity:1" fill="#596877" d="M 46.5,12.5 C 43.4172,14.0246 40.0839,15.0246 36.5,15.5C 39.381,13.32 42.7144,12.32 46.5,12.5 Z"/></g>
<g><path style="opacity:1" fill="#374751" d="M 352.5,12.5 C 355.167,13.1667 357.833,13.8333 360.5,14.5C 360.5,14.8333 360.5,15.1667 360.5,15.5C 357.364,15.3969 354.698,14.3969 352.5,12.5 Z"/></g>
<g><path style="opacity:1" fill="#8f9aa1" d="M 36.5,15.5 C 35.7095,16.4013 34.7095,17.0679 33.5,17.5C 33.8212,15.9519 34.8212,15.2852 36.5,15.5 Z"/></g>
<g><path style="opacity:1" fill="#92a1aa" d="M 360.5,15.5 C 360.5,15.1667 360.5,14.8333 360.5,14.5C 362.579,14.9707 364.579,15.6373 366.5,16.5C 366.5,16.8333 366.5,17.1667 366.5,17.5C 364.421,17.0293 362.421,16.3627 360.5,15.5 Z"/></g>
<g><path style="opacity:1" fill="#84959f" d="M 366.5,17.5 C 368.404,17.7376 369.738,18.7376 370.5,20.5C 369.391,20.4431 368.391,20.1098 367.5,19.5C 367.167,18.8333 366.833,18.1667 366.5,17.5 Z"/></g>
<g><path style="opacity:1" fill="#5f6a74" d="M 24.5,24.5 C 23.8333,25.8333 22.8333,26.8333 21.5,27.5C 21.5,25.5 22.5,24.5 24.5,24.5 Z"/></g>
<g><path style="opacity:1" fill="#e4ecef" d="M 29.5,18.5 C 27.8333,20.5 26.1667,22.5 24.5,24.5C 22.5,24.5 21.5,25.5 21.5,27.5C 18.6742,30.4835 16.3409,33.8168 14.5,37.5C 12.9261,39.1016 12.2594,41.1016 12.5,43.5C 12.1667,43.5 11.8333,43.5 11.5,43.5C 11.2101,39.0638 11.7101,34.7305 13,30.5C 14.9341,28.0573 17.4341,26.724 20.5,26.5C 19.9995,22.5067 21.4995,20.84 25,21.5C 25.2266,18.0639 26.7266,17.0639 29.5,18.5 Z"/></g>
<g><path style="opacity:1" fill="#59636e" d="M 377.5,27.5 C 379.262,28.2623 380.262,29.5956 380.5,31.5C 378.738,30.7377 377.738,29.4044 377.5,27.5 Z"/></g>
<g><path style="opacity:1" fill="#022037" d="M 368.5,24.5 C 372.18,25.6782 375.18,27.8448 377.5,31C 376.398,33.4009 376.231,35.9009 377,38.5C 377.914,37.3463 378.747,37.513 379.5,39C 378.39,41.7372 378.223,44.5706 379,47.5C 379.414,47.0426 379.914,46.7093 380.5,46.5C 381.167,47.8333 381.833,49.1667 382.5,50.5C 383.192,49.9747 383.692,49.3081 384,48.5C 384.875,49.8732 385.375,51.3732 385.5,53C 385.656,153.738 385.489,254.572 385,355.5C 384.1,356.77 382.934,357.77 381.5,358.5C 380.633,363.894 377.633,367.561 372.5,369.5C 370.493,371.889 370.16,374.556 371.5,377.5C 369.027,377.088 367.694,378.088 367.5,380.5C 364.962,380.507 362.462,380.841 360,381.5C 355.426,380.72 350.926,379.72 346.5,378.5C 346.047,377.542 345.381,376.708 344.5,376C 346.808,373.276 349.808,371.776 353.5,371.5C 354.386,370.675 354.719,369.675 354.5,368.5C 258.845,369.314 163.178,369.814 67.5,370C 66.2532,371.458 66.2532,372.958 67.5,374.5C 153.831,375.333 240.165,375.833 326.5,376C 326.167,376.333 325.833,376.667 325.5,377C 235.977,376.882 146.477,377.716 57,379.5C 51.0844,379.482 45.5844,378.316 40.5,376C 40.0426,375.586 39.7093,375.086 39.5,374.5C 41.2911,371.856 41.9578,369.189 41.5,366.5C 142.389,367.631 243.389,367.798 344.5,367C 346.931,365.948 349.265,365.781 351.5,366.5C 353.171,366.332 354.504,365.665 355.5,364.5C 356.222,364.918 356.722,365.584 357,366.5C 357.219,365.062 357.719,363.729 358.5,362.5C 359.425,363.641 360.259,363.641 361,362.5C 362.834,356.161 364.667,349.828 366.5,343.5C 365.843,295.464 365.51,247.131 365.5,198.5C 365.667,151.5 365.833,104.5 366,57.5C 368.208,51.4997 367.542,45.833 364,40.5C 363.667,41.1667 363.333,41.8333 363,42.5C 362.238,38.7535 360.071,36.4201 356.5,35.5C 356.489,33.9826 355.823,32.8159 354.5,32C 357.807,30.7164 361.141,29.383 364.5,28C 365.337,26.9887 365.67,25.8221 365.5,24.5C 366.5,24.5 367.5,24.5 368.5,24.5 Z"/></g>
<g><path style="opacity:1" fill="#384856" d="M 51.5,34.5 C 149.833,34.5 248.167,34.5 346.5,34.5C 346.5,34.8333 346.5,35.1667 346.5,35.5C 248.332,35.1672 150.332,35.5006 52.5,36.5C 51.8333,36.5 51.1667,36.5 50.5,36.5C 49.8333,36.5 49.1667,36.5 48.5,36.5C 49.5,35.8333 50.5,35.1667 51.5,34.5 Z"/></g>
<g><path style="opacity:1" fill="#d3e0e4" d="M 52.5,36.5 C 150.332,35.5006 248.332,35.1672 346.5,35.5C 346.5,36.1667 346.833,36.5 347.5,36.5C 348.574,38.2155 350.241,39.2155 352.5,39.5C 353.386,40.325 353.719,41.325 353.5,42.5C 352.063,41.2779 350.563,41.2779 349,42.5C 348.5,42.3333 348,42.1667 347.5,42C 348.308,41.6924 348.975,41.1924 349.5,40.5C 345.846,39.6207 342.179,38.7873 338.5,38C 243.145,37.8238 147.812,37.3238 52.5,36.5 Z"/></g>
<g><path style="opacity:1" fill="#fefefe" d="M 50.5,36.5 C 51.1667,36.5 51.8333,36.5 52.5,36.5C 147.812,37.3238 243.145,37.8238 338.5,38C 342.179,38.7873 345.846,39.6207 349.5,40.5C 348.975,41.1924 348.308,41.6924 347.5,42C 348,42.1667 348.5,42.3333 349,42.5C 350.563,41.2779 352.063,41.2779 353.5,42.5C 354.167,42.8333 354.833,43.1667 355.5,43.5C 355.586,44.4959 355.252,45.3292 354.5,46C 355.5,46.3333 356.5,46.6667 357.5,47C 357.167,47.3333 356.833,47.6667 356.5,48C 357.579,51.1496 358.579,54.3163 359.5,57.5C 358.778,57.9175 358.278,58.5842 358,59.5C 357.827,153.017 357.327,246.517 356.5,340C 357.159,342.462 357.493,344.962 357.5,347.5C 356.624,347.369 355.957,347.702 355.5,348.5C 356.885,350.536 358.218,352.536 359.5,354.5C 359.167,355.167 358.833,355.833 358.5,356.5C 352.93,355.416 348.43,357.083 345,361.5C 248.693,361.819 152.36,361.486 56,360.5C 55.6667,361.167 55.3333,361.833 55,362.5C 50.304,360.305 50.4707,358.805 55.5,358C 52.7695,357.272 50.1029,357.438 47.5,358.5C 45.2706,357.423 42.9372,356.756 40.5,356.5C 39.9363,350.469 39.1029,344.469 38,338.5C 37.3333,245.5 37.3333,152.5 38,59.5C 39.4413,58.13 41.108,57.13 43,56.5C 43.7494,55.365 43.5827,54.365 42.5,53.5C 41.3131,54.8938 40.6465,54.7271 40.5,53C 41.8945,49.5748 43.8945,46.5748 46.5,44C 45.695,42.8873 45.0283,41.7206 44.5,40.5C 46.636,39.3472 48.636,38.0138 50.5,36.5 Z"/></g>
<g><path style="opacity:1" fill="#a6b2ba" d="M 48.5,36.5 C 49.1667,36.5 49.8333,36.5 50.5,36.5C 48.636,38.0138 46.636,39.3472 44.5,40.5C 43.609,41.1098 42.609,41.4431 41.5,41.5C 43.34,39.0855 45.6733,37.4188 48.5,36.5 Z"/></g>
<g><path style="opacity:1" fill="#6a7a85" d="M 14.5,37.5 C 14.7406,39.8984 14.0739,41.8984 12.5,43.5C 12.2594,41.1016 12.9261,39.1016 14.5,37.5 Z"/></g>
<g><path style="opacity:1" fill="#cfd7df" d="M 347.5,36.5 C 351.702,37.2679 355.369,39.1012 358.5,42C 360.495,44.1572 361.828,46.6572 362.5,49.5C 360.244,47.5747 358.411,45.2414 357,42.5C 356.617,43.056 356.117,43.3893 355.5,43.5C 354.833,43.1667 354.167,42.8333 353.5,42.5C 353.719,41.325 353.386,40.325 352.5,39.5C 350.241,39.2155 348.574,38.2155 347.5,36.5 Z"/></g>
<g><path style="opacity:1" fill="#3f4a57" d="M 383.5,37.5 C 385.818,39.1852 386.818,41.5185 386.5,44.5C 384.166,42.8243 383.166,40.491 383.5,37.5 Z"/></g>
<g><path style="opacity:1" fill="#96a4af" d="M 41.5,41.5 C 39.8283,44.2132 38.1616,46.8798 36.5,49.5C 36.7014,45.8698 38.368,43.2031 41.5,41.5 Z"/></g>
<g><path style="opacity:1" fill="#f6fdfd" d="M 381.5,32.5 C 383.167,32.5 384.833,32.5 386.5,32.5C 385.986,34.5116 385.82,36.5116 386,38.5C 386.414,38.0426 386.914,37.7093 387.5,37.5C 389.984,40.2936 391.151,43.6269 391,47.5C 391.333,45.1667 391.667,42.8333 392,40.5C 392.789,44.0915 392.622,47.5915 391.5,51C 393.044,51.2896 394.377,51.9563 395.5,53C 394.033,54.0975 393.199,55.5975 393,57.5C 392.667,144.5 392.333,231.5 392,318.5C 391.667,318.167 391.333,317.833 391,317.5C 390.833,320.833 390.667,324.167 390.5,327.5C 390.547,331.267 391.214,334.767 392.5,338C 391.344,340.44 391.344,342.94 392.5,345.5C 392.081,346.672 391.415,347.672 390.5,348.5C 391.167,348.833 391.833,349.167 392.5,349.5C 391.518,352.096 390.851,354.762 390.5,357.5C 389.5,357.5 388.5,357.5 387.5,357.5C 387.909,361.499 387.075,365.166 385,368.5C 384.329,369.252 383.496,369.586 382.5,369.5C 383.167,367.167 383.833,364.833 384.5,362.5C 385.537,361.07 386.204,359.403 386.5,357.5C 386.5,356.833 386.5,356.167 386.5,355.5C 388.197,353.695 389.03,351.361 389,348.5C 389.167,298.667 389.333,248.833 389.5,199C 389.5,148.829 388.833,98.9955 387.5,49.5C 387.634,47.7085 387.301,46.0418 386.5,44.5C 386.818,41.5185 385.818,39.1852 383.5,37.5C 383.107,35.7162 382.441,34.0495 381.5,32.5 Z"/></g>
<g><path style="opacity:1" fill="#0a1e2d" d="M 367.5,19.5 C 368.391,20.1098 369.391,20.4431 370.5,20.5C 373.167,22.5 375.5,24.8333 377.5,27.5C 377.738,29.4044 378.738,30.7377 380.5,31.5C 381.167,31.5 381.5,31.8333 381.5,32.5C 382.441,34.0495 383.107,35.7162 383.5,37.5C 383.166,40.491 384.166,42.8243 386.5,44.5C 387.301,46.0418 387.634,47.7085 387.5,49.5C 387.824,151.522 387.491,253.522 386.5,355.5C 386.5,356.167 386.5,356.833 386.5,357.5C 384.787,358.635 384.12,360.302 384.5,362.5C 382.412,364.336 381.079,366.669 380.5,369.5C 377.862,372.474 375.195,375.474 372.5,378.5C 370.716,378.893 369.05,379.559 367.5,380.5C 367.694,378.088 369.027,377.088 371.5,377.5C 370.16,374.556 370.493,371.889 372.5,369.5C 377.633,367.561 380.633,363.894 381.5,358.5C 382.934,357.77 384.1,356.77 385,355.5C 385.489,254.572 385.656,153.738 385.5,53C 385.375,51.3732 384.875,49.8732 384,48.5C 383.692,49.3081 383.192,49.9747 382.5,50.5C 381.833,49.1667 381.167,47.8333 380.5,46.5C 379.914,46.7093 379.414,47.0426 379,47.5C 378.223,44.5706 378.39,41.7372 379.5,39C 378.747,37.513 377.914,37.3463 377,38.5C 376.231,35.9009 376.398,33.4009 377.5,31C 375.18,27.8448 372.18,25.6782 368.5,24.5C 368.047,23.5416 367.381,22.7083 366.5,22C 367.252,21.3292 367.586,20.4959 367.5,19.5 Z"/></g>
<g><path style="opacity:1" fill="#f7fdfe" d="M 9.5,53.5 C 9.5,151.5 9.5,249.5 9.5,347.5C 8.6829,345.031 8.1829,342.365 8,339.5C 7.83333,291.833 7.66667,244.167 7.5,196.5C 7.50006,148.495 8.16672,100.829 9.5,53.5 Z"/></g>
<g><path style="opacity:1" fill="#c5cdd2" d="M 11.5,43.5 C 11.8333,43.5 12.1667,43.5 12.5,43.5C 12.0046,45.4817 11.5046,47.4817 11,49.5C 10.5,148.833 10.3333,248.166 10.5,347.5C 10.1667,347.5 9.83333,347.5 9.5,347.5C 9.5,249.5 9.5,151.5 9.5,53.5C 9.31069,49.963 9.97736,46.6297 11.5,43.5 Z"/></g>
<g><path style="opacity:1" fill="#243548" d="M 346.5,35.5 C 349.833,35.5 353.167,35.5 356.5,35.5C 360.071,36.4201 362.238,38.7535 363,42.5C 363.333,41.8333 363.667,41.1667 364,40.5C 367.542,45.833 368.208,51.4997 366,57.5C 365.833,104.5 365.667,151.5 365.5,198.5C 365.51,247.131 365.843,295.464 366.5,343.5C 364.667,349.828 362.834,356.161 361,362.5C 360.259,363.641 359.425,363.641 358.5,362.5C 357.719,363.729 357.219,365.062 357,366.5C 356.722,365.584 356.222,364.918 355.5,364.5C 353.167,364.5 350.833,364.5 348.5,364.5C 351.81,362.199 355.143,359.866 358.5,357.5C 360.262,356.738 361.262,355.404 361.5,353.5C 361.892,351.821 362.392,350.154 363,348.5C 363.832,248.666 363.666,148.999 362.5,49.5C 361.828,46.6572 360.495,44.1572 358.5,42C 355.369,39.1012 351.702,37.2679 347.5,36.5C 346.833,36.5 346.5,36.1667 346.5,35.5 Z"/></g>
<g><path style="opacity:1" fill="#e2eff9" d="M 36.5,50.5 C 36.3333,149.501 36.5,248.501 37,347.5C 37.662,349.813 38.162,352.146 38.5,354.5C 36.9348,352.491 35.9348,350.157 35.5,347.5C 35.1672,248.332 35.5006,149.332 36.5,50.5 Z"/></g>
<g><path style="opacity:1" fill="#fdfcf8" d="M 359.5,57.5 C 359.18,152.342 359.513,247.176 360.5,342C 360.379,344.786 359.545,347.286 358,349.5C 357.536,348.906 357.369,348.239 357.5,347.5C 357.493,344.962 357.159,342.462 356.5,340C 357.327,246.517 357.827,153.017 358,59.5C 358.278,58.5842 358.778,57.9175 359.5,57.5 Z"/></g>
<g><path style="opacity:1" fill="#afb9bb" d="M 387.5,49.5 C 388.833,98.9955 389.5,148.829 389.5,199C 389.333,248.833 389.167,298.667 389,348.5C 389.03,351.361 388.197,353.695 386.5,355.5C 387.491,253.522 387.824,151.522 387.5,49.5 Z"/></g>
<g><path style="opacity:1" fill="#f0f5f8" d="M 362.5,49.5 C 363.666,148.999 363.832,248.666 363,348.5C 362.392,350.154 361.892,351.821 361.5,353.5C 360.833,353.833 360.167,354.167 359.5,354.5C 358.218,352.536 356.885,350.536 355.5,348.5C 355.957,347.702 356.624,347.369 357.5,347.5C 357.369,348.239 357.536,348.906 358,349.5C 359.545,347.286 360.379,344.786 360.5,342C 359.513,247.176 359.18,152.342 359.5,57.5C 358.579,54.3163 357.579,51.1496 356.5,48C 356.833,47.6667 357.167,47.3333 357.5,47C 356.5,46.6667 355.5,46.3333 354.5,46C 355.252,45.3292 355.586,44.4959 355.5,43.5C 356.117,43.3893 356.617,43.056 357,42.5C 358.411,45.2414 360.244,47.5747 362.5,49.5 Z"/></g>
<g><path style="opacity:1" fill="#0a2131" d="M 13.5,58.5 C 14.6542,157.693 14.8208,257.027 14,356.5C 14.3333,355.167 14.6667,353.833 15,352.5C 17.3333,357.5 19.6667,362.5 22,367.5C 24.3825,369.385 26.2159,371.718 27.5,374.5C 29.7447,376.76 32.4114,378.094 35.5,378.5C 35.33,379.822 35.6634,380.989 36.5,382C 39.8516,382.838 43.1849,383.671 46.5,384.5C 52.7436,385.458 59.077,385.791 65.5,385.5C 152.627,384.171 239.627,384.171 326.5,385.5C 234.496,385.27 142.496,385.603 50.5,386.5C 47.5,386.5 44.5,386.5 41.5,386.5C 41.1667,386.5 40.8333,386.5 40.5,386.5C 38.9674,384.755 36.9674,383.755 34.5,383.5C 27.2126,379.213 21.2126,373.546 16.5,366.5C 15.9251,363.088 14.5918,360.088 12.5,357.5C 12.1667,354.833 11.8333,352.167 11.5,349.5C 13.4977,252.839 14.1643,155.839 13.5,58.5 Z"/></g>
<g><path style="opacity:1" fill="#0f263b" d="M 348.5,11.5 C 349.568,12.4345 350.901,12.7678 352.5,12.5C 354.698,14.3969 357.364,15.3969 360.5,15.5C 362.421,16.3627 364.421,17.0293 366.5,17.5C 366.833,18.1667 367.167,18.8333 367.5,19.5C 367.586,20.4959 367.252,21.3292 366.5,22C 367.381,22.7083 368.047,23.5416 368.5,24.5C 367.5,24.5 366.5,24.5 365.5,24.5C 365.67,25.8221 365.337,26.9887 364.5,28C 361.141,29.383 357.807,30.7164 354.5,32C 355.823,32.8159 356.489,33.9826 356.5,35.5C 353.167,35.5 349.833,35.5 346.5,35.5C 346.5,35.1667 346.5,34.8333 346.5,34.5C 249.627,33.831 152.627,33.1644 55.5,32.5C 53.2241,33.2132 50.8907,33.7132 48.5,34C 49.448,34.4828 50.448,34.6495 51.5,34.5C 50.5,35.1667 49.5,35.8333 48.5,36.5C 45.6733,37.4188 43.34,39.0855 41.5,41.5C 38.368,43.2031 36.7014,45.8698 36.5,49.5C 36.5,49.8333 36.5,50.1667 36.5,50.5C 35.5006,149.332 35.1672,248.332 35.5,347.5C 34.6326,351.631 35.2992,355.631 37.5,359.5C 35.3755,361.745 32.7088,363.412 29.5,364.5C 28.8333,364.167 28.1667,363.833 27.5,363.5C 27.2033,359.895 25.5366,357.229 22.5,355.5C 21.3384,350.869 21.1717,346.202 22,341.5C 24.2222,345.712 25.3888,345.379 25.5,340.5C 25.5898,336.461 24.4232,335.794 22,338.5C 21.6667,337.5 21.3333,336.5 21,335.5C 20.1717,242.793 20.3384,150.126 21.5,57.5C 21.1774,53.774 21.5108,50.1073 22.5,46.5C 23.4277,44.6652 24.5944,44.3318 26,45.5C 26.4828,44.552 26.6495,43.552 26.5,42.5C 29.1873,42.6641 31.854,42.4974 34.5,42C 36.0368,40.8904 36.7035,39.3904 36.5,37.5C 34.6536,37.7778 33.3202,37.1112 32.5,35.5C 35.0779,33.4262 36.5779,30.7595 37,27.5C 38.4363,30.9759 40.4363,31.3093 43,28.5C 43.8732,28.7355 44.7065,29.0688 45.5,29.5C 51.656,27.4685 57.9894,26.9685 64.5,28C 65.8333,28.6667 67.1667,29.3333 68.5,30C 157.737,30.8317 246.903,30.665 336,29.5C 339.006,31.9663 342.173,32.1329 345.5,30C 347.037,28.8904 347.703,27.3904 347.5,25.5C 353.662,26.8445 355.662,24.6778 353.5,19C 351.863,18.3988 350.197,17.8988 348.5,17.5C 346.84,18.7866 345.174,20.1199 343.5,21.5C 251.339,21.8326 159.339,21.8326 67.5,21.5C 67.5,20.1667 67.5,18.8333 67.5,17.5C 154.167,17.5 240.833,17.5 327.5,17.5C 327.5,16.5 327.5,15.5 327.5,14.5C 233.833,14.3333 140.166,14.5 46.5,15C 45.4902,17.8214 45.4902,20.988 46.5,24.5C 42.8687,24.0323 39.5354,24.699 36.5,26.5C 34.3159,27.1081 32.3159,26.4414 30.5,24.5C 29.2638,25.2458 27.9305,25.5792 26.5,25.5C 26.6602,27.1992 26.4935,28.8659 26,30.5C 24.0181,34.1463 21.3515,37.1463 18,39.5C 17.6581,43.8377 16.3247,47.8377 14,51.5C 13.3333,53.1667 13.3333,54.8333 14,56.5C 14.6708,57.2524 15.5041,57.5858 16.5,57.5C 17.3288,157.127 17.8288,256.793 18,356.5C 21.1663,360.166 23.8329,364.166 26,368.5C 26.414,368.043 26.914,367.709 27.5,367.5C 31.011,370.512 34.3443,373.678 37.5,377C 36.273,378.587 36.6063,379.921 38.5,381C 40.6982,381.373 42.8649,381.873 45,382.5C 46.0299,382.836 46.5299,383.503 46.5,384.5C 43.1849,383.671 39.8516,382.838 36.5,382C 35.6634,380.989 35.33,379.822 35.5,378.5C 32.4114,378.094 29.7447,376.76 27.5,374.5C 26.2159,371.718 24.3825,369.385 22,367.5C 19.6667,362.5 17.3333,357.5 15,352.5C 14.6667,353.833 14.3333,355.167 14,356.5C 14.8208,257.027 14.6542,157.693 13.5,58.5C 12.8826,58.3893 12.3826,58.056 12,57.5C 11.5,154.833 11.3333,252.166 11.5,349.5C 11.1667,349.5 10.8333,349.5 10.5,349.5C 10.5,348.833 10.5,348.167 10.5,347.5C 10.3333,248.166 10.5,148.833 11,49.5C 11.5046,47.4817 12.0046,45.4817 12.5,43.5C 14.0739,41.8984 14.7406,39.8984 14.5,37.5C 16.3409,33.8168 18.6742,30.4835 21.5,27.5C 22.8333,26.8333 23.8333,25.8333 24.5,24.5C 26.1667,22.5 27.8333,20.5 29.5,18.5C 30.8333,18.1667 32.1667,17.8333 33.5,17.5C 34.7095,17.0679 35.7095,16.4013 36.5,15.5C 40.0839,15.0246 43.4172,14.0246 46.5,12.5C 147.145,11.509 247.811,11.1757 348.5,11.5 Z"/></g>
<g><path style="opacity:1" fill="#021f38" d="M 27.5,48.5 C 29.4386,51.308 31.2719,54.308 33,57.5C 33.8333,157.502 33.6667,257.502 32.5,357.5C 31.9591,354.266 30.6258,351.433 28.5,349C 29.5171,347.951 29.6838,346.784 29,345.5C 28.5518,343.776 27.7185,343.109 26.5,343.5C 26.1851,245.826 26.5184,147.493 27.5,48.5 Z"/></g>
<g><path style="opacity:1" fill="#0a1b28" d="M 13.5,58.5 C 14.1643,155.839 13.4977,252.839 11.5,349.5C 11.3333,252.166 11.5,154.833 12,57.5C 12.3826,58.056 12.8826,58.3893 13.5,58.5 Z"/></g>
<g><path style="opacity:1" fill="#041525" d="M 346.5,34.5 C 248.167,34.5 149.833,34.5 51.5,34.5C 50.448,34.6495 49.448,34.4828 48.5,34C 50.8907,33.7132 53.2241,33.2132 55.5,32.5C 152.627,33.1644 249.627,33.831 346.5,34.5 Z"/></g>
<g><path style="opacity:1" fill="#00203b" d="M 21.5,57.5 C 19.8333,57.5 18.1667,57.5 16.5,57.5C 15.5041,57.5858 14.6708,57.2524 14,56.5C 13.3333,54.8333 13.3333,53.1667 14,51.5C 16.3247,47.8377 17.6581,43.8377 18,39.5C 21.3515,37.1463 24.0181,34.1463 26,30.5C 26.4935,28.8659 26.6602,27.1992 26.5,25.5C 27.9305,25.5792 29.2638,25.2458 30.5,24.5C 32.3159,26.4414 34.3159,27.1081 36.5,26.5C 39.5354,24.699 42.8687,24.0323 46.5,24.5C 45.4902,20.988 45.4902,17.8214 46.5,15C 140.166,14.5 233.833,14.3333 327.5,14.5C 327.5,15.5 327.5,16.5 327.5,17.5C 240.833,17.5 154.167,17.5 67.5,17.5C 67.5,18.8333 67.5,20.1667 67.5,21.5C 159.339,21.8326 251.339,21.8326 343.5,21.5C 345.174,20.1199 346.84,18.7866 348.5,17.5C 350.197,17.8988 351.863,18.3988 353.5,19C 355.662,24.6778 353.662,26.8445 347.5,25.5C 347.703,27.3904 347.037,28.8904 345.5,30C 342.173,32.1329 339.006,31.9663 336,29.5C 246.903,30.665 157.737,30.8317 68.5,30C 67.1667,29.3333 65.8333,28.6667 64.5,28C 57.9894,26.9685 51.656,27.4685 45.5,29.5C 44.7065,29.0688 43.8732,28.7355 43,28.5C 40.4363,31.3093 38.4363,30.9759 37,27.5C 36.5779,30.7595 35.0779,33.4262 32.5,35.5C 33.3202,37.1112 34.6536,37.7778 36.5,37.5C 36.7035,39.3904 36.0368,40.8904 34.5,42C 31.854,42.4974 29.1873,42.6641 26.5,42.5C 26.6495,43.552 26.4828,44.552 26,45.5C 24.5944,44.3318 23.4277,44.6652 22.5,46.5C 21.5108,50.1073 21.1774,53.774 21.5,57.5 Z"/></g>
<g><path style="opacity:1" fill="#eff4f3" d="M 225.5,204.5 C 225.666,200.486 225.499,196.486 225,192.5C 224.768,191.263 224.268,190.263 223.5,189.5C 221.943,185.276 219.276,181.943 215.5,179.5C 213.001,177.062 210.001,175.395 206.5,174.5C 201.684,173.35 196.684,173.184 191.5,174C 189.68,174.2 188.347,175.034 187.5,176.5C 186.609,177.11 185.609,177.443 184.5,177.5C 184.511,175.983 185.177,174.816 186.5,174C 184.166,171.158 184.832,170.325 188.5,171.5C 191.116,170.277 193.616,168.943 196,167.5C 201.344,168.42 206.844,168.42 212.5,167.5C 213.167,167.667 213.833,167.833 214.5,168C 213.5,168.333 212.5,168.667 211.5,169C 213.044,169.29 214.377,169.956 215.5,171C 214.424,172.726 214.257,174.559 215,176.5C 215.333,176.167 215.667,175.833 216,175.5C 217.44,177.046 219.273,177.879 221.5,178C 222.711,179.113 222.711,180.28 221.5,181.5C 222.325,182.386 223.325,182.719 224.5,182.5C 224.351,183.552 224.517,184.552 225,185.5C 225.333,185.167 225.667,184.833 226,184.5C 227.076,186.067 227.909,187.734 228.5,189.5C 227.01,194.464 226.01,199.464 225.5,204.5 Z"/></g>
<g><path style="opacity:1" fill="#7f8d98" d="M 206.5,174.5 C 200.014,174.081 193.681,174.748 187.5,176.5C 188.347,175.034 189.68,174.2 191.5,174C 196.684,173.184 201.684,173.35 206.5,174.5 Z"/></g>
<g><path style="opacity:1" fill="#042037" d="M 206.5,174.5 C 208.999,176.938 211.999,178.605 215.5,179.5C 215.343,180.873 215.51,182.207 216,183.5C 218.762,186.09 221.262,188.756 223.5,191.5C 224.344,195.099 224.677,198.766 224.5,202.5C 223.698,201.048 223.198,199.382 223,197.5C 222.007,201.442 221.34,205.442 221,209.5C 218.068,210.78 217.235,212.78 218.5,215.5C 215.072,217.225 211.405,218.392 207.5,219C 206.949,220.398 206.616,221.732 206.5,223C 198.77,223.735 191.437,221.902 184.5,217.5C 183.583,218.127 182.583,218.461 181.5,218.5C 180.167,217.5 178.833,216.5 177.5,215.5C 176.37,213.685 175.704,211.685 175.5,209.5C 174.637,203.545 174.303,197.545 174.5,191.5C 174.5,191.167 174.5,190.833 174.5,190.5C 175.906,190.027 176.573,189.027 176.5,187.5C 176.427,185.973 177.094,184.973 178.5,184.5C 179.688,183.316 180.855,183.316 182,184.5C 181.645,183.041 181.811,181.707 182.5,180.5C 183.167,179.5 183.833,178.5 184.5,177.5C 185.609,177.443 186.609,177.11 187.5,176.5C 193.681,174.748 200.014,174.081 206.5,174.5 Z"/></g>
<g><path style="opacity:1" fill="#43515b" d="M 206.5,174.5 C 210.001,175.395 213.001,177.062 215.5,179.5C 211.999,178.605 208.999,176.938 206.5,174.5 Z"/></g>
<g><path style="opacity:1" fill="#3a4655" d="M 182.5,180.5 C 181.811,181.707 181.645,183.041 182,184.5C 180.855,183.316 179.688,183.316 178.5,184.5C 179.167,182.5 180.5,181.167 182.5,180.5 Z"/></g>
<g><path style="opacity:1" fill="#202e3a" d="M 215.5,179.5 C 219.276,181.943 221.943,185.276 223.5,189.5C 223.5,190.167 223.5,190.833 223.5,191.5C 221.262,188.756 218.762,186.09 216,183.5C 215.51,182.207 215.343,180.873 215.5,179.5 Z"/></g>
<g><path style="opacity:1" fill="#798996" d="M 176.5,187.5 C 176.573,189.027 175.906,190.027 174.5,190.5C 174.427,188.973 175.094,187.973 176.5,187.5 Z"/></g>
<g><path style="opacity:1" fill="#52606d" d="M 174.5,191.5 C 174.303,197.545 174.637,203.545 175.5,209.5C 173.218,206.476 172.218,202.976 172.5,199C 172.3,196.134 172.967,193.634 174.5,191.5 Z"/></g>
<g><path style="opacity:1" fill="#495866" d="M 223.5,189.5 C 224.268,190.263 224.768,191.263 225,192.5C 225.499,196.486 225.666,200.486 225.5,204.5C 225.737,205.791 225.404,206.791 224.5,207.5C 224.5,205.833 224.5,204.167 224.5,202.5C 224.677,198.766 224.344,195.099 223.5,191.5C 223.5,190.833 223.5,190.167 223.5,189.5 Z"/></g>
<g><path style="opacity:1" fill="#a7b0b9" d="M 224.5,207.5 C 224.821,210.577 223.821,212.91 221.5,214.5C 222.264,211.982 223.264,209.649 224.5,207.5 Z"/></g>
<g><path style="opacity:1" fill="#aab9c2" d="M 177.5,215.5 C 178.833,216.5 180.167,217.5 181.5,218.5C 181.833,219.167 182.167,219.833 182.5,220.5C 179.833,219.833 178.167,218.167 177.5,215.5 Z"/></g>
<g><path style="opacity:1" fill="#86929e" d="M 221.5,214.5 C 221.573,216.027 220.906,217.027 219.5,217.5C 219.427,215.973 220.094,214.973 221.5,214.5 Z"/></g>
<g><path style="opacity:1" fill="#e6eef2" d="M 184.5,177.5 C 183.833,178.5 183.167,179.5 182.5,180.5C 180.5,181.167 179.167,182.5 178.5,184.5C 177.094,184.973 176.427,185.973 176.5,187.5C 175.094,187.973 174.427,188.973 174.5,190.5C 174.5,190.833 174.5,191.167 174.5,191.5C 172.967,193.634 172.3,196.134 172.5,199C 172.218,202.976 173.218,206.476 175.5,209.5C 175.704,211.685 176.37,213.685 177.5,215.5C 178.167,218.167 179.833,219.833 182.5,220.5C 185.167,222.167 187.833,223.833 190.5,225.5C 188.856,225.286 187.356,225.62 186,226.5C 185,225.167 184,223.833 183,222.5C 181.667,223.833 180.333,223.833 179,222.5C 177.333,220.5 175.667,218.5 174,216.5C 173.405,215.101 173.572,213.768 174.5,212.5C 173.902,211.205 173.402,209.872 173,208.5C 172.667,208.833 172.333,209.167 172,209.5C 171.262,207.047 170.762,204.547 170.5,202C 171.276,197.706 171.609,193.206 171.5,188.5C 174.32,186.019 176.32,183.019 177.5,179.5C 179.51,177.829 181.843,177.162 184.5,177.5 Z"/></g>
<g><path style="opacity:1" fill="#152939" d="M 224.5,202.5 C 224.5,204.167 224.5,205.833 224.5,207.5C 223.264,209.649 222.264,211.982 221.5,214.5C 220.094,214.973 219.427,215.973 219.5,217.5C 217.183,218.82 215.183,220.486 213.5,222.5C 211.033,222.755 209.033,223.755 207.5,225.5C 201.864,226.79 196.198,226.79 190.5,225.5C 187.833,223.833 185.167,222.167 182.5,220.5C 182.167,219.833 181.833,219.167 181.5,218.5C 182.583,218.461 183.583,218.127 184.5,217.5C 191.437,221.902 198.77,223.735 206.5,223C 206.616,221.732 206.949,220.398 207.5,219C 211.405,218.392 215.072,217.225 218.5,215.5C 217.235,212.78 218.068,210.78 221,209.5C 221.34,205.442 222.007,201.442 223,197.5C 223.198,199.382 223.698,201.048 224.5,202.5 Z"/></g>
<g><path style="opacity:1" fill="#8f9ca5" d="M 213.5,222.5 C 211.967,224.245 209.967,225.245 207.5,225.5C 209.033,223.755 211.033,222.755 213.5,222.5 Z"/></g>
<g><path style="opacity:1" fill="#7f848b" d="M 361.5,353.5 C 361.262,355.404 360.262,356.738 358.5,357.5C 358.5,357.167 358.5,356.833 358.5,356.5C 358.833,355.833 359.167,355.167 359.5,354.5C 360.167,354.167 360.833,353.833 361.5,353.5 Z"/></g>
<g><path style="opacity:1" fill="#7d8d94" d="M 386.5,357.5 C 386.204,359.403 385.537,361.07 384.5,362.5C 384.12,360.302 384.787,358.635 386.5,357.5 Z"/></g>
<g><path style="opacity:1" fill="#a2aeb6" d="M 12.5,357.5 C 14.5918,360.088 15.9251,363.088 16.5,366.5C 13.8352,364.165 12.5018,361.165 12.5,357.5 Z"/></g>
<g><path style="opacity:1" fill="#e4ecf0" d="M 44.5,40.5 C 45.0283,41.7206 45.695,42.8873 46.5,44C 43.8945,46.5748 41.8945,49.5748 40.5,53C 40.6465,54.7271 41.3131,54.8938 42.5,53.5C 43.5827,54.365 43.7494,55.365 43,56.5C 41.108,57.13 39.4413,58.13 38,59.5C 37.3333,152.5 37.3333,245.5 38,338.5C 39.1029,344.469 39.9363,350.469 40.5,356.5C 42.9372,356.756 45.2706,357.423 47.5,358.5C 50.1029,357.438 52.7695,357.272 55.5,358C 50.4707,358.805 50.304,360.305 55,362.5C 55.3333,361.833 55.6667,361.167 56,360.5C 152.36,361.486 248.693,361.819 345,361.5C 348.43,357.083 352.93,355.416 358.5,356.5C 358.5,356.833 358.5,357.167 358.5,357.5C 355.143,359.866 351.81,362.199 348.5,364.5C 249.166,364.667 149.833,364.5 50.5,364C 44.8457,362.838 40.8457,359.671 38.5,354.5C 38.162,352.146 37.662,349.813 37,347.5C 36.5,248.501 36.3333,149.501 36.5,50.5C 36.5,50.1667 36.5,49.8333 36.5,49.5C 38.1616,46.8798 39.8283,44.2132 41.5,41.5C 42.609,41.4431 43.609,41.1098 44.5,40.5 Z"/></g>
<g><path style="opacity:1" fill="#14293c" d="M 35.5,347.5 C 35.9348,350.157 36.9348,352.491 38.5,354.5C 40.8457,359.671 44.8457,362.838 50.5,364C 149.833,364.5 249.166,364.667 348.5,364.5C 350.833,364.5 353.167,364.5 355.5,364.5C 354.504,365.665 353.171,366.332 351.5,366.5C 349.265,365.781 346.931,365.948 344.5,367C 243.389,367.798 142.389,367.631 41.5,366.5C 40.7833,363.763 39.4499,361.43 37.5,359.5C 35.2992,355.631 34.6326,351.631 35.5,347.5 Z"/></g>
<g><path style="opacity:1" fill="#aebac1" d="M 384.5,362.5 C 383.833,364.833 383.167,367.167 382.5,369.5C 381.833,369.5 381.167,369.5 380.5,369.5C 381.079,366.669 382.412,364.336 384.5,362.5 Z"/></g>
<g><path style="opacity:1" fill="#022039" d="M 16.5,57.5 C 18.1667,57.5 19.8333,57.5 21.5,57.5C 20.3384,150.126 20.1717,242.793 21,335.5C 21.3333,336.5 21.6667,337.5 22,338.5C 24.4232,335.794 25.5898,336.461 25.5,340.5C 25.3888,345.379 24.2222,345.712 22,341.5C 21.1717,346.202 21.3384,350.869 22.5,355.5C 25.5366,357.229 27.2033,359.895 27.5,363.5C 28.1667,363.833 28.8333,364.167 29.5,364.5C 32.7088,363.412 35.3755,361.745 37.5,359.5C 39.4499,361.43 40.7833,363.763 41.5,366.5C 41.9578,369.189 41.2911,371.856 39.5,374.5C 39.7093,375.086 40.0426,375.586 40.5,376C 45.5844,378.316 51.0844,379.482 57,379.5C 146.477,377.716 235.977,376.882 325.5,377C 325.833,376.667 326.167,376.333 326.5,376C 240.165,375.833 153.831,375.333 67.5,374.5C 66.2532,372.958 66.2532,371.458 67.5,370C 163.178,369.814 258.845,369.314 354.5,368.5C 354.719,369.675 354.386,370.675 353.5,371.5C 349.808,371.776 346.808,373.276 344.5,376C 345.381,376.708 346.047,377.542 346.5,378.5C 347.23,379.712 348.23,380.712 349.5,381.5C 349,381.833 348.5,382.167 348,382.5C 344.205,383.115 340.372,383.449 336.5,383.5C 246.503,382.192 156.503,382.192 66.5,383.5C 66.1373,384.183 65.8039,384.85 65.5,385.5C 59.077,385.791 52.7436,385.458 46.5,384.5C 46.5299,383.503 46.0299,382.836 45,382.5C 42.8649,381.873 40.6982,381.373 38.5,381C 36.6063,379.921 36.273,378.587 37.5,377C 34.3443,373.678 31.011,370.512 27.5,367.5C 26.914,367.709 26.414,368.043 26,368.5C 23.8329,364.166 21.1663,360.166 18,356.5C 17.8288,256.793 17.3288,157.127 16.5,57.5 Z"/></g>
<g><path style="opacity:1" fill="#c3cfd4" d="M 380.5,369.5 C 379.496,374.011 376.829,377.011 372.5,378.5C 375.195,375.474 377.862,372.474 380.5,369.5 Z"/></g>
<g><path style="opacity:1" fill="#848f98" d="M 372.5,378.5 C 370.853,380.326 368.853,381.66 366.5,382.5C 366.833,381.833 367.167,381.167 367.5,380.5C 369.05,379.559 370.716,378.893 372.5,378.5 Z"/></g>
<g><path style="opacity:1" fill="#062135" d="M 346.5,378.5 C 350.926,379.72 355.426,380.72 360,381.5C 362.462,380.841 364.962,380.507 367.5,380.5C 367.167,381.167 366.833,381.833 366.5,382.5C 364.421,382.971 362.421,383.637 360.5,384.5C 359.469,383.751 358.302,383.085 357,382.5C 347.096,385.235 336.929,386.235 326.5,385.5C 239.627,384.171 152.627,384.171 65.5,385.5C 65.8039,384.85 66.1373,384.183 66.5,383.5C 156.503,382.192 246.503,382.192 336.5,383.5C 340.372,383.449 344.205,383.115 348,382.5C 348.5,382.167 349,381.833 349.5,381.5C 348.23,380.712 347.23,379.712 346.5,378.5 Z"/></g>
<g><path style="opacity:1" fill="#8b959f" d="M 366.5,382.5 C 364.434,384.199 362.1,385.532 359.5,386.5C 358.833,386.5 358.167,386.5 357.5,386.5C 358.5,385.833 359.5,385.167 360.5,384.5C 362.421,383.637 364.421,382.971 366.5,382.5 Z"/></g>
<g><path style="opacity:1" fill="#71818b" d="M 34.5,383.5 C 36.9674,383.755 38.9674,384.755 40.5,386.5C 38.0326,386.245 36.0326,385.245 34.5,383.5 Z"/></g>
<g><path style="opacity:1" fill="#081e2b" d="M 360.5,384.5 C 359.5,385.167 358.5,385.833 357.5,386.5C 355.901,386.232 354.568,386.566 353.5,387.5C 352.167,387.5 350.833,387.5 349.5,387.5C 249.665,387.833 149.999,387.499 50.5,386.5C 142.496,385.603 234.496,385.27 326.5,385.5C 336.929,386.235 347.096,385.235 357,382.5C 358.302,383.085 359.469,383.751 360.5,384.5 Z"/></g>
<g><path style="opacity:1" fill="#21333e" d="M 41.5,386.5 C 44.5,386.5 47.5,386.5 50.5,386.5C 149.999,387.499 249.665,387.833 349.5,387.5C 249.668,388.499 149.668,388.833 49.5,388.5C 46.6275,388.198 43.9608,387.531 41.5,386.5 Z"/></g>
<g><path style="opacity:1" fill="#93a2aa" d="M 349.5,387.5 C 350.833,387.5 352.167,387.5 353.5,387.5C 352.07,388.537 350.403,389.204 348.5,389.5C 248.665,389.833 148.999,389.499 49.5,388.5C 149.668,388.833 249.668,388.499 349.5,387.5 Z"/></g>
<g><path style="opacity:1" fill="#f4fafc" d="M 357.5,386.5 C 358.167,386.5 358.833,386.5 359.5,386.5C 359.179,388.048 358.179,388.715 356.5,388.5C 356.5,389.5 356.5,390.5 356.5,391.5C 352.967,391.505 349.8,392.505 347,394.5C 253.373,393.169 159.873,391.836 66.5,390.5C 160.668,390.833 254.668,390.499 348.5,389.5C 350.403,389.204 352.07,388.537 353.5,387.5C 354.568,386.566 355.901,386.232 357.5,386.5 Z"/></g>
<g><path style="opacity:1" fill="#dee8eb" d="M 10.5,349.5 C 10.8333,349.5 11.1667,349.5 11.5,349.5C 11.8333,352.167 12.1667,354.833 12.5,357.5C 12.5018,361.165 13.8352,364.165 16.5,366.5C 21.2126,373.546 27.2126,379.213 34.5,383.5C 36.0326,385.245 38.0326,386.245 40.5,386.5C 40.8333,386.5 41.1667,386.5 41.5,386.5C 43.9608,387.531 46.6275,388.198 49.5,388.5C 148.999,389.499 248.665,389.833 348.5,389.5C 254.668,390.499 160.668,390.833 66.5,390.5C 58.2356,390.248 50.0689,390.248 42,390.5C 37.6843,388.136 33.1843,385.97 28.5,384C 26.9632,382.89 26.2965,381.39 26.5,379.5C 25.5,379.5 24.5,379.5 23.5,379.5C 23.0995,375.93 21.0995,373.764 17.5,373C 18.8333,372 18.8333,371 17.5,370C 15.8659,369.506 14.1992,369.34 12.5,369.5C 12.6567,368.127 12.49,366.793 12,365.5C 10.0056,368.084 9.50559,367.918 10.5,365C 10.2409,363.739 9.57425,362.739 8.5,362C 10.3124,358.078 10.979,353.911 10.5,349.5 Z"/></g>
</svg>
