<?xml version="1.0" encoding="UTF-8"?>
<!DOCTYPE svg PUBLIC "-//W3C//DTD SVG 1.1//EN" "http://www.w3.org/Graphics/SVG/1.1/DTD/svg11.dtd">
<svg xmlns="http://www.w3.org/2000/svg" version="1.1" width="400px" height="400px" style="shape-rendering:geometricPrecision; text-rendering:geometricPrecision; image-rendering:optimizeQuality; fill-rule:evenodd; clip-rule:evenodd" xmlns:xlink="http://www.w3.org/1999/xlink">
<g><path style="opacity:1" fill="#fcfdfc" d="M 399.5,1.5 C 399.5,26.8333 399.5,52.1667 399.5,77.5C 398.5,77.5 397.5,77.5 396.5,77.5C 397.153,165.07 396.487,252.57 394.5,340C 394.667,340.833 394.833,341.667 395,342.5C 395.333,342.167 395.667,341.833 396,341.5C 396.495,343.473 396.662,345.473 396.5,347.5C 397.5,347.5 398.5,347.5 399.5,347.5C 399.5,364.5 399.5,381.5 399.5,398.5C 266.5,398.5 133.5,398.5 0.5,398.5C 0.5,266.167 0.5,133.833 0.5,1.5C 133.5,1.5 266.5,1.5 399.5,1.5 Z"/></g>
<g><path style="opacity:1" fill="#c8d2d7" d="M 358.5,12.5 C 358.5,12.8333 358.5,13.1667 358.5,13.5C 355.161,13.1103 351.827,12.6103 348.5,12C 247.666,11.1675 146.999,11.3342 46.5,12.5C 42.7144,12.32 39.381,13.32 36.5,15.5C 35.0413,15.4326 33.7079,15.7659 32.5,16.5C 32.729,11.6034 35.3957,8.93676 40.5,8.5C 146.065,9.83043 251.565,9.83043 357,8.5C 357.21,10.0581 357.71,11.3915 358.5,12.5 Z"/></g>
<g><path style="opacity:1" fill="#465a6a" d="M 46.5,12.5 C 46.5,12.8333 46.5,13.1667 46.5,13.5C 43.1667,14.1667 39.8333,14.8333 36.5,15.5C 39.381,13.32 42.7144,12.32 46.5,12.5 Z"/></g>
<g><path style="opacity:1" fill="#0d2332" d="M 358.5,13.5 C 358.973,14.9063 359.973,15.573 361.5,15.5C 362.492,15.3284 363.158,15.6618 363.5,16.5C 361.514,17.7612 359.681,17.4278 358,15.5C 354.882,16.7477 351.882,16.4144 349,14.5C 249.121,14.1875 148.954,14.5208 48.5,15.5C 47.2617,15.19 47.2617,14.69 48.5,14C 47.9056,13.5357 47.2389,13.369 46.5,13.5C 46.5,13.1667 46.5,12.8333 46.5,12.5C 146.999,11.3342 247.666,11.1675 348.5,12C 351.827,12.6103 355.161,13.1103 358.5,13.5 Z"/></g>
<g><path style="opacity:1" fill="#0c243a" d="M 363.5,16.5 C 365.05,17.4408 366.716,18.1075 368.5,18.5C 369.585,20.5869 371.251,21.9202 373.5,22.5C 374.833,24.1667 376.167,25.8333 377.5,27.5C 378.354,29.035 378.354,30.3684 377.5,31.5C 375.338,29.4898 372.838,27.8231 370,26.5C 366.73,29.1536 362.897,30.1536 358.5,29.5C 358.766,34.3739 359.933,39.0406 362,43.5C 364.135,45.3667 365.635,47.7 366.5,50.5C 365.169,147.778 365.169,245.278 366.5,343C 366.506,345.3 366.006,347.466 365,349.5C 364.722,348.584 364.222,347.918 363.5,347.5C 363.667,248.166 363.5,148.833 363,49.5C 362.243,47.6854 361.41,46.0188 360.5,44.5C 359.5,41.5 357.5,39.5 354.5,38.5C 352.033,38.2451 350.033,37.2451 348.5,35.5C 348.082,34.7784 347.416,34.2784 346.5,34C 342.833,33.6667 339.167,33.3333 335.5,33C 245.834,32.5 156.167,32.3333 66.5,32.5C 159.665,31.5006 252.999,31.1673 346.5,31.5C 346.714,29.8561 346.38,28.3561 345.5,27C 337.588,26.8166 329.754,26.3166 322,25.5C 238.667,25.5 155.333,25.5 72,25.5C 64.1683,27.8373 56.3349,28.3373 48.5,27C 46.8446,25.5557 46.178,23.7224 46.5,21.5C 139.495,20.7127 232.495,20.2127 325.5,20C 325.957,19.586 326.291,19.086 326.5,18.5C 233.524,17.7584 140.857,17.0918 48.5,16.5C 48.5,16.1667 48.5,15.8333 48.5,15.5C 148.954,14.5208 249.121,14.1875 349,14.5C 351.882,16.4144 354.882,16.7477 358,15.5C 359.681,17.4278 361.514,17.7612 363.5,16.5 Z"/></g>
<g><path style="opacity:1" fill="#6c7881" d="M 358.5,13.5 C 360.027,13.427 361.027,14.0937 361.5,15.5C 359.973,15.573 358.973,14.9063 358.5,13.5 Z"/></g>
<g><path style="opacity:1" fill="#7e888f" d="M 36.5,15.5 C 35.4863,16.6737 34.153,17.3404 32.5,17.5C 32.5,17.1667 32.5,16.8333 32.5,16.5C 33.7079,15.7659 35.0413,15.4326 36.5,15.5 Z"/></g>
<g><path style="opacity:1" fill="#01203a" d="M 48.5,16.5 C 140.857,17.0918 233.524,17.7584 326.5,18.5C 326.291,19.086 325.957,19.586 325.5,20C 232.495,20.2127 139.495,20.7127 46.5,21.5C 46.178,23.7224 46.8446,25.5557 48.5,27C 56.3349,28.3373 64.1683,27.8373 72,25.5C 155.333,25.5 238.667,25.5 322,25.5C 329.754,26.3166 337.588,26.8166 345.5,27C 346.38,28.3561 346.714,29.8561 346.5,31.5C 252.999,31.1673 159.665,31.5006 66.5,32.5C 66.1667,32.5 65.8333,32.5 65.5,32.5C 60.3662,31.764 54.6995,31.4306 48.5,31.5C 46.3987,32.5917 44.2321,33.5917 42,34.5C 41.6667,33.8333 41.3333,33.1667 41,32.5C 35.3688,34.8558 29.5355,36.5224 23.5,37.5C 22.7046,33.406 24.038,30.2393 27.5,28C 34.8306,26.6902 40.164,22.8569 43.5,16.5C 45.1667,16.5 46.8333,16.5 48.5,16.5 Z"/></g>
<g><path style="opacity:1" fill="#9ea7ae" d="M 368.5,18.5 C 370.749,19.0798 372.415,20.4131 373.5,22.5C 371.251,21.9202 369.585,20.5869 368.5,18.5 Z"/></g>
<g><path style="opacity:1" fill="#eaeff1" d="M 386.5,42.5 C 383.88,38.5252 381.713,34.1918 380,29.5C 379.292,28.6195 378.458,27.9528 377.5,27.5C 376.167,25.8333 374.833,24.1667 373.5,22.5C 372.415,20.4131 370.749,19.0798 368.5,18.5C 366.716,18.1075 365.05,17.4408 363.5,16.5C 363.158,15.6618 362.492,15.3284 361.5,15.5C 361.027,14.0937 360.027,13.427 358.5,13.5C 358.5,13.1667 358.5,12.8333 358.5,12.5C 360.648,12.6106 360.981,11.944 359.5,10.5C 360,10.1667 360.5,9.83333 361,9.5C 362.506,11.3282 364.173,11.6616 366,10.5C 366.629,16.0004 369.795,18.6671 375.5,18.5C 375.808,19.3081 376.308,19.9747 377,20.5C 378.185,18.1563 380.018,17.3229 382.5,18C 378.141,19.5034 377.641,21.67 381,24.5C 383.502,30.3312 385.336,36.3312 386.5,42.5 Z"/></g>
<g><path style="opacity:1" fill="#5a6873" d="M 26.5,22.5 C 25.4154,24.5869 23.7488,25.9202 21.5,26.5C 22.5846,24.4131 24.2512,23.0798 26.5,22.5 Z"/></g>
<g><path style="opacity:1" fill="#032038" d="M 377.5,31.5 C 377.893,34.9297 377.227,38.0964 375.5,41C 377.602,42.7328 377.935,44.7328 376.5,47C 379.669,47.9782 382.503,47.4782 385,45.5C 385.667,148.833 385.667,252.167 385,355.5C 380.802,360.319 377.468,365.319 375,370.5C 374.506,372.134 374.34,373.801 374.5,375.5C 372.235,374.771 370.235,375.604 368.5,378C 367.167,378.333 365.833,378.667 364.5,379C 364.833,379.333 365.167,379.667 365.5,380C 363.924,380.388 362.591,379.888 361.5,378.5C 364.635,373.986 364.135,369.986 360,366.5C 359.439,367.022 358.772,367.355 358,367.5C 356.877,365.9 355.377,364.9 353.5,364.5C 354.473,362.851 355.473,361.184 356.5,359.5C 357.496,359.586 358.329,359.252 359,358.5C 360.559,356.783 361.392,354.783 361.5,352.5C 361.833,351.167 362.167,349.833 362.5,348.5C 363.167,348.5 363.5,348.167 363.5,347.5C 364.222,347.918 364.722,348.584 365,349.5C 366.006,347.466 366.506,345.3 366.5,343C 365.169,245.278 365.169,147.778 366.5,50.5C 365.635,47.7 364.135,45.3667 362,43.5C 359.933,39.0406 358.766,34.3739 358.5,29.5C 362.897,30.1536 366.73,29.1536 370,26.5C 372.838,27.8231 375.338,29.4898 377.5,31.5 Z"/></g>
<g><path style="opacity:1" fill="#182c3a" d="M 65.5,32.5 C 65.8333,32.5 66.1667,32.5 66.5,32.5C 156.167,32.3333 245.834,32.5 335.5,33C 339.167,33.3333 342.833,33.6667 346.5,34C 347.416,34.2784 348.082,34.7784 348.5,35.5C 249.166,35.3333 149.833,35.5 50.5,36C 46.7996,36.8428 43.7996,38.6761 41.5,41.5C 38.6769,42.9923 37.0102,45.3257 36.5,48.5C 35.8826,48.6107 35.3826,48.944 35,49.5C 34.5,148.166 34.3333,246.833 34.5,345.5C 33.667,249.668 33.167,153.668 33,57.5C 30.9824,54.219 31.1491,51.0523 33.5,48C 32.701,46.2513 33.3676,44.918 35.5,44C 35.1667,43.6667 34.8333,43.3333 34.5,43C 36.4552,42.0467 38.1218,40.7134 39.5,39C 39.1667,38.6667 38.8333,38.3333 38.5,38C 41.6363,37.685 44.3029,36.5184 46.5,34.5C 52.9875,33.8332 59.3208,33.1666 65.5,32.5 Z"/></g>
<g><path style="opacity:1" fill="#edf3f5" d="M 348.5,35.5 C 350.033,37.2451 352.033,38.2451 354.5,38.5C 355.5,39.8333 356.5,41.1667 357.5,42.5C 359.219,44.9107 360.552,47.5773 361.5,50.5C 362.5,149.831 362.833,249.164 362.5,348.5C 362.167,349.833 361.833,351.167 361.5,352.5C 360.167,354.167 358.833,355.833 357.5,357.5C 357.885,350.803 358.552,344.136 359.5,337.5C 359.667,244.166 359.5,150.833 359,57.5C 358.661,54.964 358.161,52.464 357.5,50C 357.645,49.228 357.978,48.5613 358.5,48C 356.935,46.5881 355.269,45.4214 353.5,44.5C 353.288,42.6159 352.288,41.2826 350.5,40.5C 350.709,39.914 351.043,39.414 351.5,39C 350.167,38.8333 348.833,38.6667 347.5,38.5C 249.74,39.8108 152.074,39.8108 54.5,38.5C 53.1552,39.3467 52.1552,40.5134 51.5,42C 43.2711,41.7431 39.6044,45.9098 40.5,54.5C 39.5,54.5 38.5,54.5 37.5,54.5C 37.3333,149.501 37.5,244.501 38,339.5C 38.5,341.333 39.6667,342.5 41.5,343C 40.7626,345.225 40.7626,347.559 41.5,350C 41.3248,351.658 40.6582,352.991 39.5,354C 40.3366,355.011 40.67,356.178 40.5,357.5C 39.8333,356.833 39.1667,356.167 38.5,355.5C 37.4878,352.743 36.4878,350.076 35.5,347.5C 35.1713,247.793 35.5046,148.126 36.5,48.5C 38.4818,46.4984 40.1484,44.1651 41.5,41.5C 43.7996,38.6761 46.7996,36.8428 50.5,36C 149.833,35.5 249.166,35.3333 348.5,35.5 Z"/></g>
<g><path style="opacity:1" fill="#031f36" d="M 46.5,13.5 C 47.2389,13.369 47.9056,13.5357 48.5,14C 47.2617,14.69 47.2617,15.19 48.5,15.5C 48.5,15.8333 48.5,16.1667 48.5,16.5C 46.8333,16.5 45.1667,16.5 43.5,16.5C 40.164,22.8569 34.8306,26.6902 27.5,28C 24.038,30.2393 22.7046,33.406 23.5,37.5C 29.5355,36.5224 35.3688,34.8558 41,32.5C 41.3333,33.1667 41.6667,33.8333 42,34.5C 44.2321,33.5917 46.3987,32.5917 48.5,31.5C 54.6995,31.4306 60.3662,31.764 65.5,32.5C 59.3208,33.1666 52.9875,33.8332 46.5,34.5C 44.3029,36.5184 41.6363,37.685 38.5,38C 38.8333,38.3333 39.1667,38.6667 39.5,39C 38.1218,40.7134 36.4552,42.0467 34.5,43C 34.8333,43.3333 35.1667,43.6667 35.5,44C 33.3676,44.918 32.701,46.2513 33.5,48C 31.1491,51.0523 30.9824,54.219 33,57.5C 33.167,153.668 33.667,249.668 34.5,345.5C 34.3284,346.492 34.6618,347.158 35.5,347.5C 35.6621,349.527 35.4955,351.527 35,353.5C 34.31,352.262 33.81,352.262 33.5,353.5C 31.6941,350.662 30.6941,350.995 30.5,354.5C 27.9505,354.561 26.4505,355.894 26,358.5C 25.586,358.043 25.086,357.709 24.5,357.5C 23.7568,358.908 22.9234,360.241 22,361.5C 21.5172,360.552 21.3505,359.552 21.5,358.5C 19.5853,358.784 17.9187,358.451 16.5,357.5C 18.4672,357.739 20.3005,357.406 22,356.5C 22.6404,352.517 23.1404,348.517 23.5,344.5C 23.6467,341.747 22.9801,339.247 21.5,337C 19.193,336.663 17.3597,337.496 16,339.5C 15.6012,339.272 15.4346,338.938 15.5,338.5C 15.3333,241.499 15.5,144.499 16,47.5C 16.2463,44.1103 16.7463,40.777 17.5,37.5C 17.1373,36.8165 16.8039,36.1499 16.5,35.5C 16.8911,31.7793 18.5578,28.7793 21.5,26.5C 23.7488,25.9202 25.4154,24.5869 26.5,22.5C 27.8908,20.1097 29.8908,18.4431 32.5,17.5C 34.153,17.3404 35.4863,16.6737 36.5,15.5C 39.8333,14.8333 43.1667,14.1667 46.5,13.5 Z"/></g>
<g><path style="opacity:1" fill="#fefefe" d="M 353.5,44.5 C 352.603,45.5981 351.77,45.5981 351,44.5C 350.535,45.9308 349.701,47.0975 348.5,48C 350,50.8333 351.5,53.6667 353,56.5C 354.356,57.3802 355.856,57.7135 357.5,57.5C 357.333,150.167 357.5,242.834 358,335.5C 358.278,336.416 358.778,337.082 359.5,337.5C 358.552,344.136 357.885,350.803 357.5,357.5C 352.579,358.904 347.579,360.071 342.5,361C 247.833,361.667 153.167,361.667 58.5,361C 53.3455,360.065 48.0122,358.898 42.5,357.5C 41.8333,357.5 41.1667,357.5 40.5,357.5C 40.67,356.178 40.3366,355.011 39.5,354C 40.6582,352.991 41.3248,351.658 41.5,350C 40.7626,347.559 40.7626,345.225 41.5,343C 39.6667,342.5 38.5,341.333 38,339.5C 37.5,244.501 37.3333,149.501 37.5,54.5C 38.5,54.5 39.5,54.5 40.5,54.5C 39.6044,45.9098 43.2711,41.7431 51.5,42C 52.1552,40.5134 53.1552,39.3467 54.5,38.5C 152.074,39.8108 249.74,39.8108 347.5,38.5C 348.833,38.6667 350.167,38.8333 351.5,39C 351.043,39.414 350.709,39.914 350.5,40.5C 352.288,41.2826 353.288,42.6159 353.5,44.5 Z"/></g>
<g><path style="opacity:1" fill="#4c5d6b" d="M 354.5,38.5 C 357.5,39.5 359.5,41.5 360.5,44.5C 359.5,43.8333 358.5,43.1667 357.5,42.5C 356.5,41.1667 355.5,39.8333 354.5,38.5 Z"/></g>
<g><path style="opacity:1" fill="#a9b8be" d="M 41.5,41.5 C 40.1484,44.1651 38.4818,46.4984 36.5,48.5C 37.0102,45.3257 38.6769,42.9923 41.5,41.5 Z"/></g>
<g><path style="opacity:1" fill="#fdfdf8" d="M 353.5,44.5 C 355.269,45.4214 356.935,46.5881 358.5,48C 357.978,48.5613 357.645,49.228 357.5,50C 358.161,52.464 358.661,54.964 359,57.5C 359.5,150.833 359.667,244.166 359.5,337.5C 358.778,337.082 358.278,336.416 358,335.5C 357.5,242.834 357.333,150.167 357.5,57.5C 355.856,57.7135 354.356,57.3802 353,56.5C 351.5,53.6667 350,50.8333 348.5,48C 349.701,47.0975 350.535,45.9308 351,44.5C 351.77,45.5981 352.603,45.5981 353.5,44.5 Z"/></g>
<g><path style="opacity:1" fill="#02223b" d="M 26.5,51.5 C 27.2373,53.3818 28.4039,54.0485 30,53.5C 30.3333,54.8333 30.6667,56.1667 31,57.5C 31.8333,150.835 31.6667,244.168 30.5,337.5C 29.9954,243.421 29.162,149.421 28,55.5C 27.3333,149.5 27.3333,243.5 28,337.5C 29.8048,340.122 29.8048,342.789 28,345.5C 27.1301,344.892 26.6301,344.059 26.5,343C 26.5069,245.999 26.5069,148.832 26.5,51.5 Z"/></g>
<g><path style="opacity:1" fill="#0a1e2d" d="M 377.5,27.5 C 378.458,27.9528 379.292,28.6195 380,29.5C 381.713,34.1918 383.88,38.5252 386.5,42.5C 386.5,42.8333 386.5,43.1667 386.5,43.5C 387.15,45.4352 387.483,47.4352 387.5,49.5C 387.824,151.855 387.491,254.189 386.5,356.5C 385.637,358.421 384.971,360.421 384.5,362.5C 382.75,363.659 381.75,365.326 381.5,367.5C 380.094,367.973 379.427,368.973 379.5,370.5C 377.937,371.945 376.604,373.611 375.5,375.5C 375.167,375.5 374.833,375.5 374.5,375.5C 374.34,373.801 374.506,372.134 375,370.5C 377.468,365.319 380.802,360.319 385,355.5C 385.667,252.167 385.667,148.833 385,45.5C 382.503,47.4782 379.669,47.9782 376.5,47C 377.935,44.7328 377.602,42.7328 375.5,41C 377.227,38.0964 377.893,34.9297 377.5,31.5C 378.354,30.3684 378.354,29.035 377.5,27.5 Z"/></g>
<g><path style="opacity:1" fill="#c6ced3" d="M 12.5,41.5 C 12.313,43.5643 11.813,45.5643 11,47.5C 10.1675,148.334 10.3342,249.001 11.5,349.5C 11.5,350.833 11.5,352.167 11.5,353.5C 10.8333,352.5 10.1667,351.5 9.5,350.5C 9.33334,249.166 9.5,147.833 10,46.5C 10.3333,43.8333 10.6667,41.1667 11,38.5C 11.2321,39.7375 11.7321,40.7375 12.5,41.5 Z"/></g>
<g><path style="opacity:1" fill="#ccd9e3" d="M 357.5,42.5 C 358.5,43.1667 359.5,43.8333 360.5,44.5C 361.41,46.0188 362.243,47.6854 363,49.5C 363.5,148.833 363.667,248.166 363.5,347.5C 363.5,348.167 363.167,348.5 362.5,348.5C 362.833,249.164 362.5,149.831 361.5,50.5C 360.552,47.5773 359.219,44.9107 357.5,42.5 Z"/></g>
<g><path style="opacity:1" fill="#f7fefe" d="M 389.5,58.5 C 390.328,64.6534 390.828,70.9867 391,77.5C 391.333,77.1667 391.667,76.8333 392,76.5C 392.667,163.5 392.667,250.5 392,337.5C 390.171,339.73 390.338,341.897 392.5,344C 392.252,345.749 391.252,346.582 389.5,346.5C 389.5,250.5 389.5,154.5 389.5,58.5 Z"/></g>
<g><path style="opacity:1" fill="#677a89" d="M 36.5,48.5 C 35.5046,148.126 35.1713,247.793 35.5,347.5C 34.6618,347.158 34.3284,346.492 34.5,345.5C 34.3333,246.833 34.5,148.166 35,49.5C 35.3826,48.944 35.8826,48.6107 36.5,48.5 Z"/></g>
<g><path style="opacity:1" fill="#ced7d8" d="M 386.5,43.5 C 387.718,44.7311 389.051,45.8978 390.5,47C 389.54,50.73 389.207,54.5633 389.5,58.5C 389.5,154.5 389.5,250.5 389.5,346.5C 389.5,347.167 389.167,347.5 388.5,347.5C 388.833,247.999 388.499,148.665 387.5,49.5C 387.483,47.4352 387.15,45.4352 386.5,43.5 Z"/></g>
<g><path style="opacity:1" fill="#fdfcf8" d="M 399.5,77.5 C 399.5,167.5 399.5,257.5 399.5,347.5C 398.5,347.5 397.5,347.5 396.5,347.5C 396.662,345.473 396.495,343.473 396,341.5C 395.667,341.833 395.333,342.167 395,342.5C 394.833,341.667 394.667,340.833 394.5,340C 396.487,252.57 397.153,165.07 396.5,77.5C 397.5,77.5 398.5,77.5 399.5,77.5 Z"/></g>
<g><path style="opacity:1" fill="#e5ecf0" d="M 286.5,88.5 C 281.859,87.8734 277.193,87.5401 272.5,87.5C 269.284,87.3455 266.617,88.3455 264.5,90.5C 261.437,92.0252 258.77,94.0252 256.5,96.5C 256.5,96.8333 256.5,97.1667 256.5,97.5C 255.167,98.5 253.833,99.5 252.5,100.5C 251.638,99.6098 251.138,98.6098 251,97.5C 252.186,95.3234 254.019,94.3234 256.5,94.5C 256.343,93.1266 256.51,91.7932 257,90.5C 257.333,90.8333 257.667,91.1667 258,91.5C 260.079,89.1056 262.579,87.1056 265.5,85.5C 271.987,86.8152 278.487,86.8152 285,85.5C 287.28,85.8942 287.78,86.8942 286.5,88.5 Z"/></g>
<g><path style="opacity:1" fill="#6e7c88" d="M 272.5,87.5 C 270.064,88.871 267.397,89.871 264.5,90.5C 266.617,88.3455 269.284,87.3455 272.5,87.5 Z"/></g>
<g><path style="opacity:1" fill="#032038" d="M 284.5,138.5 C 279.228,139.4 273.895,139.733 268.5,139.5C 267.5,139.167 266.833,138.5 266.5,137.5C 265.263,135.903 263.596,134.737 261.5,134C 262.167,133.667 262.833,133.333 263.5,133C 261.346,131.68 259.846,129.847 259,127.5C 257.004,127.004 255.337,126.004 254,124.5C 253.777,116.059 254.611,107.725 256.5,99.5C 256.5,98.8333 256.5,98.1667 256.5,97.5C 256.5,97.1667 256.5,96.8333 256.5,96.5C 261.494,95.0187 266.827,93.5187 272.5,92C 276.152,91.111 279.818,90.7776 283.5,91C 285.156,92.8294 287.156,94.1628 289.5,95C 290.943,98.8145 293.777,101.981 298,104.5C 297.879,108.939 297.046,113.272 295.5,117.5C 296.5,117.5 297.5,117.5 298.5,117.5C 298.309,120.983 297.643,124.316 296.5,127.5C 293.429,126.972 290.429,127.639 287.5,129.5C 286.231,131.695 286.231,133.861 287.5,136C 285.881,136.236 284.881,137.069 284.5,138.5 Z"/></g>
<g><path style="opacity:1" fill="#e9eff0" d="M 126.5,140.5 C 126.5,140.167 126.5,139.833 126.5,139.5C 129.01,139.946 131.01,139.28 132.5,137.5C 135.661,136.087 138.661,134.42 141.5,132.5C 143.822,131.198 145.155,129.198 145.5,126.5C 150.784,114.601 149.117,103.934 140.5,94.5C 141.93,94.5792 143.264,94.2458 144.5,93.5C 145.711,94.2739 145.711,95.1072 144.5,96C 146.809,98.051 148.976,97.8843 151,95.5C 151.5,96 152,96.5 152.5,97C 150.95,99.095 150.617,101.262 151.5,103.5C 152.5,101.5 153.5,99.5 154.5,97.5C 154.833,98 155.167,98.5 155.5,99C 153.57,104.778 152.904,110.611 153.5,116.5C 152.311,117.429 150.978,117.762 149.5,117.5C 149.927,121.242 150.427,124.909 151,128.5C 147.954,130.355 145.12,132.355 142.5,134.5C 142.649,135.552 142.483,136.552 142,137.5C 140.601,137.499 139.101,137.165 137.5,136.5C 136.692,136.808 136.025,137.308 135.5,138C 136.451,138.718 136.617,139.551 136,140.5C 132.738,139.159 132.238,139.492 134.5,141.5C 134,141.833 133.5,142.167 133,142.5C 131.079,140.997 128.912,140.331 126.5,140.5 Z"/></g>
<g><path style="opacity:1" fill="#032038" d="M 108.5,91.5 C 109.167,91.5 109.833,91.5 110.5,91.5C 110.88,92.1331 111.213,92.7997 111.5,93.5C 114.846,93.5917 118.18,92.925 121.5,91.5C 125.899,91.5283 126.232,92.0283 122.5,93C 125.179,93.4342 127.846,93.2675 130.5,92.5C 133.917,94.0824 136.917,96.249 139.5,99C 141.367,102.565 143.367,106.065 145.5,109.5C 146.44,112.132 146.607,114.798 146,117.5C 144.491,118.09 142.991,118.756 141.5,119.5C 142.762,121.575 142.595,123.575 141,125.5C 140.692,124.692 140.192,124.025 139.5,123.5C 138.937,125.709 137.604,127.209 135.5,128C 135.833,128.333 136.167,128.667 136.5,129C 135.552,129.483 134.552,129.649 133.5,129.5C 133.577,132.509 132.244,134.676 129.5,136C 124.375,136.925 119.375,137.759 114.5,138.5C 113.167,138.167 111.833,137.833 110.5,137.5C 110.027,136.094 109.027,135.427 107.5,135.5C 106.5,135.167 105.833,134.5 105.5,133.5C 104.957,131.657 105.624,129.99 107.5,128.5C 104.948,126.631 102.448,124.631 100,122.5C 99.4461,115.426 99.9461,108.426 101.5,101.5C 102.73,98.055 104.73,95.055 107.5,92.5C 107.5,91.8333 107.833,91.5 108.5,91.5 Z"/></g>
<g><path style="opacity:1" fill="#e8edf0" d="M 286.5,88.5 C 288.451,88.2267 289.951,88.8934 291,90.5C 296.549,89.8301 299.549,92.4968 300,98.5C 301.488,97.8042 302.988,98.1375 304.5,99.5C 305.098,100.795 305.598,102.128 306,103.5C 306.634,107.58 306.134,110.747 304.5,113C 304.691,115.05 305.358,116.883 306.5,118.5C 305.242,120.648 305.242,122.815 306.5,125C 303.886,128.476 300.886,131.643 297.5,134.5C 296.614,135.325 296.281,136.325 296.5,137.5C 294.388,138.275 292.388,138.275 290.5,137.5C 292.139,136.527 293.473,135.194 294.5,133.5C 294.81,131.856 295.81,130.856 297.5,130.5C 300.697,127.267 302.364,123.267 302.5,118.5C 303.151,111.816 301.985,105.483 299,99.5C 295.233,95.2235 291.066,91.5569 286.5,88.5 Z"/></g>
<g><path style="opacity:1" fill="#3a4755" d="M 107.5,92.5 C 104.73,95.055 102.73,98.055 101.5,101.5C 101.565,101.062 101.399,100.728 101,100.5C 100.292,101.381 99.4584,102.047 98.5,102.5C 100.105,97.8955 103.105,94.5622 107.5,92.5 Z"/></g>
<g><path style="opacity:1" fill="#495c6c" d="M 256.5,97.5 C 256.5,98.1667 256.5,98.8333 256.5,99.5C 255.167,100.5 253.833,101.5 252.5,102.5C 252.5,102.167 252.5,101.833 252.5,101.5C 252.5,101.167 252.5,100.833 252.5,100.5C 253.833,99.5 255.167,98.5 256.5,97.5 Z"/></g>
<g><path style="opacity:1" fill="#e4e9ec" d="M 252.5,101.5 C 252.5,101.833 252.5,102.167 252.5,102.5C 249.957,110.43 249.957,118.43 252.5,126.5C 251.883,126.611 251.383,126.944 251,127.5C 249.601,125.272 248.434,122.939 247.5,120.5C 248.621,114.327 248.621,108.327 247.5,102.5C 249.045,101.548 250.712,101.215 252.5,101.5 Z"/></g>
<g><path style="opacity:1" fill="#132434" d="M 101.5,101.5 C 99.9461,108.426 99.4461,115.426 100,122.5C 102.448,124.631 104.948,126.631 107.5,128.5C 105.624,129.99 104.957,131.657 105.5,133.5C 97.1829,126.036 94.3495,116.702 97,105.5C 97.2321,104.263 97.7321,103.263 98.5,102.5C 99.4584,102.047 100.292,101.381 101,100.5C 101.399,100.728 101.565,101.062 101.5,101.5 Z"/></g>
<g><path style="opacity:1" fill="#84949c" d="M 302.5,118.5 C 302.364,123.267 300.697,127.267 297.5,130.5C 299.177,126.458 300.844,122.458 302.5,118.5 Z"/></g>
<g><path style="opacity:1" fill="#1c2d3c" d="M 256.5,99.5 C 254.611,107.725 253.777,116.059 254,124.5C 255.337,126.004 257.004,127.004 259,127.5C 259.846,129.847 261.346,131.68 263.5,133C 262.833,133.333 262.167,133.667 261.5,134C 263.596,134.737 265.263,135.903 266.5,137.5C 264.692,137.509 263.025,137.009 261.5,136C 258.368,132.855 255.368,129.688 252.5,126.5C 249.957,118.43 249.957,110.43 252.5,102.5C 253.833,101.5 255.167,100.5 256.5,99.5 Z"/></g>
<g><path style="opacity:1" fill="#0f2437" d="M 272.5,87.5 C 277.193,87.5401 281.859,87.8734 286.5,88.5C 291.066,91.5569 295.233,95.2235 299,99.5C 301.985,105.483 303.151,111.816 302.5,118.5C 300.844,122.458 299.177,126.458 297.5,130.5C 295.81,130.856 294.81,131.856 294.5,133.5C 292.147,134.34 290.147,135.674 288.5,137.5C 287.508,137.328 286.842,137.662 286.5,138.5C 285.833,138.5 285.167,138.5 284.5,138.5C 284.881,137.069 285.881,136.236 287.5,136C 286.231,133.861 286.231,131.695 287.5,129.5C 290.429,127.639 293.429,126.972 296.5,127.5C 297.643,124.316 298.309,120.983 298.5,117.5C 297.5,117.5 296.5,117.5 295.5,117.5C 297.046,113.272 297.879,108.939 298,104.5C 293.777,101.981 290.943,98.8145 289.5,95C 287.156,94.1628 285.156,92.8294 283.5,91C 279.818,90.7776 276.152,91.111 272.5,92C 266.827,93.5187 261.494,95.0187 256.5,96.5C 258.77,94.0252 261.437,92.0252 264.5,90.5C 267.397,89.871 270.064,88.871 272.5,87.5 Z"/></g>
<g><path style="opacity:1" fill="#102434" d="M 127.5,88.5 C 132.217,89.6922 136.55,91.6922 140.5,94.5C 149.117,103.934 150.784,114.601 145.5,126.5C 143.674,128.147 142.34,130.147 141.5,132.5C 138.661,134.42 135.661,136.087 132.5,137.5C 130.302,137.875 128.302,138.542 126.5,139.5C 122.298,139.817 118.298,139.483 114.5,138.5C 119.375,137.759 124.375,136.925 129.5,136C 132.244,134.676 133.577,132.509 133.5,129.5C 134.552,129.649 135.552,129.483 136.5,129C 136.167,128.667 135.833,128.333 135.5,128C 137.604,127.209 138.937,125.709 139.5,123.5C 140.192,124.025 140.692,124.692 141,125.5C 142.595,123.575 142.762,121.575 141.5,119.5C 142.991,118.756 144.491,118.09 146,117.5C 146.607,114.798 146.44,112.132 145.5,109.5C 143.367,106.065 141.367,102.565 139.5,99C 136.917,96.249 133.917,94.0824 130.5,92.5C 127.846,93.2675 125.179,93.4342 122.5,93C 126.232,92.0283 125.899,91.5283 121.5,91.5C 118.18,92.925 114.846,93.5917 111.5,93.5C 111.213,92.7997 110.88,92.1331 110.5,91.5C 110.5,90.8333 110.833,90.5 111.5,90.5C 116.714,89.0315 122.047,88.3649 127.5,88.5 Z"/></g>
<g><path style="opacity:1" fill="#949ea7" d="M 145.5,126.5 C 145.155,129.198 143.822,131.198 141.5,132.5C 142.34,130.147 143.674,128.147 145.5,126.5 Z"/></g>
<g><path style="opacity:1" fill="#e5ebee" d="M 140.5,94.5 C 136.55,91.6922 132.217,89.6922 127.5,88.5C 123.267,87.2057 118.934,87.2057 114.5,88.5C 111.687,88.0246 109.687,89.0246 108.5,91.5C 107.833,91.5 107.5,91.8333 107.5,92.5C 103.105,94.5622 100.105,97.8955 98.5,102.5C 97.7321,103.263 97.2321,104.263 97,105.5C 94.3495,116.702 97.1829,126.036 105.5,133.5C 105.833,134.5 106.5,135.167 107.5,135.5C 107.973,136.906 108.973,137.573 110.5,137.5C 111.833,137.833 113.167,138.167 114.5,138.5C 118.298,139.483 122.298,139.817 126.5,139.5C 126.5,139.833 126.5,140.167 126.5,140.5C 121.585,142.868 116.585,142.868 111.5,140.5C 110.558,140.608 109.725,140.941 109,141.5C 106.238,140.019 103.571,138.353 101,136.5C 97.6441,138.265 96.4774,137.598 97.5,134.5C 95.2108,130.224 94.5441,125.724 95.5,121C 95.1277,116.822 94.1277,112.822 92.5,109C 94.411,105.941 95.0777,102.774 94.5,99.5C 96.3308,96.9763 98.6641,95.1429 101.5,94C 98.9918,89.5555 99.4918,89.3888 103,93.5C 103.333,92.1667 103.667,90.8333 104,89.5C 104.333,89.8333 104.667,90.1667 105,90.5C 106.119,87.7094 108.119,86.0427 111,85.5C 122.812,85.185 134.645,85.685 146.5,87C 146.018,88.0084 145.852,89.175 146,90.5C 144.559,91.2598 143.059,91.9264 141.5,92.5C 140.702,92.9569 140.369,93.6236 140.5,94.5 Z"/></g>
<g><path style="opacity:1" fill="#33404a" d="M 127.5,88.5 C 122.047,88.3649 116.714,89.0315 111.5,90.5C 112.5,89.8333 113.5,89.1667 114.5,88.5C 118.934,87.2057 123.267,87.2057 127.5,88.5 Z"/></g>
<g><path style="opacity:1" fill="#89959f" d="M 114.5,88.5 C 113.5,89.1667 112.5,89.8333 111.5,90.5C 110.833,90.5 110.5,90.8333 110.5,91.5C 109.833,91.5 109.167,91.5 108.5,91.5C 109.687,89.0246 111.687,88.0246 114.5,88.5 Z"/></g>
<g><path style="opacity:1" fill="#94a2aa" d="M 294.5,133.5 C 293.473,135.194 292.139,136.527 290.5,137.5C 289.833,137.5 289.167,137.5 288.5,137.5C 290.147,135.674 292.147,134.34 294.5,133.5 Z"/></g>
<g><path style="opacity:1" fill="#6e7d94" d="M 107.5,135.5 C 109.027,135.427 110.027,136.094 110.5,137.5C 108.973,137.573 107.973,136.906 107.5,135.5 Z"/></g>
<g><path style="opacity:1" fill="#6c7b7a" d="M 132.5,137.5 C 131.01,139.28 129.01,139.946 126.5,139.5C 128.302,138.542 130.302,137.875 132.5,137.5 Z"/></g>
<g><path style="opacity:1" fill="#8795a1" d="M 284.5,138.5 C 285.167,138.5 285.833,138.5 286.5,138.5C 283.305,140.03 279.805,140.696 276,140.5C 273.31,140.497 270.81,140.164 268.5,139.5C 273.895,139.733 279.228,139.4 284.5,138.5 Z"/></g>
<g><path style="opacity:1" fill="#52616d" d="M 117.5,259.5 C 120.713,259.19 123.713,259.523 126.5,260.5C 121.047,260.365 115.714,261.032 110.5,262.5C 112.649,261.264 114.982,260.264 117.5,259.5 Z"/></g>
<g><path style="opacity:1" fill="#465466" d="M 110.5,262.5 C 109.965,264.446 108.632,265.446 106.5,265.5C 107.035,263.554 108.368,262.554 110.5,262.5 Z"/></g>
<g><path style="opacity:1" fill="#919ea5" d="M 137.5,264.5 C 139.027,264.427 140.027,265.094 140.5,266.5C 138.973,266.573 137.973,265.906 137.5,264.5 Z"/></g>
<g><path style="opacity:1" fill="#5c6976" d="M 106.5,265.5 C 106.027,266.906 105.027,267.573 103.5,267.5C 103.973,266.094 104.973,265.427 106.5,265.5 Z"/></g>
<g><path style="opacity:1" fill="#e6ecee" d="M 146.5,273.5 C 144.529,271.192 142.529,268.858 140.5,266.5C 140.027,265.094 139.027,264.427 137.5,264.5C 134.155,262.409 130.488,261.076 126.5,260.5C 123.713,259.523 120.713,259.19 117.5,259.5C 121.852,258.754 126.352,258.087 131,257.5C 134.71,258.607 138.21,260.107 141.5,262C 143.037,263.11 143.703,264.61 143.5,266.5C 144.552,266.351 145.552,266.517 146.5,267C 146.216,268.956 146.216,271.123 146.5,273.5 Z"/></g>
<g><path style="opacity:1" fill="#042038" d="M 146.5,277.5 C 148.017,279.462 148.684,281.795 148.5,284.5C 148.232,287.517 147.898,290.517 147.5,293.5C 145.257,298.08 142.59,302.414 139.5,306.5C 138.29,306.932 137.29,307.599 136.5,308.5C 135.833,308.5 135.167,308.5 134.5,308.5C 132.218,307.61 129.885,307.444 127.5,308C 128.711,308.893 128.711,309.726 127.5,310.5C 126.749,309.624 126.249,308.624 126,307.5C 125.439,308.022 124.772,308.355 124,308.5C 120.539,307.782 117.039,307.282 113.5,307C 110.637,305.636 108.637,303.47 107.5,300.5C 109.216,300.003 110.883,299.669 112.5,299.5C 108.745,297.905 104.912,296.571 101,295.5C 100.039,291.05 99.5392,286.55 99.5,282C 101.501,277.75 104.001,273.917 107,270.5C 108.836,272.604 111.002,272.938 113.5,271.5C 111.614,270.594 109.78,269.594 108,268.5C 107.409,267.517 107.743,266.85 109,266.5C 110.667,267.167 112.333,267.833 114,268.5C 116.025,268.172 118.191,268.006 120.5,268C 119.437,266.812 118.103,266.312 116.5,266.5C 116.5,265.5 116.5,264.5 116.5,263.5C 118.488,263.173 120.488,262.84 122.5,262.5C 126.381,263.848 130.381,265.015 134.5,266C 136.418,268.928 139.085,270.594 142.5,271C 143.249,272.734 143.749,274.567 144,276.5C 144.671,277.252 145.504,277.586 146.5,277.5 Z"/></g>
<g><path style="opacity:1" fill="#61707c" d="M 103.5,267.5 C 103.262,269.404 102.262,270.738 100.5,271.5C 100.738,269.596 101.738,268.262 103.5,267.5 Z"/></g>
<g><path style="opacity:1" fill="#6f7981" d="M 100.5,271.5 C 100.573,273.027 99.9063,274.027 98.5,274.5C 98.427,272.973 99.0937,271.973 100.5,271.5 Z"/></g>
<g><path style="opacity:1" fill="#55646a" d="M 98.5,274.5 C 98.5905,277.152 97.9238,279.485 96.5,281.5C 96.5172,279.435 96.8505,277.435 97.5,275.5C 97.5,274.833 97.8333,274.5 98.5,274.5 Z"/></g>
<g><path style="opacity:1" fill="#0f2336" d="M 126.5,260.5 C 130.488,261.076 134.155,262.409 137.5,264.5C 137.973,265.906 138.973,266.573 140.5,266.5C 142.529,268.858 144.529,271.192 146.5,273.5C 146.5,273.833 146.5,274.167 146.5,274.5C 146.5,275.5 146.5,276.5 146.5,277.5C 145.504,277.586 144.671,277.252 144,276.5C 143.749,274.567 143.249,272.734 142.5,271C 139.085,270.594 136.418,268.928 134.5,266C 130.381,265.015 126.381,263.848 122.5,262.5C 120.488,262.84 118.488,263.173 116.5,263.5C 116.5,264.5 116.5,265.5 116.5,266.5C 118.103,266.312 119.437,266.812 120.5,268C 118.191,268.006 116.025,268.172 114,268.5C 112.333,267.833 110.667,267.167 109,266.5C 107.743,266.85 107.409,267.517 108,268.5C 109.78,269.594 111.614,270.594 113.5,271.5C 111.002,272.938 108.836,272.604 107,270.5C 104.001,273.917 101.501,277.75 99.5,282C 99.5392,286.55 100.039,291.05 101,295.5C 104.912,296.571 108.745,297.905 112.5,299.5C 110.883,299.669 109.216,300.003 107.5,300.5C 108.637,303.47 110.637,305.636 113.5,307C 117.039,307.282 120.539,307.782 124,308.5C 124.772,308.355 125.439,308.022 126,307.5C 126.249,308.624 126.749,309.624 127.5,310.5C 128.711,309.726 128.711,308.893 127.5,308C 129.885,307.444 132.218,307.61 134.5,308.5C 131.921,310.025 129.254,311.359 126.5,312.5C 122.958,312.813 119.625,312.479 116.5,311.5C 114.898,309.926 112.898,309.259 110.5,309.5C 100.135,303.105 95.4684,293.772 96.5,281.5C 97.9238,279.485 98.5905,277.152 98.5,274.5C 99.9063,274.027 100.573,273.027 100.5,271.5C 102.262,270.738 103.262,269.404 103.5,267.5C 105.027,267.573 106.027,266.906 106.5,265.5C 108.632,265.446 109.965,264.446 110.5,262.5C 115.714,261.032 121.047,260.365 126.5,260.5 Z"/></g>
<g><path style="opacity:1" fill="#adbabf" d="M 146.5,274.5 C 147.586,274.62 148.253,275.287 148.5,276.5C 149.327,279.783 149.66,283.116 149.5,286.5C 149.59,289.152 148.924,291.485 147.5,293.5C 147.898,290.517 148.232,287.517 148.5,284.5C 148.684,281.795 148.017,279.462 146.5,277.5C 146.5,276.5 146.5,275.5 146.5,274.5 Z"/></g>
<g><path style="opacity:1" fill="#e5eef0" d="M 139.5,306.5 C 142.59,302.414 145.257,298.08 147.5,293.5C 148.924,291.485 149.59,289.152 149.5,286.5C 150.117,286.389 150.617,286.056 151,285.5C 151.667,289.5 151.667,293.5 151,297.5C 147.064,298.245 145.564,300.411 146.5,304C 143.94,304.384 141.606,305.217 139.5,306.5 Z"/></g>
<g><path style="opacity:1" fill="#e9f0f2" d="M 97.5,275.5 C 96.8505,277.435 96.5172,279.435 96.5,281.5C 95.4684,293.772 100.135,303.105 110.5,309.5C 112.102,311.074 114.102,311.741 116.5,311.5C 119.625,312.479 122.958,312.813 126.5,312.5C 130.554,312.493 133.887,311.16 136.5,308.5C 137.29,307.599 138.29,306.932 139.5,306.5C 139.5,308.5 139.5,310.5 139.5,312.5C 134.446,313.011 129.613,314.345 125,316.5C 123.667,315.833 122.333,315.167 121,314.5C 119.351,315.898 118.018,315.564 117,313.5C 116.667,314.5 116.333,315.5 116,316.5C 114.43,315.642 112.763,314.975 111,314.5C 108.67,316.043 106.17,316.543 103.5,316C 101.759,311.015 99.5923,306.181 97,301.5C 96.3333,304.167 95.6667,304.167 95,301.5C 94.3333,294.5 94.3333,287.5 95,280.5C 95.0496,278.256 95.8829,276.589 97.5,275.5 Z"/></g>
<g><path style="opacity:1" fill="#aeb9c4" d="M 134.5,308.5 C 135.167,308.5 135.833,308.5 136.5,308.5C 133.887,311.16 130.554,312.493 126.5,312.5C 129.254,311.359 131.921,310.025 134.5,308.5 Z"/></g>
<g><path style="opacity:1" fill="#495a67" d="M 110.5,309.5 C 112.898,309.259 114.898,309.926 116.5,311.5C 114.102,311.741 112.102,311.074 110.5,309.5 Z"/></g>
<g><path style="opacity:1" fill="#eef3f5" d="M 290.5,263.5 C 292.5,264.626 294.5,264.793 296.5,264C 295.549,264.718 295.383,265.551 296,266.5C 297.441,267.26 298.941,267.926 300.5,268.5C 302.115,271.45 304.115,274.116 306.5,276.5C 306.617,281.182 305.95,285.182 304.5,288.5C 305.473,292.98 306.139,297.313 306.5,301.5C 305.127,301.343 303.793,301.51 302.5,302C 301.636,304.562 299.969,306.395 297.5,307.5C 296.448,309.11 296.448,310.777 297.5,312.5C 296.869,314.298 295.702,315.631 294,316.5C 291.031,315.706 288.031,315.039 285,314.5C 280.177,314.674 275.344,315.007 270.5,315.5C 267.593,314.99 264.759,314.323 262,313.5C 260.445,315.515 258.611,315.848 256.5,314.5C 257.908,313.757 259.241,312.923 260.5,312C 258.5,310.667 256.5,309.333 254.5,308C 252.382,306.858 250.382,306.358 248.5,306.5C 248.086,303.419 248.086,300.253 248.5,297C 248.025,295.237 247.358,293.57 246.5,292C 246.058,288.471 246.725,284.971 248.5,281.5C 247.975,280.808 247.308,280.308 246.5,280C 248.906,276.748 248.906,273.414 246.5,270C 247.355,268.549 247.522,267.049 247,265.5C 249.74,264.718 252.574,264.218 255.5,264C 257.294,262.319 257.794,260.486 257,258.5C 258.085,257.707 259.252,257.04 260.5,256.5C 268.32,256.577 276.32,256.577 284.5,256.5C 284.281,257.675 284.614,258.675 285.5,259.5C 286.333,258.5 287.167,257.5 288,256.5C 289.5,258 291,259.5 292.5,261C 291.244,261.417 290.577,262.25 290.5,263.5 Z"/></g>
<g><path style="opacity:1" fill="#a4b0b7" d="M 292.5,307.5 C 291.878,309.335 290.544,310.502 288.5,311C 285.883,311.822 283.216,312.322 280.5,312.5C 284.408,310.843 288.408,309.176 292.5,307.5 Z"/></g>
<g><path style="opacity:1" fill="#727d87" d="M 261.5,307.5 C 263.404,307.738 264.738,308.738 265.5,310.5C 263.596,310.262 262.262,309.262 261.5,307.5 Z"/></g>
<g><path style="opacity:1" fill="#b0bdc4" d="M 300.5,297.5 C 301.084,300.285 300.084,301.952 297.5,302.5C 297.75,300.326 298.75,298.659 300.5,297.5 Z"/></g>
<g><path style="opacity:1" fill="#88959e" d="M 254.5,300.5 C 255.906,300.973 256.573,301.973 256.5,303.5C 255.094,303.027 254.427,302.027 254.5,300.5 Z"/></g>
<g><path style="opacity:1" fill="#838c95" d="M 252.5,297.5 C 253.167,297.833 253.833,298.167 254.5,298.5C 254.5,299.167 254.5,299.833 254.5,300.5C 253.094,300.027 252.427,299.027 252.5,297.5 Z"/></g>
<g><path style="opacity:1" fill="#8b9aa7" d="M 302.5,280.5 C 304.114,286.399 303.448,292.065 300.5,297.5C 301.968,292.286 302.635,286.953 302.5,281.5C 302.5,281.167 302.5,280.833 302.5,280.5 Z"/></g>
<g><path style="opacity:1" fill="#87929e" d="M 251.5,277.5 C 250.384,282.817 250.384,288.151 251.5,293.5C 250.281,290.579 249.614,287.412 249.5,284C 249.336,281.456 250.003,279.29 251.5,277.5 Z"/></g>
<g><path style="opacity:1" fill="#032037" d="M 278.5,263.5 C 274.771,263.576 271.438,264.743 268.5,267C 271.79,267.253 274.79,268.253 277.5,270C 276.322,270.967 274.989,271.467 273.5,271.5C 274.729,272.281 276.062,272.781 277.5,273C 274.657,273.446 271.824,273.946 269,274.5C 267.674,274.245 266.674,273.578 266,272.5C 265.405,273.899 265.572,275.232 266.5,276.5C 265.675,277.386 264.675,277.719 263.5,277.5C 263.5,284.167 263.5,290.833 263.5,297.5C 264.822,297.67 265.989,297.337 267,296.5C 267.17,290.472 267.67,284.472 268.5,278.5C 274.104,279.454 279.771,279.788 285.5,279.5C 285.334,285.176 285.501,290.843 286,296.5C 286.464,299.652 288.297,301.318 291.5,301.5C 290.699,303.508 289.366,304.008 287.5,303C 286.833,304.333 286.167,305.667 285.5,307C 282.044,308.041 278.544,308.875 275,309.5C 270.651,308.736 266.818,307.069 263.5,304.5C 262.764,298.729 259.764,296.729 254.5,298.5C 253.833,298.167 253.167,297.833 252.5,297.5C 252.567,296.041 252.234,294.708 251.5,293.5C 250.384,288.151 250.384,282.817 251.5,277.5C 252.167,277.5 252.833,277.5 253.5,277.5C 257.457,275.707 260.29,272.707 262,268.5C 262.333,268.833 262.667,269.167 263,269.5C 264.314,267.188 265.981,265.188 268,263.5C 271.444,262.685 274.944,262.685 278.5,263.5 Z"/></g>
<g><path style="opacity:1" fill="#0b2336" d="M 282.5,260.5 C 285.076,261.488 287.743,262.488 290.5,263.5C 293.851,265.854 296.518,268.854 298.5,272.5C 299.843,275.543 301.177,278.543 302.5,281.5C 302.635,286.953 301.968,292.286 300.5,297.5C 298.75,298.659 297.75,300.326 297.5,302.5C 295.5,303.833 293.833,305.5 292.5,307.5C 288.408,309.176 284.408,310.843 280.5,312.5C 275.359,312.655 270.359,311.988 265.5,310.5C 264.738,308.738 263.404,307.738 261.5,307.5C 259.833,306.167 258.167,304.833 256.5,303.5C 256.573,301.973 255.906,300.973 254.5,300.5C 254.5,299.833 254.5,299.167 254.5,298.5C 259.764,296.729 262.764,298.729 263.5,304.5C 266.818,307.069 270.651,308.736 275,309.5C 278.544,308.875 282.044,308.041 285.5,307C 286.167,305.667 286.833,304.333 287.5,303C 289.366,304.008 290.699,303.508 291.5,301.5C 292.853,299.485 292.353,297.818 290,296.5C 289.333,290.5 289.333,284.5 290,278.5C 293.771,278.07 295.105,276.07 294,272.5C 290.195,266.841 285.028,263.841 278.5,263.5C 274.944,262.685 271.444,262.685 268,263.5C 265.981,265.188 264.314,267.188 263,269.5C 262.667,269.167 262.333,268.833 262,268.5C 260.29,272.707 257.457,275.707 253.5,277.5C 254.167,275.167 254.833,272.833 255.5,270.5C 257.833,268.833 259.833,266.833 261.5,264.5C 263.027,264.573 264.027,263.906 264.5,262.5C 264.833,262.5 265.167,262.5 265.5,262.5C 271.085,261.274 276.752,260.607 282.5,260.5 Z"/></g>
<g><path style="opacity:1" fill="#44525d" d="M 255.5,270.5 C 254.833,272.833 254.167,275.167 253.5,277.5C 252.833,277.5 252.167,277.5 251.5,277.5C 252.079,274.669 253.412,272.336 255.5,270.5 Z"/></g>
<g><path style="opacity:1" fill="#63727f" d="M 298.5,272.5 C 301.149,274.412 302.482,277.079 302.5,280.5C 302.5,280.833 302.5,281.167 302.5,281.5C 301.177,278.543 299.843,275.543 298.5,272.5 Z"/></g>
<g><path style="opacity:1" fill="#02203a" d="M 278.5,263.5 C 285.028,263.841 290.195,266.841 294,272.5C 295.105,276.07 293.771,278.07 290,278.5C 289.333,284.5 289.333,290.5 290,296.5C 292.353,297.818 292.853,299.485 291.5,301.5C 288.297,301.318 286.464,299.652 286,296.5C 285.501,290.843 285.334,285.176 285.5,279.5C 279.771,279.788 274.104,279.454 268.5,278.5C 267.67,284.472 267.17,290.472 267,296.5C 265.989,297.337 264.822,297.67 263.5,297.5C 263.5,290.833 263.5,284.167 263.5,277.5C 264.675,277.719 265.675,277.386 266.5,276.5C 265.572,275.232 265.405,273.899 266,272.5C 266.674,273.578 267.674,274.245 269,274.5C 271.824,273.946 274.657,273.446 277.5,273C 276.062,272.781 274.729,272.281 273.5,271.5C 274.989,271.467 276.322,270.967 277.5,270C 274.79,268.253 271.79,267.253 268.5,267C 271.438,264.743 274.771,263.576 278.5,263.5 Z"/></g>
<g><path style="opacity:1" fill="#697882" d="M 261.5,264.5 C 259.833,266.833 257.833,268.833 255.5,270.5C 256.5,267.5 258.5,265.5 261.5,264.5 Z"/></g>
<g><path style="opacity:1" fill="#617079" d="M 264.5,262.5 C 264.027,263.906 263.027,264.573 261.5,264.5C 261.973,263.094 262.973,262.427 264.5,262.5 Z"/></g>
<g><path style="opacity:1" fill="#4b5961" d="M 282.5,260.5 C 276.752,260.607 271.085,261.274 265.5,262.5C 265.611,261.883 265.944,261.383 266.5,261C 271.964,259.542 277.297,259.375 282.5,260.5 Z"/></g>
<g><path style="opacity:1" fill="#041e3c" d="M 16.5,357.5 C 14.914,354.297 14.2473,350.797 14.5,347C 14.5022,343.979 14.8356,341.146 15.5,338.5C 15.4346,338.938 15.6012,339.272 16,339.5C 17.3597,337.496 19.193,336.663 21.5,337C 22.9801,339.247 23.6467,341.747 23.5,344.5C 23.1404,348.517 22.6404,352.517 22,356.5C 20.3005,357.406 18.4672,357.739 16.5,357.5 Z"/></g>
<g><path style="opacity:1" fill="#2e4153" d="M 35.5,347.5 C 36.4878,350.076 37.4878,352.743 38.5,355.5C 37.5272,354.209 36.5272,354.209 35.5,355.5C 34.4777,355.145 33.811,354.478 33.5,353.5C 33.81,352.262 34.31,352.262 35,353.5C 35.4955,351.527 35.6621,349.527 35.5,347.5 Z"/></g>
<g><path style="opacity:1" fill="#929fa4" d="M 387.5,49.5 C 388.499,148.665 388.833,247.999 388.5,347.5C 388.785,350.829 388.118,353.829 386.5,356.5C 387.491,254.189 387.824,151.855 387.5,49.5 Z"/></g>
<g><path style="opacity:1" fill="#99abb3" d="M 40.5,357.5 C 41.1667,357.5 41.8333,357.5 42.5,357.5C 43.5,358.833 44.5,360.167 45.5,361.5C 43.2512,360.92 41.5846,359.587 40.5,357.5 Z"/></g>
<g><path style="opacity:1" fill="#586779" d="M 361.5,352.5 C 361.392,354.783 360.559,356.783 359,358.5C 358.329,359.252 357.496,359.586 356.5,359.5C 356.833,358.833 357.167,358.167 357.5,357.5C 358.833,355.833 360.167,354.167 361.5,352.5 Z"/></g>
<g><path style="opacity:1" fill="#6d7d87" d="M 12.5,357.5 C 13.5,357.833 14.1667,358.5 14.5,359.5C 14.5,360.5 14.5,361.5 14.5,362.5C 13.4625,361.07 12.7959,359.403 12.5,357.5 Z"/></g>
<g><path style="opacity:1" fill="#dce6e9" d="M 42.5,357.5 C 48.0122,358.898 53.3455,360.065 58.5,361C 153.167,361.667 247.833,361.667 342.5,361C 347.579,360.071 352.579,358.904 357.5,357.5C 357.167,358.167 356.833,358.833 356.5,359.5C 353.128,361.186 349.795,362.853 346.5,364.5C 247.499,364.667 148.499,364.5 49.5,364C 47.9336,363.392 46.6002,362.558 45.5,361.5C 44.5,360.167 43.5,358.833 42.5,357.5 Z"/></g>
<g><path style="opacity:1" fill="#1b2d3c" d="M 14.5,359.5 C 18.3576,359.86 20.3576,362.027 20.5,366C 19.9781,366.561 19.6448,367.228 19.5,368C 21.0625,370.06 23.0625,371.56 25.5,372.5C 26.0736,374.059 26.7402,375.559 27.5,377C 30.2263,377.182 32.8929,377.682 35.5,378.5C 36.7802,380.182 36.7802,381.848 35.5,383.5C 26.1352,378.802 19.1352,371.802 14.5,362.5C 14.5,361.5 14.5,360.5 14.5,359.5 Z"/></g>
<g><path style="opacity:1" fill="#31404f" d="M 356.5,359.5 C 355.473,361.184 354.473,362.851 353.5,364.5C 351.167,364.5 348.833,364.5 346.5,364.5C 349.795,362.853 353.128,361.186 356.5,359.5 Z"/></g>
<g><path style="opacity:1" fill="#0d2439" d="M 16.5,35.5 C 16.8039,36.1499 17.1373,36.8165 17.5,37.5C 16.7463,40.777 16.2463,44.1103 16,47.5C 15.5,144.499 15.3333,241.499 15.5,338.5C 14.8356,341.146 14.5022,343.979 14.5,347C 14.2473,350.797 14.914,354.297 16.5,357.5C 17.9187,358.451 19.5853,358.784 21.5,358.5C 21.3505,359.552 21.5172,360.552 22,361.5C 22.9234,360.241 23.7568,358.908 24.5,357.5C 25.086,357.709 25.586,358.043 26,358.5C 26.4505,355.894 27.9505,354.561 30.5,354.5C 30.6941,350.995 31.6941,350.662 33.5,353.5C 33.811,354.478 34.4777,355.145 35.5,355.5C 36.5272,354.209 37.5272,354.209 38.5,355.5C 39.1667,356.167 39.8333,356.833 40.5,357.5C 41.5846,359.587 43.2512,360.92 45.5,361.5C 46.6002,362.558 47.9336,363.392 49.5,364C 148.499,364.5 247.499,364.667 346.5,364.5C 348.833,364.5 351.167,364.5 353.5,364.5C 355.377,364.9 356.877,365.9 358,367.5C 358.772,367.355 359.439,367.022 360,366.5C 364.135,369.986 364.635,373.986 361.5,378.5C 362.591,379.888 363.924,380.388 365.5,380C 365.167,379.667 364.833,379.333 364.5,379C 365.833,378.667 367.167,378.333 368.5,378C 370.235,375.604 372.235,374.771 374.5,375.5C 371.81,378.185 368.81,380.518 365.5,382.5C 362.18,383.393 359.18,384.727 356.5,386.5C 355.833,386.5 355.167,386.5 354.5,386.5C 251.848,387.487 149.182,387.82 46.5,387.5C 44.4855,386.076 42.1522,385.41 39.5,385.5C 37.5168,385.843 36.1834,385.176 35.5,383.5C 36.7802,381.848 36.7802,380.182 35.5,378.5C 32.8929,377.682 30.2263,377.182 27.5,377C 26.7402,375.559 26.0736,374.059 25.5,372.5C 23.0625,371.56 21.0625,370.06 19.5,368C 19.6448,367.228 19.9781,366.561 20.5,366C 20.3576,362.027 18.3576,359.86 14.5,359.5C 14.1667,358.5 13.5,357.833 12.5,357.5C 12.7678,355.901 12.4345,354.568 11.5,353.5C 11.5,352.167 11.5,350.833 11.5,349.5C 10.3342,249.001 10.1675,148.334 11,47.5C 11.813,45.5643 12.313,43.5643 12.5,41.5C 13.3229,39.1954 14.6563,37.1954 16.5,35.5 Z"/></g>
<g><path style="opacity:1" fill="#091b28" d="M 11.5,349.5 C 11.3333,250.166 11.5,150.833 12,51.5C 13.153,102.136 13.653,152.803 13.5,203.5C 13.4999,252.505 12.8333,301.171 11.5,349.5 Z"/></g>
<g><path style="opacity:1" fill="#acb4ba" d="M 384.5,362.5 C 384.408,364.848 383.408,366.514 381.5,367.5C 381.75,365.326 382.75,363.659 384.5,362.5 Z"/></g>
<g><path style="opacity:1" fill="#01203a" d="M 347.5,367.5 C 349.844,367.506 351.178,368.673 351.5,371C 351.294,372.865 350.628,374.532 349.5,376C 350.424,377.15 350.424,378.15 349.5,379C 352.167,379.667 352.167,380.333 349.5,381C 349.833,381.333 350.167,381.667 350.5,382C 349.167,382.333 347.833,382.667 346.5,383C 346.833,383.333 347.167,383.667 347.5,384C 346.167,384.333 344.833,384.667 343.5,385C 244.501,385.5 145.501,385.667 46.5,385.5C 46.628,383.345 46.128,381.345 45,379.5C 42.9521,380.423 41.1188,379.923 39.5,378C 41.9508,377.694 44.2842,378.194 46.5,379.5C 147.402,380.359 248.069,380.859 348.5,381C 346.845,379.556 346.178,377.722 346.5,375.5C 247.166,375.667 147.833,375.5 48.5,375C 47.5939,373.301 47.2606,371.467 47.5,369.5C 146.834,369.667 246.167,369.5 345.5,369C 346.416,368.722 347.082,368.222 347.5,367.5 Z"/></g>
<g><path style="opacity:1" fill="#8b949c" d="M 381.5,367.5 C 381.573,369.027 380.906,370.027 379.5,370.5C 379.427,368.973 380.094,367.973 381.5,367.5 Z"/></g>
<g><path style="opacity:1" fill="#eff4f6" d="M 9.5,350.5 C 10.1667,351.5 10.8333,352.5 11.5,353.5C 12.4345,354.568 12.7678,355.901 12.5,357.5C 12.7959,359.403 13.4625,361.07 14.5,362.5C 19.1352,371.802 26.1352,378.802 35.5,383.5C 36.1834,385.176 37.5168,385.843 39.5,385.5C 41.4385,387.163 43.7718,387.829 46.5,387.5C 47.209,388.404 48.209,388.737 49.5,388.5C 49.5,388.833 49.5,389.167 49.5,389.5C 46.4752,389.123 43.4752,388.956 40.5,389C 42.0009,390.252 43.6675,391.252 45.5,392C 42.591,391.716 39.7577,391.883 37,392.5C 35.3804,390.759 33.8804,388.925 32.5,387C 28.4342,386.426 24.7676,385.093 21.5,383C 19.6277,380.707 18.1277,378.207 17,375.5C 15.9505,376.517 14.7839,376.684 13.5,376C 12.0273,373.033 10.3607,370.2 8.5,367.5C 9.72526,365.108 10.7253,362.608 11.5,360C 10.8333,359.333 10.1667,358.667 9.5,358C 9.73745,355.712 9.73745,353.212 9.5,350.5 Z"/></g>
<g><path style="opacity:1" fill="#dbe6eb" d="M 374.5,375.5 C 374.833,375.5 375.167,375.5 375.5,375.5C 374.277,377.872 373.277,380.372 372.5,383C 370.527,383.495 368.527,383.662 366.5,383.5C 366.649,384.552 366.483,385.552 366,386.5C 364.989,385.663 363.822,385.33 362.5,385.5C 363.9,384.9 364.9,383.9 365.5,382.5C 368.81,380.518 371.81,378.185 374.5,375.5 Z"/></g>
<g><path style="opacity:1" fill="#79838c" d="M 365.5,382.5 C 364.9,383.9 363.9,384.9 362.5,385.5C 360.901,385.232 359.568,385.566 358.5,386.5C 357.833,386.5 357.167,386.5 356.5,386.5C 359.18,384.727 362.18,383.393 365.5,382.5 Z"/></g>
<g><path style="opacity:1" fill="#4d5b6b" d="M 39.5,385.5 C 42.1522,385.41 44.4855,386.076 46.5,387.5C 43.7718,387.829 41.4385,387.163 39.5,385.5 Z"/></g>
<g><path style="opacity:1" fill="#293a46" d="M 354.5,386.5 C 353.048,387.302 351.382,387.802 349.5,388C 249.501,388.5 149.501,388.667 49.5,388.5C 48.209,388.737 47.209,388.404 46.5,387.5C 149.182,387.82 251.848,387.487 354.5,386.5 Z"/></g>
<g><path style="opacity:1" fill="#a2adb4" d="M 354.5,386.5 C 355.167,386.5 355.833,386.5 356.5,386.5C 357.167,386.5 357.833,386.5 358.5,386.5C 358.389,387.117 358.056,387.617 357.5,388C 355.5,388.333 353.5,388.667 351.5,389C 250.834,389.5 150.167,389.667 49.5,389.5C 49.5,389.167 49.5,388.833 49.5,388.5C 149.501,388.667 249.501,388.5 349.5,388C 351.382,387.802 353.048,387.302 354.5,386.5 Z"/></g>
<g><path style="opacity:1" fill="#e6edf0" d="M 362.5,385.5 C 359.621,388.776 355.954,390.776 351.5,391.5C 250.675,390.845 150.008,390.178 49.5,389.5C 150.167,389.667 250.834,389.5 351.5,389C 353.5,388.667 355.5,388.333 357.5,388C 358.056,387.617 358.389,387.117 358.5,386.5C 359.568,385.566 360.901,385.232 362.5,385.5 Z"/></g>
</svg>
